<svg width="336" height="343" viewBox="0 0 336 343" fill="none" xmlns="http://www.w3.org/2000/svg">
<path d="M249.741 339.84C248.333 339.985 81.9729 363.449 29.0445 265.171C-23.8838 166.893 153.336 193.336 133.961 124.809C114.585 56.2829 211.478 -8.45805 291.329 64.318C371.18 137.094 228.949 249.101 294.639 247.684C360.328 246.268 348.043 329.44 249.741 339.84Z" fill="#FCD0AE"/>
<path d="M248.667 278.872C253.059 289.748 256.254 298.787 256.144 303.04C269.522 301.38 277.837 298.346 278.214 294.222C278.679 289.182 267.161 283.594 248.667 278.872Z" fill="#191919" stroke="#191919" stroke-width="1.66" stroke-linecap="round"/>
<path d="M127.681 270.609C116.86 272.352 110.281 275.154 109.946 278.809C109.604 282.532 115.778 286.549 126.426 290.287C126.217 287.336 126.713 280.143 127.681 270.609Z" fill="#191919" stroke="#191919" stroke-width="1.66" stroke-linecap="round"/>
<path d="M110.725 187.339C106.822 178.812 120.865 103.919 115.195 99.1691C112.264 98.8976 113.731 104.552 110.796 104.985C108.022 102.431 97.2639 99.114 96.8822 104.009C96.5005 108.904 104.654 117.388 101.883 124.278C99.1999 130.967 46.0354 224.933 75.0159 262.554C101.159 250.541 108.718 205.423 110.725 187.339V187.339Z" fill="#88B2FC"/>
<path d="M92.6051 246.421C81.2765 230.115 89.6972 191.584 98.8065 162.702C109.592 128.571 104.681 113.791 104.681 113.791C104.681 113.791 103.458 109.549 100.109 103.332C99.7838 102.744 99.3873 102.198 98.9285 101.707C97.748 102.03 96.961 102.742 96.8627 104.009C96.4692 108.9 104.634 117.388 101.864 124.278C99.1803 130.967 46.0159 224.932 74.9964 262.554C82.1894 259.257 87.9619 253.46 92.6051 246.421V246.421Z" fill="#6EA5F4"/>
<path d="M168.131 155.202C168.131 155.202 129.491 155.08 112.535 187.724C111.713 188.393 111.126 188.216 110.725 187.331C108.718 205.431 101.159 250.521 75.0159 262.546C76.0018 263.833 77.0802 265.045 78.2425 266.174C114.109 300.955 156.5 255.519 156.5 255.519C156.5 255.519 162.182 238.422 167.431 218.33C171.279 198.262 174.097 178.194 175.875 164.028C175.155 157.791 172.83 154.258 168.131 155.202V155.202Z" fill="#EF50AB"/>
<path d="M144.109 189.224C128.676 189.224 123.459 261.398 100.849 252.922C97.487 251.664 94.5994 249.392 92.5854 246.421C87.9422 253.461 82.1697 259.257 74.9963 262.554C75.9823 263.841 77.0607 265.053 78.223 266.182C98.472 285.818 120.803 279.884 136.408 270.995C142.496 247.669 156.465 189.224 144.109 189.224Z" fill="#D33597"/>
<path d="M114.582 278.872C114.582 278.872 129.491 250.049 131.934 220.215C133.08 202.535 136.829 188.909 141.229 192.67C145.628 196.432 130.959 273.867 130.959 273.867C130.959 273.867 119.209 278.908 114.582 278.872V278.872Z" fill="#191919" stroke="#191919" stroke-width="1.66" stroke-linecap="round"/>
<path d="M241.502 177.702C227.155 151.381 187.704 153.349 187.704 153.349L194.082 210.739C194.082 210.739 249.883 299.042 289.921 269.979C268.247 254.96 257.324 209.008 254.81 197.219C252.996 196.448 248.986 191.427 241.502 177.702V177.702Z" fill="#EF50AB"/>
<path d="M278.986 258.887C251.028 263.062 233.164 222.945 233.164 222.945C219.454 214.013 218.565 228.655 221.867 246.075C241.478 266.713 268.051 285.853 289.94 269.979C285.911 267.201 282.271 263.365 278.986 258.887V258.887Z" fill="#D33597"/>
<path fill-rule="evenodd" clip-rule="evenodd" d="M241.502 177.702C227.155 151.381 187.704 153.349 187.704 153.349L194.082 210.739C194.082 210.739 249.883 299.042 289.921 269.979C268.247 254.96 257.324 209.008 254.81 197.219C252.996 196.448 248.986 191.427 241.502 177.702V177.702Z" stroke="#191919" stroke-width="1.66" stroke-linecap="round"/>
<path d="M289.921 269.979C290.314 269.7 290.684 269.417 291.066 269.114C331.174 237.485 265.253 150.527 262.262 138.951C259.272 127.374 273.28 122.704 272.776 121.862C272.273 121.02 267.779 122.078 267.779 122.078C267.779 122.078 275.047 120.012 274.15 118.788C273.252 117.565 265.957 119.359 265.957 119.359C265.957 119.359 271.013 117.525 269.746 116.727C268.479 115.928 263.266 117.974 263.266 117.974C263.266 117.974 264.367 117.443 263.836 116.75C258.253 116.262 250.741 123.68 250.741 123.68C250.741 123.68 246.719 118.029 244.327 119.225C241.934 120.421 247.805 121.397 247.589 134.571C244.87 159.57 253.456 185.764 255.415 192.068C256.348 195.086 256.49 197.947 254.809 197.239C257.324 209.008 268.247 254.96 289.921 269.979V269.979Z" fill="#88B2FC"/>
<path d="M291.054 192.556C295.776 206.407 307.23 245.913 288.673 255.747C285.69 257.362 282.465 258.484 279.123 259.072C282.374 263.471 285.966 267.241 289.921 269.979C290.314 269.7 290.684 269.417 291.066 269.114C312.102 252.528 303.972 220.722 291.054 192.556V192.556Z" fill="#6EA5F4"/>
<path fill-rule="evenodd" clip-rule="evenodd" d="M289.921 269.979C290.314 269.7 290.684 269.417 291.066 269.114C331.174 237.485 265.253 150.527 262.262 138.951C259.272 127.374 273.28 122.704 272.776 121.862C272.273 121.02 267.779 122.078 267.779 122.078C267.779 122.078 275.047 120.012 274.15 118.788C273.252 117.565 265.957 119.359 265.957 119.359C265.957 119.359 271.013 117.525 269.746 116.727C268.479 115.928 263.266 117.974 263.266 117.974C263.266 117.974 264.367 117.443 263.836 116.75C258.253 116.262 250.741 123.68 250.741 123.68C250.741 123.68 246.719 118.029 244.327 119.225C241.934 120.421 247.805 121.397 247.589 134.571C244.87 159.57 253.456 185.764 255.415 192.068C256.348 195.086 256.49 197.947 254.809 197.239C257.324 209.008 268.247 254.96 289.921 269.979V269.979Z" stroke="#191919" stroke-width="1.66"/>
<path d="M191.127 153.349C191.127 153.349 152.317 156.95 145.793 165.103C140.839 171.296 131.183 236.206 127.692 270.621C126.724 280.151 126.229 287.344 126.437 290.296C141.465 295.568 165.412 300.271 192.607 302.761C217.707 305.063 240.431 305.004 256.155 303.052C256.281 298.799 253.086 289.76 248.679 278.884C241.112 260.138 229.984 235.982 226.175 221.506C242.478 193.465 215.579 183.03 215.579 183.03" fill="#EF50AB"/>
<path d="M219.108 292.92C219.978 280.529 195.196 277.704 163.205 277.92C131.214 278.137 137.927 197.097 137.939 196.959C133.862 220.081 129.723 250.541 127.681 270.609C126.968 277.625 126.5 283.366 126.406 287.092C126.614 288.273 126.835 289.402 127.071 290.508C142.13 295.69 165.782 300.298 192.595 302.753C217.696 305.055 240.42 304.996 256.143 303.044C254.263 292.959 218.239 305.311 219.108 292.92V292.92Z" fill="#D33597"/>
<path d="M226.175 221.505C226.175 221.505 223.24 226.479 215.087 225.255C206.934 224.031 201.228 217.511 201.228 217.511C201.622 220.856 210.357 237.922 228.82 229.997C227.568 226.003 226.175 221.505 226.175 221.505Z" fill="#D33597"/>
<path d="M173.51 155.71L172.373 155.903C171.248 155.116 169.843 154.864 168.116 155.21C168.116 155.21 146.155 155.143 128.082 169.096C131.926 173.515 139.462 180.633 147.41 179.614C158.821 178.147 165.511 164.123 172.68 176.352C179.85 188.582 186.704 191.344 193.224 187.37C197.954 184.462 184.481 165.85 173.51 155.71V155.71Z" fill="#D33597"/>
<path d="M138.809 192.127C134.461 215.682 129.869 249.105 127.681 270.613C126.713 280.143 126.217 287.336 126.426 290.287C141.453 295.56 165.401 300.262 192.595 302.753C217.696 305.055 240.42 304.996 256.144 303.044C256.269 298.791 253.074 289.752 248.667 278.876C241.112 260.138 229.984 235.982 226.175 221.505C242.478 193.465 215.579 183.03 215.579 183.03" stroke="#191919" stroke-width="1.66" stroke-linecap="round"/>
<path d="M175.871 164.024C175.151 157.791 172.826 154.258 168.128 155.202C168.128 155.202 129.487 155.08 112.531 187.724C111.709 188.393 111.123 188.216 110.721 187.331C108.714 205.431 101.155 250.521 75.012 262.546C75.9979 263.833 77.0763 265.045 78.2386 266.174C94.9619 282.39 113.106 281.17 127.708 275.225" stroke="#191919" stroke-width="1.66" stroke-linecap="round"/>
<path d="M233.187 223.953C232.208 219.715 246.393 193.3 215.579 183.03C215.579 183.03 242.478 193.465 226.175 221.505C229.06 232.46 236.146 248.991 242.702 264.506C248.998 268.952 255.541 272.462 262.081 274.343C236.937 246.94 233.986 227.412 233.187 223.953V223.953Z" fill="#191919" stroke="#191919" stroke-width="1.66" stroke-linecap="round"/>
<path d="M172.696 95.4113C172.696 95.4113 192.697 92.8694 200.414 107.244C208.13 121.618 194.759 130.747 184.528 122.704C174.298 114.661 172.696 95.4113 172.696 95.4113Z" fill="#0C4891"/>
<path d="M172.696 95.4113C172.696 95.4113 192.697 92.8694 200.414 107.244C208.13 121.618 194.759 130.747 184.528 122.704C174.298 114.661 172.696 95.4113 172.696 95.4113Z" fill="#0C4891"/>
<path d="M197.533 124.506C197.533 124.506 199.926 113.543 193.893 109.117C194.082 112.025 194.68 114.342 191.261 118.36C191.611 122.539 197.533 124.506 197.533 124.506Z" fill="#191919" stroke="#191919" stroke-width="1.66" stroke-linecap="round"/>
<path fill-rule="evenodd" clip-rule="evenodd" d="M172.696 95.4113C172.696 95.4113 192.697 92.8694 200.414 107.244C208.13 121.618 194.759 130.747 184.528 122.704C174.298 114.661 172.696 95.4113 172.696 95.4113Z" stroke="#191919" stroke-width="1.66"/>
<path d="M186.826 109.77C186.826 109.77 213.584 134.497 189.435 147.269C191.174 153.679 200.307 183.514 193.24 187.346C186.173 191.179 169.654 164.658 168.132 155.202C166.609 145.746 156.5 95.5292 186.826 109.77Z" fill="#88B2FC" stroke="#191919" stroke-width="1.66"/>
<path d="M182.915 96.6156C182.915 96.6156 191.827 98.2446 193.893 109.117C195.959 119.989 180.515 127.379 172.153 126.072C175.631 132.592 175.742 137.594 175.742 137.594C175.742 137.594 168.568 125.746 168.458 130.637C168.348 135.528 178.567 165.095 151.829 171.509C125.092 177.922 124.002 149.331 141.284 138.247C158.566 127.162 159.109 122.81 157.913 111.072C156.716 99.3346 169.969 92.1613 182.915 96.6156V96.6156Z" fill="#0C4891"/>
<path d="M189.435 100.318L168.875 96.1787C162.005 98.2603 157.173 103.769 157.913 111.072C159.093 122.81 158.566 127.158 141.284 138.247C124.002 149.335 125.088 177.918 151.829 171.509C156.047 170.493 159.345 168.904 161.91 166.928C164.043 164.529 166.038 162.012 167.888 159.389C167.888 159.389 158.015 173.488 144.491 165.5C130.966 157.512 151.093 140.474 160.958 129.299C170.823 118.124 157.861 105.902 171.067 107.236C184.272 108.57 189.435 100.318 189.435 100.318Z" fill="#093868"/>
<path d="M193.893 109.117C195.959 119.985 180.515 127.379 172.153 126.072C175.631 132.592 175.742 137.594 175.742 137.594C175.742 137.594 168.568 125.746 168.458 130.637C168.348 135.528 178.567 165.095 151.829 171.509C125.092 177.922 124.002 149.331 141.284 138.247C158.566 127.162 159.109 122.81 157.913 111.072C156.716 99.3346 169.969 92.1613 182.915 96.6156" stroke="#191919" stroke-width="1.66" stroke-linecap="round"/>
<path d="M250.961 123.896C250.961 123.896 260.307 124.715 256.718 132.215Z" fill="#88B2FC"/>
<path d="M250.961 123.896C250.961 123.896 260.307 124.715 256.718 132.215" stroke="#191919" stroke-width="1.66" stroke-linecap="round"/>
<path d="M263.486 117.892C263.486 117.892 258.54 120.253 256.065 122.594Z" fill="#88B2FC"/>
<path d="M263.486 117.892C263.486 117.892 258.54 120.253 256.065 122.594" stroke="#191919" stroke-width="1.66" stroke-linecap="round"/>
<path d="M266.96 118.966C266.96 118.966 264.163 119.93 259.382 122.948Z" fill="#88B2FC"/>
<path d="M266.96 118.966C266.96 118.966 264.163 119.93 259.382 122.948" stroke="#191919" stroke-width="1.66" stroke-linecap="round"/>
<path d="M268.558 121.842C268.558 121.842 264.273 123.164 261.991 124.549Z" fill="#88B2FC"/>
<path d="M268.558 121.842C268.558 121.842 264.273 123.164 261.991 124.549" stroke="#191919" stroke-width="1.66" stroke-linecap="round"/>
<path d="M113.613 62.3779C113.613 62.3779 113.185 127.43 111.733 127.268C110.281 127.107 84.0151 67.1037 84.0151 67.1037L113.613 62.3779Z" fill="#4CFCE2"/>
<path d="M113.031 103.985C111.129 102.852 108.689 103.236 107.229 104.9C105.768 106.564 105.702 109.033 107.073 110.772C108.443 112.511 110.859 113.024 112.819 111.993C112.913 109.483 112.968 106.787 113.031 103.985Z" fill="white"/>
<path d="M98.6649 81.3401C101.547 81.3401 103.883 79.0041 103.883 76.1225C103.883 73.2408 101.547 70.9048 98.6649 70.9048C95.7833 70.9048 93.4473 73.2408 93.4473 76.1225C93.4473 79.0041 95.7833 81.3401 98.6649 81.3401Z" fill="white"/>
<path d="M113.491 75.501C108.762 76.3895 105.312 80.4871 105.244 85.2991C105.175 90.1112 108.506 94.3056 113.208 95.329C113.334 88.313 113.428 81.2695 113.491 75.501V75.501Z" fill="white"/>
<path d="M94.5017 86.062C93.8143 86.0612 93.1287 86.1311 92.4556 86.2706C95.0054 92.0037 97.8424 98.3468 100.542 104.296C104.048 101.695 105.489 97.1386 104.116 92.9948C102.744 88.851 98.8669 86.0557 94.5017 86.062V86.062Z" fill="white"/>
<path fill-rule="evenodd" clip-rule="evenodd" d="M113.613 62.3779C113.613 62.3779 113.185 127.43 111.733 127.268C110.281 127.107 84.0151 67.1037 84.0151 67.1037L113.613 62.3779Z" stroke="#191919" stroke-width="1.66"/>
<path d="M110.796 104.985C108.022 102.431 97.2639 99.1142 96.8822 104.009C96.5005 108.904 104.654 117.388 101.883 124.278C99.1999 130.967 46.0354 224.933 75.0159 262.554C101.159 250.529 108.718 205.423 110.725 187.339C106.822 178.812 120.865 103.919 115.195 99.1693C113.767 99.0394 113.381 100.314 113.023 101.707" stroke="#191919" stroke-width="1.66" stroke-linecap="round"/>
<path opacity="0.24" d="M108.215 108.436C106.582 95.7184 87.1827 78.5307 95.4971 73.2776C108.569 70.3618 112.523 66.4388 113.598 63.7827C113.598 62.8816 113.598 62.3779 113.598 62.3779L83.9875 67.0998C83.9875 67.0998 110.253 127.103 111.733 127.268C112.209 122.948 109.844 121.154 108.215 108.436Z" fill="#141414"/>
<path d="M104.925 116.617C104.925 116.617 111.123 117.105 111.013 116.29C110.902 115.476 104.681 113.791 104.681 113.791C104.681 113.791 112.59 114.606 112.484 113.355C112.378 112.103 105.091 110.962 105.091 110.962C105.091 110.962 114.377 111.356 113.562 110.258C112.748 109.16 103.296 106.524 103.296 106.524C103.296 106.524 114.109 107.555 111.052 104.95C96.4691 96.2025 96.8862 104.029 96.8862 104.029C97.5788 104.462 101.329 106.839 102.509 109.766C103.69 112.694 104.925 116.617 104.925 116.617Z" fill="#88B2FC"/>
<path d="M99.2676 67.9938C107.583 66.7361 114.08 64.1019 113.779 62.11C113.478 60.1181 106.492 59.5229 98.1767 60.7805C89.8611 62.0381 83.3641 64.6724 83.6653 66.6643C83.9666 68.6562 90.952 69.2514 99.2676 67.9938Z" fill="#191919" stroke="#191919" stroke-width="1.66"/>
<path d="M105.551 118.722C103.513 118.474 104.709 116.601 104.925 116.629C104.925 116.629 111.123 117.116 111.013 116.302C110.902 115.487 104.681 113.803 104.681 113.803C104.681 113.803 112.59 114.618 112.484 113.367C112.378 112.115 105.091 110.974 105.091 110.974C105.091 110.974 114.377 111.368 113.562 110.27C112.748 109.172 103.296 106.524 103.296 106.524C103.296 106.524 114.109 107.555 111.052 104.95C96.4691 96.2025 96.8862 104.029 96.8862 104.029" stroke="#191919" stroke-width="1.66" stroke-linecap="round"/>
<path d="M160.958 61.1816L162.269 99.8342C162.269 99.8342 178.008 111.163 191.501 98.6104C184.871 84.1379 160.801 56.4952 160.958 61.1816V61.1816Z" fill="#F9C41C"/>
<path d="M182.954 98.5669C185.556 98.1877 188.12 97.5874 190.619 96.7726C189.868 95.3127 188.979 93.7545 187.979 92.1333C185.857 92.7668 183.685 93.2196 181.487 93.4869C183.009 94.4155 182.832 96.867 182.954 98.5669V98.5669Z" fill="white"/>
<path d="M175.289 87.2069C178.261 87.2042 181.225 86.8996 184.135 86.2979C183.045 84.7239 181.9 83.15 180.731 81.576C176.695 82.1444 172.594 82.0607 168.584 81.3281C168.977 83.4923 169.371 85.3142 169.764 86.837C171.596 87.08 173.441 87.2035 175.289 87.2069V87.2069Z" fill="white"/>
<path d="M174.561 75.9216C175.128 75.9216 175.706 75.9216 176.293 75.8823C174.786 74.0132 173.29 72.2189 171.854 70.5662C169.865 70.4165 167.892 70.1099 165.952 69.6494C166.483 71.3178 166.994 73.1908 167.455 75.3196C169.803 75.7187 172.18 75.9201 174.561 75.9216Z" fill="white"/>
<path d="M191.501 98.5907C191.312 98.1775 191.107 97.7486 190.883 97.3118C188.78 98.0738 186.734 98.9851 184.76 100.039C180.739 102.105 185.74 91.8344 178.728 93.2471C171.716 94.6597 170.465 92.3775 168.076 78.5738C166.463 69.252 163.783 63.6527 162.213 60.9966C161.391 60.5008 160.935 60.5205 160.958 61.1816L162.268 99.8341C162.268 99.8341 178.024 111.143 191.501 98.5907V98.5907Z" fill="#F7991E"/>
<path d="M161.958 90.6973L162.155 96.4422C166.815 98.1634 171.745 99.0389 176.714 99.0275C178.802 99.0255 180.888 98.8716 182.954 98.5671C182.844 96.8672 183.021 94.4157 181.487 93.4871C174.845 94.3422 168.095 93.378 161.958 90.6973L161.958 90.6973Z" fill="#DDDDDD"/>
<path d="M161.765 84.9915C164.36 85.8689 167.036 86.4884 169.753 86.8409C169.359 85.322 168.966 83.5001 168.572 81.332C166.177 80.9033 163.831 80.2309 161.572 79.3252L161.765 84.9915Z" fill="#DDDDDD"/>
<path d="M161.387 73.8243C163.364 74.4735 165.387 74.9733 167.439 75.3196C166.979 73.2065 166.467 71.3178 165.936 69.6494C164.323 69.2725 162.738 68.782 161.194 68.1816L161.387 73.8243Z" fill="#DDDDDD"/>
<path fill-rule="evenodd" clip-rule="evenodd" d="M160.958 61.1816L162.269 99.8342C162.269 99.8342 178.008 111.163 191.501 98.6104C184.871 84.1379 160.801 56.4952 160.958 61.1816V61.1816Z" stroke="#191919" stroke-width="1.66" stroke-linecap="round"/>
<path d="M245.505 83.9207C244.23 79.6786 246.636 75.2067 250.878 73.9324L266.923 69.1125C271.165 67.8382 275.637 70.2441 276.912 74.4862L278.48 79.7081C279.755 83.9501 277.349 88.422 273.107 89.6963L257.061 94.5162C252.819 95.7905 248.348 93.3847 247.073 89.1426L245.505 83.9207Z" fill="#F9C41C"/>
<path d="M259.775 88.3008C254.082 90.1738 257.233 76.563 257.233 76.563L244.079 79.1403C244.079 79.1836 244.079 79.223 244.103 79.2663L248.47 93.8254C248.71 94.629 249.26 95.304 249.998 95.7006C250.737 96.0973 251.603 96.1829 252.405 95.9385L277.766 88.3205C278.57 88.0821 279.246 87.5325 279.644 86.7938C280.041 86.055 280.127 85.1881 279.883 84.3856L279.832 84.2203C274.941 83.2681 264.064 86.8882 259.775 88.3008V88.3008Z" fill="#F7991E"/>
<path fill-rule="evenodd" clip-rule="evenodd" d="M245.505 83.9207C244.23 79.6786 246.636 75.2067 250.878 73.9324L266.923 69.1125C271.165 67.8382 275.637 70.2441 276.912 74.4862L278.48 79.7081C279.755 83.9501 277.349 88.422 273.107 89.6963L257.061 94.5162C252.819 95.7905 248.348 93.3847 247.073 89.1426L245.505 83.9207Z" stroke="#191919" stroke-width="1.66" stroke-linecap="round"/>
<path d="M244.475 104.825C243.056 100.102 245.735 95.1222 250.459 93.7033L276.805 85.789C281.528 84.3701 286.508 87.049 287.927 91.7724L291.342 103.143C292.761 107.866 290.082 112.845 285.359 114.264L259.013 122.178C254.289 123.597 249.31 120.919 247.891 116.195L244.475 104.825Z" fill="#F9C41C"/>
<path d="M292.899 108.341L291.951 105.158C291.784 105.337 291.636 105.534 291.51 105.744C288.791 110.313 255.423 120.638 256.726 111.942C258.028 103.246 250.43 96.4542 250.43 96.4542C249.753 95.7236 249.04 95.0276 248.293 94.3687L245.287 95.2697C244.394 95.5365 243.643 96.1475 243.2 96.9682C242.757 97.7889 242.659 98.752 242.926 99.6454L249.454 121.394C249.721 122.287 250.332 123.038 251.153 123.481C251.973 123.924 252.936 124.022 253.83 123.755L290.55 112.737C291.446 112.468 292.198 111.853 292.639 111.028C293.08 110.203 293.174 109.236 292.899 108.341V108.341Z" fill="#F7991E"/>
<path d="M245.667 59.2056L247.977 58.5668L251.461 71.1655L249.152 71.8043L245.667 59.2056Z" fill="white"/>
<path d="M248.293 59.71L246.287 61.4334L246.653 62.7674L248.659 61.04L248.293 59.71Z" fill="#F9C41C"/>
<path d="M249.379 63.6328L247.369 65.3602L247.739 66.6902L249.745 64.9628L249.379 63.6328Z" fill="#F9C41C"/>
<path d="M248.825 70.6136L250.832 68.8901L250.462 67.5562L248.455 69.2836L248.825 70.6136Z" fill="#F9C41C"/>
<path fill-rule="evenodd" clip-rule="evenodd" d="M245.667 59.2056L247.977 58.5668L251.461 71.1656L249.152 71.8043L245.667 59.2056Z" stroke="#191919" stroke-width="1.66"/>
<path d="M247.199 57.4199C247.199 57.4199 245.456 58.927 244.622 56.8926C243.788 54.8583 246.79 51.8363 244.563 50.7227C242.336 49.6091 251.311 53.1505 247.199 57.4199V57.4199Z" fill="#F7991E" stroke="#191919" stroke-width="1.66" stroke-linecap="round"/>
<path d="M246.826 58.8954L246.18 56.5659" stroke="#191919" stroke-width="1.66" stroke-linecap="round"/>
<path d="M253.49 56.917L255.799 56.2782L259.284 68.877L256.974 69.5158L253.49 56.917Z" fill="white"/>
<path d="M256.112 57.416L254.105 59.1434L254.471 60.4734L256.482 58.7499L256.112 57.416Z" fill="#F9C41C"/>
<path d="M257.198 61.3394L255.191 63.0668L255.557 64.3968L257.564 62.6733L257.198 61.3394Z" fill="#F9C41C"/>
<path d="M256.643 68.3235L258.65 66.5961L258.284 65.2661L256.273 66.9896L256.643 68.3235Z" fill="#F9C41C"/>
<path fill-rule="evenodd" clip-rule="evenodd" d="M253.49 56.917L255.799 56.2782L259.284 68.877L256.974 69.5158L253.49 56.917Z" stroke="#191919" stroke-width="1.66"/>
<path d="M255.018 55.126C255.018 55.126 253.275 56.637 252.441 54.5987C251.607 52.5604 254.609 49.5423 252.386 48.4288C250.163 47.3152 259.134 50.8566 255.018 55.126V55.126Z" fill="#F7991E" stroke="#191919" stroke-width="1.66" stroke-linecap="round"/>
<path d="M254.644 56.6014L253.999 54.2759" stroke="#191919" stroke-width="1.66" stroke-linecap="round"/>
<path d="M260.492 54.6138L262.802 53.975L266.287 66.5738L263.977 67.2125L260.492 54.6138Z" fill="white"/>
<path d="M263.112 55.1143L261.105 56.8377L261.475 58.1717L263.482 56.4443L263.112 55.1143Z" fill="#F9C41C"/>
<path d="M264.198 59.0376L262.191 60.765L262.557 62.095L264.568 60.3676L264.198 59.0376Z" fill="#F9C41C"/>
<path d="M263.644 66.0179L265.65 64.2944L265.284 62.9604L263.278 64.6879L263.644 66.0179Z" fill="#F9C41C"/>
<path fill-rule="evenodd" clip-rule="evenodd" d="M260.492 54.6138L262.802 53.975L266.286 66.5738L263.977 67.2125L260.492 54.6138Z" stroke="#191919" stroke-width="1.66"/>
<path d="M262.022 52.8237C262.022 52.8237 260.279 54.3347 259.445 52.2964C258.611 50.2582 261.609 47.2401 259.386 46.1265C257.163 45.0129 266.134 48.5544 262.022 52.8237V52.8237Z" fill="#F7991E" stroke="#191919" stroke-width="1.66" stroke-linecap="round"/>
<path d="M261.644 54.2992L261.003 51.9697" stroke="#191919" stroke-width="1.66" stroke-linecap="round"/>
<path fill-rule="evenodd" clip-rule="evenodd" d="M244.475 104.824C243.056 100.101 245.735 95.1217 250.459 93.7029L276.805 85.7885C281.528 84.3697 286.508 87.0485 287.927 91.7719L291.342 103.142C292.761 107.865 290.082 112.845 285.359 114.264L259.012 122.178C254.289 123.597 249.31 120.918 247.891 116.195L244.475 104.824Z" stroke="#191919" stroke-width="1.66" stroke-linecap="round"/>
<path d="M160.958 60.6543C160.958 60.6543 157.59 55.0943 154.328 59.0055C151.066 62.9168 145.848 70.5073 143.46 67.5679C141.071 64.6285 138.675 70.948 143.46 72.9036C148.244 74.8593 160.631 68.4769 160.958 60.6543Z" fill="#EF50AB"/>
<path opacity="0.66" d="M160.958 60.6542C160.958 60.6542 160.864 60.5008 160.699 60.2607C159.912 61.3074 157.692 66.9501 152.699 69.6415C148.988 71.6444 147.135 69.492 146.289 67.7253C145.175 68.3784 144.184 68.465 143.46 67.5757C141.067 64.6521 138.675 70.9558 143.46 72.9115C148.245 74.8671 160.632 68.4768 160.958 60.6542Z" fill="#C62490"/>
<path fill-rule="evenodd" clip-rule="evenodd" d="M160.958 60.6543C160.958 60.6543 157.59 55.0943 154.328 59.0055C151.066 62.9168 145.848 70.5073 143.46 67.5679C141.071 64.6285 138.675 70.948 143.46 72.9036C148.244 74.8593 160.631 68.4769 160.958 60.6543Z" stroke="#191919" stroke-width="1.66" stroke-linecap="round"/>
<path d="M288.016 92.6374C287.461 90.8013 285.527 89.7586 283.688 90.304L247.243 101.247C245.407 101.802 244.364 103.736 244.909 105.575L247.64 114.673C247.986 114.68 248.331 114.635 248.663 114.539C252.331 113.473 250.859 108.42 254.526 107.354C258.194 106.288 259.661 111.336 263.325 110.27C266.988 109.203 265.52 104.151 269.188 103.085C272.855 102.018 274.323 107.071 277.99 106.004C281.657 104.938 280.186 99.8815 283.853 98.8152C286.824 97.9495 288.355 101.097 290.775 101.758L288.016 92.6374Z" fill="#4CFCE2"/>
<path d="M247.207 101.247C245.371 101.802 244.329 103.736 244.874 105.575L247.605 114.673C247.951 114.68 248.296 114.635 248.628 114.539C252.295 113.472 250.824 108.42 254.491 107.354C258.158 106.287 259.626 111.336 263.289 110.269C266.953 109.203 265.485 104.151 269.152 103.084C270.095 102.806 271.111 102.934 271.954 103.438C265.808 95.242 265.914 110.018 260.519 105.272C257.249 102.396 258.347 99.3972 259.732 97.4849L247.207 101.247Z" fill="#19AFAF"/>
<path fill-rule="evenodd" clip-rule="evenodd" d="M288.016 92.6374C287.461 90.8013 285.527 89.7586 283.688 90.304L247.243 101.247C245.407 101.802 244.364 103.736 244.909 105.575L247.64 114.673C247.986 114.68 248.331 114.635 248.663 114.539C252.331 113.473 250.859 108.42 254.526 107.354C258.194 106.288 259.661 111.336 263.325 110.27C266.988 109.203 265.52 104.151 269.188 103.085C272.855 102.018 274.323 107.071 277.99 106.004C281.657 104.938 280.186 99.8815 283.853 98.8152C286.824 97.9495 288.355 101.097 290.775 101.758L288.016 92.6374Z" stroke="#191919" stroke-width="1.66" stroke-linecap="round"/>
<path d="M286.368 86.5972C286.101 85.7036 285.49 84.9527 284.669 84.5098C283.848 84.067 282.885 83.9686 281.992 84.2362L245.271 95.254C244.378 95.5207 243.627 96.1317 243.184 96.9524C242.741 97.7732 242.643 98.7362 242.911 99.6296L245.665 108.798C246.014 108.804 246.361 108.757 246.696 108.66C250.391 107.586 248.907 102.498 252.598 101.42C256.289 100.342 257.773 105.437 261.468 104.363C265.162 103.289 263.679 98.1973 267.37 97.1191C271.061 96.0409 272.544 101.137 276.235 100.062C279.926 98.9882 278.451 93.8964 282.138 92.8183C285.132 91.9486 286.671 95.1202 289.11 95.7852L286.368 86.5972Z" fill="#EF50AB"/>
<path d="M245.271 95.2697C244.378 95.5364 243.627 96.1474 243.184 96.9681C242.741 97.7889 242.643 98.752 242.911 99.6453L245.665 108.814C246.014 108.82 246.361 108.773 246.696 108.676C250.391 107.602 248.907 102.514 252.598 101.436C256.289 100.357 257.773 105.453 261.468 104.379C265.162 103.305 263.679 98.213 267.37 97.1348C268.319 96.8547 269.342 96.9846 270.191 97.4929C263.998 89.2296 264.104 104.123 258.67 99.3423C255.376 96.4423 256.482 93.4399 257.883 91.4961L245.271 95.2697Z" fill="#D33597"/>
<path fill-rule="evenodd" clip-rule="evenodd" d="M286.368 86.5972C286.101 85.7036 285.49 84.9527 284.669 84.5098C283.848 84.067 282.885 83.9686 281.992 84.2362L245.271 95.254C244.378 95.5207 243.627 96.1317 243.184 96.9524C242.741 97.7732 242.643 98.7362 242.911 99.6296L245.665 108.798C246.014 108.804 246.361 108.757 246.696 108.66C250.391 107.586 248.907 102.498 252.598 101.42C256.289 100.342 257.773 105.437 261.468 104.363C265.162 103.289 263.679 98.1973 267.37 97.1191C271.061 96.0409 272.544 101.137 276.235 100.062C279.926 98.9882 278.451 93.8964 282.138 92.8183C285.132 91.9486 286.671 95.1202 289.11 95.7852L286.368 86.5972Z" stroke="#191919" stroke-width="1.66" stroke-linecap="round"/>
<path d="M275.511 69.8304C275.272 69.0268 274.722 68.3518 273.983 67.9551C273.245 67.5585 272.378 67.4729 271.576 67.7173L246.212 75.3353C245.408 75.5745 244.733 76.1244 244.336 76.8631C243.94 77.6018 243.854 78.4682 244.099 79.2702L246.369 86.8252C247.156 84.9916 247.447 82.8038 249.726 82.1388C253.42 81.0645 254.9 86.1563 258.595 85.0781C262.29 84 260.806 78.9161 264.497 77.8379C268.188 76.7598 269.672 81.8554 273.363 80.7773C275.999 80.01 276.007 77.2083 277.132 75.2684L275.511 69.8304Z" fill="#4CFCE2"/>
<path d="M268.558 79.0147C267.33 73.1517 259.437 75.9927 256.482 77.9484C254.625 79.18 253.79 75.8274 253.424 73.1714L246.216 75.3356C245.412 75.5748 244.737 76.1247 244.34 76.8634C243.944 77.6021 243.858 78.4685 244.103 79.2705L246.373 86.8255C247.16 84.9918 247.451 82.804 249.73 82.139C253.424 81.0648 254.904 86.1566 258.599 85.0784C262.294 84.0002 260.81 78.9163 264.501 77.8382C266.166 77.3542 267.381 78.1254 268.554 79.0187L268.558 79.0147Z" fill="#19AFAF"/>
<path fill-rule="evenodd" clip-rule="evenodd" d="M275.511 69.8304C275.272 69.0268 274.722 68.3518 273.983 67.9551C273.245 67.5585 272.378 67.4729 271.576 67.7173L246.212 75.3353C245.408 75.5745 244.733 76.1244 244.336 76.8631C243.94 77.6018 243.854 78.4682 244.099 79.2702L246.369 86.8252C247.156 84.9916 247.447 82.8038 249.726 82.1388C253.42 81.0645 254.9 86.1563 258.595 85.0781C262.29 84 260.806 78.9161 264.497 77.8379C268.188 76.7598 269.672 81.8554 273.363 80.7773C275.999 80.01 276.007 77.2083 277.132 75.2684L275.511 69.8304Z" stroke="#191919" stroke-width="1.66" stroke-linecap="round"/>
<path d="M274.335 65.8011C274.095 64.9975 273.546 64.3225 272.807 63.9259C272.068 63.5292 271.202 63.4436 270.4 63.688L245.043 71.306C244.24 71.5452 243.565 72.0951 243.168 72.8338C242.771 73.5725 242.686 74.4389 242.93 75.2409L245.197 82.792C245.984 80.9583 246.279 78.7705 248.557 78.1095C252.248 77.0352 253.732 82.1231 257.422 81.0488C261.113 79.9746 259.638 74.8828 263.325 73.8086C267.012 72.7344 268.499 77.8222 272.194 76.748C274.831 75.9807 274.838 73.1751 275.964 71.2391L274.335 65.8011Z" fill="#EF50AB"/>
<path d="M267.386 74.9854C266.154 69.1224 258.261 71.9595 255.309 73.9191C253.452 75.1468 252.618 71.7982 252.252 69.1421L245.043 71.3063C244.24 71.5455 243.565 72.0954 243.168 72.8341C242.771 73.5728 242.686 74.4392 242.93 75.2412L245.197 82.7923C245.984 80.9586 246.279 78.7708 248.557 78.1097C252.248 77.0355 253.732 82.1233 257.422 81.0491C261.113 79.9749 259.638 74.8831 263.325 73.8089C264.993 73.3249 266.209 74.0961 267.382 74.9894L267.386 74.9854Z" fill="#D33597"/>
<path fill-rule="evenodd" clip-rule="evenodd" d="M274.335 65.8011C274.095 64.9975 273.546 64.3225 272.807 63.9259C272.068 63.5292 271.202 63.4436 270.4 63.688L245.043 71.306C244.24 71.5452 243.565 72.0951 243.168 72.8338C242.771 73.5725 242.686 74.4389 242.93 75.2409L245.197 82.792C245.984 80.9583 246.279 78.7705 248.557 78.1095C252.248 77.0352 253.732 82.1231 257.422 81.0488C261.113 79.9746 259.638 74.8828 263.325 73.8086C267.012 72.7344 268.499 77.8222 272.194 76.748C274.831 75.9807 274.838 73.1751 275.964 71.2391L274.335 65.8011Z" stroke="#191919" stroke-width="1.66" stroke-linecap="round"/>
<path d="M189.435 147.27C189.435 147.27 184.627 149.768 180.117 149.198C175.608 148.627 184.745 157.957 191.178 153.526C190.305 150.382 189.435 147.27 189.435 147.27Z" fill="#191919" stroke="#191919" stroke-width="1.66" stroke-linecap="round"/>
<path d="M150.232 217.767C150.232 217.767 154.131 229.993 170.508 227.306C186.885 224.618 184.28 203.255 184.28 203.255C184.28 203.255 194.975 229.725 173.778 234.258C152.581 238.791 150.232 217.767 150.232 217.767H150.232Z" fill="#D33597"/>
<path d="M192.677 122.798C192.677 122.798 197.923 130.751 197.793 131.16C197.663 131.569 193.669 132.215 193.669 132.215" stroke="#191919" stroke-width="1.66" stroke-linecap="round"/>
<path d="M184.284 203.255C184.284 203.255 186.885 224.614 170.512 227.306C154.139 229.997 150.236 217.767 150.236 217.767" stroke="#191919" stroke-width="1.66" stroke-linecap="round"/>
<path d="M187.439 127.306C189.372 126.716 190.759 125.649 190.537 124.921C190.315 124.194 188.568 124.082 186.635 124.671C184.702 125.261 183.315 126.329 183.537 127.056C183.759 127.784 185.506 127.895 187.439 127.306Z" fill="white" stroke="#191919" stroke-width="1.66"/>
<path d="M187.912 124.388C189.282 124.18 190.364 124.388 190.533 124.931C190.702 125.474 189.915 126.249 188.66 126.84C187.873 126.875 187.204 126.556 187.035 125.998C186.866 125.439 187.24 124.801 187.912 124.388V124.388Z" fill="#191919"/>
<path d="M200.565 124.093C202.498 123.503 203.885 122.435 203.664 121.708C203.442 120.98 201.695 120.868 199.762 121.458C197.828 122.047 196.441 123.115 196.663 123.843C196.885 124.57 198.632 124.682 200.565 124.093Z" fill="white" stroke="#191919" stroke-width="1.66"/>
<path d="M201.055 121.177C202.428 120.969 203.506 121.158 203.68 121.72C203.853 122.283 203.058 123.042 201.803 123.633C201.016 123.664 200.351 123.349 200.177 122.787C200.004 122.224 200.366 121.59 201.055 121.177V121.177Z" fill="#191919"/>
<path d="M194.102 135.642C194.438 135.589 194.779 135.698 195.022 135.936C195.264 136.174 195.38 136.513 195.334 136.85C195.061 139.062 193.351 140.824 191.148 141.161C188.944 141.499 186.785 140.331 185.862 138.302C185.733 138 185.751 137.655 185.911 137.367C186.072 137.08 186.356 136.883 186.681 136.834L194.102 135.642Z" fill="#EA4464" stroke="#191919" stroke-linecap="round"/>
<path d="M201.228 217.512C201.228 217.512 206.938 224.036 215.087 225.256C223.236 226.475 226.175 221.506 226.175 221.506" stroke="#191919" stroke-linecap="round"/>
<path d="M194.869 202.811C195.103 205.075 195.609 207.302 196.376 209.445" stroke="#191919" stroke-linecap="round"/>
<path d="M128.857 75.3198C128.07 89.0605 126.819 102.439 135.85 105.257" stroke="#231F20"/>
<path d="M96.229 55.4364C96.229 55.4364 100.306 34.007 120.196 43.6317C126.858 46.8505 128.822 54.2048 129.152 62.7711" stroke="#231F20"/>
<path d="M71.3055 100.791C69.5446 103.38 67.2671 105.577 64.6162 107.244" stroke="#231F20"/>
<path d="M73.564 82.7881C75.0789 87.51 74.9845 91.5236 74.0755 94.8643" stroke="#231F20"/>
<path d="M91.4797 57.6126C91.4797 57.6126 88.2413 22.1041 72.9148 23.2452C57.5884 24.3863 57.2618 54.2207 70.1604 75.5007" stroke="#231F20"/>
<path d="M122.644 90.6973C122.644 90.6973 120.035 107.539 135.85 118.139" stroke="#231F20"/>
<path d="M117.427 34.007C117.427 34.007 128.676 30.5837 131.447 49.4948" stroke="#231F20"/>
<path d="M81.2293 120.744L76.9915 119.442L79.1084 111.127L81.2293 110.47V120.744Z" fill="#F9C41C" stroke="#231F20"/>
<path d="M220.249 99.4643L216.023 100.81L213.021 92.771L214.386 91.0239L220.249 99.4643Z" fill="#F9C41C" stroke="#231F20"/>
<path d="M148.052 104.883L147.08 108.216L143.534 106.087L143.436 104.352L148.052 104.883Z" fill="#F45C21" stroke="#231F20"/>
<path fill-rule="evenodd" clip-rule="evenodd" d="M142.57 87.2936L139.096 87.2661L140.174 83.28L141.815 82.7095L142.57 87.2936Z" stroke="#231F20"/>
<path d="M193.236 74.1037L189.766 74.0801L190.844 70.0901L192.481 69.5195L193.236 74.1037Z" fill="#EF50AB" stroke="#231F20"/>
<path d="M42.9348 85.8534L41.8015 81.5643L49.9782 78.9673L51.6584 80.4193L42.9348 85.8534Z" fill="#F45C21" stroke="#231F20"/>
<path d="M82.3034 8.32016L81.1702 4.03112L89.3469 1.43408L91.0232 2.88606L82.3034 8.32016Z" fill="#F45C21" stroke="#231F20"/>
<path d="M63.1326 75.3198C63.1326 75.3198 60.0359 83.7484 63.7858 86.8412C67.5358 89.9341 63.9472 78.1844 59.7093 83.0834C55.4714 87.9823 61.8263 95.1714 61.8263 95.1714" stroke="#F45C21"/>
<path d="M98.5427 37.4305C98.5427 37.4305 96.5753 26.1806 100.794 24.8782C105.012 23.5757 101.994 35.8015 98.5427 37.4305Z" fill="#F7991E" stroke="#231F20"/>
<path d="M138.62 35.3018C138.62 35.3018 145.793 39.701 142.37 44.1041C138.946 48.5073 138.195 37.0921 145.746 38.5599C153.297 40.0276 144.172 50.9509 144.652 47.5275C145.132 44.1041 150.688 39.701 152.478 46.8743" stroke="#5696F4"/>
<path d="M34.3882 16.2804C34.3882 16.2804 42.8049 16.4496 42.077 21.9782C41.349 27.5067 34.9273 18.0433 42.1832 15.4895C49.4392 12.9358 47.09 26.9794 45.7797 23.7764C44.4694 20.5734 47.0232 13.9746 52.2015 19.2552" stroke="#231F20"/>
<path d="M73.7056 48.1963C75.6731 48.3891 74.8546 53.0795 74.2722 53.0795C73.6899 53.0795 66.9376 55.2909 67.5199 53.0795C68.1023 50.8681 71.3958 47.968 73.7056 48.1963V48.1963Z" fill="#5696F4" stroke="#231F20"/>
<path d="M213.619 66.6906C213.619 66.6906 223.063 64.3296 222.752 71.7509C222.441 79.1721 217.696 66.2853 223.079 64.3296C228.462 62.374 229.272 71.2787 227.317 70.9049C225.361 70.5311 223.405 65.3409 226.01 62.9603C228.615 60.5797 233.349 65.4432 233.349 65.4432" stroke="#231F20"/>
<path d="M9.26758 134.139C9.26758 134.139 18.7113 131.778 18.4005 139.203C18.0896 146.628 13.3441 133.737 18.7232 131.782C24.1022 129.826 24.9206 138.731 22.965 138.353C21.0093 137.975 19.0497 132.789 21.6586 130.412C24.2674 128.036 28.9972 132.887 28.9972 132.887" stroke="#EF50AB"/>
<path d="M58.4106 144.106L48.5537 157.894H55.8648L58.4106 144.106Z" fill="#21B1D8" stroke="#231F20"/>
<path d="M49.4077 116.786C49.4077 116.786 51.69 126.364 57.5569 125.325" stroke="#231F20"/>
<path d="M107.148 4.83008C107.148 4.83008 97.7479 7.75765 99.1763 13.5341" stroke="#231F20"/>
<path d="M6.69427 169.915C6.69427 169.915 -1.329 175.617 1.83073 180.673" stroke="#231F20"/>
<path d="M217.369 118.203C217.369 118.203 223.641 124.577 220.017 129.22C216.393 133.864 224.546 135.485 224.546 135.485" stroke="#231F20"/>
<path d="M59.0561 182.133C59.0561 182.133 65.4346 189.279 58.2691 192.025C51.1037 194.772 58.2691 203.255 58.2691 203.255" stroke="#231F20"/>
<path d="M10.9598 102.419C10.9598 102.419 5.09677 102.805 6.71795 110.458C8.33913 118.112 1.16187 118.966 1.16187 118.966" stroke="#231F20"/>
<path d="M30.8418 45.3022L34.1145 47.7918L31.625 51.0645L28.3523 48.575L30.8418 45.3022Z" fill="#5696F4" stroke="#231F20"/>
<path d="M262.38 145.873C262.38 145.873 271.49 160.766 275.425 170.415C279.36 180.063 273.182 176.939 270.514 172.331C267.846 167.723 266.768 157.626 261.416 150.894C256.065 144.161 260.208 142.213 262.38 145.873Z" fill="white"/>
<path d="M276.676 180.858C276.676 180.858 282.37 180.527 281.067 185.973C279.765 191.419 275.33 184.883 276.676 180.858Z" fill="white"/>
<path d="M284.979 194.225C284.979 194.225 291.935 210.145 293.891 224.795" stroke="white" stroke-width="1.66" stroke-linecap="round"/>
<path d="M270.742 89.3322C270.742 89.3322 281.61 85.1769 283.239 86.8217C284.868 88.4665 282.578 91.4373 285.183 93.3064C287.788 95.1755 281.158 97.867 280.146 94.3688C279.135 90.8707 266.394 93.6802 270.742 89.3322V89.3322Z" fill="white"/>
<path d="M265.276 91.2523C265.276 91.2523 267.075 91.0241 267.385 92.1337C267.696 93.2434 262.231 94.231 262.191 92.9797C262.152 91.7284 264.375 90.8903 265.276 91.2523V91.2523Z" fill="white"/>
<path d="M260.492 68.3236C260.492 68.3236 270.884 64.55 271.954 66.0177C273.024 67.4854 272.044 69.2089 273.347 69.6496C274.649 70.0903 273.166 73.9544 271.954 72.7975C270.742 71.6407 270.089 67.3438 269.219 68.1819C268.35 69.02 259.48 71.44 260.492 68.3236Z" fill="white"/>
<path d="M256.974 69.5356C256.974 69.5356 254.192 69.7363 255.294 70.6295C256.395 71.5228 257.883 70.1416 256.974 69.5356Z" fill="white"/>
<path d="M288.296 103.301C288.296 103.301 291.88 108.184 287.969 110.47C284.058 112.756 278.844 113.41 278.844 113.41" stroke="white" stroke-width="1.66" stroke-linecap="round"/>
<path d="M276.676 81.3364L277.14 84.0751" stroke="white" stroke-width="1.66" stroke-linecap="round"/>
<path d="M200.122 157.284C200.122 157.284 213.619 158.913 213.702 161.195C213.784 163.477 206.564 159.727 206.914 162.336C207.264 164.945 194.448 158.57 200.122 157.284Z" fill="white"/>
<path d="M220.958 163.788C220.958 163.788 229.764 167.07 235.469 175.294" stroke="white" stroke-width="1.66" stroke-linecap="round"/>
<path d="M225.644 201.654C226.007 203.499 226.185 205.376 226.175 207.257" stroke="white" stroke-width="1.66" stroke-linecap="round"/>
<path d="M216.72 189.05C216.987 189.444 220.544 190.86 223.216 195.271" stroke="white" stroke-width="1.66" stroke-linecap="round"/>
<path d="M174.475 217.511C172.641 218.416 170.648 218.951 168.608 219.085" stroke="white" stroke-width="1.66" stroke-linecap="round"/>
<path d="M179.763 198.16C179.763 198.16 182.825 208.39 178.024 214.588" stroke="white" stroke-width="1.66" stroke-linecap="round"/>
<path d="M229.571 244.891C229.571 244.891 239.444 259.202 237.114 264.774C234.785 270.345 233.482 256.864 230.425 259.69C227.367 262.515 223.047 238.343 229.571 244.891Z" fill="white"/>
<path d="M228.316 267.119C228.316 267.119 231.794 262.542 233.101 266.135C234.407 269.728 236.076 268.496 235.348 270.735C234.62 272.974 226.793 274.509 228.316 267.119Z" fill="white"/>
<path d="M240.195 274.343C240.195 274.343 245.61 283.618 248.683 293.573" stroke="white" stroke-width="1.66" stroke-linecap="round"/>
<path d="M108.459 133.246C108.459 133.246 104.87 138.629 106.72 141.21C108.569 143.791 104.799 146.18 106.086 148.356C107.373 150.532 115.742 129.441 108.459 133.246V133.246Z" fill="white"/>
<path d="M108.022 150.527C108.022 150.527 105.189 151.865 105.248 154.73C105.307 157.594 108.785 154.549 108.022 150.527Z" fill="white"/>
<path d="M106.688 165.547C106.688 165.547 103.568 184.222 107.589 189.07C111.61 193.918 118.784 187.547 124.116 177.308" stroke="white" stroke-width="1.66" stroke-linecap="round"/>
<path d="M189.817 109.117C189.817 109.117 191.505 115.495 186.992 118.202C182.478 120.91 183.057 118.175 184.273 116.809C185.488 115.444 188.652 112.839 185.772 111.21C182.891 109.581 187.94 103.273 189.817 109.117V109.117Z" fill="white"/>
<path d="M183.403 112.103C183.403 112.103 184.028 114.96 181.99 116.018C179.952 117.077 179.676 112.756 183.403 112.103Z" fill="white"/>
<path d="M166.463 150.225C164.779 158.008 160.234 166.358 148.811 168.845" stroke="white"/>
<path d="M166.908 134.93C167.292 137.557 167.436 140.213 167.337 142.866" stroke="white"/>
<path d="M160.588 293.762C165.224 294.644 168.608 295.202 168.608 295.202" stroke="#191919"/>
<path d="M135.85 245.638C135.85 245.638 129.329 285.093 138.132 288.355C142 289.788 148.363 291.283 154.265 292.511" stroke="#191919"/>
<path d="M172.696 101.558C174.475 101.731 176.167 101.684 177.347 101.345" stroke="#231F20"/>
<path d="M163.15 81.6982C163.465 88.6433 163.913 96.9184 164.33 98.2524C164.657 99.3345 166.652 100.295 169.052 100.916" stroke="#231F20"/>
<path d="M162.753 71.814C162.753 71.814 162.831 74.0451 162.961 77.2166" stroke="#231F20"/>
<path d="M84.3181 263.094C88.1704 266.175 93.2031 268.359 99.7626 269.075" stroke="#231F20"/>
<path d="M72.2932 231.803C72.3719 238.859 73.4737 247.649 77.5345 254.952" stroke="#231F20"/>
<path d="M73.2415 219.062C72.8809 221.172 72.6314 223.3 72.4939 225.437" stroke="#231F20"/>
<path d="M310.839 239.877C310.839 239.877 315.836 268.85 293.879 280.45" stroke="#231F20"/>
<path d="M63.0225 260.528C63.0225 260.528 70.4161 280.863 92.0581 283.956" stroke="#231F20"/>
<path d="M298.247 104.418C298.247 104.418 299.986 114.602 291.951 117.892" stroke="#231F20"/>
</svg>
