<svg width="460" height="365" viewBox="0 0 460 365" fill="none" xmlns="http://www.w3.org/2000/svg">
<path opacity="0.79" d="M356.047 39.9596C356.047 39.9596 259.224 9.73281 210.591 30.5184C161.958 51.3041 116.607 6.89939 65.1346 48.4653C13.6625 90.0311 73.1644 124.978 19.3186 175.039C-34.5273 225.1 28.2947 351.679 156.761 279.4C249.334 239.727 200.214 365.376 316.401 343.163C432.587 320.95 343.599 185.416 400.468 163.689C457.336 141.963 464.674 73.0252 356.047 39.9596Z" fill="#9D8DFF"/>
<path d="M76.7979 1.00002H367.618V222.748H76.7979L76.7979 1.00002Z" fill="#8B64F9"/>
<path opacity="0.47" d="M367.618 222.742V1.00002H342.074C342.242 6.33701 344.048 11.6253 350.558 11.6253C363.72 11.6253 346.833 177.629 353.446 199.129C360.059 220.628 132.174 216.605 76.7979 211.409V222.764L367.618 222.742Z" fill="#3C1EF4"/>
<path fill-rule="evenodd" clip-rule="evenodd" d="M76.7979 1.00002H367.618V222.748H76.7979L76.7979 1.00002Z" stroke="#141414" stroke-width="0.61439" stroke-linecap="round"/>
<path d="M76.7979 232.238H154.295V256.651H76.7979V232.238Z" fill="#F9DF8C" stroke="#141414" stroke-width="0.61439" stroke-linecap="round"/>
<path d="M343.448 27.8256H459.596V136.572H343.448V27.8256Z" fill="#141414"/>
<path d="M76.7979 1.00002H367.618V11.6253H76.7979L76.7979 1.00002Z" fill="white" stroke="#141414" stroke-width="0.61439" stroke-linecap="round"/>
<path d="M336.126 19.3253H452.275V128.071H336.126L336.126 19.3253Z" fill="#F41E84"/>
<path opacity="0.38" d="M452.275 19.3253H414.327C414.327 19.3253 416.695 31.1078 431.479 29.5127C446.262 27.9175 446.078 45.5237 438.373 69.0724C430.668 92.6212 449.799 120.49 412.721 121.907C375.643 123.324 337.462 119.604 336.126 128.071H452.275V19.3253Z" fill="#890952"/>
<path fill-rule="evenodd" clip-rule="evenodd" d="M336.126 19.3253H452.275V128.071H336.126L336.126 19.3253Z" stroke="#141414" stroke-width="0.61439" stroke-linecap="round"/>
<path d="M336.126 19.3253H452.275V29.5127H336.126L336.126 19.3253Z" fill="white" stroke="#141414" stroke-width="0.61439" stroke-linecap="round"/>
<path opacity="0.47" d="M97.584 39.3486H278.55V197.712H97.584L97.584 39.3486Z" fill="#F41E84"/>
<path opacity="0.39" d="M434.799 29.5127H452.275V19.3253H414.327C414.327 19.3253 416.127 28.2582 426.358 29.5127H431.479C432.582 29.3885 433.695 29.3885 434.799 29.5127V29.5127Z" fill="#81D9FC"/>
<path fill-rule="evenodd" clip-rule="evenodd" d="M336.127 19.3254H452.276V29.5127H336.127L336.127 19.3254Z" stroke="#141414" stroke-width="0.469"/>
<path d="M92.0957 32.676H273.062V191.039H92.0957V32.676Z" fill="white" stroke="#141414" stroke-width="0.469"/>
<path d="M292.101 220.861C292.101 220.861 292.814 212.404 295.312 220.531C297.73 228.398 299.514 247.892 298.854 250.682C298.195 253.472 286.634 242.625 286.634 242.755C286.634 242.885 292.101 220.861 292.101 220.861V220.861Z" fill="#141414" stroke="#141414" stroke-width="0.469"/>
<path d="M130.758 59.1988H277.496" stroke="#141414" stroke-width="0.469"/>
<path d="M98.6387 70.7325H277.496" stroke="#141414" stroke-width="0.469"/>
<path d="M98.6387 82.2717H277.496" stroke="#141414" stroke-width="0.469"/>
<path d="M98.6387 93.8055H277.496" stroke="#141414" stroke-width="0.469"/>
<path d="M98.6387 105.345H277.496" stroke="#141414" stroke-width="0.469"/>
<path d="M98.6387 116.878H277.496" stroke="#141414" stroke-width="0.469"/>
<path d="M98.6387 128.412H167.419" stroke="#141414" stroke-width="0.469"/>
<path d="M176.25 128.412H188.059" stroke="#141414" stroke-width="0.469"/>
<path d="M339.918 26.2629C340.936 26.2629 341.762 25.4374 341.762 24.4191C341.762 23.4007 340.936 22.5752 339.918 22.5752C338.899 22.5752 338.074 23.4007 338.074 24.4191C338.074 25.4374 338.899 26.2629 339.918 26.2629Z" fill="#5CC9FF" stroke="#141414" stroke-width="0.469"/>
<path d="M350.559 26.2629C351.578 26.2629 352.403 25.4374 352.403 24.4191C352.403 23.4007 351.578 22.5752 350.559 22.5752C349.541 22.5752 348.715 23.4007 348.715 24.4191C348.715 25.4374 349.541 26.2629 350.559 26.2629Z" fill="#5CC9FF" stroke="#141414" stroke-width="0.469"/>
<path d="M361.206 26.2629C362.225 26.2629 363.05 25.4374 363.05 24.4191C363.05 23.4007 362.225 22.5752 361.206 22.5752C360.188 22.5752 359.362 23.4007 359.362 24.4191C359.362 25.4374 360.188 26.2629 361.206 26.2629Z" fill="#5CC9FF" stroke="#141414" stroke-width="0.469"/>
<path d="M113.757 204.796H353.446" stroke="white" stroke-width="0.469"/>
<path d="M117.791 23.4079H237.633" stroke="white" stroke-width="0.469"/>
<path d="M91.2681 209.992H353.446" stroke="white" stroke-width="0.469"/>
<path opacity="0.53" d="M98.6382 144.104H163.58V179.397H98.6382V144.104Z" fill="#F9DF8C"/>
<path opacity="0.53" d="M98.6382 43.6149H115.541V51.3798H98.6382V43.6149Z" fill="#81D9FC"/>
<path fill-rule="evenodd" clip-rule="evenodd" d="M96.1348 140.422H161.076V175.715H96.1348V140.422Z" stroke="#141414" stroke-width="0.61439" stroke-linecap="round"/>
<path fill-rule="evenodd" clip-rule="evenodd" d="M168.944 140.422H233.885V175.715H168.944V140.422Z" stroke="#141414" stroke-width="0.61439" stroke-linecap="round"/>
<path opacity="0.53" d="M171.658 144.104H236.6V179.397H171.658V144.104Z" fill="#F9DF8C"/>
<path d="M91.2681 215.188H353.446" stroke="white" stroke-width="0.61439" stroke-linecap="round"/>
<path d="M292.008 235.612C291.078 226.7 292.695 219.287 292.987 217.075C275.386 221.401 261.955 217.432 252.059 210.873C258.516 189.39 280.842 155.119 279.058 150.479C276.7 144.342 238.914 126.584 223.093 137.118C223.093 137.118 193.812 171.968 193.104 211.641C192.72 233.022 205.443 248.292 228.63 254.618C246.014 259.36 269.271 259.079 297.302 252.569C294.365 247.351 292.562 241.573 292.008 235.612V235.612Z" fill="#C10865"/>
<path opacity="0.56" d="M292.987 217.075C275.386 221.401 261.955 217.432 252.059 210.873C253.181 207.267 254.497 203.724 256.001 200.259C248.804 200.091 242.851 200.134 240.196 200.07C230.376 199.837 257.926 151.307 252.946 139.951C252.058 137.996 250.533 136.401 248.62 135.425C239.044 133.214 229.354 132.954 223.098 137.118C223.098 137.118 222.725 137.556 222.07 138.394C222.373 141.833 234.464 147.046 226.759 155.438C218.729 164.176 199.008 208.337 214.122 226.165C229.235 243.993 275.521 224.397 279.063 237.52C282.605 250.644 297.318 252.585 297.318 252.585C294.378 247.368 292.57 241.59 292.014 235.628C291.078 226.7 292.695 219.287 292.987 217.075Z" fill="#7C034B"/>
<path fill-rule="evenodd" clip-rule="evenodd" d="M292.008 235.612C291.078 226.7 292.695 219.287 292.987 217.075C275.386 221.401 261.955 217.432 252.059 210.873C258.516 189.39 280.842 155.119 279.058 150.479C276.7 144.342 238.914 126.584 223.093 137.118C223.093 137.118 193.812 171.968 193.104 211.641C192.72 233.022 205.443 248.292 228.63 254.618C246.014 259.36 269.271 259.079 297.302 252.569C294.365 247.351 292.562 241.573 292.008 235.612V235.612Z" stroke="#141414" stroke-width="0.61439" stroke-linecap="round"/>
<path d="M204.983 40.7382C204.983 40.7382 207.255 38.0886 210.542 42.6957C213.603 46.9836 217.004 47.0215 216.404 48.7951C215.803 50.5687 205.535 50.1902 204.075 46.9133C202.615 43.6365 204.983 40.7382 204.983 40.7382V40.7382Z" fill="#141414" stroke="#141414" stroke-width="0.61439" stroke-linecap="round"/>
<path d="M223.563 72.0194C218.156 73.4415 214.37 72.133 212.937 69.0022C211.505 65.8713 212.397 61.0102 216.355 55.2081C216.766 54.6674 217.155 54.1916 217.539 53.732C210.477 52.0016 207.66 48.5896 206.184 45.0803C205.64 43.7111 205.194 42.3053 204.848 40.8734C187.756 56.6086 184.365 69.4347 184.365 69.4347C181.332 78.8759 182.743 89.1119 190.989 95.7304C192.482 94.1569 204.216 94.265 208.233 90.7936C214.322 85.5377 214.105 76.0425 223.563 72.0194Z" fill="#F9DF8C"/>
<path opacity="0.52" d="M207.617 52.9803C210.802 59.269 191.519 92.1183 202.853 89.8581C206.126 86.211 209.663 82.8096 213.435 79.6815C215.752 77.6603 217.699 75.2504 219.189 72.5601C216.112 72.479 213.938 71.1813 212.943 68.9805C211.532 65.8767 212.402 60.9885 216.36 55.1865C216.771 54.6458 217.161 54.1699 217.545 53.7103C210.483 51.98 207.666 48.568 206.189 45.0586C205.646 43.6895 205.2 42.2837 204.854 40.8518C204.751 45.0615 205.701 49.2303 207.617 52.9803V52.9803Z" fill="#F9B121"/>
<path d="M223.563 72.0194C218.156 73.4415 214.37 72.133 212.937 69.0022C211.505 65.8713 212.397 61.0102 216.355 55.2081C216.766 54.6674 217.155 54.1916 217.539 53.732C210.477 52.0016 207.66 48.5896 206.184 45.0803C205.64 43.7111 205.194 42.3053 204.848 40.8734C187.756 56.6086 184.365 69.4347 184.365 69.4347C181.332 78.8759 182.743 89.1119 190.989 95.7304" stroke="#141414" stroke-width="0.61439" stroke-linecap="round"/>
<path d="M339.668 24.0513C340.701 27.037 340.504 30.311 339.121 33.1513C337.737 35.9916 335.281 38.1649 332.293 39.1917L172.777 94.1569L165.364 84.1642L165.023 71.6571L324.539 16.692C327.521 15.6614 330.79 15.8578 333.628 17.2379C336.465 18.6181 338.638 21.069 339.668 24.0513Z" fill="#F73737"/>
<path opacity="0.74" d="M332.293 39.1809C336.767 37.6348 339.899 33.5828 340.267 28.8632C340.636 24.1435 338.171 19.6546 333.991 17.4328C336.078 21.4126 338.614 27.804 335.645 31.2538C331.13 36.5097 317.001 25.9601 317.693 33.141C318.385 40.3219 255.131 46.5619 231.847 62.389C208.563 78.2162 192.914 72.7873 172.177 84.7698C170.696 85.7014 169.095 86.429 167.419 86.9327L172.767 94.1407L332.293 39.1809Z" fill="#CC2323"/>
<path fill-rule="evenodd" clip-rule="evenodd" d="M339.668 24.0513C340.701 27.037 340.504 30.311 339.121 33.1513C337.737 35.9916 335.281 38.1649 332.293 39.1917L172.777 94.1569L165.364 84.1642L165.023 71.6571L324.539 16.692C327.521 15.6614 330.79 15.8578 333.628 17.2379C336.465 18.6181 338.638 21.069 339.668 24.0513Z" stroke="#141414" stroke-width="0.61439"/>
<path d="M317.309 31.7567C318.342 34.7424 318.145 38.0164 316.762 40.8567C315.378 43.697 312.921 45.8703 309.934 46.8971L172.767 94.1461L165.353 84.1534L165.013 71.6463L302.185 24.3866C305.168 23.3582 308.437 23.5569 311.274 24.9391C314.11 26.3213 316.281 28.7737 317.309 31.7567V31.7567Z" fill="#F9B121"/>
<path opacity="0.74" d="M309.934 46.8809C315.611 44.9211 318.936 39.0371 317.688 33.1626C318.228 40.3327 256.147 47.0594 232.89 62.8703C209.634 78.6812 189.443 71.3543 172.177 84.7698C170.745 85.7898 169.129 86.5242 167.419 86.9327L172.767 94.1407L309.934 46.8809Z" fill="#F47119"/>
<path opacity="0.47" d="M291.154 142.314H333.228V197.712H291.154V142.314Z" fill="#F41E84"/>
<path fill-rule="evenodd" clip-rule="evenodd" d="M317.309 31.7567C318.342 34.7424 318.145 38.0164 316.762 40.8567C315.378 43.697 312.921 45.8703 309.934 46.8971L172.767 94.1461L165.353 84.1534L165.013 71.6463L302.185 24.3866C305.168 23.3582 308.437 23.5569 311.274 24.9391C314.11 26.3213 316.281 28.7737 317.309 31.7567V31.7567Z" stroke="#141414" stroke-width="0.61439"/>
<path d="M172.913 87.8303L317.958 36.9531Z" fill="white"/>
<path d="M172.913 87.8303L317.958 36.9531" stroke="#141414" stroke-width="0.61439" stroke-linecap="round"/>
<path d="M217.544 53.7157C224.887 44.8532 227.396 48.595 227.607 51.1202C227.829 53.7752 230.852 53.2831 229.23 47.665C231.16 51.6501 231.868 53.3805 232.577 51.1202C233.069 49.5575 232.35 47.9083 231.857 47.0431C231.62 46.67 231.474 46.4267 231.474 46.4267C231.612 46.6256 231.74 46.8313 231.857 47.0431C232.782 48.4707 235.053 51.8178 235.367 50.5903C235.735 49.0384 234.112 45.3182 234.112 45.3182C234.112 45.3182 236.859 49.9685 237.389 49.3466C237.919 48.7248 236.059 44.1664 236.059 44.1664C236.059 44.1664 241.196 44.9235 240.926 43.085C240.709 41.5655 226.526 32.8111 206.173 45.0749C207.665 48.5734 210.482 52.0124 217.544 53.7157V53.7157Z" fill="#81D9FC" stroke="#141414" stroke-width="0.61439"/>
<path d="M287.093 137.118H329.167V192.516H287.093V137.118Z" fill="#81D9FC" stroke="#141414" stroke-width="0.61439" stroke-linecap="round"/>
<path opacity="0.34" d="M341.523 113.423H409.238V120.334H341.523V113.423Z" fill="white"/>
<path opacity="0.34" d="M417.755 113.423H445.191V120.334H417.755V113.423Z" fill="white"/>
<path opacity="0.34" d="M287.093 51.4392H329.167V128.98H287.093V51.4392Z" fill="white"/>
<path d="M190.973 95.7304C200.257 103.198 218.215 106.058 248.204 97.9366C272.683 81.8769 267.254 55.1919 267.254 55.1919C267.254 55.1919 244.581 54.1754 212.435 80.4764C212.408 83.8884 208.568 87.0138 208.568 87.0138L190.973 95.7304Z" fill="#F9DF8C"/>
<path opacity="0.52" d="M190.973 95.7304C191.301 95.4649 191.686 95.2797 192.098 95.1897L190.973 95.7304C200.257 103.198 218.215 106.058 248.204 97.9366C259.559 90.4799 264.491 80.7251 266.497 72.4195C263.15 67.8125 257.153 65.9308 255.563 67.3529C255.563 67.3529 250.329 62.1403 232.89 85.5376C221.086 101.381 202.685 104.56 191.135 95.8602" fill="#F9B121"/>
<path d="M167.581 82.2717L316.644 30.2048Z" fill="white"/>
<path d="M167.581 82.2717L316.644 30.2048" stroke="#141414" stroke-width="0.61439" stroke-linecap="round"/>
<path d="M255.201 230.064C258.51 208.099 292.982 173.406 292.982 173.406C292.982 154.529 251.54 135.139 251.54 135.139C251.54 135.139 217.063 173.493 210.028 214.231C210.025 214.253 210.025 214.275 210.028 214.296C205.454 237.904 210.812 265.72 225.461 304.214C232.23 303.538 238.834 301.709 244.987 298.807C252.638 295.196 259.37 289.895 264.675 283.304C262.387 277.629 260.446 271.819 258.862 265.909C255.26 252.461 253.806 239.391 255.201 230.064V230.064Z" fill="#F41E84"/>
<path opacity="0.49" d="M255.201 230.064C258.51 208.099 292.982 173.406 292.982 173.406C292.982 173.114 292.971 172.822 292.949 172.53C292.949 172.427 292.949 172.325 292.922 172.222C292.922 172.033 292.89 171.843 292.863 171.654C292.836 171.465 292.825 171.422 292.809 171.303C292.793 171.184 292.755 170.951 292.722 170.762C292.69 170.573 292.663 170.508 292.636 170.384C292.609 170.259 292.565 170.054 292.522 169.886C292.479 169.718 292.452 169.626 292.414 169.497C292.376 169.367 292.322 169.172 292.273 169.015C292.225 168.859 292.182 168.745 292.138 168.61C292.095 168.475 292.036 168.296 291.976 168.139L291.814 167.729C291.754 167.577 291.695 167.426 291.63 167.274C291.565 167.123 291.506 166.993 291.441 166.853L291.235 166.404C291.165 166.263 291.095 166.123 291.019 165.982C290.943 165.841 290.873 165.685 290.797 165.539L290.559 165.106C290.478 164.965 290.403 164.825 290.316 164.679C290.229 164.533 290.143 164.387 290.051 164.241L289.797 163.824C289.705 163.678 289.602 163.527 289.505 163.381L289.235 162.97C289.137 162.824 289.029 162.673 288.926 162.527C288.824 162.381 288.737 162.256 288.64 162.127L288.304 161.672L288.007 161.283L287.65 160.823L287.342 160.445L286.958 159.985L286.65 159.618C286.515 159.461 286.379 159.304 286.239 159.153L285.925 158.796L285.487 158.32L285.174 157.979L284.709 157.498L284.395 157.173L283.908 156.681L283.6 156.379L283.059 155.876L282.751 155.589L282.21 155.081L281.913 154.805L281.345 154.291L281.059 154.037L280.453 153.497L280.188 153.275L279.55 152.734L279.301 152.529L278.636 151.988L278.404 151.804L277.706 151.263L277.501 151.101L276.765 150.523C276.705 150.48 276.648 150.435 276.592 150.387L275.814 149.798L275.678 149.695L274.857 149.084L274.765 149.014C274.478 148.803 274.191 148.592 273.899 148.387L273.845 148.349L272.937 147.695C263.312 142.157 253.763 138.362 248.172 139.097C247.939 139.373 247.701 139.67 247.452 139.978L247.382 140.065L246.576 141.065C252.108 144.574 272.488 158.406 275.851 173.763C279.745 191.564 250.929 195.284 242.667 217.957C236.659 234.433 241.585 267.85 256.639 291.399C258.288 290.047 259.859 288.603 261.344 287.073C261.663 286.743 261.96 286.424 262.252 286.11L262.306 286.046C262.582 285.754 262.847 285.462 263.085 285.18L263.177 285.078C263.409 284.813 263.62 284.537 263.831 284.315C263.869 284.261 263.918 284.212 263.955 284.164C264.193 283.877 264.42 283.623 264.631 283.331C262.344 277.656 260.402 271.846 258.819 265.936C255.261 252.461 253.806 239.391 255.201 230.064V230.064Z" fill="#C10865"/>
<path fill-rule="evenodd" clip-rule="evenodd" d="M255.201 230.064C258.51 208.099 292.982 173.406 292.982 173.406C292.982 154.529 251.54 135.139 251.54 135.139C251.54 135.139 217.063 173.493 210.028 214.231C210.025 214.253 210.025 214.275 210.028 214.296C205.454 237.904 210.812 265.72 225.461 304.214C232.23 303.538 238.834 301.709 244.987 298.807C252.638 295.196 259.37 289.895 264.675 283.304C262.387 277.629 260.446 271.819 258.862 265.909C255.26 252.461 253.806 239.391 255.201 230.064V230.064Z" stroke="#141414" stroke-width="0.61439" stroke-linecap="round"/>
<path d="M190.973 95.7304C200.257 103.198 218.215 106.058 248.204 97.9366C272.683 81.8769 267.254 55.1919 267.254 55.1919C267.254 55.1919 244.581 54.1754 212.435 80.4764C212.435 80.4764 203.999 87.3275 202.831 89.8581" stroke="#141414" stroke-width="0.61439" stroke-linecap="round"/>
<path d="M249.307 69.0724C249.307 69.0724 249.42 94.5138 227.461 126.866C237.378 128.163 278.231 143.515 298.297 167.961C305.97 163.003 321.202 116.008 305.867 76.4534C298.665 59.9233 276.1 53.6238 267.259 55.1973" fill="#F9DF8C"/>
<path opacity="0.52" d="M311.712 100.759C311.211 100.413 310.589 100.29 309.993 100.419C314.011 111.633 307.159 157.92 297.951 149.511C282.459 130.667 238.125 126.709 228.008 126.038C227.824 126.314 227.651 126.579 227.467 126.866C237.384 128.163 278.236 143.515 298.302 167.961C304.44 163.992 315.4 133.171 311.712 100.759Z" fill="#F9B121"/>
<path d="M249.307 69.0724C249.307 69.0724 249.42 94.5138 227.461 126.866C237.378 128.163 278.231 143.515 298.297 167.961C305.97 163.003 321.202 116.008 305.867 76.4534C298.665 59.9233 276.1 53.6238 267.259 55.1973" stroke="#141414" stroke-width="0.61439" stroke-linecap="round"/>
<path d="M225.32 137.988C225.32 137.988 216.588 139.411 217.172 132.084C217.777 124.405 231.831 118.857 271.737 139.405C311.642 159.953 306.1 174.709 294.88 173.882C283.66 173.055 268.552 136.55 225.32 137.988Z" fill="#F9DF8C"/>
<path opacity="0.52" d="M301.785 163.024C301.785 163.024 295.837 172.795 283.665 158.271C271.493 143.747 236.86 128.385 221.357 137.842C222.662 138.105 224.002 138.147 225.32 137.967C268.552 136.55 283.665 173.033 294.88 173.86C300.963 174.309 305.375 170.173 301.785 163.024V163.024Z" fill="#F9B121"/>
<path fill-rule="evenodd" clip-rule="evenodd" d="M225.32 137.988C225.32 137.988 216.588 139.41 217.172 132.084C217.777 124.405 231.831 118.857 271.737 139.405C311.642 159.953 306.1 174.709 294.88 173.882C283.66 173.055 268.552 136.55 225.32 137.988Z" stroke="#141414" stroke-width="0.61439"/>
<path d="M245.203 126.13C245.203 126.13 246.382 135.782 251.432 135.425C256.483 135.068 261.057 124.443 254.163 121.258C247.269 118.073 245.203 126.13 245.203 126.13Z" fill="#141414" stroke="#141414" stroke-width="0.61439" stroke-linecap="round"/>
<path d="M249.875 113.191C237.703 116.159 232.729 120.761 231.993 121.166C230.912 121.788 232.658 123.329 235.886 122.853C232.88 125.687 230.576 131.218 231.371 132.284C232.166 133.349 235.4 128.742 235.4 128.742C235.4 128.742 231.771 135.425 232.831 136.312C233.891 137.199 237.617 129.937 237.617 129.937C237.617 129.937 234.605 136.842 236.643 137.107C238.682 137.372 239.742 130.689 239.742 130.689C239.742 130.689 239.742 137.118 241.337 137.118C244.787 137.118 238.633 127.044 253.26 130.586L253.801 130.683C255.261 124.47 252.114 117.278 249.875 113.191Z" fill="#81D9FC" stroke="#141414" stroke-width="0.61439" stroke-linecap="round"/>
<path d="M286.618 88.2413C292.636 93.5513 298.189 110.081 270.558 110.671C267.092 110.746 263.902 110.957 260.976 111.271C257.238 111.659 253.529 112.295 249.875 113.174C252.114 117.262 255.282 124.476 253.779 130.667C253.376 132.409 252.573 134.032 251.432 135.409C256.299 137.296 301.72 134.663 311.453 130.04C326.496 125.06 335.381 114.596 329.838 96.0494C310.972 43.869 272.775 52.9803 272.775 52.9803" fill="#F9DF8C"/>
<path opacity="0.52" d="M329.865 96.0602C317.206 61.0804 295.869 53.6346 283.178 52.5531C278.734 59.3231 275.127 75.6801 277.495 74.5122C277.495 74.5122 285.32 74.6906 286.617 63.5948C287.915 52.4991 311.177 70.3215 321.803 87.9277C332.428 105.534 313.773 116.148 301.255 116.386C288.737 116.624 300.898 126.449 282.124 128.439C263.35 130.429 255.493 117.917 251.805 117.208C253.492 121.193 254.855 126.222 253.779 130.726C253.376 132.468 252.573 134.092 251.432 135.469C256.299 137.356 301.72 134.722 311.453 130.099C326.512 125.07 335.397 114.607 329.865 96.0602V96.0602Z" fill="#F9B121"/>
<path d="M286.618 88.2413C292.636 93.5513 298.189 110.081 270.558 110.671C267.092 110.746 263.902 110.957 260.976 111.271C257.238 111.659 253.529 112.295 249.875 113.174C252.114 117.262 255.282 124.476 253.779 130.667C253.376 132.409 252.573 134.032 251.432 135.409C256.299 137.296 301.72 134.663 311.453 130.04C326.496 125.06 335.381 114.596 329.838 96.0494C310.972 43.869 272.775 52.9803 272.775 52.9803" stroke="#141414" stroke-width="0.61439" stroke-linecap="round"/>
<path d="M170.879 74.3716L311.442 25.0246Z" fill="white"/>
<path d="M170.879 74.3716L311.442 25.0246" stroke="#141414" stroke-width="0.61439" stroke-linecap="round"/>
<path d="M268.519 74.7663C268.519 74.7663 253.022 63.6057 268.919 48.1516C279.912 37.4668 296.989 48.2435 293.252 54.6404C288.926 53.7103 283.735 54.9053 283.649 60.2207C283.562 65.5361 282.454 73.8146 276.387 74.788" fill="#F9DF8C"/>
<path d="M178.552 69.8835C178.552 69.8835 176.13 70.1971 176.249 73.1279C176.368 76.0586 184.83 70.2134 185.89 72.9062C186.95 75.599 195.456 73.1387 193.687 67.8071C191.919 62.4755 178.552 69.8835 178.552 69.8835Z" fill="white"/>
<path d="M199.922 65.4063C199.922 65.4063 195.661 65.8173 196.137 69.0238C196.613 72.2303 206.887 65.4279 199.922 65.4063Z" fill="white"/>
<path opacity="0.52" d="M266.07 52.6992C266.07 52.6992 285.796 41.8846 293.647 53.7049C295.41 47.2865 279.41 37.9643 268.925 48.1516C267.269 49.7313 265.801 51.4967 264.55 53.4129C265.07 53.2041 265.577 52.9658 266.07 52.6992V52.6992Z" fill="#F9B121"/>
<path d="M268.519 74.7663C268.519 74.7663 253.022 63.6056 268.919 48.1516C279.912 37.4668 296.989 48.2435 293.252 54.6403C288.926 53.7103 283.735 54.9053 283.649 60.2207C283.562 65.536 282.454 73.8146 276.387 74.7879" stroke="#141414" stroke-width="0.61439" stroke-linecap="round"/>
<path d="M260.17 35.5958C260.17 35.5958 254.974 58.7337 267.254 55.1919C267.605 65.3468 267.605 70.6621 274.927 68.656C282.248 66.6499 274.689 40.0785 269.52 34.0494C264.35 28.0202 260.068 33.2329 260.17 35.5958Z" fill="#81D9FC" stroke="#141414" stroke-width="0.61439"/>
<path d="M271.088 39.6081C271.088 39.6081 269.806 39.6946 270.206 43.7284C270.606 47.7623 268.168 40.3759 268.833 37.2397C269.498 34.1034 256.034 41.9765 250.946 37.2397C245.857 32.5029 248.328 23.1158 254.487 23.7214C260.646 24.327 263.166 28.5069 264.934 25.1814C266.702 21.8559 277.025 23.1483 277.468 29.6586C277.912 36.169 273.57 38.0237 276.225 39.4404C278.88 40.8571 275.749 45.5236 273.699 43.9015C271.65 42.2793 272.331 39.5215 271.088 39.6081V39.6081Z" fill="#DB2323" stroke="#141414" stroke-width="0.61439"/>
<path d="M281.394 26.6792C283.547 26.6792 285.292 24.9337 285.292 22.7806C285.292 20.6274 283.547 18.8819 281.394 18.8819C279.241 18.8819 277.495 20.6274 277.495 22.7806C277.495 24.9337 279.241 26.6792 281.394 26.6792Z" fill="#DB2323" stroke="#141414" stroke-width="0.61439"/>
<path d="M231.847 47.0431C231.73 46.8313 231.601 46.6256 231.463 46.4267C231.463 46.4267 231.609 46.67 231.847 47.0431V47.0431Z" fill="white" stroke="#141414" stroke-width="0.61439"/>
<path d="M277.911 307.68C272.791 300.764 268.308 292.291 264.674 283.315C259.369 289.906 252.638 295.206 244.986 298.818C254.801 307.469 263.912 313.174 268.34 317.137C272.643 315.355 276.077 311.961 277.911 307.68V307.68Z" fill="#81D9FC"/>
<path fill-rule="evenodd" clip-rule="evenodd" d="M277.911 307.68C272.791 300.764 268.308 292.291 264.674 283.315C259.369 289.906 252.638 295.206 244.986 298.818C254.801 307.469 263.912 313.174 268.34 317.137C272.643 315.355 276.077 311.961 277.911 307.68V307.68Z" stroke="#141414" stroke-width="0.61439" stroke-linecap="round"/>
<path d="M269.849 318.619C277.879 327.595 268.432 348.846 269.141 350.738C269.849 352.631 284.724 323.578 283.546 314.369C281.519 312.269 279.637 310.034 277.911 307.68C276.077 311.961 272.642 315.355 268.34 317.137C268.869 317.604 269.373 318.099 269.849 318.619V318.619Z" fill="#141414" stroke="#141414" stroke-width="0.61439" stroke-linecap="round"/>
<path d="M308.127 235.86C304.094 235.904 298.34 235.887 292.008 235.606C292.565 241.569 294.372 247.347 297.313 252.564C301.287 251.639 305.359 250.601 309.523 249.422C311.118 244.215 309.306 238.645 308.127 235.86V235.86Z" fill="#81D9FC" stroke="#141414" stroke-width="0.61439" stroke-linecap="round"/>
<path d="M329.362 268.558C329.8 264.011 315.368 235.612 315.368 235.612C315.368 235.612 311.767 235.823 308.127 235.866C309.306 238.645 311.118 244.215 309.523 249.427C321.094 257.928 329 272.273 329.362 268.558V268.558Z" fill="#141414" stroke="#141414" stroke-width="0.61439" stroke-linecap="round"/>
<path d="M169.825 84.1534C163.672 83.2666 172.215 77.3348 170.712 73.6578C169.209 69.9809 165.078 71.8302 164.71 71.7545L145.903 86.7651C147.498 88.0629 150.018 90.7124 149.175 94.0379L172.469 94.2704C179.272 90.707 175.979 85.0348 169.825 84.1534V84.1534Z" fill="#B5F4EF"/>
<path opacity="0.51" d="M148.028 88.9929C149.154 90.4144 149.576 92.2694 149.175 94.0379L172.469 94.2704C178.336 91.1991 176.692 86.5596 172.177 84.7698C163.877 89.9175 158.043 86.3487 148.028 88.9929H148.028Z" fill="#1CA4E8"/>
<path fill-rule="evenodd" clip-rule="evenodd" d="M169.825 84.1534C163.671 83.2666 172.215 77.3348 170.711 73.6579C169.208 69.9809 165.077 71.8302 164.709 71.7545L145.903 86.7651C147.498 88.0629 150.018 90.7125 149.174 94.0379L172.469 94.2705C179.271 90.7071 175.978 85.0348 169.825 84.1534V84.1534Z" stroke="#141414" stroke-width="0.469"/>
<path d="M145.903 86.7652L136.938 93.919L149.174 94.038C150.018 90.7125 147.498 88.0629 145.903 86.7652Z" fill="#141414" stroke="#141414" stroke-width="0.469"/>
<path d="M316.4 260.047C316.4 260.047 312.231 263.421 314.075 265.525C315.919 267.628 316.4 260.047 316.4 260.047Z" fill="white" stroke="white" stroke-width="0.469"/>
<path d="M314.421 258.095C314.421 258.095 309.187 256.949 308.695 259.717C308.203 262.486 314.421 258.095 314.421 258.095Z" fill="white" stroke="white" stroke-width="0.469"/>
<path d="M268.015 328.823C268.015 328.823 262.678 329.363 263.068 332.137C263.457 334.911 268.015 328.823 268.015 328.823Z" fill="white" stroke="white" stroke-width="0.469"/>
<path d="M267.426 326.108C267.426 326.108 263.674 322.28 261.754 324.318C259.834 326.357 267.426 326.108 267.426 326.108Z" fill="white" stroke="white" stroke-width="0.469"/>
<path d="M267.253 55.192C267.253 55.192 271.179 54.1916 271.887 52.8939C272.596 51.5961 272.709 57.2629 267.372 58.5283C267.324 57.1115 267.253 55.192 267.253 55.192H267.253Z" fill="#141414" stroke="#141414" stroke-width="0.469"/>
<path d="M89.0505 9.20833C90.2749 9.20833 91.2675 8.21575 91.2675 6.99134C91.2675 5.76693 90.2749 4.77435 89.0505 4.77435C87.8261 4.77435 86.8335 5.76693 86.8335 6.99134C86.8335 8.21575 87.8261 9.20833 89.0505 9.20833Z" fill="#5CC9FF" stroke="#141414" stroke-width="0.469" stroke-linecap="round"/>
<path d="M101.855 9.20836C103.08 9.20836 104.072 8.21578 104.072 6.99137C104.072 5.76696 103.08 4.77438 101.855 4.77438C100.631 4.77438 99.6382 5.76696 99.6382 6.99137C99.6382 8.21578 100.631 9.20836 101.855 9.20836Z" fill="#5CC9FF" stroke="#141414" stroke-width="0.469" stroke-linecap="round"/>
<path d="M114.659 9.20836C115.884 9.20836 116.876 8.21578 116.876 6.99137C116.876 5.76696 115.884 4.77438 114.659 4.77438C113.435 4.77438 112.442 5.76696 112.442 6.99137C112.442 8.21578 113.435 9.20836 114.659 9.20836Z" fill="#5CC9FF" stroke="#141414" stroke-width="0.469" stroke-linecap="round"/>
<path d="M403.744 97.3689C418.709 97.3689 430.84 85.2376 430.84 70.2729C430.84 55.3082 418.709 43.177 403.744 43.177C388.78 43.177 376.648 55.3082 376.648 70.2729C376.648 85.2376 388.78 97.3689 403.744 97.3689Z" fill="#F9DF8C" stroke="#141414" stroke-width="0.469"/>
<path d="M395.823 72.3331C395.823 72.3331 391.746 70.6082 391.746 66.623C391.746 62.6378 396.531 59.361 398.613 59.1825C400.695 59.0041 395.823 72.3331 395.823 72.3331V72.3331Z" fill="#141414" stroke="#141414" stroke-width="0.469" stroke-linecap="round"/>
<path d="M403.745 97.3688C408.073 97.3721 412.339 96.3335 416.181 94.3408C415.073 82.4447 411.942 59.8206 405.859 59.8855C397.98 59.9774 397.094 63.8707 397.094 63.8707C397.094 63.8707 386.987 86.0135 400.116 86.6191C399.527 90.0906 398.975 93.7243 398.494 96.8497C400.223 97.194 401.982 97.3678 403.745 97.3688V97.3688Z" fill="#81D9FC" stroke="#141414" stroke-width="0.469" stroke-linecap="round"/>
<path d="M406.848 55.4137C406.848 55.4137 398.521 55.6353 395.157 59.8855C391.794 64.1356 397.369 73.6146 406.934 73.7011C408.616 74.5879 407.113 80.7847 408.016 80.7847C408.919 80.7847 409.433 72.5494 410.849 72.8143C412.266 73.0793 413.553 75.4855 413.553 75.4855C413.553 75.4855 417.738 55.4137 406.848 55.4137V55.4137Z" fill="#DB2323" stroke="#141414" stroke-width="0.469" stroke-linecap="round"/>
<path d="M417.754 59.1771C419.89 59.1771 421.621 57.4462 421.621 55.3109C421.621 53.1757 419.89 51.4447 417.754 51.4447C415.619 51.4447 413.888 53.1757 413.888 55.3109C413.888 57.4462 415.619 59.1771 417.754 59.1771Z" fill="#DB2323" stroke="#141414" stroke-width="0.469" stroke-linecap="round"/>
<path d="M400.116 86.6191C400.116 86.6191 405.22 87.1058 408.227 85.1592C408.227 87.3707 404.117 90.7665 399.38 91.145C399.786 88.5766 400.116 86.6191 400.116 86.6191Z" fill="#141414" stroke="#141414" stroke-width="0.469" stroke-linecap="round"/>
<path d="M403.474 127.974V173.893H311.117" stroke="#141414" stroke-width="0.469"/>
<path d="M76.7979 114.705H64.3989V244.09H76.7979" stroke="#141414" stroke-width="0.469" stroke-linecap="round"/>
<path d="M311.382 178.819C314.172 178.819 316.433 176.558 316.433 173.769C316.433 170.979 314.172 168.718 311.382 168.718C308.593 168.718 306.332 170.979 306.332 173.769C306.332 176.558 308.593 178.819 311.382 178.819Z" fill="white" stroke="#141414" stroke-width="0.469"/>
<path d="M351.558 46.8106H368.207" stroke="white" stroke-width="0.469"/>
<path d="M432.971 57.0845H443.774" stroke="white" stroke-width="0.469"/>
<path d="M341.522 57.0845H368.207" stroke="white" stroke-width="0.469"/>
<path d="M341.522 67.3584H368.207" stroke="white" stroke-width="0.469"/>
<path d="M341.522 77.6268H368.207" stroke="white" stroke-width="0.469"/>
<path d="M341.522 87.9007H368.207" stroke="white" stroke-width="0.469"/>
<path d="M341.522 98.1745H368.207" stroke="white" stroke-width="0.469"/>
<path fill-rule="evenodd" clip-rule="evenodd" d="M438.373 50.055C441.356 50.055 443.774 47.6365 443.774 44.6531C443.774 41.6698 441.356 39.2513 438.373 39.2513C435.389 39.2513 432.971 41.6698 432.971 44.6531C432.971 47.6365 435.389 50.055 438.373 50.055Z" stroke="white" stroke-width="0.469"/>
<path d="M438.373 24.419H446.046Z" fill="#5CC9FF"/>
<path d="M438.373 24.419H446.046" stroke="#141414" stroke-width="0.469" stroke-linecap="round"/>
<path d="M352.402 6.31002H360.075Z" fill="#5CC9FF"/>
<path d="M352.402 6.31002H360.075" stroke="#141414" stroke-width="0.469" stroke-linecap="round"/>
<path fill-rule="evenodd" clip-rule="evenodd" d="M91.2676 21.1909H109.739V27.1227H91.2676V21.1909Z" stroke="white" stroke-width="0.469"/>
<path d="M88.6509 31.2538H94.3502V36.9531H88.6509V31.2538Z" fill="#141414" stroke="#141414" stroke-width="0.469" stroke-linecap="round"/>
<path d="M88.3428 189.666H94.0421V195.365H88.3428V189.666Z" fill="#141414" stroke="#141414" stroke-width="0.469" stroke-linecap="round"/>
<path d="M277.533 364.035C313.002 364.035 341.755 362.444 341.755 360.482C341.755 358.52 313.002 356.93 277.533 356.93C242.064 356.93 213.311 358.52 213.311 360.482C213.311 362.444 242.064 364.035 277.533 364.035Z" fill="#141414" stroke="#141414" stroke-width="0.469" stroke-linecap="round"/>
<path d="M90.4677 253.039C95.213 253.039 99.0599 249.193 99.0599 244.447C99.0599 239.702 95.213 235.855 90.4677 235.855C85.7223 235.855 81.8755 239.702 81.8755 244.447C81.8755 249.193 85.7223 253.039 90.4677 253.039Z" fill="white" stroke="#141414" stroke-width="0.469" stroke-linecap="round"/>
<path d="M103.894 239.213H127.627" stroke="#141414" stroke-width="0.469" stroke-linecap="round"/>
<path d="M103.894 244.09H149.315" stroke="#141414" stroke-width="0.469" stroke-linecap="round"/>
<path d="M103.894 248.968H149.315" stroke="#141414" stroke-width="0.469" stroke-linecap="round"/>
<path d="M252.665 36.2448C252.665 36.2448 249.291 34.1197 249.875 30.6645C250.459 27.2092 251.697 34.9146 253.119 33.4546C254.542 31.9946 255.32 37.6615 252.665 36.2448Z" fill="white"/>
<path d="M207.617 89.1119C207.617 89.1119 214.435 80.0763 218.686 80.3413C222.936 80.6062 211.954 86.0135 214.7 87.8304C217.447 89.6472 203.096 95.9521 207.617 89.1119Z" fill="white"/>
<path d="M220.535 79.0111C220.535 79.0111 221.763 75.6532 223.093 76.448C224.423 77.2429 220.989 80.9523 220.535 79.0111Z" fill="white"/>
<path d="M198.295 51.0337C198.295 51.0337 202.377 44.1665 203.226 45.5399C204.075 46.9134 201.426 49.7414 203.226 50.1631C205.027 50.5849 196.705 55.5488 198.295 51.0337Z" fill="white"/>
<path d="M256.034 114.791C256.034 114.791 264.534 111.071 265.513 114.791C266.492 118.511 266.659 113.71 268.519 116.121C270.379 118.533 248.242 119.842 256.034 114.791V114.791Z" fill="white"/>
<path d="M269.958 115.321C269.958 115.321 268.876 112.58 271.71 112.758C274.543 112.936 274.408 115.856 269.958 115.321Z" fill="white"/>
<path d="M277.495 114.067C277.495 114.067 291.278 112.666 294.912 102.392C298.546 92.1183 290.694 86.4569 290.694 86.4569" stroke="white" stroke-width="0.61439" stroke-linecap="round"/>
<path d="M226.001 75.6531C226.001 75.6531 234.415 68.6236 243.094 65.3793" stroke="white" stroke-width="0.61439" stroke-linecap="round"/>
<path d="M208.655 46.1725C208.655 46.1725 219.551 39.6081 228.122 40.8464" stroke="white" stroke-width="0.61439" stroke-linecap="round"/>
<path d="M262.852 28.5177C263.481 28.5005 264.082 28.2566 264.545 27.831" stroke="white" stroke-width="0.61439" stroke-linecap="round"/>
<path d="M250.875 27.831C250.875 27.831 251.854 23.9323 255.833 25.8844C257.229 26.5603 258.478 27.2092 259.619 27.6904" stroke="white" stroke-width="0.61439" stroke-linecap="round"/>
<path d="M247.09 95.7304C245.106 102.068 242.061 109 237.422 114.613" stroke="white" stroke-width="0.61439" stroke-linecap="round"/>
<path d="M249.167 87.8303C248.896 89.1119 248.577 90.4799 248.204 91.902" stroke="white" stroke-width="0.61439" stroke-linecap="round"/>
<path d="M219.653 134.928C218.847 133.68 218.675 132.126 219.188 130.732C220.081 128.428 223.179 127.455 222.827 129.229C222.476 131.002 221.054 133.598 222.562 133.846C224.071 134.095 222.157 136.907 219.653 134.928Z" fill="white"/>
<path d="M224.423 130.11C224.423 130.11 224.152 127.844 226.548 128.315C228.943 128.785 225.039 131.619 224.423 130.11Z" fill="white"/>
<path d="M214.105 240.927C214.105 240.927 209.385 227.95 214.105 221.796C218.826 215.643 219.805 250.844 214.105 240.927Z" fill="white"/>
<path d="M215.025 217C215.025 217 213.332 213.058 215.025 209.97C216.717 206.883 220.913 214.156 215.025 217Z" fill="white"/>
<path d="M217.426 262.556C218.567 268.551 220.02 274.482 221.779 280.325" stroke="white" stroke-width="0.61439" stroke-linecap="round"/>
<path d="M216.171 254.905C216.308 255.882 216.454 256.866 216.609 257.857" stroke="white" stroke-width="0.61439" stroke-linecap="round"/>
<path d="M215.333 247.556C215.414 248.449 215.501 249.346 215.598 250.26" stroke="white" stroke-width="0.61439" stroke-linecap="round"/>
<path d="M219.243 200.659C218.882 202.022 218.522 203.413 218.161 204.833" stroke="white" stroke-width="0.61439" stroke-linecap="round"/>
<path d="M221.795 192.456C221.405 193.537 221.027 194.7 220.659 195.852" stroke="white" stroke-width="0.61439" stroke-linecap="round"/>
<path d="M241.24 157.628C236.778 162.921 229.176 173.309 223.26 188.498" stroke="white" stroke-width="0.61439" stroke-linecap="round"/>
<path d="M244.981 153.551C244.981 153.551 244.44 154.037 243.559 155.005" stroke="white" stroke-width="0.61439" stroke-linecap="round"/>
<path d="M196.348 217.784C196.348 217.784 194.488 207.688 197.235 200.956C199.982 194.224 196.348 207.602 199.538 207.245C202.729 206.888 197.678 224.689 196.348 217.784Z" fill="white"/>
<path d="M198.917 195.846C198.917 195.846 199.133 191.921 200.577 190.061C202.02 188.201 199.711 198.81 198.917 195.846Z" fill="white"/>
<path d="M204.718 176.678C207.157 170.849 211.056 162.251 214.273 158.45" stroke="white" stroke-width="0.61439" stroke-linecap="round"/>
<path d="M202.372 182.539C202.372 182.539 202.707 181.652 203.28 180.203" stroke="white" stroke-width="0.61439" stroke-linecap="round"/>
<path d="M395.439 46.8106C395.439 46.8106 382.137 53.6346 382.494 62.389C382.851 71.1434 389.756 50.6768 397.634 50.055C405.513 49.4331 400.57 43.4851 395.439 46.8106Z" fill="white"/>
<path d="M381.786 66.6824C380.021 67.3013 378.919 69.0584 379.131 70.9163C379.396 74.231 386.214 67.726 381.786 66.6824V66.6824Z" fill="white"/>
<path d="M220.059 60.026L255.325 48.1084" stroke="white" stroke-width="0.61439" stroke-linecap="round"/>
<path d="M212.808 62.4755L215.884 61.4373" stroke="white" stroke-width="0.61439" stroke-linecap="round"/>
<path d="M287.012 36.9423L304.564 31.0105" stroke="white" stroke-width="0.61439" stroke-linecap="round"/>
<path d="M279.766 39.3918L282.837 38.3536" stroke="white" stroke-width="0.61439" stroke-linecap="round"/>
<path d="M204.129 65.4063L207.887 64.1356" stroke="white" stroke-width="0.61439" stroke-linecap="round"/>
<path d="M159.21 80.3358C159.21 80.3358 150.559 83.4559 151.775 85.7756C152.992 88.0953 163.169 81.3795 159.21 80.3358Z" fill="white"/>
<path d="M161.698 78.9732C161.698 78.9732 163.293 75.3611 164.499 77.1185C165.705 78.8759 163.234 80.1303 161.698 78.9732Z" fill="white"/>
<path d="M315.633 25.0246C315.633 25.0246 322.452 21.3693 324.669 23.4024C326.886 25.4356 318.38 25.5167 320.148 27.8202C321.916 30.1237 312.783 26.3007 315.633 25.0246Z" fill="white"/>
<path d="M326.701 21.8073C326.701 21.8073 328.918 20.0391 330.6 20.834C332.282 21.6288 324.955 24.4623 326.701 21.8073Z" fill="white"/>
<path d="M264.545 58.5282C264.545 58.5282 262.079 65.9362 269.741 72.7872" stroke="white" stroke-width="0.469"/>
<path d="M262.295 42.9119C262.295 43.2688 262.236 46.3401 261.587 47.7785C260.938 49.2168 263.15 48.4003 264.096 48.1029" stroke="#141414" stroke-width="0.469"/>
<path d="M312.27 254.624C312.27 254.624 316.552 254.083 316.401 249.573" stroke="white" stroke-width="0.469"/>
<path d="M315.006 256.749C315.006 256.749 319.288 256.208 319.137 251.704" stroke="white" stroke-width="0.469"/>
<path d="M317.742 258.879C317.742 258.879 322.019 258.338 321.873 253.829" stroke="white" stroke-width="0.469"/>
<path d="M270.12 325.551C270.12 325.551 272.764 328.963 276.571 326.53" stroke="white" stroke-width="0.469"/>
<path d="M269.687 328.99C269.687 328.99 272.331 332.397 276.138 329.963" stroke="white" stroke-width="0.469"/>
<path d="M269.26 332.429C269.26 332.429 271.904 335.836 275.711 333.402" stroke="white" stroke-width="0.469"/>
<path d="M263.453 50.693C263.27 50.7398 263.12 50.8713 263.051 51.0468C262.981 51.2223 263 51.4204 263.101 51.5798C263.709 52.558 264.882 53.0275 265.997 52.7388C267.113 52.4501 267.911 51.4703 267.968 50.3199C267.977 50.1328 267.897 49.9523 267.752 49.8339C267.606 49.7154 267.414 49.673 267.232 49.7197L263.453 50.693Z" fill="white" stroke="#141414" stroke-width="0.469"/>
<path d="M265.796 42.6014C267.061 42.4385 268.036 41.9198 267.975 41.443C267.913 40.9661 266.838 40.7116 265.574 40.8745C264.309 41.0374 263.333 41.5561 263.395 42.0329C263.456 42.5098 264.531 42.7643 265.796 42.6014Z" fill="white" stroke="#141414" stroke-width="0.469"/>
<path d="M264.766 41.0248C263.923 41.2573 263.35 41.6466 263.398 42.0143C263.447 42.382 264.096 42.6146 264.972 42.6308C265.432 42.4415 265.734 42.09 265.686 41.7224C265.637 41.3547 265.258 41.0843 264.766 41.0248V41.0248Z" fill="#141414"/>
<path d="M258.331 43.789C259.596 43.6261 260.571 43.1075 260.51 42.6306C260.449 42.1537 259.374 41.8992 258.109 42.0621C256.844 42.225 255.869 42.7437 255.93 43.2206C255.991 43.6974 257.067 43.9519 258.331 43.789Z" fill="white" stroke="#141414" stroke-width="0.61439"/>
<path d="M257.299 42.2198C256.456 42.4523 255.882 42.8417 255.931 43.2094C255.98 43.5771 256.629 43.8096 257.505 43.8204C257.964 43.6365 258.267 43.2797 258.218 42.912C258.1 42.5023 257.726 42.22 257.299 42.2198V42.2198Z" fill="#141414"/>
</svg>
