<svg width="469" height="469" viewBox="0 0 469 469" fill="none" xmlns="http://www.w3.org/2000/svg">
<path d="M230.307 64.0314C230.307 64.0314 303.051 80.2302 315.275 144.258C327.5 208.285 334.165 239.931 408.987 235.408C483.81 230.885 475.29 394.005 324.182 417.356C173.074 440.707 188.588 345.409 114.876 349.932C41.1626 354.455 5.97363 309.25 25.9895 251.242C46.0054 193.235 131.926 233.16 127.112 144.644C121.176 32.3905 230.307 64.0314 230.307 64.0314Z" fill="#B2A5FF"/>
<path d="M250.452 421.307C287.909 421.307 318.274 419.471 318.274 417.205C318.274 414.939 287.909 413.102 250.452 413.102C212.995 413.102 182.63 414.939 182.63 417.205C182.63 419.471 212.995 421.307 250.452 421.307Z" fill="#1E1E1E" stroke="#1E1E1E" stroke-width="1.32" stroke-linecap="round"/>
<path d="M346.44 419.419C356.027 419.419 363.799 418.427 363.799 417.204C363.799 415.982 356.027 414.99 346.44 414.99C336.853 414.99 329.081 415.982 329.081 417.204C329.081 418.427 336.853 419.419 346.44 419.419Z" fill="#1E1E1E" stroke="#1E1E1E" stroke-width="1.32" stroke-linecap="round"/>
<path d="M238.205 376.001C236.636 345.044 236.843 303.336 246.747 280.658C263.787 241.641 240.666 182.372 185.539 217.449C185.539 217.449 184.345 317.579 215.207 381.158C225.689 382.475 235.33 377.627 238.205 376.001Z" fill="#4743EF" stroke="#1E1E1E" stroke-width="1.32" stroke-linecap="round"/>
<path opacity="0.29" d="M250.195 270.474C243.407 253.86 230.016 225.212 224.82 242.616C224.82 242.616 217.225 274.364 223.935 308.443C230.644 342.522 214.563 344.002 218.89 360.486C221.199 369.264 216.777 375.99 214.86 380.424C214.978 380.665 215.09 380.917 215.207 381.158C225.689 382.486 235.33 377.627 238.188 376.001C236.619 345.044 236.826 303.336 246.731 280.658C248.168 277.366 249.327 273.959 250.195 270.474V270.474Z" fill="#0C0C77"/>
<path fill-rule="evenodd" clip-rule="evenodd" d="M238.205 376.001C236.636 345.044 236.843 303.336 246.747 280.658C263.787 241.641 240.666 182.372 185.539 217.449C185.539 217.449 184.345 317.579 215.207 381.158C225.689 382.475 235.33 377.627 238.205 376.001Z" stroke="#1E1E1E" stroke-width="1.32" stroke-linecap="round"/>
<path d="M224.809 242.616C227.342 251.105 230.85 259.272 235.262 266.954C249.426 291.824 253.86 340.784 254.409 377.576C258.288 378.613 266.741 380.609 274.588 380.659C309.048 291.19 296.627 230.901 296.627 230.901C284.531 197.686 222.079 203.857 222.079 203.857" fill="#4743EF"/>
<path d="M296.846 272.705C288.483 271.23 280.031 279.61 277.946 291.414C275.86 303.219 280.961 313.986 289.324 315.455C290.664 315.688 292.035 315.676 293.371 315.421C296.048 301.459 297.76 287.328 298.494 273.131C297.957 272.943 297.406 272.801 296.846 272.705V272.705Z" fill="#7A7AF9" stroke="#1E1E1E" stroke-width="1.32"/>
<path opacity="0.29" d="M255.362 377.829C259.566 378.905 267.352 380.631 274.566 380.631C309.048 291.19 296.627 230.901 296.627 230.901C293.741 222.976 287.984 217.298 280.899 213.24C262.447 212.309 239.713 212.304 232.695 217.191C232.695 217.191 275.126 214.478 275.855 263.619C276.583 312.759 260.844 330.191 267.391 350.913C272.615 367.515 261.965 371.265 255.362 377.829Z" fill="#0C0C77"/>
<path d="M224.809 242.616C227.342 251.105 230.85 259.272 235.262 266.954C249.426 291.824 253.86 340.784 254.409 377.576C258.288 378.613 266.741 380.609 274.588 380.659C309.048 291.19 296.627 230.901 296.627 230.901C284.531 197.686 222.079 203.857 222.079 203.857" stroke="#1E1E1E" stroke-width="1.32" stroke-linecap="round"/>
<path d="M243.883 288.595C241.518 280.322 238.67 272.94 235.262 266.954C230.85 259.272 227.342 251.105 224.809 242.616C220.594 261.405 232.415 303.191 239.64 309.665C240.492 302.545 241.91 295.505 243.883 288.612V288.595Z" fill="#1E1E1E" stroke="#1E1E1E" stroke-width="1.32" stroke-linecap="round"/>
<path d="M210.319 114.466C210.319 114.466 144.74 136.074 140.435 171.386C139.874 175.747 140.048 179.379 140.771 182.322C142.195 183.331 147.497 191.29 159.33 177.776C171.162 164.262 196.368 140.379 194.395 150.02C192.422 159.66 185.371 190.376 185.393 224.007C192.064 220.302 261.315 207.461 296.627 230.924C292.182 210.185 287.917 176.1 287.917 176.1C287.917 176.1 303.051 160.17 296.885 146.343C290.719 132.515 305.517 105.083 210.319 114.466V114.466Z" fill="#F95808"/>
<path d="M199.776 118.474C193.112 119.954 217.668 130.805 190.444 138.215C151.69 148.764 141.578 180.181 140.866 182.384C142.419 183.634 147.716 191.004 159.33 177.759C171.162 164.257 196.385 140.379 194.395 150.02C193.908 152.391 193.112 156.051 192.193 160.709C203.795 150.754 213.24 141.13 215.28 138.602C220.667 131.926 206.474 117.011 199.776 118.474V118.474Z" fill="#D83B05"/>
<path d="M230.817 116.26C231.856 114.498 234.125 113.912 235.887 114.951V114.951C237.648 115.989 238.234 118.259 237.196 120.02L211.534 163.549C210.496 165.311 208.226 165.897 206.465 164.858V164.858C204.704 163.82 204.118 161.55 205.156 159.789L230.817 116.26Z" fill="#D83B05"/>
<path d="M296.627 230.901C292.182 210.163 287.917 176.078 287.917 176.078C289.404 174.444 290.769 172.703 292.003 170.871C287.85 165.266 284.274 161.224 283.752 160.535C285.664 150.905 268.355 145.44 268.355 145.44C282.704 155.67 246.131 187.686 253.557 195.959C260.984 204.232 252.571 209.17 232.734 208.8C212.898 208.431 185.551 216.451 185.416 223.985C192.064 220.28 261.315 207.438 296.627 230.901V230.901Z" fill="#D83B05"/>
<path fill-rule="evenodd" clip-rule="evenodd" d="M210.319 114.466C210.319 114.466 144.74 136.074 140.435 171.386C139.874 175.747 140.048 179.379 140.771 182.322C142.195 183.331 147.497 191.29 159.33 177.776C171.162 164.262 196.368 140.379 194.395 150.02C192.422 159.66 185.371 190.376 185.393 224.007C192.064 220.302 261.315 207.461 296.627 230.924C292.182 210.185 287.917 176.1 287.917 176.1C287.917 176.1 303.051 160.17 296.885 146.343C290.719 132.515 305.517 105.083 210.319 114.466V114.466Z" stroke="#1E1E1E" stroke-width="1.32"/>
<path d="M257.481 196.329H215.303C231.911 176.874 231.361 150.289 231.361 150.289H273.557C273.557 150.289 272.537 185.354 257.481 196.329V196.329Z" fill="#FCD638" stroke="#1E1E1E" stroke-width="1.32" stroke-linecap="round"/>
<path d="M261.45 200.253H219.26C235.873 180.797 235.324 154.212 235.324 154.212H277.514C277.514 154.212 276.499 189.283 261.45 200.253Z" fill="#FCD638"/>
<path d="M261.747 171.723C249.522 186.705 240.167 183.426 243.25 189.721C245.727 194.765 228.239 195.808 219.652 199.743C219.512 199.911 219.383 200.084 219.237 200.253H261.427C276.477 189.278 277.491 154.212 277.491 154.212H235.324C235.324 154.212 273.971 156.746 261.747 171.723V171.723Z" fill="#F9A23A"/>
<path fill-rule="evenodd" clip-rule="evenodd" d="M261.45 200.253H219.26C235.873 180.797 235.324 154.212 235.324 154.212H277.514C277.514 154.212 276.499 189.283 261.45 200.253Z" stroke="#1E1E1E" stroke-width="1.32" stroke-linecap="round"/>
<path d="M225.816 116.257C226.854 114.496 229.124 113.909 230.885 114.948V114.948C232.646 115.986 233.233 118.256 232.194 120.017L206.533 163.546C205.495 165.308 203.225 165.894 201.464 164.856V164.856C199.702 163.817 199.116 161.548 200.154 159.786L225.816 116.257Z" fill="white"/>
<path opacity="0.23" d="M224.848 132.487C223.318 131.321 220.599 131.214 216.266 132.582C216.266 132.582 220.123 138.12 216.95 140.743C213.985 143.192 206.766 161.185 200.847 164.402C201.037 164.575 201.243 164.729 201.463 164.862C202.309 165.363 203.319 165.506 204.271 165.261C205.222 165.016 206.037 164.403 206.536 163.556L224.848 132.487Z" fill="#1E1E1E"/>
<path fill-rule="evenodd" clip-rule="evenodd" d="M225.816 116.257C226.854 114.496 229.124 113.909 230.885 114.948V114.948C232.646 115.986 233.233 118.256 232.194 120.017L206.533 163.546C205.495 165.308 203.225 165.894 201.464 164.856V164.856C199.702 163.817 199.116 161.548 200.154 159.786L225.816 116.257Z" stroke="#1E1E1E" stroke-width="1.32" stroke-linecap="round"/>
<path d="M202.915 156.073C189.794 175.926 151.348 208.52 140.822 182.529C140.822 182.529 143.305 168.376 166.83 153.383C191.139 137.862 215.078 140.609 214.518 141.612C213.957 142.615 210.628 142.783 210.757 143.467C222.668 147.391 211.771 159.61 210.32 157.048C212.511 153.837 207.977 147.974 202.915 156.118" fill="white"/>
<path d="M210.32 114.466C210.32 114.466 144.74 136.074 140.435 171.386C136.13 206.699 176.493 194.227 202.915 156.073C207.96 147.929 212.511 153.792 210.32 157.004C211.771 159.565 222.651 147.34 210.757 143.422C210.628 142.739 213.963 142.554 214.518 141.567C215.073 140.581 191.649 138.664 166.83 153.338C148.63 164.116 142.727 176.487 140.777 182.328" stroke="#1E1E1E" stroke-width="1.32"/>
<path d="M283.752 160.512C283.752 160.563 283.752 160.619 283.724 160.675C281.011 173.006 228.413 161.235 226.496 161.459C224.579 161.684 228.054 164.823 228.413 164.733C223.592 165.518 217.421 169.778 217.006 171.543C216.592 173.309 218.469 171.28 224.091 169.301C216.743 173.623 216.188 178.645 217.668 177.272C219.209 174.979 226.047 171.594 226.602 171.919C227.157 172.244 218.654 177.059 220.078 179.48C222.421 177.126 230.616 172.933 230.307 174.374C223.077 177.838 224.338 180.954 224.338 180.954C224.338 180.954 232.818 173.404 236.372 176.543C255.132 197.192 292.306 199.272 310.965 184.015C309.895 161.583 291.426 160.154 283.752 160.512V160.512Z" fill="white"/>
<path fill-rule="evenodd" clip-rule="evenodd" d="M283.752 160.512C283.752 160.563 283.752 160.619 283.724 160.675C281.011 173.006 228.413 161.235 226.496 161.459C224.579 161.684 228.054 164.823 228.413 164.733C223.592 165.518 217.421 169.778 217.006 171.543C216.592 173.309 218.469 171.28 224.091 169.301C216.743 173.623 216.188 178.645 217.668 177.272C219.209 174.979 226.047 171.594 226.602 171.919C227.157 172.244 218.654 177.059 220.078 179.48C222.421 177.126 230.616 172.933 230.307 174.374C223.077 177.838 224.338 180.954 224.338 180.954C224.338 180.954 232.818 173.404 236.372 176.543C255.132 197.192 292.306 199.272 310.965 184.015C309.895 161.583 291.426 160.154 283.752 160.512V160.512Z" stroke="#1E1E1E" stroke-width="1.32" stroke-linecap="round"/>
<path d="M275.636 116.563C275.636 116.563 320.954 119.836 322.187 158.993C322.529 169.822 318.095 178.18 310.976 184.015C309.906 161.594 291.437 160.154 283.764 160.535C285.675 150.905 268.366 145.44 268.366 145.44C262.683 143.977 231.591 152.901 226.014 146.444C220.437 139.986 237.224 131.102 239.433 130.979C241.641 130.856 275.636 116.563 275.636 116.563Z" fill="#F95808"/>
<path d="M275.636 116.563C275.636 116.563 228.844 131.366 226.619 131.506C226.129 131.592 225.689 131.856 225.38 132.246C224.697 133.367 221.698 138.658 221.182 139.902C221.182 139.902 240.34 150.272 272.682 136.691C293.544 125.951 314.037 142.015 312.557 163.875C312.305 167.256 310.812 170.425 308.364 172.771C309.976 176.314 310.86 180.145 310.965 184.037C318.095 178.202 322.528 169.845 322.175 159.016C320.953 119.836 275.636 116.563 275.636 116.563V116.563Z" fill="#D83B05"/>
<path d="M268.355 145.44C268.355 145.44 285.664 150.905 283.752 160.535C291.426 160.154 309.895 161.583 310.965 184.015C318.095 178.18 322.528 169.822 322.175 158.993C320.942 119.836 275.625 116.563 275.625 116.563" stroke="#1E1E1E" stroke-width="1.32" stroke-linecap="round"/>
<path d="M243.272 139.403C274.024 139.403 298.953 114.474 298.953 83.7222C298.953 52.9703 274.024 28.0409 243.272 28.0409C212.52 28.0409 187.591 52.9703 187.591 83.7222C187.591 114.474 212.52 139.403 243.272 139.403Z" fill="white" stroke="#1E1E1E" stroke-width="1.32" stroke-linecap="round"/>
<path d="M243.272 34.8735C223.511 34.8713 205.695 46.7734 198.132 65.0295C190.569 83.2856 194.748 104.3 208.721 118.273C222.694 132.246 243.709 136.425 261.965 128.862C280.221 121.299 292.123 103.483 292.121 83.7222C292.038 56.7783 270.216 34.9566 243.272 34.8735V34.8735Z" fill="#7DBBF9"/>
<path fill-rule="evenodd" clip-rule="evenodd" d="M243.272 132.571C270.25 132.571 292.121 110.701 292.121 83.7222C292.121 56.7438 270.25 34.8735 243.272 34.8735C216.294 34.8735 194.423 56.7438 194.423 83.7222C194.423 110.701 216.294 132.571 243.272 132.571Z" stroke="#1E1E1E" stroke-width="1.32" stroke-linecap="round"/>
<path d="M250.452 370.301C250.452 370.301 260.889 376.595 282.306 374.931" stroke="#1E1E1E" stroke-width="1.32" stroke-linecap="round"/>
<path d="M206.805 375.71C206.805 375.71 219.501 378.21 241.041 369.471" stroke="#1E1E1E" stroke-width="1.32" stroke-linecap="round"/>
<path d="M276.6 235.509C276.6 235.509 273.971 248.328 287.934 247.935" stroke="#1E1E1E" stroke-width="1.32" stroke-linecap="round"/>
<path d="M266.214 401.252C266.206 401.065 266.217 400.877 266.247 400.692C269.285 393.868 272.056 387.196 274.56 380.676C266.757 380.625 258.305 378.63 254.381 377.593C254.493 385.474 254.432 392.794 254.252 399.201C254.073 405.607 254.617 404.75 266.214 401.252V401.252Z" fill="white"/>
<path fill-rule="evenodd" clip-rule="evenodd" d="M266.214 401.252C266.206 401.065 266.217 400.877 266.247 400.692C269.285 393.868 272.056 387.196 274.56 380.676C266.757 380.625 258.305 378.63 254.381 377.593C254.493 385.474 254.432 392.794 254.252 399.201C254.073 405.607 254.617 404.75 266.214 401.252V401.252Z" stroke="#1E1E1E" stroke-width="1.32" stroke-linecap="round"/>
<path d="M276.628 411.291C274.454 411.168 266.298 405.423 266.22 401.252C254.623 404.75 254.286 399.184 254.286 399.184C254.101 405.641 253.793 411.173 253.417 415.405C284.532 421.005 285.271 411.784 276.628 411.291V411.291Z" fill="#FC8606"/>
<path d="M276.628 411.291C274.453 411.168 266.298 405.423 266.219 401.252C264.849 401.676 263.45 401.999 262.032 402.217C261.982 404.363 262.369 408.455 265.765 409.935C270.457 411.969 273.422 416.246 261.197 415.686C260.776 415.789 260.424 416.078 260.239 416.47C284.587 419.598 284.587 411.745 276.628 411.291V411.291Z" fill="#F95808"/>
<path fill-rule="evenodd" clip-rule="evenodd" d="M276.628 411.291C274.454 411.168 266.298 405.423 266.22 401.252C254.623 404.75 254.286 399.184 254.286 399.184C254.101 405.641 253.793 411.173 253.417 415.405C284.532 421.005 285.271 411.784 276.628 411.291V411.291Z" stroke="#1E1E1E" stroke-width="1.32" stroke-linecap="round"/>
<path d="M239.825 399.588C239.264 393.125 238.659 385.014 238.205 376.001C235.33 377.627 225.689 382.486 215.224 381.158C218.918 388.921 223.355 396.308 228.475 403.214C236.972 404.335 239.825 399.588 239.825 399.588V399.588Z" fill="white"/>
<path fill-rule="evenodd" clip-rule="evenodd" d="M239.825 399.588C239.264 393.125 238.659 385.014 238.205 376.001C235.33 377.627 225.689 382.486 215.224 381.158C218.918 388.921 223.355 396.308 228.475 403.214C236.972 404.335 239.825 399.588 239.825 399.588V399.588Z" stroke="#1E1E1E" stroke-width="1.32" stroke-linecap="round"/>
<path d="M208.778 413.359C208.285 417.283 241.377 415.041 241.377 415.041C241.377 415.041 240.649 409.111 239.825 399.604C239.825 399.604 236.972 404.341 228.474 403.214C224.029 411.095 209.277 409.408 208.778 413.359V413.359Z" fill="#FC8606"/>
<path d="M239.825 399.588C239.825 399.588 237.622 403.237 231.333 403.365C232.925 405.641 236.422 411.274 232.712 412.154C229.444 412.933 219.484 410.546 212.802 410.809C210.56 411.414 208.935 412.104 208.778 413.359C208.285 417.283 241.377 415.041 241.377 415.041C241.377 415.041 240.665 409.094 239.825 399.588V399.588Z" fill="#F95808"/>
<path fill-rule="evenodd" clip-rule="evenodd" d="M208.778 413.359C208.285 417.283 241.377 415.041 241.377 415.041C241.377 415.041 240.649 409.111 239.825 399.604C239.825 399.604 236.972 404.341 228.474 403.214C224.029 411.095 209.277 409.408 208.778 413.359V413.359Z" stroke="#1E1E1E" stroke-width="1.32" stroke-linecap="round"/>
<path d="M243.39 109.141C269.981 109.141 291.538 99.1536 291.538 86.833C291.538 74.5125 269.981 64.5247 243.39 64.5247C216.798 64.5247 195.242 74.5125 195.242 86.833C195.242 99.1536 216.798 109.141 243.39 109.141Z" fill="white"/>
<path opacity="0.1" d="M243.592 34.8735C240.872 34.8758 238.157 35.1046 235.476 35.5574C258.997 39.5102 276.224 59.8735 276.224 83.725C276.224 107.576 258.997 127.94 235.476 131.893C253.645 134.952 271.991 127.528 282.918 112.692C293.846 97.8566 295.496 78.1346 287.185 61.6896C278.874 45.2447 262.017 34.8752 243.592 34.8735V34.8735Z" fill="#070707"/>
<path fill-rule="evenodd" clip-rule="evenodd" d="M243.39 109.141C269.981 109.141 291.538 99.1536 291.538 86.833C291.538 74.5125 269.981 64.5247 243.39 64.5247C216.798 64.5247 195.242 74.5125 195.242 86.833C195.242 99.1536 216.798 109.141 243.39 109.141Z" stroke="#1E1E1E" stroke-width="1.32" stroke-linecap="round"/>
<path d="M251.696 69.6477C242.36 69.6599 234.009 75.4565 230.732 84.1988C227.455 92.9411 229.938 102.799 236.966 108.945C239.068 109.074 241.209 109.147 243.39 109.147C252.25 109.216 261.073 108.005 269.588 105.554C274.679 98.7668 275.502 89.6874 271.715 82.0951C267.928 74.5028 260.181 69.6983 251.696 69.6813V69.6477Z" fill="#1E1E1E" stroke="#1E1E1E" stroke-width="1.32" stroke-linecap="round"/>
<path d="M190.606 274.369C189.97 274.482 189.345 274.653 188.74 274.879C190.147 288.068 192.176 302.552 195.09 317.232C196.103 317.336 197.125 317.3 198.128 317.125C206.491 315.651 211.581 304.889 209.507 293.085C207.433 281.28 198.969 272.901 190.606 274.369V274.369Z" fill="#7A7AF9" stroke="#1E1E1E" stroke-width="1.32"/>
<path opacity="0.23" d="M310.965 184.014C310.86 180.123 309.976 176.292 308.364 172.748C295.377 185.859 255.883 185.214 239.074 173.309C233.351 169.262 228.194 169.946 223.772 172.989C225.212 172.272 226.389 171.829 226.602 171.958C227.163 172.283 218.654 177.098 220.078 179.519C222.421 177.165 230.616 172.972 230.307 174.413C223.077 177.877 224.338 180.993 224.338 180.993C224.338 180.993 232.818 173.404 236.372 176.543C255.132 197.192 292.305 199.272 310.965 184.014V184.014Z" fill="#1E1E1E"/>
<path opacity="0.23" d="M211.373 148.237C195.629 139.902 160.995 188.426 150.07 188.168C139.23 187.916 146.147 171.992 146.287 171.734C141.595 178.174 140.822 182.529 140.822 182.529C151.365 208.52 189.794 175.926 202.915 156.073C207.96 147.929 212.511 153.792 210.32 157.003C211.015 158.22 213.84 156.09 215.331 153.08C215.157 151.281 213.974 149.61 211.373 148.237V148.237Z" fill="#1E1E1E"/>
<path d="M264.527 82.3041C268.619 82.3041 271.937 78.9865 271.937 74.8941C271.937 70.8017 268.619 67.4841 264.527 67.4841C260.434 67.4841 257.117 70.8017 257.117 74.8941C257.117 78.9865 260.434 82.3041 264.527 82.3041Z" fill="white"/>
<path d="M237.717 38.2815C237.717 38.2815 222.421 40.0751 214.148 51.5544C210.88 57.2997 216.39 56.8681 217.791 52.9164C219.193 48.9648 227.359 41.9865 231.927 42.0481C236.496 42.1098 242.263 38.0965 237.717 38.2815V38.2815Z" fill="white"/>
<path d="M210.505 59.6202C210.505 59.6202 211.794 58.0171 213.128 58.1404C214.462 58.2637 213.778 62.4003 212.175 62.0304C210.572 61.6605 209.765 61.5596 210.505 59.6202Z" fill="white"/>
<path opacity="0.23" d="M265.637 379.914C265.143 384.14 262.957 397.592 254.987 400.748C256.108 402.076 258.944 403.444 266.197 401.252C266.189 401.065 266.201 400.877 266.231 400.692C269.269 393.868 272.039 387.196 274.543 380.676C271.56 380.628 268.584 380.374 265.637 379.914V379.914Z" fill="#1E1E1E"/>
<path opacity="0.23" d="M239.825 399.588C239.265 393.125 238.659 385.014 238.205 376.001C234.204 378.224 229.884 379.816 225.397 380.721C228.357 385.592 234.248 397.048 228.105 402.687L228.475 403.197C236.972 404.335 239.825 399.588 239.825 399.588V399.588Z" fill="#1E1E1E"/>
<path d="M265.328 406.291C266.782 404.864 268.763 404.105 270.799 404.195" stroke="#1E1E1E" stroke-width="1.32" stroke-linecap="round"/>
<path d="M267.01 408.685C268.464 407.258 270.445 406.498 272.48 406.588" stroke="#1E1E1E" stroke-width="1.32" stroke-linecap="round"/>
<path d="M269.487 410.792C270.94 409.362 272.922 408.601 274.958 408.69" stroke="#1E1E1E" stroke-width="1.32" stroke-linecap="round"/>
<path d="M228.133 406.577C226.68 405.147 224.698 404.385 222.662 404.475" stroke="#1E1E1E" stroke-width="1.32" stroke-linecap="round"/>
<path d="M225.436 408.685C223.982 407.258 222.001 406.498 219.966 406.588" stroke="#1E1E1E" stroke-width="1.32" stroke-linecap="round"/>
<path d="M222.729 410.501C221.275 409.074 219.294 408.315 217.259 408.404" stroke="#1E1E1E" stroke-width="1.32" stroke-linecap="round"/>
<path fill-rule="evenodd" clip-rule="evenodd" d="M216.617 405.451C218.426 405.373 219.878 404.968 219.86 404.547C219.842 404.127 218.36 403.849 216.551 403.928C214.742 404.007 213.29 404.412 213.308 404.832C213.326 405.253 214.808 405.53 216.617 405.451Z" stroke="#1E1E1E" stroke-width="1.32" stroke-linecap="round"/>
<path fill-rule="evenodd" clip-rule="evenodd" d="M222.163 402.073C223.056 400.498 223.483 399.052 223.116 398.845C222.75 398.637 221.729 399.746 220.837 401.322C219.944 402.898 219.518 404.343 219.884 404.551C220.25 404.758 221.271 403.649 222.163 402.073Z" stroke="#1E1E1E" stroke-width="1.32" stroke-linecap="round"/>
<path fill-rule="evenodd" clip-rule="evenodd" d="M279.169 405.449C279.239 405.034 277.849 404.452 276.063 404.15C274.278 403.847 272.773 403.938 272.703 404.353C272.633 404.768 274.023 405.35 275.809 405.653C277.594 405.956 279.098 405.864 279.169 405.449Z" stroke="#1E1E1E" stroke-width="1.32" stroke-linecap="round"/>
<path fill-rule="evenodd" clip-rule="evenodd" d="M272.68 404.284C273.069 404.123 272.825 402.636 272.135 400.962C271.445 399.288 270.57 398.06 270.181 398.221C269.792 398.381 270.036 399.869 270.726 401.543C271.416 403.217 272.291 404.444 272.68 404.284Z" stroke="#1E1E1E" stroke-width="1.32" stroke-linecap="round"/>
<path opacity="0.4" d="M194.418 122.678C194.418 122.678 169.649 136.012 164.672 141.937C160.81 146.937 201.363 123.233 194.418 122.678Z" fill="white"/>
<path opacity="0.4" d="M160.07 145.44C160.07 145.44 154.14 150.305 155.255 150.289C156.37 150.272 162.474 146.903 160.07 145.44Z" fill="white"/>
<path opacity="0.4" d="M194.418 175.646C194.418 175.646 190.814 183.981 191.924 189.536C193.033 195.09 196.738 186.201 196.738 178.056C196.738 169.912 194.418 175.646 194.418 175.646V175.646Z" fill="white"/>
<path d="M287.749 153.355C288.357 154.516 288.892 155.714 289.352 156.942" stroke="white" stroke-width="1.32" stroke-linecap="round"/>
<path d="M274.106 139.902C278.191 141.941 281.767 144.87 284.571 148.473" stroke="white" stroke-width="1.32" stroke-linecap="round"/>
<path d="M191.901 197.506C190.8 203.75 190.12 210.06 189.866 216.395" stroke="white" stroke-width="1.32" stroke-linecap="round"/>
<path d="M260.446 363.261C260.39 364.688 260.319 366.129 260.233 367.582" stroke="white" stroke-width="1.32" stroke-linecap="round"/>
<path d="M260.698 353.693C260.698 355.169 260.672 356.664 260.62 358.177" stroke="white" stroke-width="1.32" stroke-linecap="round"/>
<path d="M257.279 306.621C259.496 320.64 260.642 334.808 260.71 349.001" stroke="white" stroke-width="1.32" stroke-linecap="round"/>
<path d="M240.565 248.558C244.561 257.487 250.228 272.262 254.533 292.031" stroke="white" stroke-width="1.32" stroke-linecap="round"/>
<path d="M235.621 238.681C235.621 238.681 236.512 240.172 237.958 243.065" stroke="white" stroke-width="1.32" stroke-linecap="round"/>
<path opacity="0.4" d="M189.889 235.716C189.889 235.716 192.417 305.354 203.038 335.728C208.963 347.83 208.644 336.945 205.28 326.345C201.917 315.746 191.677 261.404 196.738 243.866C201.8 226.328 189.424 226.12 189.889 235.716V235.716Z" fill="white"/>
<path opacity="0.4" d="M207.685 345.358C207.685 345.358 214.411 354.248 211.435 356.72C208.459 359.192 202.209 345.851 207.685 345.358Z" fill="white"/>
<path d="M216.468 119.208C221.945 123.661 228.503 126.583 235.475 127.678" stroke="white"/>
<path d="M204.647 105.453C206.129 108.102 207.886 110.587 209.888 112.869" stroke="white"/>
<path d="M212.175 152.559C212.175 152.559 213.61 154.98 212.954 156.269" stroke="#1E1E1E"/>
<path d="M212.64 149.47C212.64 149.47 215.319 150.95 215.319 153.355" stroke="#1E1E1E"/>
<path d="M212.848 147.111C212.848 147.111 215.729 148.232 216.239 150.115" stroke="#1E1E1E"/>
</svg>
