<svg width="100" height="101" viewBox="0 0 100 101" fill="none" xmlns="http://www.w3.org/2000/svg">
<circle cx="50" cy="50.3815" r="50" fill="#E7E7FF"/>
<path d="M40.8536 61.8144C40.4014 61.8144 39.9593 61.9485 39.5833 62.1998C39.2072 62.451 38.9142 62.8081 38.7411 63.226C38.568 63.6438 38.5227 64.1035 38.611 64.5471C38.6992 64.9906 38.917 65.3981 39.2368 65.7179C39.5565 66.0376 39.964 66.2554 40.4075 66.3436C40.8511 66.4319 41.3108 66.3866 41.7287 66.2135C42.1465 66.0405 42.5036 65.7474 42.7548 65.3714C43.0061 64.9953 43.1402 64.5532 43.1402 64.101C43.1402 63.4946 42.8993 62.913 42.4705 62.4841C42.0417 62.0553 41.4601 61.8144 40.8536 61.8144V61.8144ZM40.8536 48.0949C40.4014 48.0949 39.9593 48.229 39.5833 48.4803C39.2072 48.7315 38.9142 49.0886 38.7411 49.5064C38.568 49.9243 38.5227 50.384 38.611 50.8276C38.6992 51.2711 38.917 51.6786 39.2368 51.9983C39.5565 52.3181 39.964 52.5359 40.4075 52.6241C40.8511 52.7124 41.3108 52.6671 41.7287 52.494C42.1465 52.3209 42.5036 52.0279 42.7548 51.6518C43.0061 51.2758 43.1402 50.8337 43.1402 50.3815C43.1402 49.775 42.8993 49.1934 42.4705 48.7646C42.0417 48.3358 41.4601 48.0949 40.8536 48.0949V48.0949ZM59.1463 27.5156H40.8536C38.4279 27.5156 36.1014 28.4793 34.3862 30.1945C32.6709 31.9098 31.7073 34.2362 31.7073 36.662V64.101C31.7073 66.5268 32.6709 68.8532 34.3862 70.5684C36.1014 72.2837 38.4279 73.2473 40.8536 73.2473H59.1463C61.5721 73.2473 63.8985 72.2837 65.6137 70.5684C67.329 68.8532 68.2926 66.5268 68.2926 64.101V36.662C68.2926 34.2362 67.329 31.9098 65.6137 30.1945C63.8985 28.4793 61.5721 27.5156 59.1463 27.5156ZM63.7195 64.101C63.7195 65.3139 63.2377 66.4771 62.38 67.3347C61.5224 68.1923 60.3592 68.6742 59.1463 68.6742H40.8536C39.6407 68.6742 38.4775 68.1923 37.6199 67.3347C36.7623 66.4771 36.2804 65.3139 36.2804 64.101V58.2473C37.6615 59.0786 39.2417 59.5211 40.8536 59.5278H59.1463C60.7583 59.5211 62.3384 59.0786 63.7195 58.2473V64.101ZM63.7195 50.3815C63.7195 51.5944 63.2377 52.7576 62.38 53.6152C61.5224 54.4728 60.3592 54.9547 59.1463 54.9547H40.8536C39.6407 54.9547 38.4775 54.4728 37.6199 53.6152C36.7623 52.7576 36.2804 51.5944 36.2804 50.3815V44.5278C37.6615 45.3591 39.2417 45.8016 40.8536 45.8083H59.1463C60.7583 45.8016 62.3384 45.3591 63.7195 44.5278V50.3815ZM59.1463 41.2351H40.8536C39.6407 41.2351 38.4775 40.7533 37.6199 39.8957C36.7623 39.0381 36.2804 37.8748 36.2804 36.662C36.2804 35.4491 36.7623 34.2859 37.6199 33.4282C38.4775 32.5706 39.6407 32.0888 40.8536 32.0888H59.1463C60.3592 32.0888 61.5224 32.5706 62.38 33.4282C63.2377 34.2859 63.7195 35.4491 63.7195 36.662C63.7195 37.8748 63.2377 39.0381 62.38 39.8957C61.5224 40.7533 60.3592 41.2351 59.1463 41.2351V41.2351Z" fill="#6563FF"/>
</svg>
