<svg width="100" height="101" viewBox="0 0 100 101" fill="none" xmlns="http://www.w3.org/2000/svg">
<circle cx="50" cy="50.6548" r="50" fill="#E7E7FF"/>
<path d="M45.4267 52.9415H29.4206C28.8142 52.9415 28.2326 53.1824 27.8038 53.6112C27.3749 54.04 27.134 54.6216 27.134 55.2281V71.2342C27.134 71.8406 27.3749 72.4222 27.8038 72.851C28.2326 73.2799 28.8142 73.5208 29.4206 73.5208H45.4267C46.0332 73.5208 46.6148 73.2799 47.0436 72.851C47.4724 72.4222 47.7133 71.8406 47.7133 71.2342V55.2281C47.7133 54.6216 47.4724 54.04 47.0436 53.6112C46.6148 53.1824 46.0332 52.9415 45.4267 52.9415ZM43.1401 68.9476H31.7072V57.5147H43.1401V68.9476ZM70.5792 27.7891H54.5731C53.9666 27.7891 53.385 28.03 52.9562 28.4588C52.5274 28.8876 52.2865 29.4692 52.2865 30.0756V46.0817C52.2865 46.6882 52.5274 47.2698 52.9562 47.6986C53.385 48.1274 53.9666 48.3683 54.5731 48.3683H70.5792C71.1856 48.3683 71.7672 48.1274 72.196 47.6986C72.6248 47.2698 72.8657 46.6882 72.8657 46.0817V30.0756C72.8657 29.4692 72.6248 28.8876 72.196 28.4588C71.7672 28.03 71.1856 27.7891 70.5792 27.7891V27.7891ZM68.2926 43.7952H56.8596V32.3622H68.2926V43.7952ZM70.5792 52.9415H54.5731C53.9666 52.9415 53.385 53.1824 52.9562 53.6112C52.5274 54.04 52.2865 54.6216 52.2865 55.2281V71.2342C52.2865 71.8406 52.5274 72.4222 52.9562 72.851C53.385 73.2799 53.9666 73.5208 54.5731 73.5208H70.5792C71.1856 73.5208 71.7672 73.2799 72.196 72.851C72.6248 72.4222 72.8657 71.8406 72.8657 71.2342V55.2281C72.8657 54.6216 72.6248 54.04 72.196 53.6112C71.7672 53.1824 71.1856 52.9415 70.5792 52.9415ZM68.2926 68.9476H56.8596V57.5147H68.2926V68.9476ZM45.4267 27.7891H29.4206C28.8142 27.7891 28.2326 28.03 27.8038 28.4588C27.3749 28.8876 27.134 29.4692 27.134 30.0756V46.0817C27.134 46.6882 27.3749 47.2698 27.8038 47.6986C28.2326 48.1274 28.8142 48.3683 29.4206 48.3683H45.4267C46.0332 48.3683 46.6148 48.1274 47.0436 47.6986C47.4724 47.2698 47.7133 46.6882 47.7133 46.0817V30.0756C47.7133 29.4692 47.4724 28.8876 47.0436 28.4588C46.6148 28.03 46.0332 27.7891 45.4267 27.7891V27.7891ZM43.1401 43.7952H31.7072V32.3622H43.1401V43.7952Z" fill="#6563FF"/>
</svg>
