<svg width="101" height="101" viewBox="0 0 101 101" fill="none" xmlns="http://www.w3.org/2000/svg">
<circle cx="50.2164" cy="50.3815" r="50" fill="#E7E7FF"/>
<path d="M36.4968 52.6679H27.3505C26.744 52.6679 26.1624 52.9088 25.7336 53.3376C25.3048 53.7665 25.0639 54.3481 25.0639 54.9545V73.2472C25.0639 73.8536 25.3048 74.4352 25.7336 74.864C26.1624 75.2929 26.744 75.5338 27.3505 75.5338H36.4968C37.1033 75.5338 37.6849 75.2929 38.1137 74.864C38.5425 74.4352 38.7834 73.8536 38.7834 73.2472V54.9545C38.7834 54.3481 38.5425 53.7665 38.1137 53.3376C37.6849 52.9088 37.1033 52.6679 36.4968 52.6679ZM34.2102 70.9606H29.6371V57.2411H34.2102V70.9606ZM73.0822 43.5216H63.9359C63.3294 43.5216 62.7478 43.7625 62.319 44.1913C61.8902 44.6201 61.6493 45.2017 61.6493 45.8082V73.2472C61.6493 73.8536 61.8902 74.4352 62.319 74.864C62.7478 75.2929 63.3294 75.5338 63.9359 75.5338H73.0822C73.6886 75.5338 74.2702 75.2929 74.6991 74.864C75.1279 74.4352 75.3688 73.8536 75.3688 73.2472V45.8082C75.3688 45.2017 75.1279 44.6201 74.6991 44.1913C74.2702 43.7625 73.6886 43.5216 73.0822 43.5216ZM70.7956 70.9606H66.2224V48.0947H70.7956V70.9606ZM54.7895 25.2289H45.6432C45.0367 25.2289 44.4551 25.4698 44.0263 25.8986C43.5975 26.3274 43.3566 26.909 43.3566 27.5155V73.2472C43.3566 73.8536 43.5975 74.4352 44.0263 74.864C44.4551 75.2929 45.0367 75.5338 45.6432 75.5338H54.7895C55.396 75.5338 55.9776 75.2929 56.4064 74.864C56.8352 74.4352 57.0761 73.8536 57.0761 73.2472V27.5155C57.0761 26.909 56.8352 26.3274 56.4064 25.8986C55.9776 25.4698 55.396 25.2289 54.7895 25.2289ZM52.5029 70.9606H47.9298V29.8021H52.5029V70.9606Z" fill="#6563FF"/>
</svg>
