<svg width="101" height="101" viewBox="0 0 101 101" fill="none" xmlns="http://www.w3.org/2000/svg">
<circle cx="50.2164" cy="50.6548" r="50" fill="#E7E7FF"/>
<path d="M73.0823 57.5146H68.5091V50.6549C68.5091 50.0484 68.2682 49.4668 67.8394 49.038C67.4106 48.6092 66.829 48.3683 66.2226 48.3683H52.503V43.7951H57.0762C57.6827 43.7951 58.2643 43.5542 58.6931 43.1254C59.1219 42.6966 59.3628 42.115 59.3628 41.5085V27.789C59.3628 27.1826 59.1219 26.601 58.6931 26.1722C58.2643 25.7433 57.6827 25.5024 57.0762 25.5024H43.3567C42.7503 25.5024 42.1687 25.7433 41.7398 26.1722C41.311 26.601 41.0701 27.1826 41.0701 27.789V41.5085C41.0701 42.115 41.311 42.6966 41.7398 43.1254C42.1687 43.5542 42.7503 43.7951 43.3567 43.7951H47.9299V48.3683H34.2104C33.6039 48.3683 33.0223 48.6092 32.5935 49.038C32.1647 49.4668 31.9238 50.0484 31.9238 50.6549V57.5146H27.3506C26.7442 57.5146 26.1626 57.7555 25.7338 58.1844C25.3049 58.6132 25.064 59.1948 25.064 59.8012V73.5207C25.064 74.1272 25.3049 74.7088 25.7338 75.1376C26.1626 75.5664 26.7442 75.8073 27.3506 75.8073H41.0701C41.6766 75.8073 42.2582 75.5664 42.687 75.1376C43.1158 74.7088 43.3567 74.1272 43.3567 73.5207V59.8012C43.3567 59.1948 43.1158 58.6132 42.687 58.1844C42.2582 57.7555 41.6766 57.5146 41.0701 57.5146H36.497V52.9415H63.936V57.5146H59.3628C58.7564 57.5146 58.1748 57.7555 57.7459 58.1844C57.3171 58.6132 57.0762 59.1948 57.0762 59.8012V73.5207C57.0762 74.1272 57.3171 74.7088 57.7459 75.1376C58.1748 75.5664 58.7564 75.8073 59.3628 75.8073H73.0823C73.6888 75.8073 74.2704 75.5664 74.6992 75.1376C75.128 74.7088 75.3689 74.1272 75.3689 73.5207V59.8012C75.3689 59.1948 75.128 58.6132 74.6992 58.1844C74.2704 57.7555 73.6888 57.5146 73.0823 57.5146ZM38.7835 62.0878V71.2341H29.6372V62.0878H38.7835ZM45.6433 39.222V30.0756H54.7896V39.222H45.6433ZM70.7957 71.2341H61.6494V62.0878H70.7957V71.2341Z" fill="#6563FF"/>
</svg>
