<svg width="305" height="128" viewBox="0 0 305 128" fill="none" xmlns="http://www.w3.org/2000/svg">
<g clip-path="url(#clip0_249_1832)">
<rect x="0.930176" width="304.07" height="128" rx="7.44186" fill="white"/>
<path d="M100.698 29.7674V30.5116H101.442V29.7674H100.698ZM99.9534 0V29.7674H101.442V0H99.9534ZM100.698 29.0233H0.930176V30.5116H100.698V29.0233Z" fill="#E5E7EB" mask="url(#path-3-inside-1_249_1832)"/>
<path d="M21.7696 11.4355V17.9302H20.8689L17.5677 13.167H17.5074V17.9302H16.5275V11.4355H17.4345L20.7389 16.2051H20.7992V11.4355H21.7696ZM23.7923 17.9302H22.7521L25.0893 11.4355H26.2215L28.5587 17.9302H27.5185L25.6823 12.6152H25.6316L23.7923 17.9302ZM23.9667 15.3869H27.3409V16.2114H23.9667V15.3869ZM29.5412 11.4355H30.7304L32.7981 16.4841H32.8742L34.9419 11.4355H36.1311V17.9302H35.1987V13.2304H35.1385L33.223 17.9207H32.4493L30.5338 13.2273H30.4736V17.9302H29.5412V11.4355ZM37.6004 17.9302V11.4355H41.6723V12.2791H38.5803V14.2579H41.4598V15.0983H38.5803V17.0867H41.7103V17.9302H37.6004ZM50.8282 13.5476H49.8388C49.8007 13.3362 49.7299 13.1501 49.6263 12.9894C49.5227 12.8288 49.3958 12.6924 49.2457 12.5803C49.0956 12.4683 48.9276 12.3837 48.7415 12.3266C48.5576 12.2696 48.362 12.241 48.1548 12.241C47.7806 12.241 47.4455 12.3351 47.1495 12.5233C46.8557 12.7114 46.6231 12.9873 46.4519 13.351C46.2827 13.7146 46.1982 14.1586 46.1982 14.6829C46.1982 15.2114 46.2827 15.6575 46.4519 16.0211C46.6231 16.3848 46.8567 16.6596 47.1527 16.8457C47.4487 17.0317 47.7817 17.1247 48.1517 17.1247C48.3567 17.1247 48.5512 17.0973 48.7352 17.0423C48.9212 16.9852 49.0893 16.9017 49.2394 16.7918C49.3895 16.6818 49.5163 16.5476 49.6199 16.389C49.7256 16.2283 49.7986 16.0444 49.8388 15.8372L50.8282 15.8404C50.7753 16.1596 50.6728 16.4535 50.5206 16.722C50.3705 16.9884 50.177 17.2188 49.9402 17.4133C49.7056 17.6057 49.4371 17.7548 49.1347 17.8605C48.8324 17.9662 48.5026 18.019 48.1453 18.019C47.5829 18.019 47.0819 17.8858 46.6421 17.6195C46.2024 17.351 45.8557 16.9672 45.602 16.4683C45.3504 15.9693 45.2246 15.3742 45.2246 14.6829C45.2246 13.9894 45.3514 13.3943 45.6051 12.8975C45.8588 12.3985 46.2056 12.0159 46.6453 11.7495C47.0851 11.481 47.5851 11.3467 48.1453 11.3467C48.4899 11.3467 48.8113 11.3964 49.1094 11.4958C49.4096 11.593 49.6791 11.7368 49.918 11.9271C50.1569 12.1152 50.3546 12.3457 50.5111 12.6184C50.6675 12.889 50.7732 13.1987 50.8282 13.5476ZM52.0454 17.9302V11.4355H54.3604C54.8636 11.4355 55.2811 11.5222 55.6131 11.6956C55.9471 11.8689 56.1966 12.1089 56.3615 12.4154C56.5264 12.7199 56.6088 13.0719 56.6088 13.4715C56.6088 13.8689 56.5253 14.2188 56.3583 14.5211C56.1934 14.8214 55.9439 15.055 55.6099 15.222C55.278 15.389 54.8604 15.4725 54.3572 15.4725H52.6035V14.629H54.2685C54.5856 14.629 54.8435 14.5835 55.0422 14.4926C55.2431 14.4017 55.39 14.2696 55.483 14.0962C55.5761 13.9228 55.6226 13.7146 55.6226 13.4715C55.6226 13.2262 55.575 13.0137 55.4799 12.834C55.3868 12.6543 55.2399 12.5169 55.0391 12.4218C54.8403 12.3245 54.5792 12.2759 54.2558 12.2759H53.0253V17.9302H52.0454ZM55.2515 15L56.8562 17.9302H55.7399L54.167 15H55.2515ZM58.8258 11.4355V17.9302H57.8459V11.4355H58.8258ZM59.9772 12.2791V11.4355H65.0036V12.2791H62.9772V17.9302H62.0005V12.2791H59.9772ZM66.159 17.9302V11.4355H70.2309V12.2791H67.1389V14.2579H70.0184V15.0983H67.1389V17.0867H70.2689V17.9302H66.159ZM71.5845 17.9302V11.4355H73.8995C74.4027 11.4355 74.8202 11.5222 75.1521 11.6956C75.4862 11.8689 75.7356 12.1089 75.9005 12.4154C76.0654 12.7199 76.1479 13.0719 76.1479 13.4715C76.1479 13.8689 76.0644 14.2188 75.8974 14.5211C75.7325 14.8214 75.483 15.055 75.149 15.222C74.817 15.389 74.3995 15.4725 73.8963 15.4725H72.1426V14.629H73.8075C74.1246 14.629 74.3826 14.5835 74.5813 14.4926C74.7822 14.4017 74.9291 14.2696 75.0221 14.0962C75.1151 13.9228 75.1616 13.7146 75.1616 13.4715C75.1616 13.2262 75.1141 13.0137 75.0189 12.834C74.9259 12.6543 74.779 12.5169 74.5781 12.4218C74.3794 12.3245 74.1183 12.2759 73.7948 12.2759H72.5644V17.9302H71.5845ZM74.7906 15L76.3953 17.9302H75.279L73.706 15H74.7906ZM78.3649 11.4355V17.9302H77.3849V11.4355H78.3649ZM80.3852 17.9302H79.345L81.6822 11.4355H82.8144L85.1516 17.9302H84.1114L82.2753 12.6152H82.2245L80.3852 17.9302ZM80.5596 15.3869H83.9338V16.2114H80.5596V15.3869Z" fill="#6B7280"/>
<path d="M100.698 61.7675H0.930176V63.2558H100.698V61.7675Z" fill="#E5E7EB" mask="url(#path-6-inside-2_249_1832)"/>
<path d="M16.6464 49.6977V42.1205H21.3969V43.1047H17.7897V45.4133H21.1491V46.3938H17.7897V48.7135H21.4413V49.6977H16.6464ZM23.7605 44.0148L25.0147 46.2273L26.28 44.0148H27.4899L25.7177 46.8563L27.5047 49.6977H26.2948L25.0147 47.574L23.7383 49.6977H22.5248L24.2933 46.8563L22.547 44.0148H23.7605ZM28.6778 51.8288V44.0148H29.7581V44.9361H29.8506C29.9148 44.8177 30.0073 44.6808 30.1281 44.5254C30.249 44.37 30.4167 44.2343 30.6313 44.1184C30.8459 44 31.1295 43.9408 31.4822 43.9408C31.941 43.9408 32.3505 44.0567 32.7106 44.2886C33.0707 44.5205 33.3531 44.8547 33.5578 45.2912C33.765 45.7278 33.8686 46.2532 33.8686 46.8674C33.8686 47.4815 33.7662 48.0081 33.5615 48.4472C33.3568 48.8837 33.0756 49.2204 32.718 49.4572C32.3603 49.6915 31.9521 49.8087 31.4933 49.8087C31.148 49.8087 30.8656 49.7507 30.6461 49.6348C30.429 49.5189 30.2588 49.3832 30.1355 49.2278C30.0122 49.0724 29.9172 48.9343 29.8506 48.8134H29.784V51.8288H28.6778ZM29.7618 46.8563C29.7618 47.2558 29.8198 47.6061 29.9357 47.907C30.0517 48.2079 30.2194 48.4435 30.4389 48.6137C30.6584 48.7814 30.9273 48.8652 31.2455 48.8652C31.576 48.8652 31.8522 48.7777 32.0742 48.6026C32.2962 48.425 32.4639 48.1845 32.5774 47.8811C32.6933 47.5777 32.7513 47.2361 32.7513 46.8563C32.7513 46.4813 32.6945 46.1447 32.5811 45.8462C32.4701 45.5478 32.3024 45.3122 32.0779 45.1396C31.8559 44.9669 31.5784 44.8806 31.2455 44.8806C30.9248 44.8806 30.6535 44.9632 30.4315 45.1285C30.212 45.2937 30.0455 45.5243 29.932 45.8203C29.8186 46.1163 29.7618 46.4616 29.7618 46.8563ZM37.6094 49.8124C37.0495 49.8124 36.5673 49.6928 36.1628 49.4535C35.7607 49.2118 35.4499 48.8726 35.2304 48.4361C35.0134 47.997 34.9048 47.4828 34.9048 46.8933C34.9048 46.3112 35.0134 45.7981 35.2304 45.3541C35.4499 44.9102 35.7558 44.5636 36.148 44.3145C36.5426 44.0654 37.0039 43.9408 37.5317 43.9408C37.8523 43.9408 38.1631 43.9939 38.464 44.0999C38.765 44.206 39.035 44.3725 39.2743 44.5994C39.5135 44.8263 39.7022 45.1211 39.8404 45.4836C39.9785 45.8437 40.0475 46.2816 40.0475 46.7971V47.1892H35.5301V46.3605H38.9635C38.9635 46.0694 38.9043 45.8117 38.7859 45.5872C38.6675 45.3603 38.501 45.1815 38.2864 45.0508C38.0743 44.92 37.8252 44.8547 37.5391 44.8547C37.2283 44.8547 36.957 44.9311 36.7251 45.0841C36.4957 45.2345 36.3182 45.4318 36.1924 45.676C36.069 45.9177 36.0074 46.1804 36.0074 46.4641V47.1115C36.0074 47.4914 36.074 47.8145 36.2072 48.0809C36.3428 48.3473 36.5315 48.5508 36.7732 48.6914C37.015 48.8295 37.2974 48.8985 37.6205 48.8985C37.8301 48.8985 38.0213 48.8689 38.194 48.8097C38.3666 48.7481 38.5158 48.6568 38.6416 48.536C38.7674 48.4151 38.8636 48.2659 38.9302 48.0883L39.9772 48.277C39.8934 48.5853 39.7429 48.8554 39.5259 49.0872C39.3113 49.3166 39.0412 49.4954 38.7156 49.6237C38.3925 49.7495 38.0238 49.8124 37.6094 49.8124ZM41.327 49.6977V44.0148H42.3963V44.9176H42.4555C42.5591 44.6117 42.7416 44.3712 43.003 44.1961C43.267 44.0185 43.5654 43.9297 43.8984 43.9297C43.9675 43.9297 44.0489 43.9322 44.1426 43.9371C44.2388 43.9421 44.314 43.9482 44.3683 43.9556V45.0138C44.3239 45.0014 44.2449 44.9879 44.1315 44.9731C44.018 44.9558 43.9046 44.9472 43.7911 44.9472C43.5296 44.9472 43.2966 45.0027 43.0918 45.1137C42.8896 45.2222 42.7293 45.3739 42.6109 45.5687C42.4925 45.7611 42.4333 45.9806 42.4333 46.2273V49.6977H41.327ZM45.3777 49.6977V44.0148H46.4839V49.6977H45.3777ZM45.9363 43.138C45.744 43.138 45.5787 43.0738 45.4406 42.9456C45.3049 42.8149 45.2371 42.6595 45.2371 42.4794C45.2371 42.2969 45.3049 42.1415 45.4406 42.0132C45.5787 41.8825 45.744 41.8171 45.9363 41.8171C46.1287 41.8171 46.2928 41.8825 46.4284 42.0132C46.5665 42.1415 46.6356 42.2969 46.6356 42.4794C46.6356 42.6595 46.5665 42.8149 46.4284 42.9456C46.2928 43.0738 46.1287 43.138 45.9363 43.138ZM50.4735 49.8124C49.9136 49.8124 49.4314 49.6928 49.0269 49.4535C48.6249 49.2118 48.3141 48.8726 48.0945 48.4361C47.8775 47.997 47.769 47.4828 47.769 46.8933C47.769 46.3112 47.8775 45.7981 48.0945 45.3541C48.3141 44.9102 48.6199 44.5636 49.0121 44.3145C49.4067 44.0654 49.868 43.9408 50.3958 43.9408C50.7165 43.9408 51.0272 43.9939 51.3282 44.0999C51.6291 44.206 51.8992 44.3725 52.1384 44.5994C52.3777 44.8263 52.5664 45.1211 52.7045 45.4836C52.8426 45.8437 52.9117 46.2816 52.9117 46.7971V47.1892H48.3942V46.3605H51.8276C51.8276 46.0694 51.7684 45.8117 51.65 45.5872C51.5317 45.3603 51.3652 45.1815 51.1506 45.0508C50.9385 44.92 50.6893 44.8547 50.4032 44.8547C50.0924 44.8547 49.8211 44.9311 49.5893 45.0841C49.3599 45.2345 49.1823 45.4318 49.0565 45.676C48.9332 45.9177 48.8715 46.1804 48.8715 46.4641V47.1115C48.8715 47.4914 48.9381 47.8145 49.0713 48.0809C49.207 48.3473 49.3956 48.5508 49.6374 48.6914C49.8791 48.8295 50.1615 48.8985 50.4846 48.8985C50.6943 48.8985 50.8854 48.8689 51.0581 48.8097C51.2307 48.7481 51.38 48.6568 51.5058 48.536C51.6315 48.4151 51.7277 48.2659 51.7943 48.0883L52.8414 48.277C52.7575 48.5853 52.6071 48.8554 52.39 49.0872C52.1754 49.3166 51.9053 49.4954 51.5797 49.6237C51.2566 49.7495 50.8879 49.8124 50.4735 49.8124ZM55.2974 46.3235V49.6977H54.1912V44.0148H55.253V44.9398H55.3233C55.454 44.6388 55.6588 44.3971 55.9375 44.2146C56.2187 44.0321 56.5726 43.9408 56.9993 43.9408C57.3866 43.9408 57.7257 44.0222 58.0168 44.185C58.3078 44.3453 58.5335 44.5846 58.6938 44.9028C58.8541 45.2209 58.9343 45.6144 58.9343 46.083V49.6977H57.8281V46.2162C57.8281 45.8043 57.7208 45.4824 57.5062 45.2505C57.2916 45.0162 56.9968 44.8991 56.6219 44.8991C56.3654 44.8991 56.1373 44.9546 55.9375 45.0656C55.7401 45.1766 55.5835 45.3393 55.4676 45.5539C55.3541 45.7661 55.2974 46.0226 55.2974 46.3235ZM62.8638 49.8124C62.3137 49.8124 61.8402 49.6878 61.4431 49.4387C61.0484 49.1871 60.745 48.8406 60.5329 48.3991C60.3208 47.9576 60.2147 47.4519 60.2147 46.8822C60.2147 46.305 60.3232 45.7956 60.5403 45.3541C60.7574 44.9102 61.0632 44.5636 61.4579 44.3145C61.8525 44.0654 62.3174 43.9408 62.8527 43.9408C63.2843 43.9408 63.6691 44.021 64.007 44.1813C64.3449 44.3392 64.6175 44.5612 64.8247 44.8473C65.0343 45.1334 65.1589 45.4676 65.1983 45.8499H64.1217C64.0625 45.5835 63.9268 45.3541 63.7147 45.1618C63.5051 44.9694 63.2239 44.8732 62.8712 44.8732C62.5629 44.8732 62.2928 44.9546 62.0609 45.1174C61.8315 45.2777 61.6527 45.5071 61.5244 45.8055C61.3962 46.1015 61.3321 46.4517 61.3321 46.8563C61.3321 47.2706 61.395 47.6283 61.5207 47.9292C61.6465 48.2301 61.8241 48.4632 62.0535 48.6285C62.2854 48.7937 62.5579 48.8763 62.8712 48.8763C63.0808 48.8763 63.2707 48.8381 63.4409 48.7616C63.6136 48.6827 63.7579 48.5705 63.8738 48.425C63.9922 48.2794 64.0748 48.1043 64.1217 47.8996H65.1983C65.1589 48.2671 65.0392 48.5952 64.8395 48.8837C64.6397 49.1723 64.3721 49.3992 64.0366 49.5645C63.7036 49.7298 63.3127 49.8124 62.8638 49.8124ZM68.8827 49.8124C68.3228 49.8124 67.8406 49.6928 67.4361 49.4535C67.034 49.2118 66.7233 48.8726 66.5037 48.4361C66.2867 47.997 66.1782 47.4828 66.1782 46.8933C66.1782 46.3112 66.2867 45.7981 66.5037 45.3541C66.7233 44.9102 67.0291 44.5636 67.4213 44.3145C67.8159 44.0654 68.2772 43.9408 68.805 43.9408C69.1257 43.9408 69.4364 43.9939 69.7374 44.0999C70.0383 44.206 70.3084 44.3725 70.5476 44.5994C70.7869 44.8263 70.9755 45.1211 71.1137 45.4836C71.2518 45.8437 71.3209 46.2816 71.3209 46.7971V47.1892H66.8034V46.3605H70.2368C70.2368 46.0694 70.1776 45.8117 70.0592 45.5872C69.9408 45.3603 69.7743 45.1815 69.5598 45.0508C69.3476 44.92 69.0985 44.8547 68.8124 44.8547C68.5016 44.8547 68.2303 44.9311 67.9984 45.0841C67.7691 45.2345 67.5915 45.4318 67.4657 45.676C67.3424 45.9177 67.2807 46.1804 67.2807 46.4641V47.1115C67.2807 47.4914 67.3473 47.8145 67.4805 48.0809C67.6161 48.3473 67.8048 48.5508 68.0465 48.6914C68.2883 48.8295 68.5707 48.8985 68.8938 48.8985C69.1035 48.8985 69.2946 48.8689 69.4673 48.8097C69.6399 48.7481 69.7891 48.6568 69.9149 48.536C70.0407 48.4151 70.1369 48.2659 70.2035 48.0883L71.2506 48.277C71.1667 48.5853 71.0162 48.8554 70.7992 49.0872C70.5846 49.3166 70.3145 49.4954 69.9889 49.6237C69.6658 49.7495 69.2971 49.8124 68.8827 49.8124Z" fill="#1F2937"/>
<path d="M100.698 94.5116H0.930176V96H100.698V94.5116Z" fill="#E5E7EB" mask="url(#path-9-inside-3_249_1832)"/>
<path d="M19.0994 82.4418H16.6464V74.8647H19.1771C19.9195 74.8647 20.5571 75.0164 21.0899 75.3197C21.6226 75.6207 22.0308 76.0535 22.3145 76.6184C22.6006 77.1807 22.7437 77.8553 22.7437 78.6422C22.7437 79.4314 22.5994 80.1097 22.3108 80.677C22.0247 81.2443 21.6103 81.6809 21.0677 81.9868C20.525 82.2901 19.8689 82.4418 19.0994 82.4418ZM17.7897 81.4429H19.0365C19.6136 81.4429 20.0934 81.3344 20.4757 81.1173C20.858 80.8978 21.1441 80.5808 21.334 80.1665C21.524 79.7496 21.6189 79.2415 21.6189 78.6422C21.6189 78.0477 21.524 77.5433 21.334 77.1289C21.1466 76.7146 20.8666 76.4001 20.4942 76.1855C20.1218 75.9709 19.6593 75.8636 19.1068 75.8636H17.7897V81.4429ZM26.5224 82.5565C25.9896 82.5565 25.5247 82.4344 25.1276 82.1902C24.7304 81.9461 24.4221 81.6044 24.2026 81.1654C23.9831 80.7264 23.8733 80.2133 23.8733 79.6263C23.8733 79.0368 23.9831 78.5213 24.2026 78.0798C24.4221 77.6383 24.7304 77.2954 25.1276 77.0512C25.5247 76.8071 25.9896 76.685 26.5224 76.685C27.0551 76.685 27.5201 76.8071 27.9172 77.0512C28.3143 77.2954 28.6226 77.6383 28.8421 78.0798C29.0617 78.5213 29.1714 79.0368 29.1714 79.6263C29.1714 80.2133 29.0617 80.7264 28.8421 81.1654C28.6226 81.6044 28.3143 81.9461 27.9172 82.1902C27.5201 82.4344 27.0551 82.5565 26.5224 82.5565ZM26.5261 81.6279C26.8714 81.6279 27.1575 81.5366 27.3844 81.3541C27.6113 81.1716 27.7791 80.9286 27.8876 80.6252C27.9986 80.3219 28.0541 79.9876 28.0541 79.6226C28.0541 79.26 27.9986 78.927 27.8876 78.6237C27.7791 78.3178 27.6113 78.0724 27.3844 77.8874C27.1575 77.7024 26.8714 77.6099 26.5261 77.6099C26.1783 77.6099 25.8897 77.7024 25.6603 77.8874C25.4334 78.0724 25.2644 78.3178 25.1535 78.6237C25.0449 78.927 24.9907 79.26 24.9907 79.6226C24.9907 79.9876 25.0449 80.3219 25.1535 80.6252C25.2644 80.9286 25.4334 81.1716 25.6603 81.3541C25.8897 81.5366 26.1783 81.6279 26.5261 81.6279ZM30.4583 82.4418V76.759H31.5202V77.6839H31.5905C31.7088 77.3707 31.9025 77.1265 32.1713 76.9513C32.4402 76.7738 32.7621 76.685 33.137 76.685C33.5168 76.685 33.835 76.7738 34.0915 76.9513C34.3505 77.1289 34.5417 77.3731 34.665 77.6839H34.7242C34.8598 77.3805 35.0757 77.1388 35.3716 76.9587C35.6676 76.7762 36.0203 76.685 36.4298 76.685C36.9453 76.685 37.3658 76.8465 37.6914 77.1696C38.0195 77.4927 38.1835 77.9799 38.1835 78.6311V82.4418H37.0772V78.7346C37.0772 78.3499 36.9724 78.0711 36.7628 77.8985C36.5531 77.7258 36.3028 77.6395 36.0117 77.6395C35.6516 77.6395 35.3716 77.7505 35.1719 77.9725C34.9721 78.192 34.8722 78.4744 34.8722 78.8197V82.4418H33.7696V78.6643C33.7696 78.356 33.6734 78.1081 33.481 77.9207C33.2887 77.7332 33.0383 77.6395 32.73 77.6395C32.5203 77.6395 32.3267 77.695 32.1491 77.806C31.974 77.9145 31.8322 78.0662 31.7236 78.2611C31.6176 78.4559 31.5646 78.6816 31.5646 78.9381V82.4418H30.4583ZM39.7183 82.4418V76.759H40.8245V82.4418H39.7183ZM40.2769 75.8821C40.0845 75.8821 39.9193 75.818 39.7812 75.6897C39.6455 75.559 39.5777 75.4036 39.5777 75.2235C39.5777 75.041 39.6455 74.8856 39.7812 74.7574C39.9193 74.6266 40.0845 74.5613 40.2769 74.5613C40.4693 74.5613 40.6333 74.6266 40.769 74.7574C40.9071 74.8856 40.9762 75.041 40.9762 75.2235C40.9762 75.4036 40.9071 75.559 40.769 75.6897C40.6333 75.818 40.4693 75.8821 40.2769 75.8821ZM46.6233 78.1464L45.6206 78.324C45.5787 78.1957 45.5121 78.0736 45.4209 77.9577C45.3321 77.8418 45.2112 77.7468 45.0583 77.6728C44.9054 77.5988 44.7142 77.5618 44.4848 77.5618C44.1716 77.5618 43.9101 77.6321 43.7005 77.7727C43.4908 77.9108 43.386 78.0896 43.386 78.3092C43.386 78.4991 43.4563 78.652 43.5969 78.7679C43.7375 78.8839 43.9644 78.9788 44.2776 79.0528L45.1804 79.26C45.7033 79.3809 46.093 79.5671 46.3495 79.8187C46.606 80.0703 46.7343 80.3971 46.7343 80.7991C46.7343 81.1395 46.6356 81.4429 46.4383 81.7093C46.2434 81.9732 45.9709 82.1804 45.6206 82.3308C45.2729 82.4813 44.8696 82.5565 44.4108 82.5565C43.7745 82.5565 43.2552 82.4209 42.8532 82.1496C42.4512 81.8758 42.2045 81.4873 42.1132 80.9841L43.1825 80.8213C43.2491 81.1 43.386 81.3109 43.5932 81.454C43.8003 81.5946 44.0704 81.6649 44.4034 81.6649C44.766 81.6649 45.0558 81.5896 45.2729 81.4392C45.4899 81.2863 45.5984 81.1 45.5984 80.8805C45.5984 80.7029 45.5319 80.5537 45.3987 80.4328C45.2679 80.312 45.0669 80.2207 44.7956 80.1591L43.8336 79.9482C43.3033 79.8273 42.9112 79.6349 42.6571 79.371C42.4055 79.1071 42.2797 78.7729 42.2797 78.3684C42.2797 78.0329 42.3735 77.7394 42.5609 77.4878C42.7484 77.2362 43.0074 77.0401 43.3379 76.8995C43.6684 76.7565 44.047 76.685 44.4737 76.685C45.0879 76.685 45.5713 76.8182 45.924 77.0845C46.2767 77.3485 46.5098 77.7024 46.6233 78.1464ZM48.0027 82.4418V76.759H49.1089V82.4418H48.0027ZM48.5613 75.8821C48.369 75.8821 48.2037 75.818 48.0656 75.6897C47.9299 75.559 47.8621 75.4036 47.8621 75.2235C47.8621 75.041 47.9299 74.8856 48.0656 74.7574C48.2037 74.6266 48.369 74.5613 48.5613 74.5613C48.7537 74.5613 48.9178 74.6266 49.0534 74.7574C49.1915 74.8856 49.2606 75.041 49.2606 75.2235C49.2606 75.4036 49.1915 75.559 49.0534 75.6897C48.9178 75.818 48.7537 75.8821 48.5613 75.8821ZM51.7555 74.8647V82.4418H50.6493V74.8647H51.7555ZM53.2958 82.4418V76.759H54.4021V82.4418H53.2958ZM53.8545 75.8821C53.6621 75.8821 53.4968 75.818 53.3587 75.6897C53.2231 75.559 53.1552 75.4036 53.1552 75.2235C53.1552 75.041 53.2231 74.8856 53.3587 74.7574C53.4968 74.6266 53.6621 74.5613 53.8545 74.5613C54.0469 74.5613 54.2109 74.6266 54.3466 74.7574C54.4847 74.8856 54.5537 75.041 54.5537 75.2235C54.5537 75.4036 54.4847 75.559 54.3466 75.6897C54.2109 75.818 54.0469 75.8821 53.8545 75.8821Z" fill="#1F2937"/>
<path d="M100.698 127.256H0.930176V128.744H100.698V127.256Z" fill="#E5E7EB" mask="url(#path-12-inside-4_249_1832)"/>
<path d="M17.2865 115.186H16.073L18.7997 107.609H20.1205L22.8473 115.186H21.6337L19.4916 108.985H19.4324L17.2865 115.186ZM17.49 112.219H21.4265V113.181H17.49V112.219ZM26.1959 117.436C25.7445 117.436 25.356 117.376 25.0304 117.258C24.7073 117.14 24.4434 116.983 24.2387 116.788C24.034 116.593 23.881 116.38 23.7799 116.148L24.7308 115.756C24.7973 115.864 24.8861 115.979 24.9971 116.1C25.1106 116.223 25.2635 116.328 25.4559 116.414C25.6508 116.501 25.9011 116.544 26.207 116.544C26.6263 116.544 26.9728 116.441 27.2466 116.237C27.5204 116.035 27.6573 115.711 27.6573 115.267V114.15H27.587C27.5204 114.271 27.4242 114.405 27.2984 114.553C27.1751 114.701 27.0049 114.83 26.7878 114.938C26.5708 115.047 26.2884 115.101 25.9406 115.101C25.4917 115.101 25.0872 114.996 24.7271 114.786C24.3694 114.574 24.0858 114.262 23.8761 113.85C23.6689 113.436 23.5653 112.927 23.5653 112.322C23.5653 111.718 23.6677 111.2 23.8724 110.768C24.0796 110.337 24.3632 110.006 24.7234 109.777C25.0835 109.545 25.4917 109.429 25.948 109.429C26.3007 109.429 26.5856 109.488 26.8026 109.607C27.0197 109.723 27.1886 109.858 27.3095 110.014C27.4328 110.169 27.5278 110.306 27.5944 110.424H27.6758V109.503H28.7598V115.312C28.7598 115.8 28.6464 116.201 28.4194 116.514C28.1925 116.828 27.8854 117.059 27.4982 117.21C27.1134 117.36 26.6793 117.436 26.1959 117.436ZM26.1848 114.183C26.503 114.183 26.7718 114.109 26.9913 113.961C27.2133 113.811 27.381 113.596 27.4945 113.318C27.6104 113.036 27.6684 112.7 27.6684 112.308C27.6684 111.925 27.6117 111.589 27.4982 111.298C27.3847 111.007 27.2182 110.78 26.9987 110.617C26.7792 110.452 26.5079 110.369 26.1848 110.369C25.8518 110.369 25.5743 110.455 25.3523 110.628C25.1303 110.798 24.9626 111.03 24.8491 111.323C24.7382 111.617 24.6827 111.945 24.6827 112.308C24.6827 112.68 24.7394 113.007 24.8528 113.288C24.9663 113.569 25.134 113.789 25.356 113.947C25.5805 114.104 25.8567 114.183 26.1848 114.183ZM32.7448 115.301C32.1849 115.301 31.7027 115.181 31.2982 114.942C30.8961 114.7 30.5853 114.361 30.3658 113.924C30.1488 113.485 30.0402 112.971 30.0402 112.382C30.0402 111.799 30.1488 111.286 30.3658 110.842C30.5853 110.399 30.8912 110.052 31.2834 109.803C31.678 109.554 32.1393 109.429 32.6671 109.429C32.9877 109.429 33.2985 109.482 33.5994 109.588C33.9004 109.694 34.1704 109.861 34.4097 110.088C34.6489 110.315 34.8376 110.609 34.9758 110.972C35.1139 111.332 35.183 111.77 35.183 112.285V112.678H30.6655V111.849H34.0989C34.0989 111.558 34.0397 111.3 33.9213 111.076C33.8029 110.849 33.6364 110.67 33.4219 110.539C33.2097 110.408 32.9606 110.343 32.6745 110.343C32.3637 110.343 32.0924 110.419 31.8605 110.572C31.6312 110.723 31.4536 110.92 31.3278 111.164C31.2044 111.406 31.1428 111.669 31.1428 111.952V112.6C31.1428 112.98 31.2094 113.303 31.3426 113.569C31.4782 113.836 31.6669 114.039 31.9086 114.18C32.1504 114.318 32.4328 114.387 32.7559 114.387C32.9655 114.387 33.1567 114.357 33.3294 114.298C33.502 114.236 33.6512 114.145 33.777 114.024C33.9028 113.903 33.999 113.754 34.0656 113.577L35.1127 113.765C35.0288 114.074 34.8783 114.344 34.6613 114.576C34.4467 114.805 34.1766 114.984 33.851 115.112C33.5279 115.238 33.1592 115.301 32.7448 115.301Z" fill="#1F2937"/>
<path d="M166.465 29.7674V30.5116H167.209V29.7674H166.465ZM165.721 0V29.7674H167.209V0H165.721ZM166.465 29.0233H100.698V30.5116H166.465V29.0233Z" fill="#E5E7EB" mask="url(#path-15-inside-5_249_1832)"/>
<path d="M117.567 17.9302L115.765 11.4355H116.796L118.061 16.4651H118.122L119.438 11.4355H120.459L121.775 16.4683H121.835L123.097 11.4355H124.131L122.327 17.9302H121.341L119.974 13.0655H119.923L118.556 17.9302H117.567ZM125.069 17.9302V11.4355H129.141V12.2791H126.049V14.2579H128.929V15.0983H126.049V17.0867H129.179V17.9302H125.069ZM131.475 11.4355V17.9302H130.495V11.4355H131.475ZM137.342 13.4873C137.281 13.2949 137.198 13.1226 137.094 12.9704C136.993 12.8161 136.871 12.685 136.73 12.5772C136.588 12.4672 136.426 12.3837 136.245 12.3266C136.065 12.2696 135.867 12.241 135.652 12.241C135.286 12.241 134.956 12.3351 134.662 12.5233C134.368 12.7114 134.136 12.9873 133.964 13.351C133.795 13.7125 133.711 14.1554 133.711 14.6797C133.711 15.2061 133.796 15.6512 133.968 16.0148C134.139 16.3784 134.374 16.6543 134.672 16.8425C134.97 17.0307 135.309 17.1247 135.69 17.1247C136.043 17.1247 136.35 17.0529 136.612 16.9091C136.877 16.7653 137.081 16.5624 137.224 16.3002C137.37 16.0359 137.443 15.7252 137.443 15.3679L137.697 15.4154H135.839V14.6068H138.392V15.3457C138.392 15.8911 138.275 16.3647 138.043 16.7664C137.812 17.166 137.493 17.4746 137.085 17.6924C136.679 17.9102 136.214 18.019 135.69 18.019C135.102 18.019 134.586 17.8837 134.142 17.6131C133.7 17.3425 133.356 16.9588 133.108 16.4619C132.861 15.963 132.737 15.371 132.737 14.6861C132.737 14.1681 132.809 13.703 132.953 13.2907C133.097 12.8784 133.298 12.5285 133.559 12.241C133.821 11.9514 134.128 11.7304 134.481 11.5782C134.837 11.4239 135.224 11.3467 135.645 11.3467C135.996 11.3467 136.323 11.3985 136.625 11.5021C136.93 11.6057 137.2 11.7526 137.437 11.9429C137.676 12.1332 137.874 12.3594 138.03 12.6216C138.186 12.8816 138.292 13.1702 138.347 13.4873H137.342ZM139.68 17.9302V11.4355H140.66V14.2579H143.898V11.4355H144.881V17.9302H143.898V15.0983H140.66V17.9302H139.68ZM146.032 12.2791V11.4355H151.059V12.2791H149.032V17.9302H148.056V12.2791H146.032Z" fill="#6B7280"/>
<path d="M166.465 61.7675H100.698V63.2558H166.465V61.7675Z" fill="#E5E7EB" mask="url(#path-18-inside-6_249_1832)"/>
<path d="M118.811 49.8013C118.348 49.8013 117.931 49.7125 117.561 49.5349C117.193 49.3548 116.9 49.1082 116.68 48.7949C116.461 48.4817 116.344 48.124 116.329 47.722H117.439C117.466 48.0476 117.61 48.3152 117.872 48.5249C118.133 48.7345 118.446 48.8393 118.811 48.8393C119.103 48.8393 119.36 48.7727 119.585 48.6396C119.812 48.5039 119.989 48.3177 120.117 48.0809C120.248 47.8441 120.314 47.574 120.314 47.2706C120.314 46.9623 120.247 46.6873 120.114 46.4456C119.981 46.2039 119.797 46.0139 119.563 45.8758C119.331 45.7377 119.064 45.6674 118.763 45.6649C118.534 45.6649 118.303 45.7044 118.072 45.7833C117.84 45.8622 117.652 45.9658 117.509 46.0941L116.462 45.9387L116.888 42.1205H121.054V43.101H117.838L117.598 45.2209H117.642C117.79 45.0779 117.986 44.9583 118.231 44.8621C118.477 44.7659 118.741 44.7178 119.022 44.7178C119.484 44.7178 119.894 44.8275 120.254 45.0471C120.617 45.2666 120.902 45.5663 121.109 45.9461C121.319 46.3235 121.422 46.7576 121.42 47.2484C121.422 47.7393 121.311 48.1771 121.087 48.5619C120.865 48.9466 120.557 49.25 120.162 49.472C119.77 49.6915 119.32 49.8013 118.811 49.8013ZM125.461 49.8235C124.877 49.821 124.377 49.6669 123.963 49.361C123.548 49.0552 123.231 48.61 123.012 48.0254C122.792 47.4408 122.683 46.7366 122.683 45.9128C122.683 45.0915 122.792 44.3897 123.012 43.8076C123.234 43.2255 123.552 42.7816 123.966 42.4757C124.383 42.1699 124.882 42.0169 125.461 42.0169C126.041 42.0169 126.538 42.1711 126.952 42.4794C127.367 42.7853 127.684 43.2292 127.903 43.8113C128.125 44.391 128.236 45.0915 128.236 45.9128C128.236 46.7391 128.126 47.4445 127.907 48.0291C127.687 48.6112 127.37 49.0564 126.956 49.3647C126.542 49.6706 126.043 49.8235 125.461 49.8235ZM125.461 48.8356C125.974 48.8356 126.375 48.5853 126.664 48.0846C126.955 47.5839 127.1 46.86 127.1 45.9128C127.1 45.2838 127.034 44.7523 126.9 44.3182C126.77 43.8816 126.581 43.5511 126.334 43.3267C126.09 43.0997 125.799 42.9863 125.461 42.9863C124.951 42.9863 124.55 43.2379 124.259 43.741C123.968 44.2442 123.821 44.9681 123.818 45.9128C123.818 46.5442 123.884 47.0782 124.015 47.5148C124.148 47.9489 124.336 48.2782 124.581 48.5027C124.825 48.7246 125.118 48.8356 125.461 48.8356Z" fill="#1F2937"/>
<path d="M166.465 94.5116H100.698V96H166.465V94.5116Z" fill="#E5E7EB" mask="url(#path-21-inside-7_249_1832)"/>
<path d="M116.31 82.4418V81.6131L118.874 78.9566C119.148 78.668 119.374 78.4152 119.551 78.1982C119.731 77.9787 119.866 77.7702 119.955 77.5729C120.043 77.3756 120.088 77.1659 120.088 76.9439C120.088 76.6924 120.029 76.4753 119.91 76.2928C119.792 76.1078 119.63 75.966 119.426 75.8673C119.221 75.7662 118.99 75.7156 118.734 75.7156C118.462 75.7156 118.226 75.7711 118.023 75.8821C117.821 75.9931 117.666 76.1497 117.557 76.352C117.449 76.5542 117.394 76.791 117.394 77.0623H116.303C116.303 76.6011 116.409 76.1978 116.621 75.8525C116.833 75.5072 117.124 75.2396 117.494 75.0497C117.864 74.8573 118.285 74.7611 118.756 74.7611C119.232 74.7611 119.651 74.856 120.014 75.046C120.379 75.2334 120.664 75.4899 120.869 75.8155C121.073 76.1386 121.176 76.5037 121.176 76.9106C121.176 77.1918 121.123 77.4669 121.017 77.7357C120.913 78.0046 120.732 78.3042 120.473 78.6348C120.214 78.9628 119.854 79.3611 119.392 79.8298L117.887 81.4059V81.4614H121.298V82.4418H116.31ZM125.39 82.5676C124.805 82.5652 124.306 82.411 123.892 82.1052C123.477 81.7993 123.16 81.3541 122.941 80.7695C122.721 80.185 122.611 79.4808 122.611 78.6569C122.611 77.8356 122.721 77.1339 122.941 76.5518C123.163 75.9697 123.481 75.5257 123.895 75.2198C124.312 74.914 124.81 74.7611 125.39 74.7611C125.97 74.7611 126.467 74.9152 126.881 75.2235C127.295 75.5294 127.612 75.9734 127.832 76.5555C128.054 77.1351 128.165 77.8356 128.165 78.6569C128.165 79.4832 128.055 80.1887 127.836 80.7732C127.616 81.3553 127.299 81.8005 126.885 82.1089C126.47 82.4147 125.972 82.5676 125.39 82.5676ZM125.39 81.5798C125.903 81.5798 126.304 81.3294 126.592 80.8287C126.883 80.328 127.029 79.6041 127.029 78.6569C127.029 78.028 126.962 77.4964 126.829 77.0623C126.698 76.6258 126.51 76.2953 126.263 76.0708C126.019 75.8439 125.728 75.7304 125.39 75.7304C124.879 75.7304 124.479 75.982 124.188 76.4852C123.896 76.9883 123.75 77.7123 123.747 78.6569C123.747 79.2884 123.813 79.8224 123.943 80.259C124.077 80.6931 124.265 81.0223 124.509 81.2468C124.754 81.4688 125.047 81.5798 125.39 81.5798Z" fill="#1F2937"/>
<path d="M166.465 127.256H100.698V128.744H166.465V127.256Z" fill="#E5E7EB" mask="url(#path-24-inside-8_249_1832)"/>
<path d="M118.948 115.29C118.44 115.29 117.986 115.202 117.587 115.027C117.19 114.852 116.875 114.609 116.643 114.298C116.414 113.985 116.291 113.622 116.273 113.21H117.435C117.45 113.435 117.525 113.63 117.661 113.795C117.799 113.958 117.979 114.083 118.201 114.172C118.423 114.261 118.67 114.305 118.941 114.305C119.239 114.305 119.503 114.254 119.733 114.15C119.965 114.047 120.146 113.902 120.277 113.717C120.407 113.53 120.473 113.314 120.473 113.07C120.473 112.816 120.407 112.592 120.277 112.4C120.148 112.205 119.96 112.052 119.711 111.941C119.464 111.83 119.165 111.775 118.815 111.775H118.175V110.842H118.815C119.096 110.842 119.343 110.792 119.555 110.691C119.77 110.59 119.937 110.449 120.058 110.269C120.179 110.086 120.24 109.873 120.24 109.629C120.24 109.395 120.187 109.191 120.08 109.018C119.977 108.843 119.829 108.706 119.637 108.608C119.447 108.509 119.222 108.46 118.963 108.46C118.716 108.46 118.486 108.505 118.271 108.597C118.059 108.686 117.887 108.814 117.753 108.981C117.62 109.147 117.549 109.345 117.539 109.577H116.432C116.445 109.168 116.566 108.808 116.795 108.497C117.027 108.186 117.333 107.943 117.713 107.768C118.092 107.593 118.514 107.505 118.978 107.505C119.464 107.505 119.883 107.6 120.236 107.79C120.591 107.978 120.865 108.228 121.057 108.541C121.252 108.854 121.348 109.197 121.346 109.57C121.348 109.994 121.23 110.354 120.991 110.65C120.754 110.946 120.438 111.145 120.043 111.246V111.305C120.547 111.381 120.936 111.581 121.213 111.904C121.491 112.227 121.629 112.628 121.627 113.107C121.629 113.524 121.514 113.897 121.279 114.228C121.047 114.558 120.73 114.819 120.328 115.008C119.926 115.196 119.466 115.29 118.948 115.29ZM125.716 115.312C125.131 115.309 124.632 115.155 124.217 114.849C123.803 114.544 123.486 114.098 123.266 113.514C123.047 112.929 122.937 112.225 122.937 111.401C122.937 110.58 123.047 109.878 123.266 109.296C123.488 108.714 123.806 108.27 124.221 107.964C124.638 107.658 125.136 107.505 125.716 107.505C126.295 107.505 126.792 107.659 127.207 107.968C127.621 108.274 127.938 108.718 128.157 109.3C128.379 109.879 128.49 110.58 128.49 111.401C128.49 112.227 128.381 112.933 128.161 113.517C127.942 114.1 127.625 114.545 127.21 114.853C126.796 115.159 126.298 115.312 125.716 115.312ZM125.716 114.324C126.229 114.324 126.629 114.074 126.918 113.573C127.209 113.072 127.355 112.348 127.355 111.401C127.355 110.772 127.288 110.241 127.155 109.807C127.024 109.37 126.835 109.039 126.589 108.815C126.345 108.588 126.053 108.475 125.716 108.475C125.205 108.475 124.804 108.726 124.513 109.229C124.222 109.733 124.075 110.456 124.073 111.401C124.073 112.033 124.138 112.567 124.269 113.003C124.402 113.437 124.591 113.767 124.835 113.991C125.079 114.213 125.373 114.324 125.716 114.324Z" fill="#1F2937"/>
<path d="M240.232 29.7674V30.5116H240.976V29.7674H240.232ZM239.488 0V29.7674H240.976V0H239.488ZM240.232 29.0233H166.465V30.5116H240.232V29.0233Z" fill="#E5E7EB" mask="url(#path-27-inside-9_249_1832)"/>
<path d="M182.611 17.9302H181.571L183.908 11.4355H185.04L187.377 17.9302H186.337L184.501 12.6152H184.45L182.611 17.9302ZM182.785 15.3869H186.159V16.2114H182.785V15.3869ZM187.272 12.2791V11.4355H192.298V12.2791H190.272V17.9302H189.295V12.2791H187.272ZM193.133 12.2791V11.4355H198.16V12.2791H196.133V17.9302H195.157V12.2791H193.133ZM199.315 17.9302V11.4355H201.63C202.133 11.4355 202.551 11.5222 202.883 11.6956C203.217 11.8689 203.466 12.1089 203.631 12.4154C203.796 12.7199 203.879 13.0719 203.879 13.4715C203.879 13.8689 203.795 14.2188 203.628 14.5211C203.463 14.8214 203.214 15.055 202.88 15.222C202.548 15.389 202.13 15.4725 201.627 15.4725H199.873V14.629H201.538C201.855 14.629 202.113 14.5835 202.312 14.4926C202.513 14.4017 202.66 14.2696 202.753 14.0962C202.846 13.9228 202.892 13.7146 202.892 13.4715C202.892 13.2262 202.845 13.0137 202.75 12.834C202.657 12.6543 202.51 12.5169 202.309 12.4218C202.11 12.3245 201.849 12.2759 201.526 12.2759H200.295V17.9302H199.315ZM202.521 15L204.126 17.9302H203.01L201.437 15H202.521ZM206.096 11.4355V17.9302H205.116V11.4355H206.096ZM207.567 17.9302V11.4355H209.946C210.407 11.4355 210.788 11.5116 211.091 11.6639C211.393 11.814 211.619 12.018 211.769 12.2759C211.919 12.5317 211.994 12.8203 211.994 13.1417C211.994 13.4123 211.945 13.6406 211.845 13.8266C211.746 14.0106 211.613 14.1586 211.446 14.2706C211.281 14.3806 211.099 14.4609 210.9 14.5116V14.5751C211.116 14.5856 211.326 14.6554 211.531 14.7844C211.739 14.9112 211.91 15.092 212.045 15.3266C212.181 15.5613 212.248 15.8467 212.248 16.1829C212.248 16.5148 212.17 16.8129 212.013 17.0772C211.859 17.3393 211.62 17.5476 211.297 17.7019C210.973 17.8541 210.56 17.9302 210.057 17.9302H207.567ZM208.547 17.0899H209.962C210.431 17.0899 210.767 16.9989 210.97 16.8171C211.173 16.6353 211.275 16.408 211.275 16.1353C211.275 15.9302 211.223 15.7421 211.119 15.5708C211.016 15.3996 210.868 15.2632 210.675 15.1617C210.485 15.0603 210.259 15.0095 209.997 15.0095H208.547V17.0899ZM208.547 14.2452H209.86C210.08 14.2452 210.278 14.203 210.453 14.1184C210.631 14.0338 210.771 13.9154 210.875 13.7632C210.981 13.6089 211.034 13.4271 211.034 13.2178C211.034 12.9493 210.939 12.7241 210.751 12.5423C210.563 12.3605 210.275 12.2696 209.886 12.2696H208.547V14.2452ZM217.632 11.4355H218.615V15.7072C218.615 16.1617 218.508 16.5645 218.294 16.9154C218.081 17.2643 217.781 17.5391 217.394 17.74C217.007 17.9387 216.553 18.0381 216.033 18.0381C215.515 18.0381 215.063 17.9387 214.676 17.74C214.289 17.5391 213.989 17.2643 213.775 16.9154C213.562 16.5645 213.455 16.1617 213.455 15.7072V11.4355H214.435V15.6279C214.435 15.9218 214.499 16.1829 214.628 16.4112C214.76 16.6395 214.945 16.8192 215.183 16.9503C215.422 17.0793 215.706 17.1438 216.033 17.1438C216.363 17.1438 216.647 17.0793 216.886 16.9503C217.127 16.8192 217.311 16.6395 217.438 16.4112C217.567 16.1829 217.632 15.9218 217.632 15.6279V11.4355ZM219.764 12.2791V11.4355H224.79V12.2791H222.764V17.9302H221.787V12.2791H219.764Z" fill="#6B7280"/>
<path d="M240.232 61.7675H166.465V63.2558H240.232V61.7675Z" fill="#E5E7EB" mask="url(#path-30-inside-10_249_1832)"/>
<path d="M182.181 49.6977V42.1205H184.956C185.494 42.1205 185.939 42.2093 186.292 42.3869C186.644 42.562 186.908 42.8001 187.083 43.101C187.258 43.3994 187.346 43.7361 187.346 44.111C187.346 44.4267 187.288 44.6931 187.172 44.9102C187.056 45.1248 186.901 45.2974 186.706 45.4281C186.514 45.5564 186.301 45.6501 186.07 45.7093V45.7833C186.321 45.7956 186.567 45.877 186.806 46.0275C187.048 46.1755 187.247 46.3864 187.405 46.6602C187.563 46.934 187.642 47.2669 187.642 47.6591C187.642 48.0464 187.551 48.3941 187.368 48.7024C187.188 49.0083 186.909 49.2513 186.532 49.4313C186.155 49.6089 185.672 49.6977 185.085 49.6977H182.181ZM183.324 48.7172H184.974C185.522 48.7172 185.914 48.6112 186.151 48.3991C186.388 48.1869 186.506 47.9218 186.506 47.6036C186.506 47.3644 186.446 47.1448 186.325 46.945C186.204 46.7453 186.031 46.5862 185.807 46.4678C185.585 46.3494 185.321 46.2902 185.015 46.2902H183.324V48.7172ZM183.324 45.3985H184.856C185.113 45.3985 185.343 45.3492 185.548 45.2505C185.755 45.1519 185.919 45.0138 186.04 44.8362C186.163 44.6561 186.225 44.444 186.225 44.1998C186.225 43.8866 186.115 43.6239 185.896 43.4118C185.676 43.1996 185.339 43.0936 184.886 43.0936H183.324V45.3985ZM191.411 49.8124C190.851 49.8124 190.368 49.6928 189.964 49.4535C189.562 49.2118 189.251 48.8726 189.032 48.4361C188.814 47.997 188.706 47.4828 188.706 46.8933C188.706 46.3112 188.814 45.7981 189.032 45.3541C189.251 44.9102 189.557 44.5636 189.949 44.3145C190.344 44.0654 190.805 43.9408 191.333 43.9408C191.653 43.9408 191.964 43.9939 192.265 44.0999C192.566 44.206 192.836 44.3725 193.075 44.5994C193.315 44.8263 193.503 45.1211 193.641 45.4836C193.78 45.8437 193.849 46.2816 193.849 46.7971V47.1892H189.331V46.3605H192.765C192.765 46.0694 192.705 45.8117 192.587 45.5872C192.469 45.3603 192.302 45.1815 192.088 45.0508C191.875 44.92 191.626 44.8547 191.34 44.8547C191.029 44.8547 190.758 44.9311 190.526 45.0841C190.297 45.2345 190.119 45.4318 189.993 45.676C189.87 45.9177 189.808 46.1804 189.808 46.4641V47.1115C189.808 47.4914 189.875 47.8145 190.008 48.0809C190.144 48.3473 190.333 48.5508 190.574 48.6914C190.816 48.8295 191.098 48.8985 191.422 48.8985C191.631 48.8985 191.822 48.8689 191.995 48.8097C192.168 48.7481 192.317 48.6568 192.443 48.536C192.569 48.4151 192.665 48.2659 192.731 48.0883L193.778 48.277C193.695 48.5853 193.544 48.8554 193.327 49.0872C193.112 49.3166 192.842 49.4954 192.517 49.6237C192.194 49.7495 191.825 49.8124 191.411 49.8124ZM196.234 46.3235V49.6977H195.128V44.0148H196.19V44.9398H196.26C196.391 44.6388 196.596 44.3971 196.874 44.2146C197.156 44.0321 197.51 43.9408 197.936 43.9408C198.324 43.9408 198.663 44.0222 198.954 44.185C199.245 44.3453 199.47 44.5846 199.631 44.9028C199.791 45.2209 199.871 45.6144 199.871 46.083V49.6977H198.765V46.2162C198.765 45.8043 198.658 45.4824 198.443 45.2505C198.229 45.0162 197.934 44.8991 197.559 44.8991C197.302 44.8991 197.074 44.9546 196.874 45.0656C196.677 45.1766 196.521 45.3393 196.405 45.5539C196.291 45.7661 196.234 46.0226 196.234 46.3235ZM203.856 49.8124C203.296 49.8124 202.814 49.6928 202.41 49.4535C202.008 49.2118 201.697 48.8726 201.477 48.4361C201.26 47.997 201.152 47.4828 201.152 46.8933C201.152 46.3112 201.26 45.7981 201.477 45.3541C201.697 44.9102 202.003 44.5636 202.395 44.3145C202.789 44.0654 203.251 43.9408 203.779 43.9408C204.099 43.9408 204.41 43.9939 204.711 44.0999C205.012 44.206 205.282 44.3725 205.521 44.5994C205.76 44.8263 205.949 45.1211 206.087 45.4836C206.225 45.8437 206.294 46.2816 206.294 46.7971V47.1892H201.777V46.3605H205.21C205.21 46.0694 205.151 45.8117 205.033 45.5872C204.914 45.3603 204.748 45.1815 204.533 45.0508C204.321 44.92 204.072 44.8547 203.786 44.8547C203.475 44.8547 203.204 44.9311 202.972 45.0841C202.743 45.2345 202.565 45.4318 202.439 45.676C202.316 45.9177 202.254 46.1804 202.254 46.4641V47.1115C202.254 47.4914 202.321 47.8145 202.454 48.0809C202.59 48.3473 202.778 48.5508 203.02 48.6914C203.262 48.8295 203.544 48.8985 203.867 48.8985C204.077 48.8985 204.268 48.8689 204.441 48.8097C204.613 48.7481 204.763 48.6568 204.889 48.536C205.014 48.4151 205.11 48.2659 205.177 48.0883L206.224 48.277C206.14 48.5853 205.99 48.8554 205.773 49.0872C205.558 49.3166 205.288 49.4954 204.962 49.6237C204.639 49.7495 204.271 49.8124 203.856 49.8124ZM210.278 44.0148V44.9028H207.067V44.0148H210.278ZM207.948 49.6977V43.3563C207.948 43.0011 208.025 42.7063 208.181 42.472C208.336 42.2352 208.542 42.0589 208.799 41.9429C209.055 41.8245 209.334 41.7653 209.635 41.7653C209.857 41.7653 210.047 41.7838 210.204 41.8208C210.362 41.8554 210.479 41.8874 210.556 41.917L210.297 42.8124C210.245 42.7976 210.179 42.7803 210.097 42.7606C210.016 42.7384 209.917 42.7273 209.801 42.7273C209.532 42.7273 209.34 42.7939 209.224 42.9271C209.111 43.0603 209.054 43.2527 209.054 43.5042V49.6977H207.948ZM211.472 49.6977V44.0148H212.578V49.6977H211.472ZM212.031 43.138C211.838 43.138 211.673 43.0738 211.535 42.9456C211.399 42.8149 211.331 42.6595 211.331 42.4794C211.331 42.2969 211.399 42.1415 211.535 42.0132C211.673 41.8825 211.838 41.8171 212.031 41.8171C212.223 41.8171 212.387 41.8825 212.523 42.0132C212.661 42.1415 212.73 42.2969 212.73 42.4794C212.73 42.6595 212.661 42.8149 212.523 42.9456C212.387 43.0738 212.223 43.138 212.031 43.138ZM216.771 44.0148V44.9028H213.667V44.0148H216.771ZM214.5 42.6533H215.606V48.0291C215.606 48.2437 215.638 48.4052 215.702 48.5138C215.766 48.6198 215.849 48.6926 215.95 48.732C216.054 48.769 216.166 48.7875 216.287 48.7875C216.375 48.7875 216.453 48.7814 216.52 48.769C216.586 48.7567 216.638 48.7468 216.675 48.7394L216.875 49.6533C216.811 49.678 216.719 49.7026 216.601 49.7273C216.483 49.7544 216.335 49.7692 216.157 49.7717C215.866 49.7766 215.595 49.7248 215.343 49.6163C215.092 49.5078 214.888 49.34 214.733 49.1131C214.577 48.8862 214.5 48.6013 214.5 48.2585V42.6533Z" fill="#1F2937"/>
<path d="M240.232 94.5116H166.465V96H240.232V94.5116Z" fill="#E5E7EB" mask="url(#path-33-inside-11_249_1832)"/>
<path d="M188.474 77.3287H187.32C187.276 77.0821 187.193 76.865 187.072 76.6776C186.951 76.4901 186.803 76.331 186.628 76.2003C186.453 76.0696 186.257 75.9709 186.04 75.9043C185.825 75.8377 185.597 75.8044 185.356 75.8044C184.919 75.8044 184.528 75.9142 184.183 76.1337C183.84 76.3532 183.569 76.6751 183.369 77.0993C183.171 77.5236 183.073 78.0416 183.073 78.6532C183.073 79.2699 183.171 79.7903 183.369 80.2146C183.569 80.6388 183.841 80.9595 184.186 81.1765C184.532 81.3936 184.92 81.5021 185.352 81.5021C185.591 81.5021 185.818 81.47 186.033 81.4059C186.25 81.3393 186.446 81.2419 186.621 81.1136C186.796 80.9854 186.944 80.8287 187.065 80.6437C187.188 80.4563 187.273 80.2417 187.32 80L188.474 80.0037C188.413 80.3761 188.293 80.719 188.116 81.0322C187.94 81.343 187.715 81.6118 187.438 81.8388C187.165 82.0632 186.851 82.2371 186.499 82.3604C186.146 82.4838 185.761 82.5454 185.344 82.5454C184.688 82.5454 184.104 82.39 183.591 82.0793C183.078 81.766 182.673 81.3183 182.377 80.7362C182.084 80.1541 181.937 79.4598 181.937 78.6532C181.937 77.8442 182.085 77.1499 182.381 76.5703C182.677 75.9882 183.081 75.5417 183.594 75.2309C184.107 74.9177 184.691 74.7611 185.344 74.7611C185.746 74.7611 186.121 74.819 186.469 74.935C186.819 75.0484 187.134 75.2161 187.413 75.4381C187.691 75.6577 187.922 75.9265 188.104 76.2447C188.287 76.5604 188.41 76.9217 188.474 77.3287ZM192.199 82.5565C191.667 82.5565 191.202 82.4344 190.805 82.1902C190.408 81.9461 190.099 81.6044 189.88 81.1654C189.66 80.7264 189.55 80.2133 189.55 79.6263C189.55 79.0368 189.66 78.5213 189.88 78.0798C190.099 77.6383 190.408 77.2954 190.805 77.0512C191.202 76.8071 191.667 76.685 192.199 76.685C192.732 76.685 193.197 76.8071 193.594 77.0512C193.991 77.2954 194.3 77.6383 194.519 78.0798C194.739 78.5213 194.849 79.0368 194.849 79.6263C194.849 80.2133 194.739 80.7264 194.519 81.1654C194.3 81.6044 193.991 81.9461 193.594 82.1902C193.197 82.4344 192.732 82.5565 192.199 82.5565ZM192.203 81.6279C192.548 81.6279 192.835 81.5366 193.062 81.3541C193.288 81.1716 193.456 80.9286 193.565 80.6252C193.676 80.3219 193.731 79.9876 193.731 79.6226C193.731 79.26 193.676 78.927 193.565 78.6237C193.456 78.3178 193.288 78.0724 193.062 77.8874C192.835 77.7024 192.548 77.6099 192.203 77.6099C191.855 77.6099 191.567 77.7024 191.337 77.8874C191.111 78.0724 190.942 78.3178 190.831 78.6237C190.722 78.927 190.668 79.26 190.668 79.6226C190.668 79.9876 190.722 80.3219 190.831 80.6252C190.942 80.9286 191.111 81.1716 191.337 81.3541C191.567 81.5366 191.855 81.6279 192.203 81.6279ZM200.394 78.1464L199.391 78.324C199.349 78.1957 199.283 78.0736 199.191 77.9577C199.103 77.8418 198.982 77.7468 198.829 77.6728C198.676 77.5988 198.485 77.5618 198.255 77.5618C197.942 77.5618 197.681 77.6321 197.471 77.7727C197.261 77.9108 197.157 78.0896 197.157 78.3092C197.157 78.4991 197.227 78.652 197.367 78.7679C197.508 78.8839 197.735 78.9788 198.048 79.0528L198.951 79.26C199.474 79.3809 199.864 79.5671 200.12 79.8187C200.377 80.0703 200.505 80.3971 200.505 80.7991C200.505 81.1395 200.406 81.4429 200.209 81.7093C200.014 81.9732 199.741 82.1804 199.391 82.3308C199.043 82.4813 198.64 82.5565 198.181 82.5565C197.545 82.5565 197.026 82.4209 196.624 82.1496C196.222 81.8758 195.975 81.4873 195.884 80.9841L196.953 80.8213C197.02 81.1 197.157 81.3109 197.364 81.454C197.571 81.5946 197.841 81.6649 198.174 81.6649C198.537 81.6649 198.826 81.5896 199.043 81.4392C199.261 81.2863 199.369 81.1 199.369 80.8805C199.369 80.7029 199.302 80.5537 199.169 80.4328C199.039 80.312 198.838 80.2207 198.566 80.1591L197.604 79.9482C197.074 79.8273 196.682 79.6349 196.428 79.371C196.176 79.1071 196.05 78.7729 196.05 78.3684C196.05 78.0329 196.144 77.7394 196.332 77.4878C196.519 77.2362 196.778 77.0401 197.108 76.8995C197.439 76.7565 197.818 76.685 198.244 76.685C198.858 76.685 199.342 76.8182 199.695 77.0845C200.047 77.3485 200.28 77.7024 200.394 78.1464ZM204.426 76.759V77.6469H201.322V76.759H204.426ZM202.154 75.3974H203.261V80.7732C203.261 80.9878 203.293 81.1494 203.357 81.2579C203.421 81.364 203.504 81.4367 203.605 81.4762C203.708 81.5132 203.82 81.5317 203.941 81.5317C204.03 81.5317 204.108 81.5255 204.174 81.5132C204.241 81.5009 204.293 81.491 204.33 81.4836L204.53 82.3974C204.465 82.4221 204.374 82.4468 204.256 82.4714C204.137 82.4986 203.989 82.5134 203.812 82.5158C203.521 82.5208 203.249 82.469 202.998 82.3604C202.746 82.2519 202.543 82.0842 202.387 81.8573C202.232 81.6303 202.154 81.3455 202.154 81.0026V75.3974Z" fill="#1F2937"/>
<path d="M240.232 127.256H166.465V128.744H240.232V127.256Z" fill="#E5E7EB" mask="url(#path-36-inside-12_249_1832)"/>
<path d="M188.474 110.073H187.32C187.276 109.826 187.193 109.609 187.072 109.422C186.951 109.234 186.803 109.075 186.628 108.944C186.453 108.814 186.257 108.715 186.04 108.649C185.825 108.582 185.597 108.549 185.356 108.549C184.919 108.549 184.528 108.658 184.183 108.878C183.84 109.097 183.569 109.419 183.369 109.844C183.171 110.268 183.073 110.786 183.073 111.397C183.073 112.014 183.171 112.535 183.369 112.959C183.569 113.383 183.841 113.704 184.186 113.921C184.532 114.138 184.92 114.246 185.352 114.246C185.591 114.246 185.818 114.214 186.033 114.15C186.25 114.083 186.446 113.986 186.621 113.858C186.796 113.73 186.944 113.573 187.065 113.388C187.188 113.2 187.273 112.986 187.32 112.744L188.474 112.748C188.413 113.12 188.293 113.463 188.116 113.776C187.94 114.087 187.715 114.356 187.438 114.583C187.165 114.807 186.851 114.981 186.499 115.105C186.146 115.228 185.761 115.29 185.344 115.29C184.688 115.29 184.104 115.134 183.591 114.823C183.078 114.51 182.673 114.063 182.377 113.48C182.084 112.898 181.937 112.204 181.937 111.397C181.937 110.588 182.085 109.894 182.381 109.314C182.677 108.732 183.081 108.286 183.594 107.975C184.107 107.662 184.691 107.505 185.344 107.505C185.746 107.505 186.121 107.563 186.469 107.679C186.819 107.793 187.134 107.96 187.413 108.182C187.691 108.402 187.922 108.671 188.104 108.989C188.287 109.305 188.41 109.666 188.474 110.073ZM192.199 115.301C191.667 115.301 191.202 115.179 190.805 114.934C190.408 114.69 190.099 114.349 189.88 113.91C189.66 113.471 189.55 112.958 189.55 112.37C189.55 111.781 189.66 111.265 189.88 110.824C190.099 110.382 190.408 110.04 190.805 109.795C191.202 109.551 191.667 109.429 192.199 109.429C192.732 109.429 193.197 109.551 193.594 109.795C193.991 110.04 194.3 110.382 194.519 110.824C194.739 111.265 194.849 111.781 194.849 112.37C194.849 112.958 194.739 113.471 194.519 113.91C194.3 114.349 193.991 114.69 193.594 114.934C193.197 115.179 192.732 115.301 192.199 115.301ZM192.203 114.372C192.548 114.372 192.835 114.281 193.062 114.098C193.288 113.916 193.456 113.673 193.565 113.369C193.676 113.066 193.731 112.732 193.731 112.367C193.731 112.004 193.676 111.671 193.565 111.368C193.456 111.062 193.288 110.817 193.062 110.632C192.835 110.447 192.548 110.354 192.203 110.354C191.855 110.354 191.567 110.447 191.337 110.632C191.111 110.817 190.942 111.062 190.831 111.368C190.722 111.671 190.668 112.004 190.668 112.367C190.668 112.732 190.722 113.066 190.831 113.369C190.942 113.673 191.111 113.916 191.337 114.098C191.567 114.281 191.855 114.372 192.203 114.372ZM200.394 110.891L199.391 111.068C199.349 110.94 199.283 110.818 199.191 110.702C199.103 110.586 198.982 110.491 198.829 110.417C198.676 110.343 198.485 110.306 198.255 110.306C197.942 110.306 197.681 110.376 197.471 110.517C197.261 110.655 197.157 110.834 197.157 111.053C197.157 111.243 197.227 111.396 197.367 111.512C197.508 111.628 197.735 111.723 198.048 111.797L198.951 112.004C199.474 112.125 199.864 112.311 200.12 112.563C200.377 112.814 200.505 113.141 200.505 113.543C200.505 113.884 200.406 114.187 200.209 114.453C200.014 114.717 199.741 114.925 199.391 115.075C199.043 115.225 198.64 115.301 198.181 115.301C197.545 115.301 197.026 115.165 196.624 114.894C196.222 114.62 195.975 114.231 195.884 113.728L196.953 113.566C197.02 113.844 197.157 114.055 197.364 114.198C197.571 114.339 197.841 114.409 198.174 114.409C198.537 114.409 198.826 114.334 199.043 114.183C199.261 114.03 199.369 113.844 199.369 113.625C199.369 113.447 199.302 113.298 199.169 113.177C199.039 113.056 198.838 112.965 198.566 112.903L197.604 112.692C197.074 112.572 196.682 112.379 196.428 112.115C196.176 111.851 196.05 111.517 196.05 111.113C196.05 110.777 196.144 110.484 196.332 110.232C196.519 109.98 196.778 109.784 197.108 109.644C197.439 109.501 197.818 109.429 198.244 109.429C198.858 109.429 199.342 109.562 199.695 109.829C200.047 110.093 200.28 110.447 200.394 110.891ZM204.426 109.503V110.391H201.322V109.503H204.426ZM202.154 108.142H203.261V113.517C203.261 113.732 203.293 113.894 203.357 114.002C203.421 114.108 203.504 114.181 203.605 114.22C203.708 114.257 203.82 114.276 203.941 114.276C204.03 114.276 204.108 114.27 204.174 114.257C204.241 114.245 204.293 114.235 204.33 114.228L204.53 115.142C204.465 115.166 204.374 115.191 204.256 115.216C204.137 115.243 203.989 115.258 203.812 115.26C203.521 115.265 203.249 115.213 202.998 115.105C202.746 114.996 202.543 114.828 202.387 114.601C202.232 114.375 202.154 114.09 202.154 113.747V108.142Z" fill="#1F2937"/>
<path d="M305 29.7674V30.5116H305.744V29.7674H305ZM304.256 0V29.7674H305.744V0H304.256ZM305 29.0233H240.232V30.5116H305V29.0233Z" fill="#E5E7EB" mask="url(#path-39-inside-13_249_1832)"/>
<path d="M256.378 17.9302H255.338L257.675 11.4355H258.808L261.145 17.9302H260.105L258.268 12.6152H258.218L256.378 17.9302ZM256.553 15.3869H259.927V16.2114H256.553V15.3869ZM267.216 13.5476H266.227C266.189 13.3362 266.118 13.1501 266.014 12.9894C265.911 12.8288 265.784 12.6924 265.634 12.5803C265.484 12.4683 265.316 12.3837 265.13 12.3266C264.946 12.2696 264.75 12.241 264.543 12.241C264.169 12.241 263.834 12.3351 263.538 12.5233C263.244 12.7114 263.011 12.9873 262.84 13.351C262.671 13.7146 262.586 14.1586 262.586 14.6829C262.586 15.2114 262.671 15.6575 262.84 16.0211C263.011 16.3848 263.245 16.6596 263.541 16.8457C263.837 17.0317 264.17 17.1247 264.54 17.1247C264.745 17.1247 264.939 17.0973 265.123 17.0423C265.309 16.9852 265.477 16.9017 265.628 16.7918C265.778 16.6818 265.905 16.5476 266.008 16.389C266.114 16.2283 266.187 16.0444 266.227 15.8372L267.216 15.8404C267.164 16.1596 267.061 16.4535 266.909 16.722C266.759 16.9884 266.565 17.2188 266.328 17.4133C266.094 17.6057 265.825 17.7548 265.523 17.8605C265.221 17.9662 264.891 18.019 264.533 18.019C263.971 18.019 263.47 17.8858 263.03 17.6195C262.591 17.351 262.244 16.9672 261.99 16.4683C261.739 15.9693 261.613 15.3742 261.613 14.6829C261.613 13.9894 261.74 13.3943 261.993 12.8975C262.247 12.3985 262.594 12.0159 263.033 11.7495C263.473 11.481 263.973 11.3467 264.533 11.3467C264.878 11.3467 265.199 11.3964 265.498 11.4958C265.798 11.593 266.067 11.7368 266.306 11.9271C266.545 12.1152 266.743 12.3457 266.899 12.6184C267.056 12.889 267.161 13.1987 267.216 13.5476ZM268.113 12.2791V11.4355H273.14V12.2791H271.113V17.9302H270.137V12.2791H268.113ZM275.275 11.4355V17.9302H274.295V11.4355H275.275ZM282.388 14.6829C282.388 15.3763 282.262 15.9725 282.008 16.4715C281.754 16.9683 281.406 17.351 280.964 17.6195C280.525 17.8858 280.025 18.019 279.464 18.019C278.902 18.019 278.4 17.8858 277.958 17.6195C277.518 17.351 277.172 16.9672 276.918 16.4683C276.664 15.9693 276.537 15.3742 276.537 14.6829C276.537 13.9894 276.664 13.3943 276.918 12.8975C277.172 12.3985 277.518 12.0159 277.958 11.7495C278.4 11.481 278.902 11.3467 279.464 11.3467C280.025 11.3467 280.525 11.481 280.964 11.7495C281.406 12.0159 281.754 12.3985 282.008 12.8975C282.262 13.3943 282.388 13.9894 282.388 14.6829ZM281.418 14.6829C281.418 14.1543 281.332 13.7093 281.161 13.3478C280.992 12.9841 280.759 12.7093 280.463 12.5233C280.17 12.3351 279.837 12.241 279.464 12.241C279.09 12.241 278.756 12.3351 278.462 12.5233C278.168 12.7093 277.936 12.9841 277.765 13.3478C277.596 13.7093 277.511 14.1543 277.511 14.6829C277.511 15.2114 277.596 15.6575 277.765 16.0211C277.936 16.3827 278.168 16.6575 278.462 16.8457C278.756 17.0317 279.09 17.1247 279.464 17.1247C279.837 17.1247 280.17 17.0317 280.463 16.8457C280.759 16.6575 280.992 16.3827 281.161 16.0211C281.332 15.6575 281.418 15.2114 281.418 14.6829ZM288.897 11.4355V17.9302H287.996L284.695 13.167H284.635V17.9302H283.655V11.4355H284.562L287.866 16.2051H287.926V11.4355H288.897Z" fill="#6B7280"/>
<path d="M305 61.7675H240.232V63.2558H305V61.7675Z" fill="#E5E7EB" mask="url(#path-42-inside-14_249_1832)"/>
<g clip-path="url(#clip1_249_1832)">
<path d="M258.456 49.6977H255.888V42.1205H258.508C259.26 42.1205 259.906 42.2722 260.446 42.5756C260.989 42.8765 261.406 43.3094 261.697 43.8742C261.988 44.4391 262.133 45.1149 262.133 45.9017C262.133 46.691 261.987 47.3693 261.693 47.9366C261.402 48.5039 260.982 48.9392 260.431 49.2426C259.884 49.546 259.225 49.6977 258.456 49.6977ZM257.261 48.5101H258.389C258.917 48.5101 259.357 48.4139 259.71 48.2215C260.063 48.0266 260.328 47.7368 260.505 47.352C260.683 46.9648 260.772 46.4813 260.772 45.9017C260.772 45.3221 260.683 44.8411 260.505 44.4588C260.328 44.074 260.065 43.7867 259.717 43.5967C259.372 43.4044 258.943 43.3082 258.43 43.3082H257.261V48.5101ZM265.946 49.8087C265.377 49.8087 264.884 49.6903 264.47 49.4535C264.058 49.2143 263.741 48.8763 263.519 48.4398C263.297 48.0007 263.186 47.484 263.186 46.8896C263.186 46.305 263.297 45.7919 263.519 45.3504C263.744 44.9065 264.057 44.5612 264.459 44.3145C264.861 44.0654 265.333 43.9408 265.876 43.9408C266.226 43.9408 266.557 43.9976 266.868 44.111C267.181 44.222 267.457 44.3947 267.696 44.629C267.938 44.8633 268.128 45.1618 268.266 45.5243C268.404 45.8844 268.473 46.3136 268.473 46.8119V47.2225H263.815V46.3198H267.189C267.187 46.0633 267.131 45.8351 267.023 45.6353C266.914 45.4331 266.763 45.274 266.568 45.1581C266.375 45.0421 266.151 44.9842 265.895 44.9842C265.621 44.9842 265.38 45.0508 265.173 45.184C264.966 45.3147 264.804 45.4873 264.688 45.7019C264.575 45.914 264.517 46.1471 264.514 46.4012V47.1892C264.514 47.5198 264.575 47.8034 264.696 48.0402C264.817 48.2745 264.986 48.4546 265.203 48.5804C265.42 48.7037 265.674 48.7653 265.965 48.7653C266.16 48.7653 266.336 48.7382 266.494 48.684C266.652 48.6272 266.789 48.5446 266.905 48.4361C267.02 48.3275 267.108 48.1931 267.167 48.0328L268.418 48.1734C268.339 48.5039 268.188 48.7925 267.966 49.0391C267.747 49.2833 267.466 49.4732 267.123 49.6089C266.78 49.7421 266.388 49.8087 265.946 49.8087ZM270.998 42.1205V49.6977H269.658V42.1205H270.998ZM274.943 49.8087C274.373 49.8087 273.881 49.6903 273.467 49.4535C273.055 49.2143 272.738 48.8763 272.516 48.4398C272.294 48.0007 272.183 47.484 272.183 46.8896C272.183 46.305 272.294 45.7919 272.516 45.3504C272.74 44.9065 273.054 44.5612 273.456 44.3145C273.858 44.0654 274.33 43.9408 274.873 43.9408C275.223 43.9408 275.553 43.9976 275.864 44.111C276.177 44.222 276.454 44.3947 276.693 44.629C276.935 44.8633 277.125 45.1618 277.263 45.5243C277.401 45.8844 277.47 46.3136 277.47 46.8119V47.2225H272.812V46.3198H276.186C276.184 46.0633 276.128 45.8351 276.02 45.6353C275.911 45.4331 275.759 45.274 275.564 45.1581C275.372 45.0421 275.148 44.9842 274.891 44.9842C274.617 44.9842 274.377 45.0508 274.17 45.184C273.962 45.3147 273.801 45.4873 273.685 45.7019C273.572 45.914 273.514 46.1471 273.511 46.4012V47.1892C273.511 47.5198 273.572 47.8034 273.692 48.0402C273.813 48.2745 273.982 48.4546 274.199 48.5804C274.416 48.7037 274.67 48.7653 274.961 48.7653C275.156 48.7653 275.333 48.7382 275.491 48.684C275.648 48.6272 275.785 48.5446 275.901 48.4361C276.017 48.3275 276.105 48.1931 276.164 48.0328L277.414 48.1734C277.335 48.5039 277.185 48.7925 276.963 49.0391C276.743 49.2833 276.462 49.4732 276.119 49.6089C275.777 49.7421 275.384 49.8087 274.943 49.8087ZM281.493 44.0148V45.0508H278.226V44.0148H281.493ZM279.032 42.6533H280.372V47.9884C280.372 48.1684 280.399 48.3066 280.453 48.4028C280.51 48.4965 280.584 48.5606 280.675 48.5952C280.766 48.6297 280.868 48.647 280.979 48.647C281.062 48.647 281.139 48.6408 281.208 48.6285C281.279 48.6161 281.334 48.605 281.371 48.5952L281.596 49.6422C281.525 49.6669 281.422 49.694 281.289 49.7236C281.159 49.7532 280.998 49.7705 280.808 49.7754C280.473 49.7853 280.171 49.7347 279.902 49.6237C279.633 49.5102 279.42 49.3351 279.262 49.0983C279.106 48.8615 279.03 48.5656 279.032 48.2104V42.6533ZM285.12 49.8087C284.55 49.8087 284.058 49.6903 283.644 49.4535C283.232 49.2143 282.915 48.8763 282.693 48.4398C282.471 48.0007 282.36 47.484 282.36 46.8896C282.36 46.305 282.471 45.7919 282.693 45.3504C282.917 44.9065 283.23 44.5612 283.632 44.3145C284.035 44.0654 284.507 43.9408 285.049 43.9408C285.4 43.9408 285.73 43.9976 286.041 44.111C286.354 44.222 286.631 44.3947 286.87 44.629C287.112 44.8633 287.301 45.1618 287.44 45.5243C287.578 45.8844 287.647 46.3136 287.647 46.8119V47.2225H282.989V46.3198H286.363C286.36 46.0633 286.305 45.8351 286.196 45.6353C286.088 45.4331 285.936 45.274 285.741 45.1581C285.549 45.0421 285.325 44.9842 285.068 44.9842C284.794 44.9842 284.554 45.0508 284.347 45.184C284.139 45.3147 283.978 45.4873 283.862 45.7019C283.748 45.914 283.69 46.1471 283.688 46.4012V47.1892C283.688 47.5198 283.748 47.8034 283.869 48.0402C283.99 48.2745 284.159 48.4546 284.376 48.5804C284.593 48.7037 284.847 48.7653 285.138 48.7653C285.333 48.7653 285.51 48.7382 285.667 48.684C285.825 48.6272 285.962 48.5446 286.078 48.4361C286.194 48.3275 286.282 48.1931 286.341 48.0328L287.591 48.1734C287.512 48.5039 287.362 48.7925 287.14 49.0391C286.92 49.2833 286.639 49.4732 286.296 49.6089C285.953 49.7421 285.561 49.8087 285.12 49.8087Z" fill="#3B82F6"/>
</g>
<path d="M305 94.5116H240.232V96H305V94.5116Z" fill="#E5E7EB" mask="url(#path-45-inside-15_249_1832)"/>
<g clip-path="url(#clip2_249_1832)">
<path d="M258.456 82.4418H255.888V74.8647H258.508C259.26 74.8647 259.906 75.0164 260.446 75.3197C260.989 75.6207 261.406 76.0535 261.697 76.6184C261.988 77.1832 262.133 77.859 262.133 78.6459C262.133 79.4351 261.987 80.1134 261.693 80.6807C261.402 81.248 260.982 81.6834 260.431 81.9868C259.884 82.2901 259.225 82.4418 258.456 82.4418ZM257.261 81.2542H258.389C258.917 81.2542 259.357 81.158 259.71 80.9656C260.063 80.7708 260.328 80.4809 260.505 80.0962C260.683 79.7089 260.772 79.2255 260.772 78.6459C260.772 78.0662 260.683 77.5852 260.505 77.2029C260.328 76.8182 260.065 76.5308 259.717 76.3409C259.372 76.1485 258.943 76.0523 258.43 76.0523H257.261V81.2542ZM265.946 82.5528C265.377 82.5528 264.884 82.4344 264.47 82.1976C264.058 81.9584 263.741 81.6205 263.519 81.1839C263.297 80.7449 263.186 80.2281 263.186 79.6337C263.186 79.0491 263.297 78.5361 263.519 78.0946C263.744 77.6506 264.057 77.3053 264.459 77.0586C264.861 76.8095 265.333 76.685 265.876 76.685C266.226 76.685 266.557 76.7417 266.868 76.8552C267.181 76.9661 267.457 77.1388 267.696 77.3731C267.938 77.6074 268.128 77.9059 268.266 78.2685C268.404 78.6286 268.473 79.0578 268.473 79.556V79.9667H263.815V79.0639H267.189C267.187 78.8074 267.131 78.5793 267.023 78.3795C266.914 78.1772 266.763 78.0181 266.568 77.9022C266.375 77.7863 266.151 77.7283 265.895 77.7283C265.621 77.7283 265.38 77.7949 265.173 77.9281C264.966 78.0588 264.804 78.2315 264.688 78.4461C264.575 78.6582 264.517 78.8913 264.514 79.1453V79.9334C264.514 80.2639 264.575 80.5475 264.696 80.7843C264.817 81.0186 264.986 81.1987 265.203 81.3245C265.42 81.4478 265.674 81.5095 265.965 81.5095C266.16 81.5095 266.336 81.4824 266.494 81.4281C266.652 81.3714 266.789 81.2887 266.905 81.1802C267.02 81.0717 267.108 80.9373 267.167 80.7769L268.418 80.9175C268.339 81.248 268.188 81.5366 267.966 81.7833C267.747 82.0275 267.466 82.2174 267.123 82.353C266.78 82.4862 266.388 82.5528 265.946 82.5528ZM270.998 74.8647V82.4418H269.658V74.8647H270.998ZM274.943 82.5528C274.373 82.5528 273.881 82.4344 273.467 82.1976C273.055 81.9584 272.738 81.6205 272.516 81.1839C272.294 80.7449 272.183 80.2281 272.183 79.6337C272.183 79.0491 272.294 78.5361 272.516 78.0946C272.74 77.6506 273.054 77.3053 273.456 77.0586C273.858 76.8095 274.33 76.685 274.873 76.685C275.223 76.685 275.553 76.7417 275.864 76.8552C276.177 76.9661 276.454 77.1388 276.693 77.3731C276.935 77.6074 277.125 77.9059 277.263 78.2685C277.401 78.6286 277.47 79.0578 277.47 79.556V79.9667H272.812V79.0639H276.186C276.184 78.8074 276.128 78.5793 276.02 78.3795C275.911 78.1772 275.759 78.0181 275.564 77.9022C275.372 77.7863 275.148 77.7283 274.891 77.7283C274.617 77.7283 274.377 77.7949 274.17 77.9281C273.962 78.0588 273.801 78.2315 273.685 78.4461C273.572 78.6582 273.514 78.8913 273.511 79.1453V79.9334C273.511 80.2639 273.572 80.5475 273.692 80.7843C273.813 81.0186 273.982 81.1987 274.199 81.3245C274.416 81.4478 274.67 81.5095 274.961 81.5095C275.156 81.5095 275.333 81.4824 275.491 81.4281C275.648 81.3714 275.785 81.2887 275.901 81.1802C276.017 81.0717 276.105 80.9373 276.164 80.7769L277.414 80.9175C277.335 81.248 277.185 81.5366 276.963 81.7833C276.743 82.0275 276.462 82.2174 276.119 82.353C275.777 82.4862 275.384 82.5528 274.943 82.5528ZM281.493 76.759V77.7949H278.226V76.759H281.493ZM279.032 75.3974H280.372V80.7325C280.372 80.9126 280.399 81.0507 280.453 81.1469C280.51 81.2406 280.584 81.3048 280.675 81.3393C280.766 81.3738 280.868 81.3911 280.979 81.3911C281.062 81.3911 281.139 81.3849 281.208 81.3726C281.279 81.3603 281.334 81.3492 281.371 81.3393L281.596 82.3863C281.525 82.411 281.422 82.4381 281.289 82.4677C281.159 82.4973 280.998 82.5146 280.808 82.5195C280.473 82.5294 280.171 82.4788 279.902 82.3678C279.633 82.2544 279.42 82.0793 279.262 81.8425C279.106 81.6057 279.03 81.3097 279.032 80.9545V75.3974ZM285.12 82.5528C284.55 82.5528 284.058 82.4344 283.644 82.1976C283.232 81.9584 282.915 81.6205 282.693 81.1839C282.471 80.7449 282.36 80.2281 282.36 79.6337C282.36 79.0491 282.471 78.5361 282.693 78.0946C282.917 77.6506 283.23 77.3053 283.632 77.0586C284.035 76.8095 284.507 76.685 285.049 76.685C285.4 76.685 285.73 76.7417 286.041 76.8552C286.354 76.9661 286.631 77.1388 286.87 77.3731C287.112 77.6074 287.301 77.9059 287.44 78.2685C287.578 78.6286 287.647 79.0578 287.647 79.556V79.9667H282.989V79.0639H286.363C286.36 78.8074 286.305 78.5793 286.196 78.3795C286.088 78.1772 285.936 78.0181 285.741 77.9022C285.549 77.7863 285.325 77.7283 285.068 77.7283C284.794 77.7283 284.554 77.7949 284.347 77.9281C284.139 78.0588 283.978 78.2315 283.862 78.4461C283.748 78.6582 283.69 78.8913 283.688 79.1453V79.9334C283.688 80.2639 283.748 80.5475 283.869 80.7843C283.99 81.0186 284.159 81.1987 284.376 81.3245C284.593 81.4478 284.847 81.5095 285.138 81.5095C285.333 81.5095 285.51 81.4824 285.667 81.4281C285.825 81.3714 285.962 81.2887 286.078 81.1802C286.194 81.0717 286.282 80.9373 286.341 80.7769L287.591 80.9175C287.512 81.248 287.362 81.5366 287.14 81.7833C286.92 82.0275 286.639 82.2174 286.296 82.353C285.953 82.4862 285.561 82.5528 285.12 82.5528Z" fill="#3B82F6"/>
</g>
<path d="M305 127.256H240.232V128.744H305V127.256Z" fill="#E5E7EB" mask="url(#path-48-inside-16_249_1832)"/>
<g clip-path="url(#clip3_249_1832)">
<path d="M258.456 115.186H255.888V107.609H258.508C259.26 107.609 259.906 107.761 260.446 108.064C260.989 108.365 261.406 108.798 261.697 109.363C261.988 109.927 262.133 110.603 262.133 111.39C262.133 112.179 261.987 112.858 261.693 113.425C261.402 113.992 260.982 114.428 260.431 114.731C259.884 115.034 259.225 115.186 258.456 115.186ZM257.261 113.998H258.389C258.917 113.998 259.357 113.902 259.71 113.71C260.063 113.515 260.328 113.225 260.505 112.84C260.683 112.453 260.772 111.97 260.772 111.39C260.772 110.81 260.683 110.329 260.505 109.947C260.328 109.562 260.065 109.275 259.717 109.085C259.372 108.893 258.943 108.797 258.43 108.797H257.261V113.998ZM265.946 115.297C265.377 115.297 264.884 115.179 264.47 114.942C264.058 114.703 263.741 114.365 263.519 113.928C263.297 113.489 263.186 112.972 263.186 112.378C263.186 111.793 263.297 111.28 263.519 110.839C263.744 110.395 264.057 110.049 264.459 109.803C264.861 109.554 265.333 109.429 265.876 109.429C266.226 109.429 266.557 109.486 266.868 109.599C267.181 109.71 267.457 109.883 267.696 110.117C267.938 110.352 268.128 110.65 268.266 111.013C268.404 111.373 268.473 111.802 268.473 112.3V112.711H263.815V111.808H267.189C267.187 111.552 267.131 111.323 267.023 111.124C266.914 110.921 266.763 110.762 266.568 110.646C266.375 110.53 266.151 110.473 265.895 110.473C265.621 110.473 265.38 110.539 265.173 110.672C264.966 110.803 264.804 110.976 264.688 111.19C264.575 111.402 264.517 111.635 264.514 111.89V112.678C264.514 113.008 264.575 113.292 264.696 113.529C264.817 113.763 264.986 113.943 265.203 114.069C265.42 114.192 265.674 114.254 265.965 114.254C266.16 114.254 266.336 114.227 266.494 114.172C266.652 114.116 266.789 114.033 266.905 113.924C267.02 113.816 267.108 113.681 267.167 113.521L268.418 113.662C268.339 113.992 268.188 114.281 267.966 114.527C267.747 114.772 267.466 114.962 267.123 115.097C266.78 115.23 266.388 115.297 265.946 115.297ZM270.998 107.609V115.186H269.658V107.609H270.998ZM274.943 115.297C274.373 115.297 273.881 115.179 273.467 114.942C273.055 114.703 272.738 114.365 272.516 113.928C272.294 113.489 272.183 112.972 272.183 112.378C272.183 111.793 272.294 111.28 272.516 110.839C272.74 110.395 273.054 110.049 273.456 109.803C273.858 109.554 274.33 109.429 274.873 109.429C275.223 109.429 275.553 109.486 275.864 109.599C276.177 109.71 276.454 109.883 276.693 110.117C276.935 110.352 277.125 110.65 277.263 111.013C277.401 111.373 277.47 111.802 277.47 112.3V112.711H272.812V111.808H276.186C276.184 111.552 276.128 111.323 276.02 111.124C275.911 110.921 275.759 110.762 275.564 110.646C275.372 110.53 275.148 110.473 274.891 110.473C274.617 110.473 274.377 110.539 274.17 110.672C273.962 110.803 273.801 110.976 273.685 111.19C273.572 111.402 273.514 111.635 273.511 111.89V112.678C273.511 113.008 273.572 113.292 273.692 113.529C273.813 113.763 273.982 113.943 274.199 114.069C274.416 114.192 274.67 114.254 274.961 114.254C275.156 114.254 275.333 114.227 275.491 114.172C275.648 114.116 275.785 114.033 275.901 113.924C276.017 113.816 276.105 113.681 276.164 113.521L277.414 113.662C277.335 113.992 277.185 114.281 276.963 114.527C276.743 114.772 276.462 114.962 276.119 115.097C275.777 115.23 275.384 115.297 274.943 115.297ZM281.493 109.503V110.539H278.226V109.503H281.493ZM279.032 108.142H280.372V113.477C280.372 113.657 280.399 113.795 280.453 113.891C280.51 113.985 280.584 114.049 280.675 114.083C280.766 114.118 280.868 114.135 280.979 114.135C281.062 114.135 281.139 114.129 281.208 114.117C281.279 114.104 281.334 114.093 281.371 114.083L281.596 115.131C281.525 115.155 281.422 115.182 281.289 115.212C281.159 115.242 280.998 115.259 280.808 115.264C280.473 115.274 280.171 115.223 279.902 115.112C279.633 114.999 279.42 114.823 279.262 114.587C279.106 114.35 279.03 114.054 279.032 113.699V108.142ZM285.12 115.297C284.55 115.297 284.058 115.179 283.644 114.942C283.232 114.703 282.915 114.365 282.693 113.928C282.471 113.489 282.36 112.972 282.36 112.378C282.36 111.793 282.471 111.28 282.693 110.839C282.917 110.395 283.23 110.049 283.632 109.803C284.035 109.554 284.507 109.429 285.049 109.429C285.4 109.429 285.73 109.486 286.041 109.599C286.354 109.71 286.631 109.883 286.87 110.117C287.112 110.352 287.301 110.65 287.44 111.013C287.578 111.373 287.647 111.802 287.647 112.3V112.711H282.989V111.808H286.363C286.36 111.552 286.305 111.323 286.196 111.124C286.088 110.921 285.936 110.762 285.741 110.646C285.549 110.53 285.325 110.473 285.068 110.473C284.794 110.473 284.554 110.539 284.347 110.672C284.139 110.803 283.978 110.976 283.862 111.19C283.748 111.402 283.69 111.635 283.688 111.89V112.678C283.688 113.008 283.748 113.292 283.869 113.529C283.99 113.763 284.159 113.943 284.376 114.069C284.593 114.192 284.847 114.254 285.138 114.254C285.333 114.254 285.51 114.227 285.667 114.172C285.825 114.116 285.962 114.033 286.078 113.924C286.194 113.816 286.282 113.681 286.341 113.521L287.591 113.662C287.512 113.992 287.362 114.281 287.14 114.527C286.92 114.772 286.639 114.962 286.296 115.097C285.953 115.23 285.561 115.297 285.12 115.297Z" fill="#3B82F6"/>
</g>
</g>
<rect x="1.30227" y="0.372093" width="303.326" height="127.256" rx="7.06977" stroke="#E5E7EB" stroke-width="0.744186"/>
<defs>
<clipPath id="clip0_249_1832">
<rect x="0.930176" width="304.07" height="128" rx="7.44186" fill="white"/>
</clipPath>
<clipPath id="clip1_249_1832">
<rect width="33" height="15" fill="white" transform="translate(255.116 38.6977)"/>
</clipPath>
<clipPath id="clip2_249_1832">
<rect width="33" height="15" fill="white" transform="translate(255.116 71.4418)"/>
</clipPath>
<clipPath id="clip3_249_1832">
<rect width="33" height="15" fill="white" transform="translate(255.116 104.186)"/>
</clipPath>
</defs>
</svg>
