<svg width="745" height="96" viewBox="0 0 745 96" fill="none" xmlns="http://www.w3.org/2000/svg">
<path d="M2 24.8746L14.5028 8.87732L7.54418 44.2627" stroke="#553FC2" stroke-width="3.75322"/>
<path d="M38.3038 28.3456C35.6695 40.6061 30.2331 45.1174 24.9344 44.1318C19.6357 43.1461 16.6909 36.0607 19.1155 24.7763C21.54 13.492 27.1862 8.00454 32.4849 8.99018C37.7836 9.97582 40.9381 16.0851 38.3038 28.3456Z" stroke="#553FC2" stroke-width="3.75322"/>
<path d="M63.0528 28.3456C60.4185 40.6061 54.9821 45.1174 49.6834 44.1318C44.3847 43.1461 41.44 36.0607 43.8645 24.7763C46.289 13.492 51.9352 8.00454 57.2339 8.99018C62.5326 9.97582 65.6871 16.0851 63.0528 28.3456Z" stroke="#553FC2" stroke-width="3.75322"/>
<path d="M578 78.9986L584.251 71L580.772 88.6927" stroke="#553FC2" stroke-width="1.87661"/>
<path d="M596.152 80.7342C594.835 86.8645 592.117 89.1201 589.467 88.6273C586.818 88.1345 585.345 84.5917 586.558 78.9496C587.77 73.3074 590.593 70.5637 593.242 71.0565C595.892 71.5493 597.469 74.604 596.152 80.7342Z" stroke="#553FC2" stroke-width="1.87661"/>
<path d="M608.527 80.7342C607.21 86.8645 604.492 89.1201 601.842 88.6273C599.193 88.1345 597.72 84.5917 598.933 78.9496C600.145 73.3074 602.968 70.5637 605.617 71.0565C608.267 71.5493 609.844 74.604 608.527 80.7342Z" stroke="#553FC2" stroke-width="1.87661"/>
<path d="M303.803 65H316.075C316.075 65 306.445 75.9192 303 89.1401" stroke="#553FC2" stroke-width="2.56046"/>
<path d="M332.313 78.2814C330.515 86.6455 326.807 89.7231 323.192 89.0507C319.577 88.3783 317.568 83.5446 319.222 75.8464C320.876 68.1481 324.728 64.4046 328.343 65.077C331.958 65.7494 334.11 69.9172 332.313 78.2814Z" stroke="#553FC2" stroke-width="2.56046"/>
<path d="M487.381 21.7009C482.924 24.5997 478.2 27.6045 474.638 31.3787C467.678 38.7549 467.365 49.5744 481.993 50.1184C496.621 50.6624 501.654 40.8602 497.407 33.0673C495.07 28.7792 491.042 25.1857 487.381 21.7009ZM487.381 21.7009C490.403 19.7358 493.302 17.8195 495.632 15.7452C502.183 9.91529 499.967 3.33259 491.336 3.01159C482.705 2.69058 477.352 9.09507 481.497 15.2195C482.993 17.4308 485.117 19.5451 487.381 21.7009Z" stroke="#553FC2" stroke-width="5"/>
<path d="M534.144 28.9355C530.635 45.2688 523.392 51.2787 516.334 49.9656C509.275 48.6525 505.352 39.2134 508.582 24.1805C511.812 9.14757 519.333 1.83729 526.392 3.15035C533.451 4.46342 537.654 12.6022 534.144 28.9355Z" stroke="#553FC2" stroke-width="5"/>
<path d="M707 93.02C720.985 94.3383 727.588 69.8149 718.771 66.4336C714.947 64.9671 710.528 67.3411 708.9 71.7359C707.082 76.6427 708.223 80.7491 712.047 82.2155C713.525 82.7824 715.17 82.7967 716.726 82.3471" stroke="#553FC2" stroke-width="2.87137"/>
<path d="M742.696 81.4683C740.681 90.8481 736.521 94.2994 732.468 93.5454C728.414 92.7913 726.161 87.3706 728.016 78.7377C729.871 70.1047 734.19 65.9066 738.244 66.6606C742.298 67.4147 744.711 72.0885 742.696 81.4683Z" stroke="#553FC2" stroke-width="2.87137"/>
<path d="M190 23.8377C197.68 24.5616 201.306 11.0949 196.464 9.2381C194.364 8.43282 191.937 9.73643 191.043 12.1498C190.045 14.8443 190.672 17.0993 192.771 17.9046C193.583 18.2159 194.487 18.2237 195.341 17.9768" stroke="#553FC2" stroke-width="1.57678"/>
<path d="M209.602 17.4943C208.495 22.6451 206.211 24.5403 203.985 24.1262C201.759 23.7121 200.522 20.7355 201.541 15.9947C202.559 11.254 204.931 8.9487 207.157 9.36278C209.384 9.77686 210.709 12.3435 209.602 17.4943Z" stroke="#553FC2" stroke-width="1.57678"/>
</svg>
