<svg width="200" height="188" viewBox="0 0 200 188" fill="none" xmlns="http://www.w3.org/2000/svg">
<path d="M30.6671 95.3266C22.0915 91.4988 16.5636 82.496 15.3174 73.2191C14.0712 63.9422 16.6212 54.4974 20.7466 46.0924C26.7721 33.8106 37.8484 22.4211 51.594 22.0445C57.4468 21.8848 63.2297 23.7517 69.0824 23.4732C78.4189 23.027 86.538 17.2749 94.0525 11.7481C101.567 6.22124 109.682 0.46511 119.022 0.0188674C128.363 -0.427376 138.642 7.10145 137.28 16.3047C136.832 19.3424 135.203 22.3637 136 25.336C137.457 30.7401 145.259 31.0963 150.351 28.7258C155.442 26.3554 160.341 22.3679 165.923 23.0434C171.204 23.6861 175.152 28.5703 176.39 33.7164C177.629 38.8625 176.74 44.2584 175.848 49.4741L170.628 79.876C169.394 87.0281 167.922 94.6797 162.727 99.7768C157.109 105.287 148.599 106.393 140.731 106.965C106.251 109.479 71.5888 107.407 37.6592 100.804" fill="#F4F6F9"/>
<path d="M190.479 101.885C190.659 102.45 190.743 103.041 190.728 103.633C190.692 104.606 190.336 105.538 189.716 106.285C189.729 106.994 189.508 107.687 189.086 108.256C188.809 108.594 188.452 108.858 188.048 109.024C187.645 109.191 187.207 109.256 186.772 109.212C187.137 110.485 187.014 111.946 186.166 112.956C185.318 113.965 183.324 114.023 182.292 113.12L184.077 109.635C183.106 108.758 182.277 107.734 181.62 106.601C181.33 106.206 181.208 105.711 181.28 105.227C181.465 104.582 182.28 104.299 182.919 104.471C182.992 104.491 183.064 104.516 183.136 104.545C182.894 104.336 182.644 104.134 182.394 103.942C181.616 103.334 180.822 102.653 180.515 101.713C180.208 100.773 180.629 99.5249 181.592 99.3114C182.145 99.245 182.703 99.3602 183.185 99.6398C183.545 99.8082 183.897 99.9846 184.25 100.169C183.795 99.1719 183.344 98.1785 182.89 97.1851C182.774 97.0043 182.7 96.8006 182.67 96.5881C182.641 96.3757 182.657 96.1594 182.718 95.9538C182.826 95.7713 182.987 95.627 183.18 95.541C183.373 95.4548 183.588 95.4313 183.795 95.4735C184.206 95.5695 184.593 95.7513 184.929 96.0071C186.33 96.9265 187.742 97.8584 188.865 99.1021C189.278 99.5561 189.638 100.056 189.938 100.592C189.996 99.359 189.678 98.1374 189.024 97.0907C188.252 95.9031 187.367 94.7924 186.383 93.7741C185.789 93.1009 185.204 92.0748 185.781 91.3851C186.24 90.8309 187.116 90.9541 187.779 91.2333C188.762 91.6425 189.636 92.2757 190.332 93.0826C191.028 93.8896 191.528 94.8481 191.789 95.882C192.051 96.9159 192.069 97.9968 191.842 99.0389C191.614 100.081 191.148 101.056 190.479 101.885ZM73.921 151.528C73.5002 151.304 73.0989 151.044 72.7211 150.753C72.9049 151.36 72.9839 151.994 72.9545 152.628C72.8565 153.85 72.599 155.054 72.1887 156.208C71.7962 157.666 71.247 159.076 70.5506 160.415C69.8449 161.763 68.7188 162.843 67.3441 163.49C66.181 163.982 64.887 164.031 63.6297 164.039C60.1012 164.068 56.5752 163.835 53.0805 163.346L54.0019 161.749C51.9256 164.66 49.1533 167.086 46.0327 168.296C40.1193 170.562 35.7947 166.954 31.0894 163.202C27.6903 160.489 24.4101 157.455 20.3681 155.863C14.7946 153.658 7.86142 154.115 3.78261 149.734C-1.02106 144.579 1.27635 136.275 4.08974 129.809C12.335 110.878 22.6746 92.9325 34.9143 76.3124L28.796 49.853C24.0333 49.3605 14.3605 48.2769 14.3605 48.2769C18.7996 40.7528 23.5747 32.104 28.5626 23.5744C32.3219 17.1422 40.5123 12.3806 47.6298 16.5962C48.1599 16.91 48.6615 17.2699 49.1287 17.6717C51.5367 19.7487 52.9863 22.7534 53.8054 25.8279C54.5916 28.7628 54.8619 31.8003 55.251 34.8132C56.5111 34.3462 57.8841 34.2789 59.1838 34.6203C60.4834 34.9616 61.647 35.6952 62.5168 36.7216C63.3866 37.748 63.9206 39.0176 64.0465 40.3584C64.1722 41.6991 63.8838 43.0463 63.2202 44.2172C62.3933 45.6554 61.0596 46.7316 59.4813 47.2342C62.9048 52.7552 66.136 57.6275 69.6128 62.6804L69.7439 62.426C81.8615 64.3716 93.8809 68.5216 104.266 75.0769C111.392 104.971 99.909 130.097 73.921 151.528Z" fill="white"/>
<path d="M192.387 77.4177L130.621 44.9898C126.408 42.7774 121.197 44.3985 118.984 48.6108L70.9902 139.95C68.7768 144.162 70.3987 149.37 74.6127 151.582L136.378 184.01C140.592 186.223 145.802 184.602 148.016 180.389L196.01 89.0507C198.223 84.8385 196.601 79.6302 192.387 77.4177Z" fill="white"/>
<path d="M109.501 92C120.27 92 129 83.2695 129 72.4999C129 61.7305 120.27 53 109.501 53C98.7305 53 90 61.7305 90 72.4999C90 83.2695 98.7305 92 109.501 92Z" fill="#FEAABC"/>
<path d="M147.522 133L155.09 121.099C155.89 119.841 156.712 118.535 156.944 117.071C157.178 115.606 156.678 113.921 155.361 113.18C153.969 112.399 152.173 112.9 150.818 113.747C149.463 114.593 148.318 115.757 146.872 116.432C145.425 117.107 143.45 117.148 142.433 115.931C141.329 114.613 141.6 112.184 139.933 111.614C139.007 111.297 138.028 111.822 137.078 112.061C136.127 112.302 134.781 111.96 134.777 111C131.506 114.621 129.685 118.987 127 123.035" fill="#9ED5F0"/>
<path d="M106.455 72.4136C106.799 66.2566 107.144 60.1009 107.49 53.9465C107.535 53.1574 108.763 53.1533 108.718 53.9465C108.385 59.8653 108.053 65.7853 107.72 71.7066H107.744L107.785 71.7354C114.134 70.6201 120.537 69.8463 126.968 69.4172C127.757 69.3679 127.753 70.601 126.968 70.6503C121.002 71.0487 115.06 71.7482 109.164 72.7465L122.941 82.8329C123.575 83.2974 122.962 84.366 122.324 83.8975L107.335 72.9233C107.246 72.9767 107.145 73.0054 107.041 73.0063C106.937 73.0072 106.836 72.9803 106.746 72.9283C106.655 72.8763 106.581 72.8012 106.53 72.7107C106.479 72.6202 106.453 72.5176 106.455 72.4136ZM183.3 108.801L146.182 179.817C145.273 181.548 143.718 182.846 141.857 183.428C139.997 184.01 137.983 183.827 136.256 182.92L74.9927 150.602C74.338 150.684 73.6711 150.73 73 150.754C73.0023 150.772 73.0023 150.79 73 150.807C73.3867 151.101 73.7974 151.363 74.2276 151.588L135.692 184.009C136.688 184.537 137.778 184.861 138.901 184.964C140.022 185.067 141.153 184.947 142.229 184.611C143.304 184.275 144.303 183.728 145.168 183.003C146.034 182.28 146.749 181.391 147.271 180.388L183.815 110.495L184.155 109.672C183.855 109.403 183.571 109.117 183.3 108.818V108.801ZM191.414 77.3992L129.95 44.9905C128.954 44.4634 127.863 44.139 126.741 44.0359C125.62 43.9327 124.488 44.0527 123.413 44.389C122.338 44.7253 121.338 45.2713 120.474 45.9959C119.608 46.7205 118.893 47.6092 118.37 48.6115L115.551 54C115.936 54.148 116.316 54.3082 116.688 54.4809L119.454 49.187C120.08 47.9945 121.016 46.9961 122.164 46.2993C123.312 45.6024 124.628 45.2337 125.969 45.2329C127.159 45.2317 128.331 45.5238 129.382 46.0837L190.846 78.505C192.568 79.4184 193.861 80.9807 194.44 82.8496C195.02 84.7185 194.837 86.7417 193.934 88.4762L191.042 94.0085C191.314 94.4448 191.534 94.9109 191.7 95.3978L195.023 89.0475C196.076 87.0235 196.287 84.663 195.611 82.4828C194.934 80.3027 193.425 78.4807 191.414 77.4157V77.3992ZM83.1764 129.804C90.5417 134.372 98.0149 138.746 105.596 142.928C107.737 144.109 109.886 145.273 112.044 146.422C112.744 146.791 113.366 145.727 112.667 145.357C105.028 141.288 97.4925 137.025 90.0589 132.566C87.9584 131.303 85.8703 130.027 83.7943 128.74C83.1232 128.312 82.5258 129.389 83.1764 129.804ZM86.4499 125.204L95.5297 130.161C96.2213 130.54 96.8432 129.476 96.1476 129.097L87.0678 124.14C86.3598 123.758 85.742 124.823 86.4376 125.204H86.4499ZM91.2497 119.525C96.6864 122.454 102.242 125.147 107.916 127.605C108.636 127.913 109.262 126.853 108.538 126.536C102.858 124.087 97.2974 121.39 91.8552 118.448C91.1596 118.082 90.5376 119.146 91.2374 119.525H91.2497ZM94.3922 114.9L98.0503 117.161C98.1913 117.243 98.3584 117.266 98.516 117.226C98.6736 117.184 98.809 117.084 98.8932 116.944C98.9711 116.801 98.9915 116.634 98.9504 116.476C98.9093 116.319 98.8098 116.183 98.6722 116.097L95.0142 113.836C94.8728 113.755 94.7052 113.732 94.5476 113.774C94.3899 113.816 94.2548 113.918 94.1712 114.058C94.0937 114.2 94.0733 114.367 94.1144 114.524C94.1555 114.681 94.2549 114.816 94.3922 114.9ZM123.854 120.129C123.162 119.746 122.54 120.811 123.236 121.193L126.595 123.039C125.465 124.993 124.35 126.953 123.248 128.92C122.864 129.615 123.923 130.24 124.308 129.545C125.412 127.564 126.534 125.593 127.671 123.631L147.357 134.478L153.085 137.622L148.176 137.943C147.39 137.992 147.386 139.224 148.176 139.175L157.202 138.588C157.676 138.555 158.086 137.898 157.636 137.535C155.847 136.088 154.376 134.284 153.315 132.237C152.946 131.534 151.887 132.159 152.255 132.862C153.145 134.563 154.304 136.107 155.688 137.432L155.05 137.474C155.03 137.399 154.994 137.33 154.944 137.269C154.896 137.209 154.836 137.16 154.767 137.124L130.626 123.86L128.272 122.558C131.366 117.253 134.573 112.017 137.892 106.849C139.256 104.745 140.63 102.654 142.013 100.576C142.06 100.509 142.092 100.432 142.106 100.351C142.119 100.269 142.114 100.186 142.091 100.107C142.067 100.028 142.026 99.9551 141.971 99.8941C141.916 99.8331 141.848 99.7854 141.772 99.7546L143 98.5462C142.26 101.308 141.516 104.071 140.77 106.837C140.732 106.992 140.755 107.157 140.836 107.295C140.917 107.434 141.047 107.534 141.202 107.578C141.356 107.62 141.52 107.601 141.66 107.524C141.8 107.447 141.905 107.319 141.952 107.165C142.893 103.675 143.832 100.185 144.771 96.6966C144.804 96.5658 144.793 96.4279 144.742 96.3036C144.69 96.1793 144.599 96.0753 144.483 96.0075C144.366 95.9397 144.232 95.9117 144.099 95.9277C143.966 95.9438 143.84 96.003 143.744 96.0965L135.924 103.758C135.356 104.313 136.223 105.184 136.792 104.629L139.853 101.637C135.442 108.29 131.222 115.069 127.192 121.974L123.854 120.129ZM189.029 81.4931L161.204 67.7321L133.478 54.0164C131.248 52.9149 128.739 51.4105 126.153 51.9613C124.127 52.3723 122.315 54.3781 122.859 56.5277C123.051 57.2963 124.238 56.9717 124.041 56.203C123.555 54.2753 125.801 53.0341 127.414 53.0917C128.52 53.1829 129.598 53.4885 130.589 53.9917C131.661 54.4809 132.712 55.0275 133.772 55.5496L147.042 62.1258L173.488 75.2085L188.406 82.5863C189.09 82.9111 189.732 81.867 189.004 81.4971L189.029 81.4931ZM170.296 88.0323C169.934 87.6099 169.475 87.2824 168.959 87.0784C168.443 86.8742 167.885 86.7996 167.333 86.8609C166.815 86.9439 166.333 87.1817 165.95 87.5433C165.607 87.8474 165.23 88.3652 164.752 88.0035C163.933 87.3747 164.031 86.1046 163.896 85.1963C163.749 84.2181 163.365 83.1905 162.387 82.8C161.409 82.4095 160.41 82.9028 159.522 83.3138C159.167 83.5277 158.762 83.6426 158.348 83.6467C157.906 83.5769 157.747 83.1658 157.689 82.7713C157.538 81.752 157.751 80.675 157.173 79.7544C156.833 79.267 156.371 78.8775 155.834 78.6245C155.297 78.3714 154.704 78.2637 154.113 78.3118C152.602 78.398 151.331 79.3022 150.164 80.186C149.538 80.6545 150.164 81.7273 150.782 81.2506C151.723 80.5394 152.771 79.701 153.977 79.553C154.853 79.4502 155.954 79.7914 156.269 80.6997C156.584 81.6081 156.297 82.611 156.609 83.5234C156.754 83.9686 157.054 84.3467 157.454 84.5894C157.853 84.8321 158.325 84.9234 158.786 84.8469C159.706 84.7154 160.451 84.0742 161.351 83.9098C162.35 83.7249 162.615 84.7318 162.726 85.5251C162.866 86.5198 162.866 87.4815 163.45 88.3488C164.035 89.216 164.952 89.66 165.905 89.1708C166.462 88.8873 166.797 88.242 167.416 88.0899C167.678 88.0423 167.947 88.0483 168.207 88.1076C168.468 88.1669 168.713 88.2783 168.929 88.4352C170.067 89.1832 170.357 90.7409 170.628 91.9781C170.799 92.7549 171.982 92.4261 171.81 91.6493C171.507 90.3915 171.18 89.0599 170.296 88.0323ZM160.475 94.3332C160.568 94.6287 160.753 94.8863 161.003 95.0678C161.253 95.2492 161.555 95.3447 161.863 95.3402C162.615 95.3402 163.176 94.7772 163.843 94.5182C164.984 94.0825 166.245 94.6087 167.296 95.0566C168.692 95.6526 170.075 96.3349 171.618 96.3596C171.78 96.3596 171.936 96.2946 172.052 96.179C172.167 96.0634 172.231 95.9066 172.231 95.7431C172.231 95.5795 172.167 95.4227 172.052 95.3071C171.936 95.1914 171.78 95.1265 171.618 95.1265C168.889 95.0854 166.511 92.4632 163.705 93.2687C163.383 93.3699 163.073 93.5078 162.784 93.6797C162.579 93.7948 162.014 94.2387 161.752 94.0907C161.392 93.8934 161.908 92.833 161.994 92.5658C162.432 91.2136 162.092 89.6888 160.733 88.9941C160.379 88.832 159.995 88.7477 159.607 88.7469C159.217 88.7461 158.833 88.8289 158.478 88.9896C158.123 89.1504 157.807 89.3855 157.55 89.6789C157.294 89.9724 157.102 90.3177 156.989 90.6916C156.756 91.4479 157.939 91.7726 158.175 91.0164C158.259 90.7325 158.426 90.4811 158.657 90.2965C158.886 90.1119 159.168 90.003 159.461 89.9845C159.755 89.9661 160.048 90.0392 160.298 90.1936C160.55 90.348 160.747 90.5765 160.864 90.8478C161.367 92.011 160.132 93.1536 160.475 94.3497V94.3332ZM97.7966 87.9583L75.1605 131.296C75.631 131.268 76.1016 131.25 76.5722 131.242L98.8482 88.6324C98.484 88.4187 98.1363 88.1927 97.7966 87.9583Z" fill="#3F4254"/>
<path d="M191.224 93.1658C190.222 91.9758 188.359 90.552 186.721 90.8885C186.312 90.9629 185.946 91.1904 185.698 91.5249C185.451 91.8594 185.339 92.2758 185.386 92.6899C185.481 93.65 186.147 94.3968 186.758 95.0861C187.712 96.153 188.805 97.3799 189.378 98.7545C188.183 97.596 186.849 96.5911 185.406 95.7632C184.677 95.32 183.744 95.0739 183.012 95.6442C182.159 96.3008 182.507 97.3143 182.876 98.1308C183.061 98.5411 183.248 98.9514 183.433 99.3617C183.1 99.2008 182.735 99.1209 182.365 99.1288C181.996 99.1367 181.634 99.232 181.308 99.4068C180.956 99.6507 180.673 99.9811 180.485 100.366C180.297 100.751 180.211 101.178 180.235 101.606C180.28 102.924 181.1 103.736 182.016 104.478C181.81 104.574 181.627 104.709 181.476 104.877C181.324 105.046 181.209 105.244 181.137 105.459C180.825 106.436 181.517 107.421 182.049 108.184C182.64 109.037 183.327 109.819 184.097 110.514C184.677 111.044 185.55 110.178 184.964 109.645C183.961 108.765 183.122 107.714 182.483 106.543C182.246 106.091 182.205 105.611 182.794 105.5C182.962 105.471 183.134 105.487 183.294 105.546C183.65 105.692 183.968 105.916 184.227 106.202C184.49 106.464 184.768 106.768 185.046 107.092C185.375 107.479 185.675 107.891 185.943 108.323C186.315 108.899 186.591 109.53 186.762 110.195C186.883 110.65 186.903 111.126 186.817 111.59C186.733 112.053 186.546 112.492 186.271 112.874C185.668 113.694 184.276 114.146 183.405 113.436C182.798 112.935 181.927 113.801 182.536 114.306C183.125 114.762 183.851 115.005 184.595 114.993C185.339 114.981 186.057 114.716 186.631 114.241C187.814 113.301 188.174 111.696 187.973 110.244C188.735 110.136 189.431 109.759 189.939 109.181C190.452 108.549 190.74 107.764 190.758 106.949C191.239 106.325 191.564 105.595 191.704 104.819C191.835 104.029 191.795 103.22 191.584 102.447C192.563 101.081 193.059 99.4257 192.994 97.7446C192.929 96.0636 192.306 94.4523 191.224 93.1658ZM188.048 109.001C187.925 109.036 187.801 109.059 187.675 109.07C187.081 107.638 186.183 106.353 185.042 105.303C184.689 104.947 184.272 104.66 183.814 104.458C183.141 103.966 182.521 103.403 181.967 102.78C181.746 102.544 181.592 102.252 181.52 101.937C181.447 101.621 181.46 101.292 181.558 100.982C181.874 100.162 182.643 100.347 183.302 100.646C183.601 100.777 183.9 100.921 184.203 101.056C184.82 101.36 185.421 101.694 186.004 102.057C186.648 102.459 187.255 102.915 187.822 103.42C188.698 104.212 189.46 105.303 189.542 106.497C189.564 106.819 189.535 107.142 189.456 107.453C189.379 107.762 189.24 108.051 189.046 108.302C188.798 108.638 188.447 108.882 188.048 109.001ZM189.685 103.666C188.547 102.156 186.819 101.068 185.145 100.195C185.062 100.022 184.985 99.85 184.907 99.6735C184.534 98.8529 184.088 98.0323 183.789 97.2117C183.454 96.3008 184.375 96.6085 184.854 96.908C186.562 97.979 188.616 99.3494 189.738 101.171C189.942 101.503 190.111 101.853 190.246 102.217L190.226 102.242H190.258C190.395 102.622 190.485 103.018 190.529 103.42C190.55 103.596 190.561 103.772 190.562 103.949C190.561 104.298 190.512 104.647 190.418 104.983C190.238 104.499 189.991 104.044 189.685 103.629V103.666ZM190.971 100.925C190.982 99.458 190.537 98.0239 189.697 96.8218C189.18 96.0694 188.61 95.3537 187.995 94.6799C187.511 94.1301 186.766 93.4941 186.623 92.7309C186.475 91.9102 187.535 92.1277 187.995 92.3206C188.685 92.6097 189.316 93.0274 189.853 93.5515C190.948 94.5788 191.637 95.9671 191.794 97.4619C191.903 98.7176 191.642 99.9778 191.04 101.086C191.008 100.974 190.983 100.934 190.959 100.889L190.971 100.925ZM58.1533 82.2676C58.0597 82.9254 58.1716 83.596 58.4736 84.1874C58.7757 84.7788 59.253 85.2621 59.8402 85.5707C60.3819 85.8815 61.0105 86.0049 61.6292 85.9218C62.2478 85.8388 62.822 85.5539 63.2629 85.1111C63.6606 84.6974 63.9475 84.1898 64.0971 83.6354C64.2467 83.0808 64.2541 82.4974 64.1187 81.9393C63.9552 81.3829 63.6277 80.8892 63.179 80.5231C62.7302 80.1569 62.1814 79.9354 61.6047 79.8876C60.9788 79.8069 60.3431 79.9144 59.7781 80.1964C59.2131 80.4783 58.7445 80.9221 58.4317 81.4716C58.3571 81.6201 58.3395 81.7909 58.3825 81.9516C58.27 82.011 58.1838 82.1106 58.141 82.2306L58.1533 82.2676ZM59.4921 82.0788C59.5412 81.9885 59.5945 81.9024 59.6477 81.8162V81.7957C59.6804 81.7588 59.7132 81.7177 59.75 81.6808C59.8094 81.6181 59.8737 81.5605 59.9424 81.5084L60.008 81.4633L60.1759 81.3567L60.311 81.2868L60.3888 81.2582C60.4705 81.2265 60.5539 81.1991 60.6385 81.1761C60.7245 81.1515 60.8104 81.1351 60.8965 81.1186H60.9742C61.0424 81.1144 61.1108 81.1144 61.179 81.1186H61.4819H61.5351L61.6825 81.1474C61.7646 81.163 61.8454 81.185 61.9241 81.213L62.0183 81.2458L62.1452 81.3074C62.2325 81.3549 62.3172 81.4069 62.399 81.4633H62.4195C62.4523 81.5003 62.4932 81.5331 62.5301 81.57L62.6324 81.6808V81.7013C62.6965 81.8006 62.7554 81.9034 62.8085 82.009V82.0336C62.8259 82.0808 62.8409 82.1287 62.8535 82.1773C62.8769 82.2611 62.8961 82.346 62.9108 82.4317C62.9122 82.4576 62.9122 82.4837 62.9108 82.5097C62.9108 82.5589 62.9108 82.6122 62.9108 82.6614C62.9101 82.7671 62.9033 82.8726 62.8904 82.9774C62.8904 83.002 62.8658 83.1334 62.8576 83.158C62.837 83.2586 62.8083 83.3575 62.7716 83.4534C62.7632 83.4856 62.7522 83.5172 62.7389 83.5477L62.6979 83.6381C62.6443 83.7456 62.5841 83.8497 62.5177 83.9499L62.4564 84.0361L62.399 84.1099C62.3322 84.1851 62.2611 84.2563 62.1861 84.3233L62.1083 84.3849L62.0306 84.4381L61.8995 84.5161L61.7767 84.5736C61.6914 84.6071 61.6038 84.6345 61.5147 84.6556L61.4042 84.6762H61.2731C61.1886 84.6823 61.1038 84.6823 61.0193 84.6762H60.9169C60.8407 84.66 60.7655 84.6394 60.6917 84.6146L60.5525 84.5695C60.5047 84.5424 60.4555 84.5177 60.4051 84.4956C60.2899 84.4351 60.1791 84.3666 60.0735 84.2905L59.9916 84.2248C59.9343 84.1714 59.8729 84.1182 59.8197 84.0607C59.7665 84.0032 59.7378 83.9746 59.701 83.9294L59.6477 83.8678C59.6385 83.8503 59.6276 83.8339 59.6149 83.8186C59.5371 83.7037 59.4716 83.5847 59.4062 83.4657C59.3979 83.4543 59.391 83.4418 59.3857 83.4287C59.3857 83.4287 59.3857 83.4287 59.3857 83.396C59.3857 83.3631 59.3366 83.2483 59.3161 83.1744C59.2956 83.1005 59.2874 83.0595 59.2751 83.0062V82.9692C59.2729 82.9391 59.2729 82.909 59.2751 82.8789C59.2751 82.8215 59.2751 82.7599 59.2751 82.7026C59.2751 82.6451 59.3038 82.4481 59.2751 82.5712C59.2897 82.4627 59.2814 82.3521 59.2505 82.247C59.3496 82.206 59.4329 82.134 59.488 82.0419L59.4921 82.0788ZM87.7383 85.2014C87.3904 87.0356 85.5807 88.1188 83.8324 88.049C83.9693 88.4737 84.0209 88.9214 83.9839 89.3662C83.8201 91.4794 81.8999 93.3628 79.734 92.3862C78.8809 91.9825 78.2184 91.2612 77.8875 90.3756C77.6472 90.5679 77.3847 90.7304 77.1056 90.8598C74.6899 91.9636 71.9919 90.0678 71.8936 87.4705C71.7994 84.9634 74.5548 83.1251 76.8599 83.8924C77.6092 84.1387 77.2693 85.3285 76.5324 85.0783C76.0384 84.9221 75.5101 84.9127 75.0109 85.0511C74.5118 85.1895 74.0633 85.4696 73.7196 85.8579C73.3804 86.2416 73.1756 86.7259 73.1364 87.237C73.0973 87.7481 73.2259 88.258 73.5026 88.6892C73.761 89.1648 74.1702 89.5406 74.6656 89.7569C75.1609 89.9731 75.7141 90.0176 76.2376 89.8832C76.7948 89.7128 77.2837 89.3694 77.6337 88.9025C77.6499 88.2092 77.9012 87.5421 78.3461 87.011C78.4327 86.9269 78.5419 86.8701 78.6604 86.8475C78.7788 86.8249 78.9012 86.8374 79.0126 86.8836C79.1239 86.9299 79.2194 87.0078 79.2873 87.1077C79.3551 87.2075 79.3923 87.325 79.3943 87.4458C79.372 88.0907 79.186 88.7192 78.8538 89.2719C79.0053 90.5028 80.1108 91.7338 81.3349 91.3645C82.8703 90.9296 83.3288 88.3445 81.9695 87.4582C81.3185 87.0191 81.9245 85.9646 82.5878 86.3954C83.0349 86.6869 83.5584 86.839 84.0918 86.8324C84.6253 86.8259 85.1448 86.6609 85.5848 86.3585C86.0076 86.0598 86.3213 85.6305 86.478 85.1364C86.6348 84.6423 86.6258 84.1102 86.4528 83.6216C86.3163 83.115 86.0185 82.6669 85.6046 82.3455C85.1908 82.024 84.6835 81.8468 84.1599 81.8408C83.6131 81.8489 83.0817 82.0236 82.6362 82.3418C82.1909 82.6598 81.8527 83.1063 81.6666 83.6216C81.425 84.3725 80.2582 84.0566 80.4833 83.2934C80.6995 82.5546 80.7147 81.7714 80.5276 81.0247C80.3405 80.2782 79.9577 79.5952 79.4188 79.0465C77.6255 80.3637 77.6829 83.6216 79.7055 84.7254C80.4015 85.1029 79.7791 86.1657 79.083 85.7881C76.1517 84.1838 76.1926 79.2722 79.1813 77.7457C79.2999 77.6818 79.4354 77.6566 79.569 77.6735C79.7025 77.6904 79.8275 77.7486 79.9265 77.8402C81.0031 78.7428 81.6933 80.0249 81.8549 81.4223C82.3368 81.0548 82.8976 80.8047 83.4926 80.6919C86.1006 80.1996 88.2378 82.6327 87.7383 85.2014ZM81.4659 143.467C81.6359 143.353 81.7889 143.215 81.9204 143.057C82.1945 142.765 82.3697 142.394 82.4211 141.996C82.4726 141.598 82.3977 141.194 82.2069 140.841C81.7975 140.12 80.9214 139.738 80.2254 139.36C78.7526 138.505 77.1717 137.852 75.5252 137.419C74.4261 137.168 73.298 137.069 72.172 137.124C72.8967 136.229 74.4033 135.983 75.4883 135.991C77.1834 136.012 79.6113 136.55 80.9336 135.134C82.2561 133.718 80.9992 131.748 79.4352 131.244C78.4519 131.001 77.435 130.921 76.4259 131.011C75.301 131.046 74.1788 131.143 73.0645 131.301C71.2098 131.568 69.3183 132.049 67.8895 133.353C66.6202 134.498 65.9201 136.147 65.5638 137.793C64.7941 141.342 65.7236 145.47 63.7092 148.683C62.7432 150.143 61.2787 151.202 59.5904 151.658C59.4389 151.703 59.2874 151.736 59.1318 151.768C59.2588 150.354 59.2381 148.931 59.0704 147.521C58.6665 144.184 57.5283 140.977 55.7376 138.134C55.1566 137.223 54.5094 136.358 53.8011 135.544C55.189 133.628 56.0366 131.199 56.7817 129.09C58.223 125.01 59.237 120.791 59.8074 116.501C60.0911 114.395 60.2687 112.277 60.3396 110.153C60.3683 109.361 59.14 109.361 59.1114 110.153C58.9326 115.465 58.0754 120.731 56.5606 125.824C55.8786 128.282 54.9841 130.677 53.8871 132.979C53.6051 133.548 53.285 134.096 52.929 134.621C52.8185 134.51 52.7161 134.395 52.6056 134.285C51.3773 133.107 49.9894 131.917 48.4049 131.285C46.9268 130.698 45.1295 130.764 44.0773 132.085C43.7042 132.588 43.4472 133.169 43.3246 133.784C43.2022 134.399 43.2173 135.035 43.369 135.643C44.106 138.946 47.9668 139.504 50.6363 138.282C51.5366 137.858 52.3448 137.262 53.015 136.525C54.2352 137.971 55.2557 139.574 56.0489 141.293C57.8309 145.095 58.4095 149.354 57.7071 153.496C56.8931 157.719 54.8102 161.592 51.7376 164.595C48.6096 167.673 44.2902 169.777 39.9134 168.251C37.8131 167.517 35.9502 166.175 34.202 164.829C32.2818 163.348 30.4353 161.781 28.5355 160.278C26.6955 158.746 24.6937 157.42 22.5662 156.323C20.6462 155.439 18.6288 154.784 16.5558 154.374C12.6745 153.517 8.21171 153.003 5.21063 150.115C2.09491 147.115 1.83288 142.63 2.61078 138.625C3.49105 134.063 5.5177 129.82 7.442 125.627C11.7639 116.213 16.6108 107.051 21.9602 98.1841C24.6351 93.7498 27.4328 89.3949 30.3533 85.1193C31.811 82.9801 33.2999 80.8629 34.8202 78.7675C35.0699 78.4269 35.5326 77.9468 35.8314 77.4791C41.1638 78.4269 46.6309 78.3 51.9137 77.1057C53.7218 76.6631 55.492 76.0773 57.2075 75.3536C57.1561 75.4418 57.1305 75.5427 57.1338 75.6449C57.2013 77.3798 56.8589 79.1062 56.1346 80.6835C55.4103 82.2607 54.3247 83.6442 52.9659 84.7213C51.6031 85.7644 50.0056 86.4562 48.3138 86.7359C46.6219 87.0157 44.8874 86.8748 43.2625 86.3257C41.3952 85.7316 39.7277 84.6326 38.4437 83.1498C37.9236 82.5507 37.0597 83.4247 37.5715 84.0197C38.8326 85.4439 40.4089 86.5524 42.1742 87.2564C43.9396 87.9604 45.8449 88.2403 47.7376 88.0736C49.6411 87.8822 51.4689 87.2258 53.0606 86.1621C54.6524 85.0983 55.9596 83.6597 56.8677 81.9721C57.7659 80.3481 58.2774 78.5379 58.3621 76.6831C60.8322 77.8619 63.6218 78.1893 66.2968 77.6145C68.4953 77.1054 70.51 75.9953 72.1168 74.4074C73.7236 72.8195 74.8595 70.8162 75.3983 68.6202C75.5825 67.8487 74.3992 67.5204 74.215 68.2918C73.6029 70.7694 72.1623 72.9619 70.1331 74.5042C68.4028 75.7892 66.3326 76.5339 64.1818 76.6449C62.0311 76.7558 59.8955 76.2281 58.0428 75.1279C57.9957 75.0997 57.9446 75.079 57.8913 75.0664C60.7752 73.8046 63.4782 72.1625 65.9283 70.1835C68.2134 68.3128 70.2669 66.1749 72.045 63.8152C78.2185 64.9107 84.2728 66.5967 90.1253 68.8499C90.2017 68.4423 90.2917 68.0402 90.3954 67.6435C86.5679 66.1637 82.6499 64.9302 78.6655 63.9507C75.9632 63.2859 73.2338 62.7388 70.477 62.3093C70.4334 62.3052 70.3896 62.3052 70.3459 62.3093C69.4944 61.0783 68.6551 59.8473 67.8158 58.5795C70.6702 57.1782 73.198 55.1896 75.2339 52.7433C77.2699 50.297 78.7685 47.448 79.6317 44.3822C79.7464 43.9719 79.8242 43.4302 79.4966 43.1512C78.9971 42.6958 78.2478 43.2661 77.777 43.7544C76.0806 45.5232 73.7762 46.5787 71.3315 46.7067C68.8868 46.8347 66.4852 46.0256 64.614 44.4437C65.0713 43.3427 65.2614 42.1486 65.169 40.9595C65.0764 39.7705 64.7039 38.6203 64.0818 37.6036C64.6687 35.653 65.0797 33.6535 65.3101 31.6293C65.9037 25.9544 63.5127 18.6548 57.8012 14.1248C53.3384 10.5878 44.0936 9.61115 39.9585 13.5257C33.8499 11.1827 27.7412 19.5903 28.2898 24.2803C26.9511 26.4058 25.7842 28.6667 24.5477 30.8455C21.1905 36.7132 17.8823 42.6095 14.4514 48.4362C14.3999 48.5301 14.3737 48.6359 14.3749 48.743C14.3761 48.8501 14.4048 48.9551 14.4583 49.0479C14.5117 49.1407 14.5882 49.218 14.6802 49.2726C14.7722 49.3272 14.8768 49.3571 14.9835 49.3594C19.6265 49.8805 24.2652 50.3976 28.904 50.8818L30.8815 59.4248C31.9733 64.1736 33.0651 68.9211 34.1569 73.6671C34.3863 74.656 34.6114 75.6408 34.8407 76.6297C24.7022 90.4283 15.8656 105.142 8.44509 120.58C6.64771 124.318 4.84215 128.08 3.32728 131.941C2.06216 135.171 1.05088 138.613 1.00175 142.11C0.952619 145.392 1.93524 148.65 4.33856 150.964C6.74188 153.279 10.0705 154.214 13.2681 154.912C16.7769 155.675 20.2529 156.311 23.4014 158.141C26.8938 160.192 29.8867 162.991 33.0597 165.465C35.7864 167.595 38.7916 169.736 42.3536 169.978C45.9156 170.221 49.3466 168.387 51.9424 166.06C52.5394 165.518 53.108 164.946 53.6456 164.345C55.8319 164.644 58.0305 164.858 60.2331 164.965C62.3663 165.067 64.614 165.227 66.7267 164.862C71.0378 164.115 72.52 159.692 73.6009 156.019C74.0794 154.624 74.2376 153.139 74.0635 151.674C75.347 151.624 76.6179 151.402 77.8425 151.014C78.7679 150.698 80.8723 149.881 80.1108 148.494C79.7042 147.897 79.1015 147.461 78.4076 147.263C79.3328 147.395 80.3278 147.637 81.2285 147.37C81.641 147.275 82.014 147.055 82.2963 146.738C82.5786 146.423 82.7562 146.027 82.8048 145.606C82.8579 144.698 82.2193 143.944 81.4659 143.467ZM49.1214 137.518C47.2626 138.002 45.0271 137.386 44.5604 135.31C44.151 133.44 45.3793 131.753 47.3895 132.233C49.2073 132.668 50.8696 134.178 52.1798 135.577C51.3719 136.512 50.3042 137.183 49.1132 137.506L49.1214 137.518ZM33.2317 64.1106C32.2136 59.7174 31.1955 55.3214 30.1774 50.9228C30.12 50.6684 30.0586 50.4098 30.0013 50.1514C29.9636 50.0223 29.8855 49.9089 29.7787 49.8276C29.6719 49.7464 29.5417 49.7016 29.4076 49.7C24.9326 49.2363 20.4576 48.7399 15.9826 48.2392C18.6971 43.6108 21.3379 38.9454 23.9909 34.2882C25.4649 31.7031 26.9442 29.1249 28.4291 26.5535C29.6573 24.4281 30.8569 22.36 32.6175 20.6161C33.5862 19.6565 34.6634 18.8137 35.8274 18.1049C35.578 19.8525 35.5286 21.6229 35.68 23.3817C35.9134 25.4538 36.679 27.5301 38.1856 28.9662C39.979 30.6773 42.5542 31.26 45.019 31.4897C47.1562 31.6908 49.3916 31.6621 51.3445 30.7634L51.8932 31.5554C52.378 33.0047 52.9411 34.4265 53.58 35.8146C53.3249 36.0075 53.0841 36.2187 52.8594 36.4464C52.7959 36.5024 52.7446 36.5709 52.7087 36.6477C52.6728 36.7245 52.6531 36.8078 52.6509 36.8926C52.6486 36.9774 52.664 37.0617 52.6958 37.1403C52.7275 37.2188 52.7752 37.2899 52.8357 37.3492C52.8962 37.4084 52.9683 37.4544 53.0474 37.4845C53.1265 37.5145 53.211 37.5278 53.2955 37.5236C53.3799 37.5193 53.4627 37.4976 53.5384 37.4598C53.6142 37.4221 53.6813 37.369 53.7356 37.3041C54.4918 36.5242 55.4447 35.9643 56.493 35.6842C57.5414 35.4039 58.646 35.4136 59.6892 35.7124C60.7325 36.0112 61.6754 36.5878 62.4178 37.3809C63.16 38.174 63.6739 39.1538 63.9048 40.2164C64.1357 41.2788 64.0748 42.3842 63.7288 43.4148C63.3827 44.4454 62.7643 45.3628 61.9396 46.0693C61.1147 46.7757 60.1142 47.2449 59.0445 47.4268C57.9748 47.6088 56.8759 47.4967 55.8646 47.1027C55.7126 47.0433 55.5433 47.047 55.394 47.1127C55.2446 47.1785 55.1275 47.3012 55.0683 47.4535C55.0091 47.6059 55.0128 47.7755 55.0784 47.9251C55.144 48.0748 55.2663 48.1923 55.4184 48.2516C56.2088 48.5553 57.0488 48.7097 57.8954 48.707C58.5507 48.7049 59.2029 48.6181 59.8361 48.4485C62.9996 53.5284 66.2804 58.5302 69.6786 63.4541C69.7295 63.5337 69.7975 63.6009 69.8776 63.6509C69.9577 63.7007 70.0478 63.7322 70.1416 63.7428C70.2353 63.7534 70.3302 63.7429 70.4193 63.7122C70.5086 63.6814 70.5898 63.6311 70.6571 63.5649H70.7062C67.6836 67.442 63.8756 70.6333 59.5331 72.9286C55.0402 75.2433 50.1023 76.5603 45.0558 76.7897C42.0627 76.9312 39.0633 76.7468 36.1099 76.2399H36.0321C35.0931 72.1968 34.1569 68.1496 33.2235 64.0984L33.2317 64.1106ZM79.0585 149.13V149.15V149.13ZM80.1804 146.29C79.2673 146.254 78.3502 146.057 77.4372 145.971C76.5242 145.884 75.644 145.831 74.7473 145.803C73.4508 145.764 72.1556 145.788 70.8619 145.872C70.1765 145.806 69.4849 145.853 68.8147 146.012C68.7693 146.023 68.7254 146.04 68.6838 146.061C68.6455 146.059 68.6072 146.059 68.569 146.061C67.7912 146.152 67.783 147.387 68.569 147.292C69.1914 147.214 69.7973 147.161 70.4361 147.115C70.9232 147.115 71.4105 147.157 71.8936 147.202C73.2288 147.328 74.5542 147.543 75.8609 147.846C76.8968 148.084 78.0267 148.326 78.8743 148.933C78.8334 148.904 78.9152 148.971 78.9889 149.036L79.0258 149.065C78.9793 149.104 78.9354 149.146 78.8947 149.192C78.5599 149.418 78.1982 149.602 77.8179 149.737C75.3614 150.681 72.6183 150.501 70.0389 150.505C69.876 150.505 69.7198 150.569 69.6046 150.685C69.4895 150.801 69.4248 150.957 69.4248 151.12C69.4248 151.284 69.4895 151.44 69.6046 151.555C69.7198 151.671 69.876 151.736 70.0389 151.736C70.9601 151.736 71.9017 151.736 72.8434 151.736C72.8841 151.926 72.9128 152.12 72.9295 152.314C73.0891 154.276 72.2826 156.327 71.652 158.157C71.0624 159.86 70.2313 161.612 68.7492 162.725C67.1852 163.893 65.1954 163.836 63.3366 163.828C61.2403 163.828 59.1469 163.727 57.0561 163.525C56.2372 163.448 55.4184 163.355 54.5995 163.245C56.9184 160.278 58.4356 156.762 59.005 153.037H59.1196C60.7376 152.726 62.2375 151.97 63.4512 150.854C66.1862 148.354 66.2272 144.58 66.3909 141.141C66.4076 139.509 66.704 137.892 67.267 136.361C67.5685 135.607 68.0273 134.927 68.6128 134.365C69.1982 133.804 69.8966 133.375 70.6612 133.107C72.479 132.459 74.5016 132.286 76.4177 132.241C77.3389 132.217 78.383 132.134 79.2591 132.487C79.8569 132.729 80.5816 133.509 80.123 134.182C79.7136 134.785 78.7392 134.831 78.0964 134.847C77.0606 134.872 76.0288 134.732 74.9971 134.769C73.5026 134.818 71.8813 135.327 71.0133 136.631C70.8864 136.823 70.7846 137.029 70.7103 137.247C70.391 137.288 70.0757 137.333 69.7564 137.391C68.9785 137.526 69.3101 138.716 70.0839 138.576C71.5309 138.287 73.0169 138.247 74.477 138.461C75.8147 138.713 77.1095 139.155 78.3215 139.775C79.0258 140.116 79.7177 140.489 80.3932 140.878C80.9582 141.203 81.5561 141.7 80.9501 142.315C80.7186 142.537 80.4236 142.68 80.1067 142.725C78.6711 142.054 77.1584 141.564 75.6029 141.264C73.3309 140.816 70.999 140.761 68.7082 141.101C67.9304 141.215 68.262 142.401 69.0358 142.29C71.5578 141.926 74.1276 142.084 76.5855 142.758H76.0206L69.7236 142.647C69.5608 142.647 69.4045 142.712 69.2894 142.827C69.1742 142.943 69.1095 143.099 69.1095 143.262C69.1095 143.426 69.1742 143.582 69.2894 143.697C69.4045 143.813 69.5608 143.878 69.7236 143.878L76.3481 143.952C77.3963 143.952 78.4526 144.013 79.5007 143.977L79.9101 143.952C80.5243 144.223 81.2162 144.568 81.4987 145.113C81.9245 146.008 80.8231 146.307 80.1721 146.278L80.1804 146.29ZM53.3712 42.2731C54.0246 41.1875 54.9139 40.2635 55.973 39.5702C57.032 38.8768 58.2335 38.4318 59.488 38.2684C59.8156 38.2232 60.1022 38.5883 60.1022 38.8838C60.098 39.0457 60.032 39.1999 59.9177 39.3144C59.8035 39.429 59.6496 39.4951 59.488 39.4993C58.4466 39.6547 57.4528 40.0401 56.5783 40.6277C55.7038 41.2152 54.9705 41.9904 54.4316 42.8968C54.3491 43.0378 54.2141 43.1401 54.0563 43.1812C53.8986 43.2224 53.7309 43.1991 53.5902 43.1163C53.4496 43.0336 53.3476 42.8983 53.3065 42.7402C53.2654 42.582 53.2887 42.4141 53.3712 42.2731ZM39.3771 58.5302C40.5936 58.2678 41.7521 57.7853 42.7958 57.1064C43.8029 57.9763 45.1214 58.8257 46.456 58.3086C47.7907 57.7917 48.3804 56.2201 48.1838 54.8331C48.009 53.9426 47.7012 53.0836 47.2708 52.285C47.2173 52.1841 47.1325 52.1035 47.0292 52.0553C47.5041 50.9426 47.7813 49.7553 47.8481 48.547C47.889 47.7551 46.6607 47.7551 46.6198 48.547C46.562 49.6196 46.3125 50.6731 45.8829 51.6572C45.6154 51.3631 45.2781 51.1415 44.9024 51.0131C44.5265 50.8847 44.1244 50.8536 43.7333 50.9228C43.1729 51.0207 42.6714 51.3309 42.333 51.7893C41.9945 52.2476 41.845 52.8189 41.9155 53.3848C41.6161 53.4696 41.3393 53.6205 41.1056 53.8264C40.8718 54.0323 40.6869 54.2879 40.5644 54.5747C40.4208 54.8983 40.3855 55.2597 40.4637 55.6051C40.5419 55.9505 40.7295 56.2612 40.9984 56.4909C41.0537 56.5366 41.1126 56.5777 41.1745 56.6139C40.501 56.9468 39.7885 57.1936 39.0536 57.3485C38.2758 57.5044 38.6074 58.6902 39.3771 58.5302ZM46.0179 53.9222C46.1202 53.9188 46.2202 53.8918 46.3104 53.8434C46.4005 53.7951 46.4784 53.7266 46.538 53.6432C46.7521 54.1012 46.8996 54.5876 46.976 55.0876C47.0171 55.3986 46.999 55.7147 46.9228 56.019C46.8577 56.2744 46.7451 56.5152 46.5911 56.7289C46.4175 56.9531 46.1757 57.1144 45.9023 57.1885C45.629 57.2626 45.339 57.2453 45.0762 57.1392C44.605 56.9667 44.1712 56.7048 43.7989 56.3678C44.6565 55.6685 45.4044 54.8441 46.0179 53.9222ZM43.111 52.9252C43.1264 52.8612 43.1455 52.7982 43.1684 52.7365C43.1479 52.7897 43.3117 52.519 43.2789 52.5559C43.3239 52.5066 43.369 52.4574 43.4181 52.4122L43.5041 52.3425C43.5576 52.3031 43.6136 52.2674 43.672 52.2358L43.7907 52.1825L43.9668 52.1291H44.0118H44.0651C44.2799 52.1012 44.4981 52.1475 44.6833 52.2604C44.932 52.4043 45.1361 52.6145 45.2728 52.8677C45.0288 53.2745 44.7552 53.6626 44.4539 54.0289C44.08 53.7223 43.6463 53.4973 43.1806 53.3683C43.1806 53.3437 43.1806 53.3273 43.1806 53.3683C43.16 53.3108 43.1435 53.2518 43.1315 53.1919C43.1315 53.1919 43.1315 53.0688 43.1315 53.0647C43.1349 53.0471 43.1349 53.029 43.1315 53.0113C43.1297 52.9817 43.1228 52.9525 43.111 52.9252ZM41.6576 55.1615C41.6683 55.0882 41.6949 55.0181 41.7354 54.9562C41.8132 54.8234 41.9238 54.7125 42.0562 54.6342C42.1888 54.556 42.339 54.5128 42.4928 54.509C42.7514 54.7768 43.0764 54.9708 43.4345 55.0712C43.2462 55.2435 43.0497 55.4077 42.8449 55.5635C42.7586 55.517 42.6612 55.4947 42.5631 55.499C42.4651 55.5033 42.3701 55.5342 42.2882 55.5882C42.2535 55.6147 42.2165 55.638 42.1775 55.6579H42.0875C42.0875 55.6579 41.9851 55.621 41.9606 55.6169C41.9219 55.5886 41.8808 55.5638 41.8377 55.543C41.807 55.5164 41.7783 55.4876 41.7518 55.4569C41.7407 55.4356 41.7284 55.4151 41.7149 55.3953C41.7149 55.3748 41.7149 55.3543 41.7149 55.3378C41.7149 55.3214 41.7149 55.2558 41.7149 55.2394C41.7149 55.223 41.7149 55.2107 41.7149 55.2107C41.6956 55.1911 41.6736 55.1745 41.6494 55.1615H41.6576ZM34.9636 31.3626L33.6247 34.321C33.5412 34.4603 33.4065 34.5612 33.2494 34.6019C33.0924 34.6425 32.9257 34.6198 32.7853 34.5385C32.6473 34.454 32.5471 34.3193 32.5059 34.1624C32.4647 34.0057 32.4856 33.8389 32.5642 33.6973L33.8949 30.7183C33.9788 30.5852 34.1096 30.4885 34.2612 30.4475C34.4129 30.4064 34.5744 30.424 34.7138 30.4968C34.8549 30.5794 34.9587 30.7134 35.0038 30.8708C35.0488 31.0283 35.0314 31.1971 34.9553 31.342L34.9636 31.3626ZM32.1876 30.4147L30.6318 33.6562C30.5928 33.7292 30.5397 33.7934 30.4753 33.8453C30.411 33.8971 30.337 33.9354 30.2576 33.9579C30.1782 33.9804 30.095 33.9868 30.0132 33.9763C29.9313 33.966 29.8524 33.9391 29.7811 33.8974C29.7098 33.8558 29.6476 33.8001 29.5983 33.7339C29.5489 33.6676 29.5133 33.592 29.4938 33.5117C29.4742 33.4313 29.471 33.3479 29.4843 33.2663C29.4977 33.1846 29.5273 33.1065 29.5714 33.0367L31.1272 29.791C31.2097 29.6501 31.3448 29.5478 31.5025 29.5066C31.6603 29.4654 31.8279 29.4888 31.9686 29.5715C32.1092 29.6542 32.2113 29.7895 32.2524 29.9476C32.2934 30.1058 32.2701 30.2738 32.1876 30.4147ZM30.1978 26.0365C30.1774 25.9557 30.1774 25.8711 30.1978 25.7903C30.2016 25.7098 30.2271 25.6318 30.2715 25.5647C30.3542 25.427 30.4859 25.3258 30.64 25.2815L31.4588 25.0559C31.6192 25.016 31.7888 25.0379 31.9338 25.1174C32.07 25.2015 32.1705 25.3329 32.2163 25.4867C32.2388 25.5672 32.2388 25.6523 32.2163 25.7329C32.2118 25.8145 32.1864 25.8937 32.1426 25.9626C32.0602 26.0989 31.9304 26.1998 31.7782 26.2457L30.9593 26.4673C30.7991 26.5094 30.6288 26.4872 30.4844 26.4058C30.4111 26.3646 30.3471 26.3088 30.2964 26.2417C30.2457 26.1746 30.2093 26.0978 30.1896 26.016L30.1978 26.0365ZM36.4498 29.5243C36.2874 29.5216 36.1323 29.4569 36.0158 29.3437L34.9062 28.1538C34.7939 28.0365 34.7296 27.8813 34.726 27.7188C34.7252 27.6379 34.7407 27.5576 34.7717 27.4829C34.8026 27.4081 34.8484 27.3405 34.9062 27.2839C35.0212 27.1684 35.1773 27.1035 35.3402 27.1034C35.5028 27.1044 35.6586 27.1692 35.7742 27.2839L36.8838 28.4739C36.9968 28.5907 37.0611 28.7461 37.0638 28.9088C37.0644 28.9897 37.0488 29.0699 37.0179 29.1446C36.9869 29.2194 36.9413 29.287 36.8838 29.3437C36.8241 29.3982 36.7544 29.4404 36.6785 29.4678C36.6027 29.4953 36.5222 29.5075 36.4415 29.5038L36.4498 29.5243Z" fill="#3F4254"/>
</svg>
