<svg width="242" height="188" viewBox="0 0 242 188" fill="none" xmlns="http://www.w3.org/2000/svg">
<g clip-path="url(#clip0_249_937)">
<path d="M46.8872 88.2201C34.1783 82.02 23.6606 70.9831 19.1905 57.5716C14.7206 44.1601 16.6926 28.462 25.2821 17.2052C33.8714 5.94833 49.1223 -0.0318747 62.839 3.35398C78.1774 7.17955 89.7905 21.3826 105.479 23.3613C116.129 24.6805 126.472 20.1074 136.989 17.8648C147.463 15.6222 160.39 16.8095 166.044 25.9117C171.259 34.3543 167.841 45.2594 164.291 54.5375C159.207 67.861 153.904 81.4924 144.571 92.2216C136.77 101.192 126.472 107.744 118.583 116.626C113.631 122.211 109.599 128.719 103.464 132.94C93.8225 139.535 81.2011 138.92 69.544 138.085C61.1299 137.469 52.6281 136.854 44.6083 134.171C36.5886 131.488 29.051 126.52 24.9754 119.089C17.7883 105.941 23.31 89.7152 28.8756 75.82" fill="#F4F6F9"/>
<path d="M223.992 61.0929C223.115 57.4048 222.018 53.7167 219.954 50.5117C216.092 44.5404 209.682 43.7063 203.317 41.9061C200.201 41.0281 198.137 40.9401 195.24 42.5207C190.543 45.0673 185.89 47.7017 181.588 50.8629C177.856 53.6289 174.389 56.878 171.668 60.6977C171.447 60.5221 171.185 60.3464 170.966 60.127L170.702 60.2586C168.068 61.0051 165.346 61.7954 163.283 63.9029C161.22 66.0103 160.079 69.874 161.483 72.6401C156.26 72.0254 151.256 75.5817 147.656 80.148C144.012 84.7141 141.378 90.2901 138.174 95.2954C136.418 98.0614 134.003 100.915 131.106 100.696C129.351 100.564 127.814 99.2908 126.102 98.676C124.566 98.1492 122.59 98.5005 121.845 100.037C121.757 100.169 121.669 100.257 121.581 100.388C120.923 96.2612 117.411 93.5391 114.03 92.7049C110.563 91.8707 106.919 92.3975 103.407 92.0024C94.5842 90.9048 87.1216 83.9238 80.1859 77.1623L79.4837 77.8648C79.0447 71.718 78.4739 56.6146 78.4739 56.6146C83.1708 55.429 92.6528 52.9264 92.6528 52.9264C87.1217 46.0772 81.1078 38.1741 74.8744 30.4029C72.8113 27.8124 70.0457 25.5293 66.8851 24.6512C66.8851 24.6512 62.5394 18.1972 55.9549 30.0516C53.9356 33.6958 52.5309 37.3838 51.5651 40.7207C49.2825 40.0621 46.6047 40.6329 44.8927 42.3452C42.6101 44.5844 42.3468 48.5798 44.2782 51.1263C45.5072 52.7069 47.4826 53.6289 49.4579 53.7167C49.4579 53.8046 49.4579 53.8923 49.4579 53.8923C46.0779 61.8832 43.0051 68.5129 39.5812 75.45L40.3275 73.9132C18.4667 94.4611 1.0836 123.658 0.0300702 154.042C-0.27721 162.603 1.74197 171.779 7.40468 177.354C12.4089 182.316 19.4325 183.721 26.1049 183.414C32.7772 183.107 39.3177 181.262 45.9462 180.559C51.3894 179.99 56.8766 180.121 62.276 180.999C66.1389 181.657 70.0018 182.668 73.9086 182.492C77.6837 182.36 81.6346 180.911 84.0929 177.663C85.4536 177.223 86.8145 176.652 88.0435 175.906C88.9654 175.379 89.8433 174.677 90.6773 173.887C90.2385 174.852 89.7994 175.818 89.3165 176.74C90.9846 176.784 92.6527 176.916 94.3647 177.092C94.3208 177.882 94.2331 178.673 94.1891 179.463C101.037 180.868 108.017 181.878 114.996 182.492C117.937 183.721 120.747 185.171 123.468 186.795C123.995 185.566 124.478 184.336 125.004 183.107C127.331 183.283 129.658 183.678 131.546 184.995C132.38 181.833 133.213 178.673 133.915 175.467C135.277 168.925 135.979 162.339 136.286 155.666C137.515 152.723 138.7 149.782 139.929 146.841C144.188 145.26 148.358 143.241 151.651 140.65C159.113 134.766 164.907 127.127 170.219 119.312C173.906 113.911 177.682 108.248 178.647 101.793C179.086 98.8956 178.998 95.8661 180.184 93.1878C181.061 91.256 182.553 89.6315 183.476 87.6997C185.846 82.6505 183.871 76.0646 187.25 71.6741L187.162 71.3229C188.524 71.4107 189.84 71.4546 191.202 71.4546C196.03 71.4107 200.771 70.4887 205.556 70.0057C205.687 70.0057 205.819 69.9618 205.951 69.9618C206.653 69.874 207.4 69.8301 208.102 69.7863C208.277 70.0935 208.453 70.4447 208.629 70.7521C208.805 71.0595 209.067 71.3668 209.374 71.3668C209.814 71.3229 210.033 70.7081 210.077 70.1814C210.077 70.0495 210.121 69.874 210.121 69.7423C210.472 69.7423 210.824 69.7423 211.131 69.6983C211.395 70.3569 211.789 71.0155 212.404 70.9277C212.974 70.84 213.238 70.2252 213.369 69.5227C213.764 69.4788 214.159 69.4349 214.555 69.3472C215.081 70.1375 215.828 70.7081 216.618 70.3569C217.321 70.0057 217.583 69.0837 217.671 68.2055C218.198 67.8543 218.593 67.4152 218.857 66.8445C219.296 65.7469 218.769 64.4737 217.89 63.6394C217.89 63.0686 217.935 62.454 217.935 61.8832C217.978 60.9172 217.978 59.9952 217.978 59.0293C218.857 60.1709 219.778 61.2684 220.744 62.3661C221.49 63.2443 222.763 64.1224 223.642 63.4198C224.299 62.9369 224.213 61.9271 223.992 61.0929ZM202.396 56.2194C202.439 55.6924 202.57 55.1217 202.746 54.5949C203.229 56.4827 204.458 58.1512 206.127 58.7658C206.039 59.8195 205.995 60.8734 206.039 61.9271C205.293 61.8832 204.546 61.7954 203.888 61.488C202.001 60.6538 202.22 57.9756 202.396 56.2194Z" fill="white"/>
<path d="M190.873 143.41H164.559C164.206 143.41 163.897 143.105 163.897 142.757C163.897 142.408 164.206 142.103 164.559 142.103H190.21V121.398C190.21 121.049 190.519 120.744 190.873 120.744H209.283V103.09C209.283 102.741 209.592 102.436 209.944 102.436H240.364C240.717 102.436 241.026 102.741 241.026 103.09C241.026 103.438 240.717 103.744 240.364 103.744H210.607V121.398C210.607 121.746 210.298 122.051 209.944 122.051H191.534V142.757C191.534 143.105 191.225 143.41 190.873 143.41Z" fill="#3F4254"/>
<path d="M113.718 2.58136C112.973 1.98216 112.229 1.42577 111.309 1.08338C110.258 0.69818 108.988 0.698139 108.025 1.25453C107.849 1.08333 107.587 1.04055 107.324 1.21174C104.959 2.49573 103.557 5.19211 103.645 7.80289C103.733 10.5849 105.528 12.896 108.156 13.9232C110.74 14.9505 113.893 14.5225 115.864 12.5109C116.915 11.4409 117.616 10.0284 117.572 8.53046C117.528 6.98968 116.74 5.62009 115.689 4.4645C115.119 3.73691 114.419 3.13776 113.718 2.58136ZM115.119 11.3553C112.01 14.7792 105.616 12.8532 105.003 8.31646C104.74 6.34769 105.528 4.25051 107.061 2.92373C107.324 3.26613 107.893 3.39452 108.156 2.92373C108.725 1.85374 110.171 1.89657 111.178 2.36736C112.36 2.92375 113.455 3.90812 114.419 4.84971C115.295 5.7485 116.127 6.81849 116.258 8.05967C116.433 9.25806 115.908 10.4993 115.119 11.3553ZM113.324 6.00532C112.798 7.28931 112.273 8.5733 111.747 9.85729C111.66 10.0713 111.528 10.2425 111.309 10.2853C111.09 10.3281 110.828 10.2853 110.652 10.1141C109.776 9.08689 108.857 8.05967 107.981 6.98969C107.762 6.73288 107.718 6.34771 107.981 6.0909C108.244 5.83411 108.638 5.87691 108.901 6.0909C109.119 6.26211 109.295 6.3905 109.514 6.56169C109.645 6.69009 109.733 6.86128 109.689 7.03248C110.083 7.50327 110.477 7.97408 110.915 8.44488C111.309 7.50329 111.703 6.56171 112.054 5.62012C112.185 5.27773 112.492 5.10652 112.842 5.19212C113.149 5.27773 113.411 5.70573 113.324 6.00532ZM149.192 1.21174C145.864 -0.628639 142.054 0.61256 138.725 1.81095C137.936 2.11054 138.287 3.35174 139.076 3.05215C139.119 3.05215 139.207 3.00936 139.251 3.00936C137.587 4.72135 137.192 7.37489 138.156 9.51487C139.295 11.9973 142.228 13.4953 144.945 13.2813C147.791 13.0244 150.375 11.0985 151.513 8.5733C152.126 7.16092 152.389 5.53453 151.82 4.07935C151.294 2.83816 150.33 1.85374 149.192 1.21174ZM150.681 6.9469C150.112 9.25807 148.185 11.2269 145.864 11.826C143.674 12.3825 141.133 11.612 139.82 9.77166C138.375 7.80288 138.769 4.93529 140.696 3.39451C141.09 3.09491 140.915 2.66693 140.608 2.45294C142.755 1.72534 145.031 1.12617 147.266 1.76816C149.63 2.49575 151.251 4.46453 150.681 6.9469ZM149.017 4.84971C147.484 6.17649 146.346 7.88847 145.776 9.81445C145.645 10.1996 145.163 10.4137 144.812 10.1997C143.323 9.25806 142.141 7.9741 141.353 6.47611C140.959 5.74852 142.097 5.10652 142.492 5.83412C143.061 6.90411 143.849 7.8885 144.812 8.61609C145.513 6.81851 146.608 5.19211 148.097 3.95092C148.71 3.39453 149.63 4.29331 149.017 4.84971ZM135.572 8.27367C130.229 8.27367 124.93 8.31646 119.587 8.31646C118.755 8.31646 118.755 7.03248 119.587 7.03248C124.93 7.03248 130.229 6.98969 135.572 6.98969C136.404 6.98969 136.404 8.27367 135.572 8.27367ZM173.543 7.93131C167.849 8.44491 162.113 8.53049 156.375 8.1881C155.543 8.1453 155.543 6.86131 156.375 6.90411C162.113 7.24651 167.849 7.16092 173.543 6.64732C174.374 6.56173 174.374 7.84572 173.543 7.93131ZM191.148 9.17246C189.922 11.612 186.68 12.1685 184.229 11.7832C181.469 11.3553 178.885 9.51487 178.447 6.7329C178.01 4.16493 179.849 1.55414 182.564 1.42575C183.397 1.38295 183.397 2.66693 182.564 2.70972C181.469 2.79533 180.506 3.52291 180.024 4.4645C179.499 5.4917 179.63 6.7757 180.155 7.80289C181.25 9.85727 183.659 10.6705 185.893 10.6277C187.82 10.5849 190.097 9.64325 190.273 7.46047C190.404 5.36329 188.87 3.43734 187.119 2.41015C185.323 1.34017 183.177 0.997777 181.163 1.51137C180.331 1.72537 179.98 0.484171 180.813 0.270174C183.703 -0.457419 186.813 0.312963 189.046 2.23895C191.017 3.86533 192.375 6.73288 191.148 9.17246Z" fill="#3F4254"/>
<path d="M123.108 142.636C123.415 144.217 124.687 145.449 126.18 145.931C125.215 146.503 124.424 147.514 123.81 148.394C123.063 149.493 122.537 150.723 122.23 151.998C121.703 152.306 121.527 152.966 121.878 153.537C122.361 154.328 123.546 154.24 124.337 154.284C126.355 154.416 128.374 154.592 130.393 154.724C130.745 154.768 131.052 154.416 131.052 154.065C131.095 152.658 130.964 151.207 130.702 149.8C130.481 148.658 130.219 147.426 129.472 146.46C129.296 146.196 129.033 146.02 128.814 145.888C130.043 145.449 131.097 144.438 131.579 143.163C132.237 141.361 131.491 139.251 129.999 138.152C128.286 136.876 125.653 137.229 124.249 138.81C124.117 138.943 124.073 139.074 124.073 139.206C123.239 140.13 122.887 141.492 123.108 142.636ZM129.296 149.449C129.604 150.723 129.735 152.042 129.735 153.405C128.55 153.317 127.365 153.229 126.18 153.141C125.522 153.097 124.82 153.054 124.161 153.009C123.898 153.009 123.59 152.966 123.327 152.966C123.37 152.921 123.415 152.833 123.415 152.745C123.722 151.427 124.249 150.153 125.039 149.054C125.391 148.525 125.829 148.043 126.267 147.602C126.663 147.251 127.189 146.856 127.76 146.987C128.769 147.119 129.121 148.613 129.296 149.449ZM125.784 139.778C126.18 139.69 126.312 139.339 126.224 139.031C126.97 138.679 127.891 138.635 128.681 138.986C129.911 139.514 130.657 140.965 130.438 142.24C130.262 143.559 129.033 144.658 127.76 144.789C126.443 144.965 125.082 144.086 124.556 142.899C124.073 141.8 124.468 140.085 125.784 139.778ZM132.237 162.856C132.281 163.823 131.316 164.439 130.438 164.395C129.911 164.395 129.384 164.131 128.857 164.088C128.331 164.043 127.76 164.351 127.234 164.395C126.048 164.527 125.039 163.955 123.941 163.647C123.239 163.428 122.318 163.296 121.79 163.955C121.264 164.615 120.342 163.692 120.868 163.032C122.098 161.494 124.161 162.373 125.653 162.856C126.18 163.032 126.707 163.163 127.234 163.077C127.76 162.989 128.243 162.768 128.769 162.768C129.077 162.768 130.921 163.384 130.921 162.856C130.876 162.021 132.194 162.021 132.237 162.856ZM115.558 153.317C115.953 147.734 116.392 142.107 116.787 136.525C116.787 136.218 116.962 136.042 117.182 135.953C117.182 135.601 117.489 135.294 117.84 135.294C119.596 135.206 121.352 135.119 123.063 135.031C123.415 135.031 123.722 135.338 123.722 135.689C123.722 136.042 123.415 136.349 123.063 136.349C121.396 136.437 119.728 136.525 118.06 136.569C117.665 142.152 117.226 147.734 116.831 153.317C116.831 154.152 115.514 154.152 115.558 153.317ZM120.606 157.889C119.859 157.582 119.025 157.801 118.542 158.373C117.972 159.032 117.05 158.065 117.621 157.449C118.235 156.746 119.201 156.35 120.123 156.438C121.176 156.526 121.835 157.141 122.58 157.845C123.503 158.724 124.907 158.328 126.048 158.24C127.365 158.152 128.726 158.021 130.043 157.933C130.876 157.889 130.876 159.208 130.043 159.251C128.769 159.339 127.541 159.427 126.267 159.559C125.215 159.647 123.985 159.911 122.932 159.603C122.449 159.472 122.054 159.163 121.659 158.812C121.352 158.46 121.044 158.109 120.606 157.889ZM65.4312 32.8695C65.4312 33.2212 65.124 33.5289 64.7728 33.5289C64.685 33.5289 64.5972 33.5289 64.5533 33.5289C64.5095 33.5289 64.4656 33.5289 64.4218 33.5289H64.3778C64.334 33.5289 64.3339 33.5289 64.2899 33.5289C64.2022 33.5289 64.1582 33.5729 64.0705 33.5729C63.9388 33.6169 63.8072 33.6608 63.6754 33.7048C63.6316 33.7048 63.6317 33.7048 63.5879 33.7487C63.5439 33.7927 63.456 33.7928 63.4121 33.8367C63.2805 33.9246 63.1488 33.9685 63.0171 34.0565C62.9732 34.0565 62.9733 34.1004 62.9294 34.1004L62.8855 34.1444C62.8416 34.1883 62.8415 34.1883 62.7977 34.2323C62.7098 34.3202 62.5783 34.4082 62.4905 34.54C62.4466 34.584 62.4025 34.628 62.3587 34.6719C62.3587 34.7158 62.3147 34.7159 62.3147 34.7598C62.0953 35.0676 61.7442 35.1555 61.3931 34.9796C61.0859 34.8037 60.9543 34.3642 61.1736 34.0565C62.0077 32.8697 63.3683 32.1223 64.8168 32.1223C65.1679 32.2102 65.4312 32.5179 65.4312 32.8695ZM70.479 97.1816C70.5229 97.0497 70.5229 97.1376 70.479 97.1816V97.1816ZM69.9962 97.797C69.9522 97.8409 69.9083 97.8849 69.9962 97.797V97.797ZM70.4351 95.9508C70.479 95.9947 70.479 96.0386 70.4351 95.9508V95.9508ZM69.4695 98.0607C69.4257 98.0607 69.3817 98.0607 69.4695 98.0607V98.0607ZM68.1966 96.7859C68.1966 96.742 68.1966 96.742 68.1966 96.698C68.1966 96.698 68.1966 96.742 68.1966 96.7859ZM69.1622 98.0607C69.1622 98.0607 69.2062 98.0607 69.25 98.0607C69.2062 98.0607 69.2062 98.0607 69.294 98.0607H69.25C69.294 98.0607 69.2938 98.0607 69.3377 98.0607C69.3377 98.0607 69.3379 98.0607 69.294 98.0607C69.3818 98.0607 69.4694 98.0607 69.5572 98.0607H69.5135H69.5572C69.6011 98.0607 69.6012 98.0607 69.645 98.0168C69.689 98.0168 69.733 97.9728 69.733 97.9728C69.8208 97.9289 69.8646 97.8849 69.9524 97.8409C69.9963 97.797 70.0401 97.797 70.084 97.753C70.084 97.753 70.084 97.753 70.04 97.753C70.084 97.7091 70.1278 97.6651 70.2156 97.5772C70.2595 97.5333 70.2596 97.4893 70.3034 97.4893C70.3913 97.3574 70.4791 97.2255 70.5229 97.0937C70.5229 97.0937 70.5229 97.0937 70.5229 97.1376C70.5229 97.0937 70.5669 97.0496 70.5669 97.0496C70.6107 96.9617 70.6107 96.9178 70.6107 96.8298C70.6107 96.7419 70.6545 96.698 70.6545 96.61C70.6106 96.8299 70.6545 96.61 70.6545 96.5222C70.6545 96.4782 70.6545 96.4343 70.6545 96.3902C70.6545 96.3902 70.6545 96.3463 70.6545 96.3024C70.6545 96.3024 70.6545 96.3024 70.6545 96.2585C70.6545 96.2585 70.6545 96.2584 70.6545 96.3024C70.6545 96.2584 70.6545 96.2584 70.6545 96.2145C70.6545 96.1704 70.6547 96.1706 70.6107 96.1265V96.0826C70.5669 96.0386 70.5669 95.9947 70.5669 96.0387C70.5669 95.9947 70.5229 95.9508 70.5229 95.9067C70.5229 95.8628 70.479 95.8628 70.479 95.8189V95.8628C70.4351 95.8189 70.3913 95.7749 70.3474 95.7309C70.3035 95.7309 70.3034 95.6869 70.2595 95.6869C70.2156 95.6869 70.2158 95.643 70.1719 95.643C70.1279 95.643 70.0839 95.5991 69.9962 95.5991C69.9083 95.5991 69.733 95.5991 69.9524 95.5991C69.8208 95.5991 69.6889 95.5991 69.5572 95.5991C69.5132 95.5991 69.4695 95.5991 69.4695 95.5991C69.3817 95.5991 69.3378 95.643 69.25 95.643C69.2062 95.643 69.1621 95.6869 69.1183 95.6869C69.0744 95.7309 69.0306 95.7309 68.9866 95.7749C68.9427 95.8188 68.8551 95.8628 68.8111 95.9067C68.7672 95.9067 68.7671 95.9508 68.7233 95.9508C68.6355 96.0386 68.5476 96.1265 68.4598 96.2145C68.4598 96.2584 68.4161 96.2584 68.4161 96.3024C68.3723 96.3463 68.3721 96.4343 68.3283 96.4782V96.5222C68.3283 96.5661 68.3283 96.5661 68.3283 96.61C68.3283 96.61 68.3283 96.6541 68.3283 96.698V96.742C68.3283 96.742 68.3283 96.742 68.3283 96.698C68.3283 96.742 68.3283 96.7859 68.3283 96.7859C68.3283 96.8298 68.3283 96.8739 68.3283 96.8739C68.3283 96.9178 68.3283 96.9178 68.3283 96.9178C68.3721 97.2695 68.1965 97.5772 67.8454 97.6651C67.5381 97.753 67.0992 97.5333 67.0554 97.2255C66.9676 96.698 67.0114 96.2145 67.2749 95.7309C67.4943 95.3353 67.8016 94.9836 68.1966 94.7199C68.855 94.2803 69.6889 94.0605 70.479 94.2803C71.4007 94.5001 71.9714 95.2913 72.1031 96.2145C72.2787 97.8848 70.6546 99.6433 68.9427 99.2036C68.5916 99.1157 68.416 98.7201 68.5038 98.4124C68.416 98.1487 68.8111 97.9728 69.1622 98.0607ZM70.6107 96.3902C70.6107 96.4343 70.6107 96.4343 70.6107 96.4782C70.6107 96.4782 70.6107 96.4782 70.6107 96.3902ZM67.8454 39.2876C67.977 39.6393 67.9332 39.9909 67.6259 40.2107C67.3626 40.3866 66.8796 40.2987 66.7041 39.9909C66.2652 38.9799 65.7825 37.9688 65.3436 36.9577C65.2119 36.6061 65.2557 36.2544 65.563 36.0346C65.8264 35.8588 66.309 35.9468 66.4847 36.2544C66.9236 37.2216 67.4064 38.2765 67.8454 39.2876ZM69.9085 39.5954C69.8206 38.936 69.645 38.3205 69.4255 37.7051C69.3817 37.5732 69.294 37.3973 69.25 37.2655C69.25 37.2216 69.2061 37.1775 69.2061 37.1775C69.1622 37.0897 69.1184 37.0018 69.0745 36.9138C68.9429 36.6061 68.7672 36.2984 68.5916 36.0346C68.4161 35.727 68.5478 35.3313 68.8111 35.1115C69.1184 34.9356 69.5573 35.0676 69.733 35.3313C70.4352 36.5181 70.9179 37.8809 71.1374 39.2436C71.1812 39.5952 71.0496 39.947 70.6984 40.0348C70.3911 40.1668 69.9523 39.947 69.9085 39.5954ZM68.6356 31.7266C68.3283 31.9464 67.9333 31.7706 67.7138 31.5068C67.4943 31.1992 67.6699 30.8035 67.9333 30.5837C69.1622 29.7924 70.8301 29.5727 72.1908 30.1002C72.5419 30.232 72.7176 30.5398 72.6298 30.8914C72.5419 31.1992 72.147 31.4629 71.8398 31.331C71.708 31.287 71.5325 31.2431 71.4008 31.1992C71.313 31.1992 71.2252 31.1551 71.1814 31.1551C71.1374 31.1551 71.0934 31.1551 71.0934 31.1551C70.7862 31.1112 70.4791 31.1112 70.1719 31.1551H70.1279C70.0841 31.1551 70.084 31.1551 70.04 31.1551C69.9523 31.1551 69.8645 31.1992 69.8205 31.1992C69.6889 31.2431 69.5573 31.287 69.4255 31.331C69.3817 31.331 69.294 31.3749 69.25 31.419C69.25 31.419 69.1184 31.4629 69.0745 31.5068C68.8989 31.5508 68.7672 31.6388 68.6356 31.7266ZM54.8968 47.464C55.1162 47.7277 55.1601 48.1234 54.8968 48.3871C54.6773 48.6069 54.1945 48.6508 53.975 48.3871C52.6143 46.6727 50.5075 45.6617 48.3127 45.7056C47.4788 45.7056 47.4788 44.3869 48.3127 44.3869C50.8146 44.3428 53.2727 45.4858 54.8968 47.464ZM225.116 60.8715C224.897 60.0362 224.721 59.201 224.458 58.4098C224.019 56.9152 223.536 55.4205 222.921 53.9699C221.736 51.2445 220.156 48.6949 217.786 46.8485C215.723 45.2221 213.309 44.211 210.807 43.4197C209.578 43.0241 208.349 42.7164 207.076 42.3647C205.715 42.0131 204.31 41.6174 202.95 41.2657C201.589 40.958 200.185 40.7822 198.823 41.002C197.288 41.2218 195.926 41.969 194.566 42.7164C191.625 44.3428 188.684 45.9693 185.875 47.7716C180.696 51.1126 175.823 55.0689 172.137 60.0362C172.092 59.9923 172.049 59.9923 172.005 59.9483C171.785 59.7725 171.478 59.6846 171.214 59.8604C170.645 60.2121 169.81 60.2999 169.152 60.5197C168.318 60.7836 167.528 61.0912 166.738 61.4429C165.246 62.1463 163.841 63.1133 162.832 64.4322C161.163 66.5862 160.33 69.6192 161.119 72.2568C157.914 72.2129 154.886 73.5756 152.341 75.4659C149.225 77.8397 146.854 80.9168 144.79 84.2137C142.596 87.6425 140.753 91.2032 138.602 94.6759C136.934 97.3574 134.3 101.49 130.614 100.171C128.814 99.5114 127.234 98.1487 125.258 98.1926C124.205 98.2366 123.239 98.5883 122.537 99.2916C121.791 97.0496 120.21 95.1595 118.147 93.8847C115.207 92.0383 111.783 91.9505 108.403 91.9505C106.559 91.9505 104.716 91.9065 102.916 91.5987C101.38 91.2911 99.8438 90.8515 98.3953 90.236C95.3228 88.9612 92.5135 87.0709 89.9676 85.0049C86.8951 82.5872 84.086 79.8617 81.2769 77.1363C81.1013 76.9605 80.8819 76.9164 80.6624 76.9605C80.2673 70.982 80.048 64.9596 79.8285 58.9812C79.8285 58.4977 79.7845 58.0141 79.7845 57.5306C83.9105 56.4756 88.0803 55.3766 92.2063 54.3216C92.6014 54.2336 93.0404 54.1018 93.4354 54.0138C93.9622 53.882 94.0059 53.2665 93.7426 52.9148C90.4944 48.8707 87.3342 44.8264 84.13 40.7383C82.4181 38.5843 80.7501 36.4303 79.0383 34.2763C77.4581 32.2982 75.9659 30.1442 74.1222 28.3858C72.9372 27.2428 71.664 26.2758 70.2156 25.4845C71.1812 25.2647 72.2346 24.9129 73.2882 24.2976C76.0973 22.6271 78.9944 15.6816 75.4391 10.8461C69.1623 19.6819 63.4999 13.2199 54.4578 17.5278C47.4788 20.8247 47.7422 33.8367 50.7708 40.2107C48.664 40.0789 46.513 40.7822 45.0207 42.2768C42.5188 44.7825 42.2116 49.0905 44.3623 51.9039C45.5036 53.4424 47.3031 54.3655 49.1906 54.6732C46.6448 60.7835 43.9673 66.8499 41.0704 72.7843C40.9825 72.9602 40.9824 73.0921 41.0264 73.2239C16.3142 96.5661 0.995459 126.942 0.0298001 154.504C-0.321348 164.57 2.44408 173.231 7.62352 178.374C12.759 183.473 19.6502 184.66 25.093 184.66C25.7076 184.66 26.2781 184.66 26.8049 184.615C30.7114 184.44 34.6179 183.737 38.3928 183.034C41.1142 182.55 43.9233 182.023 46.7325 181.715C52.1315 181.143 57.5305 181.275 62.8855 182.154C63.8072 182.331 64.7728 182.505 65.6947 182.682C68.5916 183.253 71.6202 183.825 74.6489 183.693C79.0821 183.516 82.857 181.715 85.1834 178.769C86.7636 178.242 88.2559 177.582 89.6166 176.659C89.5728 176.747 89.5289 176.879 89.4851 176.967C89.2656 177.407 89.5288 177.934 90.0556 177.978C91.5041 178.023 92.9525 178.154 94.357 178.286C94.3132 178.857 94.2694 179.473 94.2255 180.044C94.2255 180.307 94.445 180.616 94.7083 180.66C99.7561 181.671 104.804 182.505 109.939 183.122C111.783 183.341 113.626 183.516 115.47 183.649C115.953 183.869 116.436 184.045 116.919 184.264C119.289 185.363 121.571 186.55 123.81 187.912C124.205 188.133 124.6 187.912 124.775 187.517C125.215 186.462 125.653 185.407 126.093 184.352C128.112 184.529 130.131 184.968 131.886 186.11C132.237 186.331 132.764 186.11 132.852 185.714C133.73 182.331 134.651 178.989 135.354 175.56C136.056 172.175 136.539 168.747 136.934 165.318C137.241 162.329 137.461 159.296 137.636 156.306C138.777 153.537 139.875 150.811 141.016 148.043C142.552 144.305 144.088 140.613 145.625 136.876C145.757 136.569 145.493 136.13 145.186 136.085C142.728 135.734 140.226 135.338 137.768 134.898C137.768 134.195 137.724 133.536 137.724 132.833C137.724 132.437 137.417 132.217 137.065 132.173C130.262 131.601 123.458 131.162 116.655 131.03C115.075 130.723 113.495 130.458 111.915 130.194C108.798 129.667 105.638 129.14 102.521 128.701C102.17 128.437 101.468 128.568 101.424 129.183C101.38 129.887 101.38 130.546 101.336 131.25C101.073 131.25 100.765 131.25 100.502 131.293C99.9754 131.338 99.756 131.865 99.9316 132.261C99.8877 132.349 99.8437 132.437 99.8437 132.525C99.5804 134.063 99.361 135.601 99.0977 137.141C97.1664 137.008 95.235 137.053 93.4791 137.887C91.6356 138.723 89.9678 139.954 88.5193 141.404C87.0269 142.899 85.7978 144.658 84.7884 146.503C84.0422 147.955 83.2521 149.361 82.3742 150.723C82.2425 150.943 82.1108 151.119 81.9792 151.339C80.7941 145.712 76.8875 143.031 73.8149 142.46C71.8836 142.107 69.9523 142.283 68.1088 142.46C66.4847 142.591 64.9046 142.723 63.3684 142.548C61.3931 142.328 59.5495 141.58 57.5303 140.789C56.1696 140.261 54.7214 139.69 53.2728 139.294C51.3415 138.81 48.9273 138.591 46.601 139.514C46.557 139.382 46.5569 139.294 46.5131 139.162C46.0741 137.756 45.4157 136.657 44.7574 135.601C44.5379 135.25 44.3623 134.943 44.1429 134.59C43.1772 132.876 42.6943 131.293 42.7821 129.712C42.9137 127.249 44.1867 125.492 45.4596 123.733L45.6791 123.469C46.557 122.238 48.5762 119.029 47.9177 115.82L46.6448 116.084C47.2154 118.809 45.4158 121.623 44.6257 122.722L44.4062 122.986C43.0895 124.787 41.641 126.81 41.5092 129.667C41.4215 131.514 41.9043 133.36 43.0455 135.294C43.265 135.646 43.4844 135.997 43.66 136.349C44.2744 137.36 44.889 138.328 45.2841 139.602C45.328 139.778 45.3718 139.954 45.4157 140.13C44.4062 140.701 43.3968 141.537 42.5189 142.723L42.4311 142.855L42.3871 143.031C42.1676 144.569 42.9578 145.757 43.8357 146.108C44.6258 146.415 45.4598 146.152 45.9864 145.404C46.7765 144.262 46.996 142.503 46.8203 140.877C48.5762 140.13 50.6391 140.042 52.9216 140.613C54.2823 140.965 55.687 141.537 57.0038 142.064C58.979 142.855 61.042 143.647 63.1489 143.91C64.8169 144.129 66.5286 143.954 68.1528 143.822C69.9963 143.647 71.7518 143.514 73.5077 143.822C76.3168 144.35 79.8722 146.899 80.75 152.394C79.9161 154.108 74.649 166.065 84.1738 177.89C82.1108 180.66 78.5993 182.286 74.5173 182.462C71.6203 182.594 68.6793 182.023 65.8702 181.494C64.9484 181.32 63.9827 181.143 63.0171 180.967C57.5743 180.044 51.9997 179.913 46.5131 180.484C43.7038 180.791 40.8509 181.32 38.0856 181.802C34.3546 182.462 30.492 183.165 26.6733 183.341C21.3182 183.604 13.8124 182.77 8.45746 177.451C3.54137 172.616 0.951694 164.263 1.25895 154.592C2.18072 127.293 17.4117 97.1816 41.9921 74.0591C44.9768 78.7628 49.5419 82.4114 54.7652 84.3895C60.2957 86.4555 66.5286 86.4116 72.1031 84.3895C75.3073 83.2466 78.2481 81.4883 80.75 79.1584C80.8817 79.0265 80.9695 78.8947 80.9695 78.7628C85.5344 83.2026 90.2751 87.7303 95.9812 90.6317C98.8781 92.1263 101.995 93.0934 105.243 93.2692C108.754 93.489 112.529 92.9615 115.909 94.3242C118.718 95.4671 120.868 97.797 121.527 100.742C120.43 102.413 119.815 104.391 119.859 106.457C119.903 107.292 121.22 107.292 121.176 106.457C121.132 104.786 121.571 103.16 122.406 101.753C122.625 101.709 122.801 101.534 122.887 101.314C123.239 99.951 124.6 99.4235 125.872 99.6433C127.584 99.907 128.945 101.182 130.614 101.665C134.168 102.72 136.934 99.6433 138.777 97.0057C143.123 90.6756 145.932 83.1147 151.726 77.8397C154.579 75.29 158.178 73.3119 162.085 73.7515C162.611 73.7954 162.832 73.18 162.656 72.7404C161.47 70.2347 162.349 66.9817 164.148 65.0036C165.158 63.8607 166.474 63.0694 167.879 62.498C168.581 62.1902 169.283 61.9704 169.986 61.7506C170.469 61.6188 170.995 61.4869 171.478 61.311C176.351 65.2673 181.617 68.7841 187.149 71.7732C187.149 71.8612 187.192 71.9491 187.192 71.9931C184.471 75.8175 185.261 80.8289 184.383 85.2247C184.164 86.3676 183.769 87.5105 183.198 88.5216C182.54 89.7086 181.705 90.7635 181.003 91.9505C179.51 94.3682 179.203 97.0057 178.941 99.7751C178.677 102.457 178.15 105.05 177.184 107.6C176.175 110.149 174.814 112.567 173.366 114.853C170.557 119.337 167.528 123.733 164.324 127.997C160.768 132.745 156.774 137.229 151.946 140.657C151.243 141.141 151.901 142.283 152.603 141.8C158.09 137.887 162.436 132.788 166.386 127.381C168.362 124.656 170.293 121.842 172.18 119.073C174.111 116.216 175.999 113.314 177.448 110.193C178.941 107.072 179.817 103.819 180.169 100.39C180.345 98.6322 180.476 96.8739 180.959 95.1595C181.442 93.489 182.452 92.0824 183.417 90.6756C184.295 89.3569 184.997 87.9942 185.392 86.4996C185.787 85.0489 185.963 83.5543 186.051 82.0597C186.27 79.2023 186.27 76.0812 187.718 73.5317C187.894 73.1799 188.201 72.8723 188.333 72.5206C191.537 72.6965 194.698 72.5645 197.859 72.2129C201.018 71.8612 204.135 71.3336 207.295 71.0699C207.647 71.026 207.954 71.026 208.305 71.026C208.436 71.2897 208.612 71.5534 208.788 71.8172C209.138 72.3008 209.666 72.6965 210.28 72.5206C210.85 72.3447 211.159 71.7293 211.29 71.1579C211.29 71.0699 211.333 71.0259 211.333 70.9381H211.378C211.466 71.1138 211.597 71.2897 211.728 71.4656C212.387 72.3008 213.572 72.3447 214.23 71.4656C214.406 71.2458 214.494 70.982 214.582 70.7183C215.196 70.6303 215.811 70.4985 216.425 70.3227C217.654 69.971 218.971 69.3994 219.717 68.3005C220.464 67.2454 220.419 65.9267 219.805 64.8277C219.629 64.4761 219.41 64.2124 219.146 63.9486C219.191 63.1133 219.234 62.2782 219.234 61.4429C219.279 61.4869 219.322 61.5748 219.367 61.6187C220.288 62.7178 221.253 64.1683 222.659 64.6959C223.975 65.1794 225.204 64.3442 225.335 62.9376C225.423 62.1463 225.247 61.4869 225.116 60.8715ZM143.957 137.229C141.85 142.328 139.787 147.426 137.68 152.526C137.768 149.888 137.768 147.207 137.768 144.569C137.768 141.8 137.724 139.031 137.68 136.261C139.743 136.613 141.85 136.921 143.957 137.229ZM44.8012 144.569C44.5379 144.965 44.2746 144.834 44.1867 144.834C43.7918 144.658 43.4406 144.13 43.5284 143.339C44.0991 142.591 44.7574 142.019 45.4596 141.537C45.5036 142.679 45.328 143.822 44.8012 144.569ZM94.401 176.923C93.2598 176.835 92.1186 176.703 90.9773 176.659C91.2846 176.044 91.548 175.429 91.8113 174.814C93.0843 173.626 94.1815 172.22 94.8838 170.637C94.7083 172.747 94.5327 174.814 94.401 176.923ZM123.766 186.374C122.273 185.495 120.694 184.66 119.113 183.869C120.956 184 122.801 184.088 124.644 184.221C124.337 184.924 124.073 185.671 123.766 186.374ZM102.565 130.063C104.628 130.37 106.691 130.678 108.71 131.03C108.666 131.03 108.579 131.03 108.535 131.03C106.516 131.074 104.497 131.118 102.521 131.206C102.521 130.811 102.565 130.415 102.565 130.063ZM100.941 132.876C100.941 132.788 100.941 132.7 100.941 132.613C110.203 132.173 119.508 132.304 128.814 132.921C131.316 133.096 133.818 133.272 136.32 133.491C136.582 146.987 136.803 160.658 134.256 173.978C133.599 177.539 132.676 181.055 131.754 184.529C130.086 183.604 128.2 183.253 126.355 183.034C123.986 182.813 121.571 182.77 119.201 182.594C114.021 182.242 108.842 181.671 103.706 180.879C100.985 180.44 98.2637 179.956 95.5862 179.429C95.8495 175.605 96.2006 171.736 96.5517 167.912C98.4392 168.308 100.327 168.527 102.214 168.396C103.531 168.308 106.691 167.955 105.989 165.845C105.769 165.142 105.199 164.615 104.672 164.131C103.926 163.471 103.136 162.944 102.302 162.417C102.038 162.241 101.775 162.109 101.556 161.978C102.39 162.285 103.18 162.593 104.014 162.944C105.418 163.516 106.867 164.439 108.447 164.483C109.764 164.527 111.081 163.78 111.432 162.46C111.783 161.054 110.949 159.823 110.027 158.855C110.642 158.724 111.212 158.504 111.739 158.021C114.241 155.735 110.729 152.966 109.061 151.515C106.911 149.757 104.541 148.262 101.995 147.119C100.941 146.635 99.8438 146.24 98.7903 145.888C99.6244 144.965 100.897 144.569 102.214 144.569C104.541 144.569 106.691 145.757 108.93 146.327C110.729 146.811 113.232 146.987 114.285 145.141C115.382 143.251 114.021 141.008 112.353 140.042C111.344 139.47 110.203 139.118 109.061 138.81C107.876 138.459 106.647 138.195 105.418 137.975C103.75 137.668 102.082 137.404 100.371 137.229C100.502 135.777 100.722 134.327 100.941 132.876ZM104.672 166.461C104.672 166.505 104.672 166.505 104.672 166.461V166.461ZM104.716 166.372C104.716 166.329 104.716 166.329 104.716 166.372V166.372ZM80.9695 155.207C81.189 154.9 81.4087 154.547 81.5842 154.24C82.5499 152.745 83.5155 151.207 84.4373 149.669C85.2713 148.218 85.9734 146.679 86.8951 145.273C87.9925 143.602 89.3533 142.064 90.9773 140.833C92.382 139.778 94.006 138.723 95.7617 138.503C97.693 138.24 99.6682 138.503 101.6 138.767C103.838 139.074 106.033 139.427 108.184 140.042C110.027 140.526 112.836 141.141 113.188 143.382C113.539 145.757 110.554 145.492 109.105 145.097C106.911 144.525 104.804 143.426 102.521 143.294C100.766 143.206 98.8344 143.647 97.6053 145.009C97.4737 145.185 97.3418 145.361 97.2101 145.537C95.7178 145.141 94.1814 144.834 92.6014 144.701C91.7673 144.613 91.7673 145.931 92.6014 146.02C97.6052 146.548 102.434 148.437 106.516 151.383C107.525 152.13 108.491 152.921 109.369 153.757C110.071 154.416 111.607 155.647 110.905 156.746C110.378 157.582 109.413 157.67 108.491 157.537C106.603 155.867 104.453 154.416 102.214 153.274C99.1855 151.734 95.9372 150.723 92.6014 150.239C92.2501 150.196 91.8991 150.328 91.8113 150.68C91.7236 150.987 91.8991 151.427 92.2502 151.471C97.693 152.218 102.916 154.461 107.13 158.021C108.052 158.812 109.325 159.735 109.852 160.922C110.115 161.494 110.115 162.241 109.632 162.681C109.193 163.077 108.535 163.12 107.964 163.032C107.262 162.944 106.603 162.593 105.989 162.329C105.374 162.021 104.716 161.757 104.058 161.494C102.653 160.922 101.249 160.395 99.8 159.911C97.5175 159.163 95.235 158.548 92.8647 158.021C92.8208 158.021 92.777 157.977 92.7331 157.977C91.9869 157.756 91.2407 157.493 90.4506 157.493C90.4067 157.493 90.3189 157.493 90.2751 157.493C90.1872 157.493 90.0994 157.449 89.9676 157.449C89.1337 157.317 88.7827 158.592 89.6166 158.724C90.5384 158.9 91.504 159.076 92.4257 159.251C93.1281 159.472 93.8304 159.735 94.4888 159.999C96.4641 160.791 98.3954 161.67 100.239 162.724C101.687 163.516 103.268 164.395 104.321 165.669C104.365 165.757 104.277 165.626 104.409 165.757C104.453 165.802 104.497 165.845 104.497 165.89C104.54 165.933 104.541 165.977 104.584 166.021C104.584 166.021 104.584 166.021 104.628 166.109C104.628 166.153 104.628 166.198 104.672 166.241V166.286C104.628 166.329 104.628 166.372 104.584 166.372C104.584 166.372 104.584 166.372 104.54 166.372C104.453 166.417 104.409 166.461 104.321 166.505C104.321 166.505 104.145 166.593 104.014 166.593C103.706 166.681 103.355 166.768 103.004 166.813C98.7026 167.471 94.3132 165.845 90.2751 164.658C89.441 164.439 89.09 165.714 89.9239 165.933C91.3724 166.329 92.821 166.813 94.3133 167.208C94.3133 167.471 94.2694 167.736 94.2255 168C93.8743 169.89 92.8208 171.56 91.5918 172.923C89.8361 174.814 87.6852 176.087 85.3589 176.967C77.9848 168.219 79.5649 159.384 80.9695 155.207ZM41.7287 73.7074C41.7726 73.7074 41.7726 73.7074 41.8166 73.7074C41.8604 73.7954 41.9483 73.8833 41.9921 73.9712L41.7287 73.7074ZM64.3778 84.5214C58.8912 84.7412 53.4484 82.9829 49.0591 79.6859C46.601 77.8396 44.494 75.5537 42.9139 72.9162C42.8262 72.7404 42.6505 72.6525 42.475 72.6086C45.3281 66.718 47.9616 60.7395 50.5075 54.6732C51.6487 54.6292 52.746 54.3655 53.7555 53.794C54.0627 53.6183 54.1945 53.2226 54.0188 52.9148C53.8433 52.6072 53.4482 52.4753 53.1411 52.6511C50.6391 54.0577 47.1278 53.3105 45.3719 51.0686C43.6601 48.7827 43.8795 45.1781 45.8986 43.156C47.9177 41.1339 51.5169 40.9141 53.7995 42.6285C54.1067 42.8483 54.5018 42.8043 54.7212 42.4966C54.9407 42.1888 54.8969 41.7933 54.5897 41.5735C54.4141 41.4416 54.2384 41.3537 54.1068 41.2218L55.2042 41.2657C59.7691 38.4523 59.0228 33.9685 60.2079 30.6277C61.9197 25.8362 64.4657 25.9241 67.5382 25.7043C72.1032 27.111 74.9562 31.1553 77.7654 34.7159C81.0574 38.848 84.2615 43.024 87.5535 47.2002C89.0459 49.0904 90.5384 50.9806 92.0307 52.8709C88.8704 53.7061 85.6662 54.5414 82.5058 55.3766C81.2768 55.6843 80.0477 55.9921 78.8188 56.2997C78.5554 56.3876 78.3359 56.6515 78.3359 56.9152C78.5554 62.2782 78.7748 67.6411 79.0383 73.0041C79.126 74.7185 79.2139 76.4329 79.3456 78.1912C79.3456 78.2792 79.3895 78.3671 79.3895 78.411C75.2635 82.1036 69.9085 84.2576 64.3778 84.5214ZM209.929 70.9381C209.929 70.9381 209.929 70.982 209.929 70.9381C209.885 70.894 209.841 70.8501 209.841 70.8062C209.885 70.8062 209.929 70.8062 209.973 70.8062C209.973 70.8501 209.973 70.894 209.929 70.9381ZM223.843 63.2013C223.009 64.0805 221.385 61.7946 220.946 61.311C218.884 58.8933 216.908 56.3437 215.108 53.7061C214.889 53.3544 214.625 53.0028 214.406 52.695C214.187 52.3433 214.011 52.2555 213.616 52.1237C212.87 51.8159 212.123 51.5521 211.378 51.3324C209.973 50.9367 208.524 50.7169 207.12 50.9367C204.31 51.4202 202.643 53.6622 202.292 56.3876C202.072 58.2779 201.896 60.8714 203.651 62.1462C204.793 62.9815 206.329 62.9374 207.646 62.9815C209.314 63.0694 210.983 63.1573 212.606 63.2452C213.045 63.2891 213.528 63.2892 214.011 63.2892C214.67 63.3331 215.372 63.465 216.03 63.5969C217.303 63.9046 218.796 65.0036 218.576 66.4982C218.4 67.9049 216.644 68.5204 215.46 68.7841C214.011 69.0918 212.518 69.2237 211.026 69.3116C209.359 69.4435 207.647 69.4874 205.979 69.7511C205.934 69.7511 205.934 69.7511 205.891 69.7951C204.574 69.927 203.213 70.0589 201.896 70.2787C198.692 70.7183 195.488 71.1579 192.239 71.2018C190.923 71.2458 189.606 71.1579 188.289 71.1138C188.201 70.894 188.07 70.7183 187.763 70.5864C186.183 69.7512 184.602 68.8281 183.066 67.9049C179.993 66.0147 176.965 63.9486 174.111 61.7506C173.761 61.4869 173.454 61.2232 173.146 60.9593C176.13 56.9591 179.905 53.5742 183.988 50.7169C186.578 48.9146 189.255 47.2881 192.02 45.7056C193.381 44.9143 194.786 44.1671 196.147 43.4197C197.331 42.8043 198.604 42.3207 199.965 42.2768C201.325 42.2329 202.599 42.5405 203.915 42.8923C205.144 43.2439 206.329 43.5516 207.559 43.8593C209.929 44.4747 212.343 45.1341 214.537 46.277C216.732 47.42 218.62 49.0464 219.981 51.1565C221.648 53.7061 222.658 56.5634 223.404 59.4648C223.58 60.1681 223.755 60.8715 223.931 61.5748C224.019 62.0584 224.238 62.8496 223.843 63.2013ZM212.65 55.8162C211.992 55.0249 210.938 54.5414 209.973 54.1457C208.524 53.5303 207.032 53.0907 205.451 52.9148C207.646 51.3323 210.895 52.4753 213.265 53.3984C214.713 55.5524 216.249 57.6185 217.874 59.6406C217.874 60.6956 217.874 61.7506 217.83 62.8056C217.084 62.4539 216.249 62.2341 215.416 62.1023C214.758 62.0143 214.142 61.9265 213.485 61.8825C213.397 60.8275 213.397 59.8164 213.397 58.7614C213.485 57.7064 213.397 56.6515 212.65 55.8162ZM210.455 58.2779C208.964 57.6624 208.086 56.2558 207.778 54.7173C208.524 54.937 209.271 55.2007 209.973 55.5524C210.895 55.9919 211.904 56.4756 212.08 57.5746C212.256 58.6735 212.035 59.9044 212.123 61.0034C212.123 61.2671 212.168 61.5748 212.168 61.8386C212.08 61.8386 211.948 61.8386 211.861 61.8386C211.773 61.8386 211.728 61.8386 211.64 61.8825C211.378 61.8825 211.114 61.8386 210.807 61.8386C210.763 60.8714 210.719 59.8604 210.763 58.8933C210.807 58.6296 210.675 58.3657 210.455 58.2779ZM206.857 58.4537C205.364 57.8822 204.398 56.4756 204.003 54.981C204.091 54.7171 204.222 54.4095 204.398 54.1897C205.101 54.2336 205.76 54.3216 206.462 54.4534C206.636 56.4315 207.734 58.4098 209.49 59.3329C209.49 60.1681 209.49 61.0034 209.534 61.8386C208.919 61.7946 208.305 61.7946 207.69 61.7506C207.559 61.7506 207.427 61.7506 207.252 61.7506C207.207 60.9154 207.252 60.0362 207.339 59.201C207.339 58.7614 207.076 58.5416 206.857 58.4537ZM205.934 61.5748C205.189 61.4869 204.486 61.2671 204.048 60.6956C203.389 59.8164 203.432 58.4977 203.52 57.4426C203.52 57.3548 203.52 57.3108 203.52 57.2228C204.091 58.19 204.925 58.9812 205.979 59.5087C205.934 60.1681 205.934 60.8715 205.934 61.5748ZM76.0536 123.029C77.7216 120.744 78.336 117.842 77.8532 115.073C77.6337 113.886 77.2386 112.743 76.624 111.688C76.0096 110.589 75.1318 109.754 74.2979 108.787C73.5078 107.864 72.7614 106.852 72.6298 105.578C72.4541 104.215 73.1127 103.072 73.8589 102.017C74.5612 101.094 75.2195 100.215 75.5268 99.0718C75.7901 98.1046 75.7901 97.0497 75.5706 96.0387C75.1318 94.0166 73.8149 92.0824 71.8398 91.2911C71.0497 90.9833 71.4007 89.7086 72.1908 90.0162C74.6489 90.9833 76.3607 93.2692 76.8435 95.8189C77.063 96.9178 77.063 98.0607 76.7997 99.1597C76.5362 100.391 75.8779 101.402 75.1318 102.413C74.3856 103.424 73.5515 104.523 73.9465 105.841C74.2977 107.116 75.4391 108.083 76.273 109.051C79.7845 113.051 80.2673 119.293 77.107 123.645C76.668 124.348 75.5268 123.689 76.0536 123.029ZM75.3951 64.4322C75.5708 64.7398 75.4829 65.1794 75.1757 65.3553C73.2883 66.3664 70.6547 65.5751 69.733 63.6409C69.6013 63.3331 69.6451 62.9376 69.9524 62.7178C70.2596 62.5419 70.6984 62.6298 70.8739 62.9376C70.9179 63.0254 70.962 63.1573 71.0497 63.2452C71.0937 63.2891 71.0935 63.3331 71.1374 63.3771C71.1374 63.3771 71.1374 63.4211 71.1814 63.4211C71.313 63.5969 71.4447 63.7287 71.6203 63.8607C71.6642 63.9046 71.708 63.9046 71.7518 63.9486C71.8397 63.9926 71.9275 64.0804 72.0153 64.1244C72.1031 64.1683 72.1909 64.2124 72.2786 64.2563H72.3226C72.3665 64.2563 72.4103 64.3002 72.4542 64.3002C72.5419 64.3442 72.6737 64.3442 72.7615 64.3881C72.8054 64.3881 72.8492 64.3881 72.8932 64.4322H72.981C73.1566 64.4322 73.332 64.4761 73.5515 64.4322C73.5955 64.4322 73.6394 64.4322 73.6834 64.4322C73.6834 64.4322 73.6832 64.4322 73.7271 64.4322C73.7271 64.4322 73.7271 64.4322 73.771 64.4322C73.8588 64.4322 73.9466 64.3881 74.0344 64.3881C74.1222 64.3442 74.254 64.3442 74.3417 64.3002C74.3857 64.2563 74.4295 64.2563 74.5173 64.2124C74.8245 64.0365 75.2196 64.1244 75.3951 64.4322ZM69.25 118.106C69.4695 119.293 70.3911 120.26 71.5763 120.304C72.937 120.392 74.1661 119.249 74.5173 118.018C74.8685 116.743 74.2538 115.381 73.0687 114.809C71.8397 114.238 70.2158 114.326 69.25 115.381C69.0306 115.644 68.9867 116.084 69.25 116.304C69.294 116.348 69.3377 116.392 69.3817 116.392C69.1622 116.963 69.1184 117.535 69.25 118.106ZM71.0497 118.765C70.962 118.721 71.0497 118.765 71.0497 118.765V118.765ZM70.479 117.359C70.479 117.359 70.479 117.315 70.479 117.271C70.479 117.227 70.479 117.183 70.479 117.139C70.479 117.095 70.5229 117.051 70.5229 116.963C70.5229 116.919 70.5669 116.875 70.5669 116.831V116.787C70.6107 116.743 70.6106 116.699 70.6545 116.655L70.6984 116.611C70.6984 116.568 70.7424 116.568 70.7424 116.568C70.7863 116.523 70.8301 116.48 70.8739 116.436L70.9179 116.392C70.9619 116.348 71.0496 116.348 71.0934 116.304C71.269 116.216 71.4008 115.996 71.4008 115.776C71.4447 115.776 71.4885 115.776 71.5324 115.776C71.5763 115.776 71.6203 115.776 71.6642 115.776H71.7081C71.8398 115.82 71.9275 115.82 72.0593 115.864C72.1031 115.864 72.147 115.908 72.1908 115.908H72.2348C72.3226 115.952 72.4104 115.996 72.5421 116.04C72.586 116.084 72.6298 116.084 72.6737 116.128C72.7614 116.216 72.8492 116.26 72.8932 116.348C72.8932 116.348 72.8932 116.348 72.937 116.392C72.981 116.436 72.981 116.48 73.025 116.523C73.0688 116.568 73.0687 116.611 73.1126 116.655C73.1126 116.655 73.1127 116.699 73.1565 116.699C73.1565 116.743 73.2005 116.831 73.2005 116.875C73.2005 116.875 73.2005 116.963 73.2445 117.007C73.2445 117.051 73.2445 117.095 73.2445 117.095C73.2445 117.183 73.2445 117.227 73.2445 117.315C73.2445 117.315 73.2445 117.315 73.2445 117.359C73.2445 117.359 73.2445 117.359 73.2445 117.403C73.2445 117.447 73.2443 117.491 73.2005 117.535C73.2005 117.579 73.1565 117.666 73.1565 117.71C73.1565 117.754 73.1565 117.754 73.1126 117.798C73.0687 117.886 73.0249 118.018 72.937 118.106C72.8932 118.15 72.8492 118.194 72.8492 118.238C72.8492 118.282 72.8054 118.282 72.7615 118.326C72.6737 118.414 72.5859 118.502 72.4981 118.59L72.4542 118.634C72.4103 118.677 72.3226 118.721 72.2786 118.765C72.2348 118.809 72.1909 118.809 72.1471 118.853C72.1032 118.853 72.0593 118.897 72.0593 118.897C71.9714 118.941 71.8397 118.941 71.7518 118.985C71.7518 118.985 71.7521 118.985 71.7081 118.985C71.6643 118.985 71.5763 118.985 71.5324 118.985C71.4885 118.985 71.4886 118.985 71.4447 118.985C71.4008 118.985 71.357 118.985 71.2692 118.941C71.2253 118.941 71.1812 118.897 71.1374 118.897H71.0934C71.0496 118.853 71.0057 118.853 70.9619 118.809C70.9619 118.809 70.9619 118.809 70.9179 118.809C70.8741 118.765 70.7424 118.634 70.7424 118.634C70.6986 118.59 70.6545 118.546 70.6545 118.502C70.6106 118.414 70.5668 118.326 70.5229 118.238C70.5229 118.194 70.479 118.15 70.479 118.062C70.479 118.018 70.4352 117.754 70.3914 117.71V117.666C70.3914 117.622 70.3914 117.579 70.3914 117.535C70.4791 117.491 70.479 117.403 70.479 117.359Z" fill="#3F4254"/>
<path d="M220.211 59.0513L219.897 59.2258C219.27 60.5339 218.688 61.8857 218.061 63.1939C219.36 63.9789 220.3 65.4178 220.121 66.9441C219.853 68.6883 218.151 69.6913 216.539 70.1273C215.912 70.3018 215.285 70.4326 214.658 70.5199C213.226 73.5723 211.837 76.6248 210.404 79.6772C210.001 80.593 209.554 81.5524 209.733 82.5117C209.911 83.7327 210.941 84.6047 211.837 85.4333C215.822 89.1835 218.957 93.7621 220.927 98.8205C226.838 90.448 232.705 82.1191 238.615 73.7467C233.779 67.1184 227.868 62.4526 220.211 59.0513Z" fill="#9ED5F0"/>
<path d="M218.244 71.7063C218.733 75.2962 218.29 78.9289 216.958 82.3478C216.736 82.9461 217.623 83.4162 218.068 82.9888C221.974 79.0144 227.48 76.6211 233.162 76.3647C234.005 76.3219 234.005 75.0398 233.162 75.0825C227.124 75.3389 221.309 77.8604 217.135 82.0913C217.49 82.305 217.89 82.5187 218.244 82.7324C219.621 79.228 220.065 75.4244 219.577 71.7491C219.443 70.8943 218.112 70.8943 218.244 71.7063Z" fill="#3F4254"/>
</g>
<defs>
<clipPath id="clip0_249_937">
<rect width="241.026" height="188" fill="white"/>
</clipPath>
</defs>
</svg>
