<svg width="207" height="128" viewBox="0 0 207 128" fill="none" xmlns="http://www.w3.org/2000/svg">
<g clip-path="url(#clip0_249_1168)">
<rect width="207" height="128" rx="10" fill="white"/>
<path d="M120 40V41H121V40H120ZM119 0V40H121V0H119ZM120 39H0V41H120V39Z" fill="#E5E7EB" mask="url(#path-3-inside-1_249_1168)"/>
<path d="M28.0028 15.2727V24H26.7926L22.3565 17.5994H22.2756V24H20.9588V15.2727H22.1776L26.6179 21.6818H26.6989V15.2727H28.0028ZM30.7209 24H29.3231L32.4638 15.2727H33.9851L37.1257 24H35.728L33.2606 16.858H33.1925L30.7209 24ZM30.9552 20.5824H35.4893V21.6903H30.9552V20.5824ZM38.446 15.2727H40.044L42.8224 22.0568H42.9247L45.7031 15.2727H47.3011V24H46.0483V17.6847H45.9673L43.3934 23.9872H42.3537L39.7798 17.6804H39.6988V24H38.446V15.2727ZM49.2755 24V15.2727H54.7471V16.4062H50.5923V19.0653H54.4616V20.1946H50.5923V22.8665H54.7983V24H49.2755Z" fill="#6B7280"/>
<path d="M120 83H0V85H120V83Z" fill="#E5E7EB" mask="url(#path-6-inside-2_249_1168)"/>
<path d="M25.076 56.8182H26.6072V64.0369C26.6072 64.6899 26.478 65.2483 26.2195 65.7124C25.9643 66.1764 25.6046 66.531 25.1406 66.7763C24.6766 67.0182 24.133 67.1392 23.5099 67.1392C22.9366 67.1392 22.4212 67.0348 21.9638 66.826C21.5097 66.6172 21.1501 66.3139 20.8849 65.9162C20.6231 65.5152 20.4922 65.0279 20.4922 64.4545H22.0185C22.0185 64.7363 22.0831 64.9799 22.2124 65.1854C22.3449 65.3909 22.5256 65.5516 22.7543 65.6676C22.9863 65.7803 23.2514 65.8366 23.5497 65.8366C23.8745 65.8366 24.1496 65.7687 24.375 65.6328C24.6037 65.4936 24.7777 65.2898 24.897 65.0213C25.0163 64.7528 25.076 64.4247 25.076 64.0369V56.8182ZM32.0105 67.1541C31.2946 67.1541 30.6698 66.9901 30.1362 66.6619C29.6026 66.3338 29.1883 65.8748 28.8933 65.2848C28.5984 64.6948 28.4509 64.0054 28.4509 63.2166C28.4509 62.4245 28.5984 61.7318 28.8933 61.1385C29.1883 60.5452 29.6026 60.0845 30.1362 59.7564C30.6698 59.4283 31.2946 59.2642 32.0105 59.2642C32.7264 59.2642 33.3512 59.4283 33.8848 59.7564C34.4184 60.0845 34.8327 60.5452 35.1277 61.1385C35.4227 61.7318 35.5702 62.4245 35.5702 63.2166C35.5702 64.0054 35.4227 64.6948 35.1277 65.2848C34.8327 65.8748 34.4184 66.3338 33.8848 66.6619C33.3512 66.9901 32.7264 67.1541 32.0105 67.1541ZM32.0155 65.9062C32.4795 65.9062 32.864 65.7836 33.1689 65.5384C33.4738 65.2931 33.6992 64.9666 33.845 64.5589C33.9942 64.1513 34.0688 63.7022 34.0688 63.2116C34.0688 62.7244 33.9942 62.277 33.845 61.8693C33.6992 61.4583 33.4738 61.1286 33.1689 60.88C32.864 60.6314 32.4795 60.5071 32.0155 60.5071C31.5482 60.5071 31.1604 60.6314 30.8521 60.88C30.5472 61.1286 30.3202 61.4583 30.171 61.8693C30.0252 62.277 29.9523 62.7244 29.9523 63.2116C29.9523 63.7022 30.0252 64.1513 30.171 64.5589C30.3202 64.9666 30.5472 65.2931 30.8521 65.5384C31.1604 65.7836 31.5482 65.9062 32.0155 65.9062ZM38.786 62.4659V67H37.2994V56.8182H38.7661V60.6065H38.8605C39.0395 60.1955 39.3129 59.8691 39.6808 59.6271C40.0487 59.3852 40.5293 59.2642 41.1226 59.2642C41.6463 59.2642 42.1037 59.3719 42.4948 59.5874C42.8892 59.8028 43.1941 60.1243 43.4095 60.5518C43.6283 60.9761 43.7377 61.5064 43.7377 62.1428V67H42.2512V62.3217C42.2512 61.7616 42.107 61.3274 41.8186 61.0192C41.5303 60.7076 41.1292 60.5518 40.6155 60.5518C40.2642 60.5518 39.9493 60.6264 39.6709 60.7756C39.3958 60.9247 39.1787 61.1435 39.0196 61.4318C38.8638 61.7169 38.786 62.0616 38.786 62.4659ZM47.2778 62.4659V67H45.7913V59.3636H47.2182V60.6065H47.3126C47.4883 60.2022 47.7634 59.8774 48.1379 59.6321C48.5158 59.3868 48.9914 59.2642 49.5648 59.2642C50.0851 59.2642 50.5408 59.3736 50.9319 59.5923C51.323 59.8078 51.6263 60.1293 51.8417 60.5568C52.0572 60.9844 52.1649 61.513 52.1649 62.1428V67H50.6784V62.3217C50.6784 61.7682 50.5342 61.3357 50.2459 61.0241C49.9575 60.7093 49.5614 60.5518 49.0577 60.5518C48.713 60.5518 48.4064 60.6264 48.1379 60.7756C47.8728 60.9247 47.6623 61.1435 47.5065 61.4318C47.3541 61.7169 47.2778 62.0616 47.2778 62.4659ZM58.1229 67V56.8182H61.8516C62.5741 56.8182 63.1724 56.9375 63.6463 57.1761C64.1203 57.4115 64.4749 57.7313 64.7103 58.1357C64.9456 58.5367 65.0632 58.9891 65.0632 59.4929C65.0632 59.9171 64.9854 60.2751 64.8296 60.5668C64.6738 60.8551 64.465 61.0871 64.2032 61.2628C63.9446 61.4351 63.6596 61.5611 63.348 61.6406V61.7401C63.6861 61.7566 64.0159 61.866 64.3374 62.0682C64.6622 62.267 64.9307 62.5504 65.1428 62.9183C65.3549 63.2862 65.461 63.7337 65.461 64.2607C65.461 64.781 65.3383 65.2483 65.0931 65.6626C64.8511 66.0736 64.4766 66.4001 63.9695 66.642C63.4624 66.8807 62.8144 67 62.0256 67H58.1229ZM59.6591 65.6825H61.8765C62.6122 65.6825 63.1392 65.54 63.4574 65.255C63.7756 64.9699 63.9347 64.6136 63.9347 64.1861C63.9347 63.8646 63.8535 63.5696 63.6911 63.3011C63.5287 63.0327 63.2967 62.8189 62.9951 62.6598C62.6968 62.5007 62.3421 62.4212 61.9311 62.4212H59.6591V65.6825ZM59.6591 61.223H61.7174C62.0621 61.223 62.372 61.1567 62.6471 61.0241C62.9255 60.8916 63.1459 60.706 63.3083 60.4673C63.474 60.2254 63.5569 59.9403 63.5569 59.6122C63.5569 59.1913 63.4094 58.8383 63.1144 58.5533C62.8194 58.2682 62.367 58.1257 61.7571 58.1257H59.6591V61.223ZM67.2337 67V59.3636H68.6705V60.5767H68.7501C68.8893 60.1657 69.1345 59.8426 69.4859 59.6072C69.8405 59.3686 70.2416 59.2493 70.689 59.2493C70.7818 59.2493 70.8912 59.2526 71.0171 59.2592C71.1464 59.2659 71.2475 59.2741 71.3204 59.2841V60.706C71.2607 60.6894 71.1547 60.6712 71.0022 60.6513C70.8497 60.6281 70.6973 60.6165 70.5448 60.6165C70.1935 60.6165 69.8803 60.6911 69.6052 60.8402C69.3334 60.986 69.118 61.1899 68.9589 61.4517C68.7998 61.7102 68.7202 62.0052 68.7202 62.3366V67H67.2337ZM75.62 67.1541C74.9041 67.1541 74.2793 66.9901 73.7457 66.6619C73.2121 66.3338 72.7978 65.8748 72.5028 65.2848C72.2078 64.6948 72.0603 64.0054 72.0603 63.2166C72.0603 62.4245 72.2078 61.7318 72.5028 61.1385C72.7978 60.5452 73.2121 60.0845 73.7457 59.7564C74.2793 59.4283 74.9041 59.2642 75.62 59.2642C76.3359 59.2642 76.9606 59.4283 77.4943 59.7564C78.0279 60.0845 78.4422 60.5452 78.7372 61.1385C79.0321 61.7318 79.1796 62.4245 79.1796 63.2166C79.1796 64.0054 79.0321 64.6948 78.7372 65.2848C78.4422 65.8748 78.0279 66.3338 77.4943 66.6619C76.9606 66.9901 76.3359 67.1541 75.62 67.1541ZM75.6249 65.9062C76.089 65.9062 76.4734 65.7836 76.7784 65.5384C77.0833 65.2931 77.3087 64.9666 77.4545 64.5589C77.6036 64.1513 77.6782 63.7022 77.6782 63.2116C77.6782 62.7244 77.6036 62.277 77.4545 61.8693C77.3087 61.4583 77.0833 61.1286 76.7784 60.88C76.4734 60.6314 76.089 60.5071 75.6249 60.5071C75.1576 60.5071 74.7698 60.6314 74.4616 60.88C74.1567 61.1286 73.9296 61.4583 73.7805 61.8693C73.6347 62.277 73.5617 62.7244 73.5617 63.2116C73.5617 63.7022 73.6347 64.1513 73.7805 64.5589C73.9296 64.9666 74.1567 65.2931 74.4616 65.5384C74.7698 65.7836 75.1576 65.9062 75.6249 65.9062ZM82.332 67L80.0849 59.3636H81.6211L83.1175 64.9716H83.1921L84.6935 59.3636H86.2297L87.7212 64.9467H87.7958L89.2823 59.3636H90.8185L88.5763 67H87.06L85.5089 61.4865H85.3945L83.8434 67H82.332ZM93.7857 62.4659V67H92.2992V59.3636H93.7261V60.6065H93.8205C93.9962 60.2022 94.2713 59.8774 94.6458 59.6321C95.0236 59.3868 95.4993 59.2642 96.0726 59.2642C96.593 59.2642 97.0487 59.3736 97.4398 59.5923C97.8309 59.8078 98.1342 60.1293 98.3496 60.5568C98.5651 60.9844 98.6728 61.513 98.6728 62.1428V67H97.1863V62.3217C97.1863 61.7682 97.0421 61.3357 96.7538 61.0241C96.4654 60.7093 96.0693 60.5518 95.5655 60.5518C95.2208 60.5518 94.9143 60.6264 94.6458 60.7756C94.3806 60.9247 94.1702 61.1435 94.0144 61.4318C93.8619 61.7169 93.7857 62.0616 93.7857 62.4659Z" fill="#1F2937"/>
<path d="M120 127H0V129H120V127Z" fill="#E5E7EB" mask="url(#path-9-inside-3_249_1168)"/>
<path d="M25.076 100.818H26.6072V108.037C26.6072 108.69 26.478 109.248 26.2195 109.712C25.9643 110.176 25.6046 110.531 25.1406 110.776C24.6766 111.018 24.133 111.139 23.5099 111.139C22.9366 111.139 22.4212 111.035 21.9638 110.826C21.5097 110.617 21.1501 110.314 20.8849 109.916C20.6231 109.515 20.4922 109.028 20.4922 108.455H22.0185C22.0185 108.736 22.0831 108.98 22.2124 109.185C22.3449 109.391 22.5256 109.552 22.7543 109.668C22.9863 109.78 23.2514 109.837 23.5497 109.837C23.8745 109.837 24.1496 109.769 24.375 109.633C24.6037 109.494 24.7777 109.29 24.897 109.021C25.0163 108.753 25.076 108.425 25.076 108.037V100.818ZM28.7939 111V103.364H30.2804V111H28.7939ZM29.5446 102.185C29.2861 102.185 29.064 102.099 28.8784 101.927C28.6961 101.751 28.605 101.542 28.605 101.3C28.605 101.055 28.6961 100.846 28.8784 100.674C29.064 100.498 29.2861 100.411 29.5446 100.411C29.8031 100.411 30.0235 100.498 30.2058 100.674C30.3914 100.846 30.4842 101.055 30.4842 101.3C30.4842 101.542 30.3914 101.751 30.2058 101.927C30.0235 102.099 29.8031 102.185 29.5446 102.185ZM32.3502 111V103.364H33.7771V104.607H33.8715C34.0306 104.186 34.2908 103.857 34.6521 103.622C35.0133 103.384 35.4459 103.264 35.9497 103.264C36.4601 103.264 36.8876 103.384 37.2323 103.622C37.5803 103.861 37.8372 104.189 38.0029 104.607H38.0825C38.2648 104.199 38.5548 103.874 38.9525 103.632C39.3502 103.387 39.8242 103.264 40.3744 103.264C41.0671 103.264 41.6322 103.481 42.0697 103.915C42.5105 104.35 42.7309 105.004 42.7309 105.879V111H41.2444V106.018C41.2444 105.501 41.1035 105.127 40.8218 104.895C40.5401 104.663 40.2037 104.547 39.8126 104.547C39.3287 104.547 38.9525 104.696 38.684 104.994C38.4156 105.289 38.2813 105.669 38.2813 106.133V111H36.7998V105.924C36.7998 105.51 36.6705 105.177 36.412 104.925C36.1535 104.673 35.8171 104.547 35.4028 104.547C35.1211 104.547 34.8609 104.621 34.6222 104.771C34.3869 104.916 34.1963 105.12 34.0505 105.382C33.908 105.644 33.8367 105.947 33.8367 106.292V111H32.3502ZM55.5783 104.035C55.4822 103.733 55.3529 103.463 55.1905 103.224C55.0314 102.982 54.8408 102.777 54.6188 102.608C54.3967 102.436 54.1432 102.305 53.8581 102.215C53.5764 102.126 53.2665 102.081 52.9284 102.081C52.355 102.081 51.838 102.228 51.3773 102.523C50.9166 102.818 50.552 103.251 50.2836 103.821C50.0184 104.388 49.8858 105.082 49.8858 105.904C49.8858 106.729 50.0201 107.427 50.2885 107.997C50.557 108.567 50.9249 109 51.3922 109.295C51.8595 109.59 52.3915 109.737 52.9881 109.737C53.5416 109.737 54.0238 109.625 54.4348 109.399C54.8491 109.174 55.169 108.856 55.3943 108.445C55.623 108.03 55.7374 107.543 55.7374 106.983L56.1351 107.058H53.2218V105.79H57.2239V106.948C57.2239 107.803 57.0416 108.546 56.677 109.175C56.3157 109.802 55.8153 110.286 55.1756 110.627C54.5392 110.969 53.8101 111.139 52.9881 111.139C52.0667 111.139 51.258 110.927 50.562 110.503C49.8693 110.079 49.329 109.477 48.9412 108.698C48.5534 107.916 48.3595 106.988 48.3595 105.914C48.3595 105.102 48.4722 104.373 48.6976 103.727C48.923 103.08 49.2395 102.532 49.6472 102.081C50.0582 101.627 50.5404 101.281 51.0939 101.042C51.6507 100.8 52.2589 100.679 52.9185 100.679C53.4687 100.679 53.9808 100.76 54.4547 100.923C54.932 101.085 55.3562 101.315 55.7274 101.614C56.102 101.912 56.4119 102.267 56.6571 102.678C56.9024 103.085 57.0681 103.538 57.1543 104.035H55.5783ZM59.1247 111V103.364H60.5615V104.577H60.641C60.7802 104.166 61.0255 103.843 61.3768 103.607C61.7314 103.369 62.1325 103.249 62.5799 103.249C62.6727 103.249 62.7821 103.253 62.9081 103.259C63.0373 103.266 63.1384 103.274 63.2113 103.284V104.706C63.1517 104.689 63.0456 104.671 62.8931 104.651C62.7407 104.628 62.5882 104.616 62.4358 104.616C62.0844 104.616 61.7712 104.691 61.4961 104.84C61.2243 104.986 61.0089 105.19 60.8498 105.452C60.6907 105.71 60.6112 106.005 60.6112 106.337V111H59.1247ZM67.5855 111.154C66.8331 111.154 66.1851 110.993 65.6416 110.672C65.1013 110.347 64.6837 109.891 64.3887 109.305C64.0971 108.715 63.9512 108.024 63.9512 107.232C63.9512 106.449 64.0971 105.76 64.3887 105.163C64.6837 104.567 65.0947 104.101 65.6217 103.766C66.152 103.432 66.7718 103.264 67.4811 103.264C67.9119 103.264 68.3296 103.335 68.7339 103.478C69.1383 103.621 69.5012 103.844 69.8227 104.149C70.1442 104.454 70.3977 104.85 70.5834 105.337C70.769 105.821 70.8618 106.41 70.8618 107.102V107.629H64.7914V106.516H69.4051C69.4051 106.125 69.3255 105.778 69.1664 105.477C69.0074 105.172 68.7836 104.931 68.4953 104.756C68.2102 104.58 67.8755 104.492 67.491 104.492C67.0734 104.492 66.7088 104.595 66.3973 104.8C66.089 105.003 65.8504 105.268 65.6814 105.596C65.5156 105.921 65.4328 106.274 65.4328 106.655V107.525C65.4328 108.035 65.5223 108.469 65.7012 108.827C65.8835 109.185 66.1371 109.459 66.4619 109.648C66.7867 109.833 67.1662 109.926 67.6004 109.926C67.8821 109.926 68.139 109.886 68.371 109.807C68.603 109.724 68.8035 109.601 68.9726 109.439C69.1416 109.277 69.2709 109.076 69.3603 108.837L70.7673 109.091C70.6546 109.505 70.4524 109.868 70.1608 110.18C69.8724 110.488 69.5095 110.728 69.072 110.901C68.6378 111.07 68.1423 111.154 67.5855 111.154ZM75.8723 111.154C75.1199 111.154 74.472 110.993 73.9284 110.672C73.3881 110.347 72.9705 109.891 72.6755 109.305C72.3839 108.715 72.238 108.024 72.238 107.232C72.238 106.449 72.3839 105.76 72.6755 105.163C72.9705 104.567 73.3815 104.101 73.9085 103.766C74.4388 103.432 75.0586 103.264 75.7679 103.264C76.1987 103.264 76.6164 103.335 77.0207 103.478C77.4251 103.621 77.788 103.844 78.1095 104.149C78.431 104.454 78.6845 104.85 78.8702 105.337C79.0558 105.821 79.1486 106.41 79.1486 107.102V107.629H73.0782V106.516H77.6919C77.6919 106.125 77.6123 105.778 77.4532 105.477C77.2942 105.172 77.0704 104.931 76.7821 104.756C76.497 104.58 76.1623 104.492 75.7778 104.492C75.3602 104.492 74.9956 104.595 74.6841 104.8C74.3758 105.003 74.1372 105.268 73.9682 105.596C73.8024 105.921 73.7196 106.274 73.7196 106.655V107.525C73.7196 108.035 73.8091 108.469 73.988 108.827C74.1703 109.185 74.4239 109.459 74.7487 109.648C75.0735 109.833 75.453 109.926 75.8872 109.926C76.1689 109.926 76.4258 109.886 76.6578 109.807C76.8898 109.724 77.0903 109.601 77.2594 109.439C77.4284 109.277 77.5577 109.076 77.6471 108.837L79.0541 109.091C78.9414 109.505 78.7392 109.868 78.4476 110.18C78.1592 110.488 77.7963 110.728 77.3588 110.901C76.9246 111.07 76.4291 111.154 75.8723 111.154ZM82.3544 106.466V111H80.8679V103.364H82.2947V104.607H82.3892C82.5649 104.202 82.8399 103.877 83.2145 103.632C83.5923 103.387 84.0679 103.264 84.6413 103.264C85.1617 103.264 85.6174 103.374 86.0085 103.592C86.3996 103.808 86.7029 104.129 86.9183 104.557C87.1337 104.984 87.2415 105.513 87.2415 106.143V111H85.755V106.322C85.755 105.768 85.6108 105.336 85.3224 105.024C85.0341 104.709 84.638 104.552 84.1342 104.552C83.7895 104.552 83.4829 104.626 83.2145 104.776C82.9493 104.925 82.7389 105.143 82.5831 105.432C82.4306 105.717 82.3544 106.062 82.3544 106.466Z" fill="#1F2937"/>
<path d="M207 40V41H208V40H207ZM206 0V40H208V0H206ZM207 39H120V41H207V39Z" fill="#E5E7EB" mask="url(#path-12-inside-4_249_1168)"/>
<path d="M141.696 24H140.298L143.439 15.2727H144.96L148.101 24H146.703L144.236 16.858H144.168L141.696 24ZM141.93 20.5824H146.464V21.6903H141.93V20.5824ZM156.26 18.1108H154.93C154.879 17.8267 154.784 17.5767 154.645 17.3608C154.505 17.1449 154.335 16.9616 154.133 16.8111C153.931 16.6605 153.706 16.5469 153.456 16.4702C153.208 16.3935 152.946 16.3551 152.667 16.3551C152.164 16.3551 151.714 16.4815 151.316 16.7344C150.922 16.9872 150.609 17.358 150.379 17.8466C150.152 18.3352 150.038 18.9318 150.038 19.6364C150.038 20.3466 150.152 20.946 150.379 21.4347C150.609 21.9233 150.923 22.2926 151.321 22.5426C151.718 22.7926 152.166 22.9176 152.663 22.9176C152.939 22.9176 153.2 22.8807 153.447 22.8068C153.697 22.7301 153.923 22.6179 154.125 22.4702C154.326 22.3224 154.497 22.142 154.636 21.929C154.778 21.7131 154.876 21.4659 154.93 21.1875L156.26 21.1918C156.189 21.6207 156.051 22.0156 155.846 22.3764C155.645 22.7344 155.385 23.044 155.066 23.3054C154.751 23.5639 154.39 23.7642 153.984 23.9062C153.578 24.0483 153.135 24.1193 152.654 24.1193C151.899 24.1193 151.225 23.9403 150.635 23.5824C150.044 23.2216 149.578 22.706 149.237 22.0355C148.899 21.3651 148.73 20.5653 148.73 19.6364C148.73 18.7045 148.9 17.9048 149.241 17.2372C149.582 16.5668 150.048 16.0526 150.639 15.6946C151.23 15.3338 151.902 15.1534 152.654 15.1534C153.118 15.1534 153.549 15.2202 153.95 15.3537C154.353 15.4844 154.716 15.6776 155.037 15.9332C155.358 16.1861 155.623 16.4957 155.833 16.8622C156.044 17.2259 156.186 17.642 156.26 18.1108ZM157.465 16.4062V15.2727H164.219V16.4062H161.496V24H160.184V16.4062H157.465ZM167.088 15.2727V24H165.772V15.2727H167.088ZM176.647 19.6364C176.647 20.5682 176.477 21.3693 176.136 22.0398C175.795 22.7074 175.327 23.2216 174.734 23.5824C174.143 23.9403 173.471 24.1193 172.718 24.1193C171.962 24.1193 171.288 23.9403 170.694 23.5824C170.103 23.2216 169.637 22.706 169.296 22.0355C168.955 21.3651 168.785 20.5653 168.785 19.6364C168.785 18.7045 168.955 17.9048 169.296 17.2372C169.637 16.5668 170.103 16.0526 170.694 15.6946C171.288 15.3338 171.962 15.1534 172.718 15.1534C173.471 15.1534 174.143 15.3338 174.734 15.6946C175.327 16.0526 175.795 16.5668 176.136 17.2372C176.477 17.9048 176.647 18.7045 176.647 19.6364ZM175.343 19.6364C175.343 18.9261 175.228 18.3281 174.998 17.8423C174.771 17.3537 174.458 16.9844 174.06 16.7344C173.665 16.4815 173.218 16.3551 172.718 16.3551C172.215 16.3551 171.766 16.4815 171.371 16.7344C170.977 16.9844 170.664 17.3537 170.434 17.8423C170.207 18.3281 170.093 18.9261 170.093 19.6364C170.093 20.3466 170.207 20.946 170.434 21.4347C170.664 21.9205 170.977 22.2898 171.371 22.5426C171.766 22.7926 172.215 22.9176 172.718 22.9176C173.218 22.9176 173.665 22.7926 174.06 22.5426C174.458 22.2898 174.771 21.9205 174.998 21.4347C175.228 20.946 175.343 20.3466 175.343 19.6364ZM185.393 15.2727V24H184.182L179.746 17.5994H179.665V24H178.349V15.2727H179.567L184.008 21.6818H184.089V15.2727H185.393Z" fill="#6B7280"/>
<path d="M207 83H120V85H207V83Z" fill="#E5E7EB" mask="url(#path-15-inside-5_249_1168)"/>
<g clip-path="url(#clip1_249_1168)">
<path d="M144.816 67H141.365V56.8182H144.885C145.896 56.8182 146.765 57.022 147.49 57.4297C148.22 57.834 148.78 58.4157 149.171 59.1747C149.562 59.9337 149.757 60.8419 149.757 61.8991C149.757 62.9598 149.56 63.8712 149.166 64.6335C148.775 65.3958 148.21 65.9808 147.471 66.3885C146.735 66.7962 145.85 67 144.816 67ZM143.21 65.4041H144.726C145.435 65.4041 146.027 65.2749 146.501 65.0163C146.975 64.7545 147.331 64.3651 147.57 63.848C147.809 63.3277 147.928 62.678 147.928 61.8991C147.928 61.1203 147.809 60.474 147.57 59.9602C147.331 59.4432 146.978 59.0571 146.511 58.8018C146.047 58.5433 145.47 58.4141 144.781 58.4141H143.21V65.4041ZM154.881 67.1491C154.115 67.1491 153.454 66.9901 152.897 66.6719C152.344 66.3504 151.918 65.8963 151.62 65.3097C151.321 64.7197 151.172 64.0253 151.172 63.2266C151.172 62.4411 151.321 61.7517 151.62 61.1584C151.921 60.5618 152.342 60.0978 152.882 59.7663C153.423 59.4316 154.057 59.2642 154.787 59.2642C155.257 59.2642 155.701 59.3404 156.119 59.4929C156.54 59.642 156.911 59.8741 157.233 60.1889C157.557 60.5038 157.813 60.9048 157.998 61.392C158.184 61.8759 158.277 62.4527 158.277 63.1222V63.674H152.017V62.4609H156.552C156.548 62.1162 156.474 61.8097 156.328 61.5412C156.182 61.2694 155.978 61.0556 155.716 60.8999C155.458 60.7441 155.156 60.6662 154.811 60.6662C154.444 60.6662 154.12 60.7557 153.842 60.9347C153.564 61.1103 153.346 61.3423 153.191 61.6307C153.038 61.9157 152.96 62.2289 152.957 62.5703V63.6293C152.957 64.0734 153.038 64.4545 153.201 64.7727C153.363 65.0876 153.59 65.3295 153.882 65.4986C154.173 65.6643 154.515 65.7472 154.906 65.7472C155.168 65.7472 155.405 65.7107 155.617 65.6378C155.829 65.5616 156.013 65.4505 156.169 65.3047C156.324 65.1589 156.442 64.9782 156.522 64.7628L158.202 64.9517C158.096 65.3958 157.894 65.7836 157.596 66.1151C157.301 66.4432 156.923 66.6984 156.462 66.8807C156.001 67.0597 155.474 67.1491 154.881 67.1491ZM161.669 56.8182V67H159.869V56.8182H161.669ZM166.97 67.1491C166.205 67.1491 165.543 66.9901 164.987 66.6719C164.433 66.3504 164.007 65.8963 163.709 65.3097C163.411 64.7197 163.261 64.0253 163.261 63.2266C163.261 62.4411 163.411 61.7517 163.709 61.1584C164.011 60.5618 164.431 60.0978 164.972 59.7663C165.512 59.4316 166.147 59.2642 166.876 59.2642C167.346 59.2642 167.791 59.3404 168.208 59.4929C168.629 59.642 169 59.8741 169.322 60.1889C169.647 60.5038 169.902 60.9048 170.087 61.392C170.273 61.8759 170.366 62.4527 170.366 63.1222V63.674H164.107V62.4609H168.641C168.637 62.1162 168.563 61.8097 168.417 61.5412C168.271 61.2694 168.067 61.0556 167.806 60.8999C167.547 60.7441 167.245 60.6662 166.901 60.6662C166.533 60.6662 166.21 60.7557 165.931 60.9347C165.653 61.1103 165.436 61.3423 165.28 61.6307C165.127 61.9157 165.05 62.2289 165.046 62.5703V63.6293C165.046 64.0734 165.127 64.4545 165.29 64.7727C165.452 65.0876 165.679 65.3295 165.971 65.4986C166.263 65.6643 166.604 65.7472 166.995 65.7472C167.257 65.7472 167.494 65.7107 167.706 65.6378C167.918 65.5616 168.102 65.4505 168.258 65.3047C168.414 65.1589 168.531 64.9782 168.611 64.7628L170.291 64.9517C170.185 65.3958 169.983 65.7836 169.685 66.1151C169.39 66.4432 169.012 66.6984 168.551 66.8807C168.091 67.0597 167.564 67.1491 166.97 67.1491ZM175.772 59.3636V60.7557H171.382V59.3636H175.772ZM172.466 57.5341H174.265V64.7031C174.265 64.9451 174.302 65.1307 174.375 65.2599C174.451 65.3859 174.55 65.4721 174.673 65.5185C174.796 65.5649 174.931 65.5881 175.081 65.5881C175.193 65.5881 175.296 65.5798 175.389 65.5632C175.485 65.5466 175.558 65.5317 175.608 65.5185L175.911 66.9254C175.815 66.9586 175.677 66.995 175.498 67.0348C175.323 67.0746 175.107 67.0978 174.852 67.1044C174.401 67.1177 173.995 67.0497 173.634 66.9006C173.273 66.7481 172.986 66.5128 172.774 66.1946C172.565 65.8764 172.462 65.4787 172.466 65.0014V57.5341ZM180.645 67.1491C179.88 67.1491 179.219 66.9901 178.662 66.6719C178.108 66.3504 177.682 65.8963 177.384 65.3097C177.086 64.7197 176.937 64.0253 176.937 63.2266C176.937 62.4411 177.086 61.7517 177.384 61.1584C177.686 60.5618 178.107 60.0978 178.647 59.7663C179.187 59.4316 179.822 59.2642 180.551 59.2642C181.022 59.2642 181.466 59.3404 181.883 59.4929C182.304 59.642 182.676 59.8741 182.997 60.1889C183.322 60.5038 183.577 60.9048 183.763 61.392C183.948 61.8759 184.041 62.4527 184.041 63.1222V63.674H177.782V62.4609H182.316C182.313 62.1162 182.238 61.8097 182.092 61.5412C181.946 61.2694 181.743 61.0556 181.481 60.8999C181.222 60.7441 180.921 60.6662 180.576 60.6662C180.208 60.6662 179.885 60.7557 179.606 60.9347C179.328 61.1103 179.111 61.3423 178.955 61.6307C178.803 61.9157 178.725 62.2289 178.721 62.5703V63.6293C178.721 64.0734 178.803 64.4545 178.965 64.7727C179.127 65.0876 179.354 65.3295 179.646 65.4986C179.938 65.6643 180.279 65.7472 180.67 65.7472C180.932 65.7472 181.169 65.7107 181.381 65.6378C181.593 65.5616 181.777 65.4505 181.933 65.3047C182.089 65.1589 182.207 64.9782 182.286 64.7628L183.966 64.9517C183.86 65.3958 183.658 65.7836 183.36 66.1151C183.065 66.4432 182.687 66.6984 182.226 66.8807C181.766 67.0597 181.239 67.1491 180.645 67.1491Z" fill="#3B82F6"/>
</g>
<path d="M207 127H120V129H207V127Z" fill="#E5E7EB" mask="url(#path-18-inside-6_249_1168)"/>
<g clip-path="url(#clip2_249_1168)">
<path d="M144.816 111H141.365V100.818H144.885C145.896 100.818 146.765 101.022 147.49 101.43C148.22 101.834 148.78 102.416 149.171 103.175C149.562 103.934 149.757 104.842 149.757 105.899C149.757 106.96 149.56 107.871 149.166 108.634C148.775 109.396 148.21 109.981 147.471 110.388C146.735 110.796 145.85 111 144.816 111ZM143.21 109.404H144.726C145.435 109.404 146.027 109.275 146.501 109.016C146.975 108.754 147.331 108.365 147.57 107.848C147.809 107.328 147.928 106.678 147.928 105.899C147.928 105.12 147.809 104.474 147.57 103.96C147.331 103.443 146.978 103.057 146.511 102.802C146.047 102.543 145.47 102.414 144.781 102.414H143.21V109.404ZM154.881 111.149C154.115 111.149 153.454 110.99 152.897 110.672C152.344 110.35 151.918 109.896 151.62 109.31C151.321 108.72 151.172 108.025 151.172 107.227C151.172 106.441 151.321 105.752 151.62 105.158C151.921 104.562 152.342 104.098 152.882 103.766C153.423 103.432 154.057 103.264 154.787 103.264C155.257 103.264 155.701 103.34 156.119 103.493C156.54 103.642 156.911 103.874 157.233 104.189C157.557 104.504 157.813 104.905 157.998 105.392C158.184 105.876 158.277 106.453 158.277 107.122V107.674H152.017V106.461H156.552C156.548 106.116 156.474 105.81 156.328 105.541C156.182 105.269 155.978 105.056 155.716 104.9C155.458 104.744 155.156 104.666 154.811 104.666C154.444 104.666 154.12 104.756 153.842 104.935C153.564 105.11 153.346 105.342 153.191 105.631C153.038 105.916 152.96 106.229 152.957 106.57V107.629C152.957 108.073 153.038 108.455 153.201 108.773C153.363 109.088 153.59 109.33 153.882 109.499C154.173 109.664 154.515 109.747 154.906 109.747C155.168 109.747 155.405 109.711 155.617 109.638C155.829 109.562 156.013 109.451 156.169 109.305C156.324 109.159 156.442 108.978 156.522 108.763L158.202 108.952C158.096 109.396 157.894 109.784 157.596 110.115C157.301 110.443 156.923 110.698 156.462 110.881C156.001 111.06 155.474 111.149 154.881 111.149ZM161.669 100.818V111H159.869V100.818H161.669ZM166.97 111.149C166.205 111.149 165.543 110.99 164.987 110.672C164.433 110.35 164.007 109.896 163.709 109.31C163.411 108.72 163.261 108.025 163.261 107.227C163.261 106.441 163.411 105.752 163.709 105.158C164.011 104.562 164.431 104.098 164.972 103.766C165.512 103.432 166.147 103.264 166.876 103.264C167.346 103.264 167.791 103.34 168.208 103.493C168.629 103.642 169 103.874 169.322 104.189C169.647 104.504 169.902 104.905 170.087 105.392C170.273 105.876 170.366 106.453 170.366 107.122V107.674H164.107V106.461H168.641C168.637 106.116 168.563 105.81 168.417 105.541C168.271 105.269 168.067 105.056 167.806 104.9C167.547 104.744 167.245 104.666 166.901 104.666C166.533 104.666 166.21 104.756 165.931 104.935C165.653 105.11 165.436 105.342 165.28 105.631C165.127 105.916 165.05 106.229 165.046 106.57V107.629C165.046 108.073 165.127 108.455 165.29 108.773C165.452 109.088 165.679 109.33 165.971 109.499C166.263 109.664 166.604 109.747 166.995 109.747C167.257 109.747 167.494 109.711 167.706 109.638C167.918 109.562 168.102 109.451 168.258 109.305C168.414 109.159 168.531 108.978 168.611 108.763L170.291 108.952C170.185 109.396 169.983 109.784 169.685 110.115C169.39 110.443 169.012 110.698 168.551 110.881C168.091 111.06 167.564 111.149 166.97 111.149ZM175.772 103.364V104.756H171.382V103.364H175.772ZM172.466 101.534H174.265V108.703C174.265 108.945 174.302 109.131 174.375 109.26C174.451 109.386 174.55 109.472 174.673 109.518C174.796 109.565 174.931 109.588 175.081 109.588C175.193 109.588 175.296 109.58 175.389 109.563C175.485 109.547 175.558 109.532 175.608 109.518L175.911 110.925C175.815 110.959 175.677 110.995 175.498 111.035C175.323 111.075 175.107 111.098 174.852 111.104C174.401 111.118 173.995 111.05 173.634 110.901C173.273 110.748 172.986 110.513 172.774 110.195C172.565 109.876 172.462 109.479 172.466 109.001V101.534ZM180.645 111.149C179.88 111.149 179.219 110.99 178.662 110.672C178.108 110.35 177.682 109.896 177.384 109.31C177.086 108.72 176.937 108.025 176.937 107.227C176.937 106.441 177.086 105.752 177.384 105.158C177.686 104.562 178.107 104.098 178.647 103.766C179.187 103.432 179.822 103.264 180.551 103.264C181.022 103.264 181.466 103.34 181.883 103.493C182.304 103.642 182.676 103.874 182.997 104.189C183.322 104.504 183.577 104.905 183.763 105.392C183.948 105.876 184.041 106.453 184.041 107.122V107.674H177.782V106.461H182.316C182.313 106.116 182.238 105.81 182.092 105.541C181.946 105.269 181.743 105.056 181.481 104.9C181.222 104.744 180.921 104.666 180.576 104.666C180.208 104.666 179.885 104.756 179.606 104.935C179.328 105.11 179.111 105.342 178.955 105.631C178.803 105.916 178.725 106.229 178.721 106.57V107.629C178.721 108.073 178.803 108.455 178.965 108.773C179.127 109.088 179.354 109.33 179.646 109.499C179.938 109.664 180.279 109.747 180.67 109.747C180.932 109.747 181.169 109.711 181.381 109.638C181.593 109.562 181.777 109.451 181.933 109.305C182.089 109.159 182.207 108.978 182.286 108.763L183.966 108.952C183.86 109.396 183.658 109.784 183.36 110.115C183.065 110.443 182.687 110.698 182.226 110.881C181.766 111.06 181.239 111.149 180.645 111.149Z" fill="#3B82F6"/>
</g>
</g>
<rect x="0.5" y="0.5" width="206" height="127" rx="9.5" stroke="#E5E7EB"/>
<defs>
<clipPath id="clip0_249_1168">
<rect width="207" height="128" rx="10" fill="white"/>
</clipPath>
<clipPath id="clip1_249_1168">
<rect width="45" height="20" fill="white" transform="translate(140 52)"/>
</clipPath>
<clipPath id="clip2_249_1168">
<rect width="45" height="20" fill="white" transform="translate(140 96)"/>
</clipPath>
</defs>
</svg>
