<svg width="107" height="22" viewBox="0 0 107 22" fill="none" xmlns="http://www.w3.org/2000/svg">
<path d="M14.3767 1.4H19.0433V21H14.3767V13.1367H4.64667V21H0.00333332V1.4H4.64667V9.26333H14.3767V1.4ZM39.8373 21H35.2173L31.9973 15.1667H25.674V21H21.0307V1.4H31.3207C36.5707 1.4 39.3473 3.85 39.3473 8.42333C39.3473 11.1533 38.0173 13.1367 36.0107 14.2333L39.8373 21ZM25.674 5.29667V11.5967H31.064C33.4207 11.5967 34.7273 10.5233 34.7273 8.44667C34.7273 6.37 33.4207 5.29667 31.064 5.29667H25.674ZM49.4335 21.6533C43.4602 21.6533 40.3102 19.53 40.3335 14.9333H44.5335C44.6969 16.7767 46.2135 17.9433 49.4335 17.9667C52.4669 17.9667 54.1235 16.94 54.1235 15.4C54.1235 14.0467 53.0269 13.37 50.6935 12.9733L48.2669 12.5533C44.5569 11.9 40.8702 10.92 40.8702 6.65C40.8702 2.94 43.9969 0.746666 49.4802 0.746666C54.5902 0.746666 58.1369 2.54333 58.1835 7.39667H54.0069C53.7035 5.62333 52.3269 4.43333 49.3869 4.43333C46.7269 4.43333 45.3269 5.34333 45.3269 6.86C45.3269 8.05 46.2835 8.79667 48.2902 9.17L50.4135 9.54333C54.1469 10.22 58.7435 10.85 58.7435 15.54C58.7435 19.4367 55.5469 21.6533 49.4335 21.6533ZM75.6967 21L74.4833 17.71H64.8233L63.61 21H58.8033L66.3867 1.4H72.92L80.5267 21H75.6967ZM66.13 14.1867H73.1767L70.0967 5.81H69.21L66.13 14.1867ZM82.642 21L78.2553 1.4H82.9453L86.072 16.03H86.492L90.2253 1.4H94.122L97.8786 16.03H98.2986L101.402 1.4H106.115L101.729 21H95.4286L92.3953 8.63333H91.952L88.9186 21H82.642Z" fill="#553FC2"/>
</svg>
