<svg width="54" height="63" viewBox="0 0 54 63" fill="none" xmlns="http://www.w3.org/2000/svg">
<path fill-rule="evenodd" clip-rule="evenodd" d="M31.8307 0.442993H35.6812C35.8456 0.834775 36.0202 1.2127 36.2105 1.57439C37.0479 3.16545 38.206 4.48027 40.1851 5.41368C42.1449 6.33801 44.8833 6.87567 48.8612 6.98318C50.676 7.03223 52.2824 6.95258 53.7145 6.78972C53.9007 7.49128 54 8.22827 54 8.98845V11.5509C51.9592 12.0089 49.4709 12.3165 46.3206 12.2313C42.394 12.1252 39.7914 11.5947 37.986 10.7431C36.1997 9.90071 35.168 8.73201 34.4031 7.27875C33.8214 6.17348 33.402 4.92474 32.9284 3.51444L32.9283 3.51403C32.7655 3.02922 32.5963 2.52532 32.4118 2.00159C32.2337 1.49583 32.0426 0.975828 31.8307 0.442993ZM45.4545 0.442993C49.108 0.442993 52.226 2.73573 53.4482 5.96089C52.0979 6.10621 50.5879 6.17499 48.8843 6.12895C44.9576 6.02282 42.3551 5.4923 40.5496 4.64078C38.7634 3.79834 37.7316 2.62964 36.9667 1.17638C36.8416 0.938619 36.724 0.694216 36.6117 0.442993H45.4545ZM30.9091 0.442993H25.8381C26.092 0.747811 26.3396 1.07618 26.5803 1.42919C28.212 3.82233 29.1345 6.07745 29.8482 8.10396C30.0327 8.6278 30.2019 9.13181 30.3648 9.61672L30.3648 9.61673L30.3648 9.61681L30.3648 9.61684L30.3648 9.61688L30.3648 9.61691L30.3648 9.61695C30.8384 11.0272 31.2578 12.2759 31.8395 13.3811C32.6043 14.8344 33.6361 16.0031 35.4223 16.8455C37.2278 17.697 39.8303 18.2276 43.757 18.3337C48.3629 18.4582 51.5537 17.7433 54 16.9457V12.4248C51.9353 12.8722 49.4261 13.1701 46.2976 13.0855C42.3197 12.978 39.5813 12.4404 37.6214 11.516C35.6423 10.5826 34.4843 9.26781 33.6469 7.67675C33.0303 6.50528 32.5799 5.16345 32.0995 3.7322L32.0995 3.73218L32.0995 3.73216L32.0995 3.73215C31.9406 3.25872 31.7784 2.77551 31.6058 2.28544C31.3952 1.68748 31.1674 1.07282 30.9091 0.442993ZM15.5455 0.442993H24.6932C25.0999 0.866978 25.4947 1.35398 25.8742 1.91059C27.4471 4.21746 28.3405 6.39528 29.0422 8.38781C29.2147 8.87787 29.3769 9.36108 29.5358 9.83451L29.5359 9.83453C30.0163 11.2658 30.4667 12.6076 31.0833 13.7791C31.9207 15.3702 33.0787 16.685 35.0578 17.6184C37.0177 18.5427 39.756 19.0804 43.7339 19.1879C48.2889 19.311 51.5309 18.6234 54 17.8442V22.1216L53.8285 22.1868C51.1114 23.2193 47.4638 24.6055 41.1934 24.436C37.2667 24.3299 34.6642 23.7994 32.8587 22.9479C31.0725 22.1054 30.0407 20.9367 29.2758 19.4835C28.6941 18.3782 28.2748 17.1295 27.8012 15.7192L27.8012 15.7192L27.8011 15.7191L27.8011 15.7191C27.6383 15.2342 27.469 14.7302 27.2845 14.2063C26.5709 12.1798 25.6483 9.9247 24.0167 7.53156C22.6925 5.58951 21.1582 4.39334 19.5325 3.76093C17.9094 3.12957 16.2253 3.07174 14.6164 3.35653C11.7125 3.87056 9.01257 5.50696 7.23241 7.00065C8.12837 3.23979 11.5103 0.442993 15.5455 0.442993ZM7.07468 7.85372C7.02542 8.22497 7 8.60374 7 8.98845V11.4422C8.48558 10.5473 10.2289 9.78174 12.0528 9.45889C13.6617 9.17411 15.3457 9.23193 16.9688 9.86329C18.5946 10.4957 20.1289 11.6919 21.453 13.6339C23.0847 16.0271 24.0073 18.2822 24.7209 20.3087C24.9054 20.8325 25.0746 21.3364 25.2374 21.8213L25.2375 21.8215L25.2375 21.8215L25.2375 21.8216C25.7111 23.2318 26.1305 24.4806 26.7122 25.5858C27.4771 27.0391 28.5088 28.2078 30.295 29.0502C32.1005 29.9018 34.7031 30.4323 38.6297 30.5384C44.9002 30.7079 48.5478 29.3217 51.2649 28.2891C51.9324 28.0355 52.5437 27.8032 53.124 27.6205C53.4216 27.5268 53.7128 27.4458 54 27.3823V23.0375C51.292 24.0677 47.4981 25.4613 41.1703 25.2903C37.1924 25.1828 34.454 24.6451 32.4942 23.7208C30.5151 22.7874 29.357 21.4725 28.5196 19.8815C27.9031 18.71 27.4526 17.3681 26.9722 15.9369C26.8133 15.4635 26.6511 14.9802 26.4785 14.4902C25.7768 12.4977 24.8835 10.3198 23.3106 8.01296C22.0711 6.19501 20.6679 5.11951 19.2227 4.55734C17.7747 3.99412 16.2543 3.93444 14.7654 4.19799C11.7737 4.72756 8.96089 6.5544 7.28872 8.08722L7.07468 7.85372ZM53.3806 28.4356C53.594 28.3684 53.7999 28.3094 54 28.2598V33.5125C52.8479 33.1757 51.7565 33.3463 50.5603 33.7228C49.9801 33.9055 49.3688 34.1378 48.7013 34.3915L48.7013 34.3915C45.9842 35.4241 42.3366 36.8103 36.0661 36.6408C32.1394 36.5347 29.5369 36.0041 27.7314 35.1526C25.9452 34.3102 24.9134 33.1415 24.1486 31.6882C23.5669 30.583 23.1475 29.3343 22.6739 27.9241L22.6739 27.9241L22.6739 27.924L22.6739 27.9239L22.6739 27.9239C22.511 27.439 22.3418 26.9349 22.1573 26.4111C21.4436 24.3846 20.5211 22.1294 18.8894 19.7363C17.5653 17.7942 16.031 16.5981 14.4052 15.9657C12.7821 15.3343 11.098 15.2765 9.48916 15.5613C8.63577 15.7123 7.79999 15.9603 7 16.2731V12.4486C8.50246 11.4829 10.3166 10.6341 12.2017 10.3004C13.6906 10.0368 15.2111 10.0965 16.659 10.6597C18.1043 11.2219 19.5075 12.2974 20.747 14.1153C22.3198 16.4222 23.2132 18.6 23.9149 20.5925C24.0875 21.0826 24.2497 21.5658 24.4086 22.0392C24.889 23.4705 25.3394 24.8124 25.956 25.9839C26.7934 27.5749 27.9514 28.8897 29.9305 29.8231C31.8904 30.7475 34.6288 31.2851 38.6066 31.3926C45.0618 31.5671 48.88 30.1133 51.5986 29.0782C52.2484 28.8307 52.8354 28.6072 53.3806 28.4356ZM7 17.1949V21.6507C8.5863 21.3808 10.2435 21.4464 11.8415 22.068C13.4673 22.7004 15.0016 23.8966 16.3258 25.8387C17.9574 28.2318 18.88 30.4869 19.5936 32.5134C19.7781 33.0372 19.9473 33.5412 20.1102 34.0261L20.1102 34.0263L20.1103 34.0263C20.5839 35.4366 21.0032 36.6853 21.5849 37.7906C22.3498 39.2438 23.3815 40.4125 25.1678 41.255C26.9733 42.1065 29.5758 42.637 33.5025 42.7431C39.7729 42.9126 43.4205 41.5264 46.1376 40.4939C46.8051 40.2402 47.4164 40.0079 47.9967 39.8252C49.4909 39.3548 50.8215 39.2059 52.3114 39.9656C52.7769 40.203 53.2528 40.5266 53.7521 40.9494C53.9141 40.2921 54 39.6049 54 38.8975V34.4115C52.9815 34.0403 52.0176 34.16 50.8169 34.538C50.272 34.7095 49.6852 34.9329 49.0356 35.1803L49.0353 35.1804L49.035 35.1805L49.0349 35.1805C46.3164 36.2157 42.4982 37.6695 36.043 37.495C32.0651 37.3875 29.3267 36.8498 27.3669 35.9255C25.3878 34.9921 24.2298 33.6773 23.3924 32.0862C22.7758 30.9147 22.3254 29.5729 21.8449 28.1416L21.8449 28.1416C21.686 27.6682 21.5238 27.185 21.3512 26.6949C20.6496 24.7024 19.7562 22.5246 18.1833 20.2177C16.9438 18.3997 15.5406 17.3242 14.0954 16.7621C12.6475 16.1989 11.127 16.1392 9.63811 16.4027C8.73352 16.5628 7.84529 16.8416 7 17.1949ZM51.9232 40.7269C52.4054 40.9728 52.9163 41.3349 53.4779 41.8455C52.7356 43.8652 51.2524 45.527 49.3578 46.5015C48.0223 45.9505 46.7957 46.1121 45.4331 46.541C44.853 46.7236 44.242 46.9558 43.5748 47.2094L43.5746 47.2095L43.5743 47.2096L43.574 47.2097L43.5729 47.2101C43.373 47.2861 43.1681 47.3639 42.9574 47.443H21.6447C20.427 46.6634 19.6375 45.6772 19.0213 44.5064C18.4396 43.4011 18.0202 42.1524 17.5466 40.7421L17.5466 40.7421C17.3838 40.2572 17.2145 39.7531 17.03 39.2292C16.3163 37.2027 15.3938 34.9476 13.7621 32.5545C12.438 30.6124 10.9037 29.4163 9.27791 28.7838C8.52716 28.4918 7.76336 28.3225 7 28.253V22.5185L7.07447 22.5051C8.56335 22.2415 10.0838 22.3012 11.5318 22.8644C12.977 23.4266 14.3802 24.5021 15.6197 26.3201C17.1926 28.6269 18.0859 30.8047 18.7876 32.7973C18.9602 33.2873 19.1224 33.7706 19.2813 34.244L19.2813 34.244C19.7617 35.6753 20.2121 37.0171 20.8287 38.1886C21.6661 39.7796 22.8241 41.0945 24.8033 42.0279C26.7631 42.9522 29.5015 43.4899 33.4794 43.5974C39.9345 43.7718 43.7527 42.318 46.4713 41.2829L46.4714 41.2828L46.4716 41.2828L46.472 41.2826C47.1215 41.0353 47.7083 40.8119 48.2533 40.6403C49.6432 40.2028 50.716 40.1113 51.9232 40.7269ZM7 29.1115V34.7625C8.51971 35.4207 9.95219 36.5879 11.1985 38.4157C12.8302 40.8089 13.7527 43.064 14.4664 45.0905C14.6509 45.6144 14.8201 46.1184 14.983 46.6034L14.983 46.6034L14.983 46.6035C15.0787 46.8884 15.1721 47.1666 15.2652 47.4385C15.3582 47.4415 15.4517 47.443 15.5455 47.443H20.2219C19.383 46.7109 18.7665 45.8572 18.2651 44.9044C17.6485 43.7329 17.1981 42.3911 16.7177 40.9598C16.5588 40.4864 16.3966 40.0032 16.224 39.5131C15.5223 37.5206 14.6289 35.3427 13.0561 33.0359C11.8166 31.2179 10.4133 30.1424 8.96811 29.5803C8.3234 29.3295 7.66429 29.1785 7 29.1115ZM7 38.8975V35.7042C8.23382 36.3146 9.42395 37.33 10.4924 38.8971C12.0653 41.204 12.9587 43.3818 13.6603 45.3744C13.8329 45.8644 13.9951 46.3476 14.154 46.8211C14.2146 47.0015 14.2747 47.1805 14.3347 47.3579C10.1886 46.7698 7 43.206 7 38.8975ZM45.4229 47.443H45.4545C46.3681 47.443 47.2482 47.2996 48.0735 47.0342C47.3297 46.9395 46.5739 47.0778 45.6897 47.3561C45.6019 47.3838 45.513 47.4128 45.4229 47.443Z" fill="#F9A230"/>
<path d="M24.7407 62.0649H11.5886V15.9864H0V5.96137C5.42641 5.96137 9.56519 4.4898 12.6923 0.442993H24.7407V62.0649Z" fill="white"/>
</svg>
