<svg width="315" height="265" viewBox="0 0 315 265" fill="none" xmlns="http://www.w3.org/2000/svg">
<path d="M111.826 17.7279C89.6654 17.3783 66.0742 25.2541 56.9165 47.2259C49.969 63.8856 53.8868 83.5028 54.6502 101.071C54.8311 105.294 54.8672 109.971 52.0946 113.166C47.4053 118.57 38.7982 116.031 31.6417 116.071C16.8384 116.155 4.9323 129.785 1.67349 144.223C-4.83207 173.07 8.34782 209.909 28.7726 230.511C44.1867 246.054 65.2102 255.661 86.9169 257.96C111.336 260.543 135.843 253.214 160.162 251.751C175.861 250.811 191.351 251.273 207.023 252.242C222.413 253.19 236.107 257.554 250.914 261.508C265.207 265.321 281.361 267.033 294.022 259.378C312.908 247.962 316.982 221.132 314.041 201.057C310.979 180.162 299.515 160.316 281.465 148.936C268.205 140.586 253.313 134.84 241.021 125.14C230.067 116.497 221.633 105.049 214.702 92.9256C207.698 80.682 202.084 67.6347 194.245 55.9054C176.046 28.6736 143.454 18.2261 111.826 17.7279Z" fill="#F2F0F0"/>
<path d="M175.367 24.9167C172.317 25.3185 170.678 27.6852 169.822 30.719C169.492 31.5789 168.906 32.8085 168.158 33.2144C167.411 33.6202 168.283 34.0662 169.171 34.2591C169.026 35.6608 168.956 37.0692 168.962 38.4783C169.102 42.8984 175.793 41.2911 175.793 41.2911C175.793 41.2911 176.343 51.0675 175.102 52.8596C173.86 54.6518 186.943 54.2379 188.599 48.315C188.587 48.3069 182.339 24.0045 175.367 24.9167V24.9167Z" fill="#F79C87"/>
<path fill-rule="evenodd" clip-rule="evenodd" d="M175.367 24.9167C172.317 25.3185 170.678 27.6852 169.822 30.719C169.492 31.5789 168.906 32.8085 168.158 33.2144C167.411 33.6202 168.283 34.0662 169.171 34.2591C169.026 35.6608 168.956 37.0692 168.962 38.4783C169.102 42.8984 175.793 41.2911 175.793 41.2911C175.793 41.2911 176.343 51.0675 175.102 52.8596C173.86 54.6518 186.943 54.2379 188.599 48.315C188.587 48.3069 182.339 24.0045 175.367 24.9167V24.9167Z" stroke="#1C1C1C" stroke-width="0.477476"/>
<path d="M156.365 34.1184C156.365 34.1184 158.615 32.0129 158.43 29.626C158.245 27.2392 163.754 27.1026 164.899 28.3884C166.044 29.6743 163.694 30.6989 165.542 30.8516C167.391 31.0043 168.528 30.8195 168.251 31.4182C167.973 32.0169 162.167 34.5283 161.604 37.976C161.042 41.4236 156.549 36.6861 156.365 34.1184Z" fill="#F79C87"/>
<path d="M157.092 33.2908C157.266 33.0648 157.428 32.8301 157.578 32.5876C159.668 32.8421 161.606 33.8084 163.067 35.3241C162.328 36.0448 161.818 36.9672 161.6 37.9761C161.48 38.7195 161.198 39.0771 160.772 39.1816C158.82 38.5025 156.879 34.8821 157.092 33.2908V33.2908Z" fill="#1C1C1C"/>
<path fill-rule="evenodd" clip-rule="evenodd" d="M156.365 34.1184C156.365 34.1184 158.615 32.0129 158.43 29.626C158.245 27.2392 163.754 27.1026 164.899 28.3884C166.044 29.6743 163.694 30.6989 165.542 30.8516C167.391 31.0043 168.528 30.8195 168.251 31.4182C167.973 32.0169 162.167 34.5283 161.604 37.976C161.042 41.4236 156.549 36.6861 156.365 34.1184Z" stroke="#1C1C1C" stroke-width="0.477476"/>
<path d="M108.402 212.236C112.585 212.099 116.885 212.031 121.261 212.031C164.3 212.031 199.195 218.81 199.195 227.176C199.195 235.542 164.292 242.305 121.261 242.305C119.211 242.305 117.181 242.29 115.169 242.26C115.169 241.915 115.197 241.565 115.201 241.204C115.193 241.22 113.333 228.944 108.402 212.236V212.236Z" fill="#1C1C1C" stroke="#1C1C1C" stroke-width="0.477476"/>
<path d="M199.187 227.176C199.187 232.801 183.476 237.688 160.137 240.303C166.545 232.958 172.257 225.033 177.199 216.632C190.805 219.36 199.187 223.077 199.187 227.176V227.176Z" fill="#1C1C1C"/>
<path d="M113.936 234.413C112.879 229.189 111.095 221.39 108.386 212.236C112.569 212.099 116.869 212.031 121.245 212.031C132.721 212.031 143.619 212.513 153.431 213.377C143.84 223.664 130.949 232.179 113.936 234.413V234.413Z" fill="#1C1C1C"/>
<path d="M113.936 234.413C130.949 232.179 143.839 223.664 153.439 213.377C170.625 194.961 177.267 170.872 178.131 166.958C179.562 160.441 177.798 147.401 178.533 146.867C179.268 146.332 182.206 154.526 182.206 154.526V141.446C184.958 139.911 186.425 156.02 186.425 156.02C186.425 156.02 186.244 140.048 187.896 139.618C189.547 139.188 190.652 155.655 190.652 155.655C190.652 155.655 191.384 141.149 193.22 139.678C195.056 138.207 195.056 162.795 195.056 162.795C195.056 162.795 199.645 158.958 202.767 158.407C205.889 157.857 200.015 164.467 192.669 175.481C190.029 191.188 183.893 205.192 177.199 216.62C172.257 225.023 166.545 232.949 160.138 240.295C147.225 241.678 134.247 242.348 121.261 242.305C119.212 242.305 117.181 242.29 115.169 242.26C115.169 241.915 115.197 241.565 115.201 241.204C115.193 241.22 114.832 238.688 113.936 234.413H113.936Z" fill="#F78270"/>
<path d="M189.547 166.588C189.547 166.588 183.335 163.735 180.667 166.588C180.944 165.005 184.621 162.884 188.997 163.422C193.067 163.924 192.545 144.03 193.393 139.63C195.056 139.791 195.056 162.807 195.056 162.807L189.547 166.588Z" fill="#F79C87"/>
<path d="M156.26 227.248C172.454 210.022 178.533 196.424 188.997 171.455C194.417 167.999 199.348 162.072 200.83 159.058C201.448 158.767 202.098 158.553 202.767 158.419C205.889 157.869 200.015 164.479 192.669 175.493C190.029 191.2 183.893 205.204 177.199 216.632C172.256 225.031 166.545 232.953 160.138 240.295C147.225 241.678 134.247 242.348 121.261 242.305C119.212 242.305 117.181 242.29 115.169 242.26C115.169 241.915 115.197 241.565 115.201 241.204C115.201 241.204 114.82 238.688 113.944 234.397C113.936 234.413 140.062 244.474 156.26 227.248V227.248Z" fill="#F79C87"/>
<path fill-rule="evenodd" clip-rule="evenodd" d="M113.936 234.413C130.949 232.179 143.839 223.664 153.439 213.377C170.625 194.961 177.267 170.872 178.131 166.958C179.562 160.441 177.798 147.401 178.533 146.867C179.268 146.332 182.206 154.526 182.206 154.526V141.446C184.958 139.911 186.425 156.02 186.425 156.02C186.425 156.02 186.244 140.048 187.896 139.618C189.547 139.188 190.652 155.655 190.652 155.655C190.652 155.655 191.384 141.149 193.22 139.678C195.056 138.207 195.056 162.795 195.056 162.795C195.056 162.795 199.645 158.958 202.767 158.407C205.889 157.857 200.015 164.467 192.669 175.481C190.029 191.188 183.893 205.192 177.199 216.62C172.257 225.023 166.545 232.949 160.138 240.295C147.225 241.678 134.247 242.348 121.261 242.305C119.212 242.305 117.181 242.29 115.169 242.26C115.169 241.915 115.197 241.565 115.201 241.204C115.193 241.22 114.832 238.688 113.936 234.413H113.936Z" stroke="#1C1C1C" stroke-width="0.477476"/>
<path d="M169.171 170.719C162.01 168.517 147.874 156.398 147.874 156.398C148.075 145.569 167.322 144.464 167.322 144.464C167.322 144.464 173.9 152.428 177.083 160.171C177.083 160.171 170.822 164.523 169.171 170.719Z" fill="#F79C87"/>
<path d="M153.861 161.228C153.861 161.228 165.936 158.713 170.549 148.743C167.242 150.893 147.886 156.378 147.886 156.378L153.861 161.228Z" fill="#1C1C1C" stroke="#1C1C1C" stroke-width="0.477476" stroke-linecap="round"/>
<path d="M74.9143 236.124C74.7059 237.235 74.8462 238.383 75.3161 239.411C55.9159 236.655 43.3066 232.203 43.3066 227.176C43.3066 222.237 55.4619 217.853 74.2754 215.089C74.7696 221.59 75.0027 228.582 74.9143 236.124Z" fill="#1C1C1C"/>
<path d="M43.2462 133.474C43.2462 133.474 33.743 127.483 34.7074 126.105C35.6718 124.726 45.2433 130.308 45.2433 130.308C45.2433 130.308 35.8325 122.56 37.3474 120.921C38.8623 119.282 47.2404 126.727 47.2404 126.727C47.2404 126.727 39.9392 118.14 41.3858 117.385C42.8323 116.63 59.7452 129.227 59.7452 129.227C59.7452 129.227 62.3169 120.788 64.8886 121.331C67.4602 121.873 63.6027 131.802 70.2288 141.346C90.1192 160.818 101.917 190.336 108.402 212.236C113.349 228.944 115.209 241.22 115.209 241.22C115.209 241.581 115.209 241.931 115.177 242.277C100.338 242.056 86.6716 241.023 75.324 239.412C74.8541 238.384 74.7137 237.235 74.9222 236.125C75.0106 228.582 74.7775 221.591 74.2913 215.089C69.0676 145.674 34.1288 133.257 35.1976 131.682C36.3589 129.962 43.2462 133.474 43.2462 133.474V133.474Z" fill="#F78270"/>
<path d="M65.1941 121.471C67.1229 122.789 63.9043 132.232 70.2129 141.346C90.1033 160.818 101.901 190.336 108.386 212.236C113.333 228.944 115.193 241.22 115.193 241.22C115.193 241.581 115.193 241.931 115.161 242.276C103.525 242.139 91.9033 241.402 80.343 240.066C85.5667 236.008 93.0728 227.112 93.3943 209.274C93.8805 182.493 55.0078 145.123 65.1941 121.471V121.471Z" fill="#F79C87"/>
<path d="M58.8049 136.624C58.1861 137.107 53.2959 141.446 53.2959 141.446C53.3682 137.798 55.9118 135.33 55.9118 135.33C55.9118 135.33 59.3353 130.717 41.5344 117.345C43.7043 117.256 59.7452 129.215 59.7452 129.215C59.7452 129.215 58.1178 134.507 58.8049 136.624V136.624Z" fill="#F79C87"/>
<path fill-rule="evenodd" clip-rule="evenodd" d="M43.2462 133.474C43.2462 133.474 33.743 127.483 34.7074 126.105C35.6718 124.726 45.2433 130.308 45.2433 130.308C45.2433 130.308 35.8325 122.56 37.3474 120.921C38.8623 119.282 47.2404 126.727 47.2404 126.727C47.2404 126.727 39.9392 118.14 41.3858 117.385C42.8323 116.63 59.7452 129.227 59.7452 129.227C59.7452 129.227 62.3169 120.788 64.8886 121.331C67.4602 121.873 63.6027 131.802 70.2288 141.346C90.1192 160.818 101.917 190.336 108.402 212.236C113.349 228.944 115.209 241.22 115.209 241.22C115.209 241.581 115.209 241.931 115.177 242.277C100.338 242.056 86.6716 241.023 75.324 239.412C74.8541 238.384 74.7137 237.235 74.9222 236.125C75.0106 228.582 74.7775 221.591 74.2913 215.089C69.0676 145.674 34.1288 133.257 35.1976 131.682C36.3589 129.962 43.2462 133.474 43.2462 133.474V133.474Z" stroke="#1C1C1C" stroke-width="0.477476"/>
<path d="M83.3967 147.048C86.6113 143.881 87.4712 133.084 87.4712 133.084C92.4258 130.328 102.339 136.572 102.158 143.363C102.058 147.108 97.4807 152.633 93.3942 156.836C93.3901 156.82 89.8742 149.949 83.3967 147.048H83.3967Z" fill="#F79C87"/>
<path d="M87.4714 133.084C87.4714 133.084 91.6745 143.532 99.4057 149.732C100.36 148.081 101.218 146.376 101.973 144.625C101.973 144.625 92.2411 133.036 87.4714 133.084H87.4714Z" fill="#1C1C1C" stroke="#1C1C1C" stroke-width="0.477476" stroke-linecap="round"/>
<path d="M59.7452 129.227C59.7452 129.227 58.1379 134.507 58.8049 136.64C58.1861 137.123 53.2959 141.462 53.2959 141.462" stroke="#1C1C1C" stroke-width="0.477476" stroke-linecap="round"/>
<path d="M162.327 39.9087C162.327 39.9087 162.348 35.9668 159.322 33.6644C156.296 31.3619 151.651 33.3429 151.129 34.1305C150.606 34.9181 162.327 39.9087 162.327 39.9087Z" fill="white"/>
<path opacity="0.54" d="M159.322 33.6645L159.495 33.8132C157.887 33.6203 155.444 33.7771 154.757 36.2483L153.769 35.959C152.129 35.1111 150.956 34.3878 151.129 34.1307C151.651 33.3551 156.292 31.346 159.322 33.6645V33.6645Z" fill="#CAC9C8"/>
<path fill-rule="evenodd" clip-rule="evenodd" d="M162.327 39.9087C162.327 39.9087 162.348 35.9668 159.322 33.6644C156.296 31.3619 151.651 33.3429 151.129 34.1305C150.606 34.9181 162.327 39.9087 162.327 39.9087Z" stroke="#1C1C1C" stroke-width="0.477476"/>
<path d="M149.791 53.7838C149.457 53.7356 162.46 49.4561 163.011 42.388C163.561 35.3199 147.13 25.4028 127.212 48.7208C119.252 58.8187 115.374 75.619 134.923 78.8296C154.472 82.0402 170.999 76.5352 170.999 76.5352C170.999 76.5352 189.917 59.767 149.791 53.7838Z" fill="white"/>
<path opacity="0.54" d="M127.22 48.721C145.587 27.2193 160.973 33.974 162.846 40.6845C159.386 39.3504 152.061 37.1404 145.668 39.3143C136.932 42.2958 139.701 53.5871 134.923 56.3396C130.145 59.0921 129.699 70.1102 138.411 70.1102C144.912 70.1102 162.99 62.3068 173.751 63.0863C178.794 69.62 170.999 76.5354 170.999 76.5354C170.999 76.5354 154.476 82.0445 134.923 78.8298C115.37 75.6152 119.252 58.8189 127.22 48.721Z" fill="#CAC9C8"/>
<path fill-rule="evenodd" clip-rule="evenodd" d="M149.791 53.7838C149.457 53.7356 162.46 49.4561 163.011 42.388C163.561 35.3199 147.13 25.4028 127.212 48.7208C119.252 58.8187 115.374 75.619 134.923 78.8296C154.472 82.0402 170.999 76.5352 170.999 76.5352C170.999 76.5352 189.917 59.767 149.791 53.7838Z" stroke="#1C1C1C" stroke-width="0.477476" stroke-linecap="round"/>
<path d="M170.758 31.1329L106.04 28.4045L109.833 10.6519L171.268 29.2443C171.268 29.2443 172.241 30.8275 170.758 31.1329Z" fill="#4076F4"/>
<path d="M109.821 10.6519V10.6157C113.056 12.7466 114.936 16.4175 114.775 20.2877C114.719 21.3244 114.538 22.4656 115.121 23.3255C115.477 23.7886 115.956 24.1423 116.503 24.3461C122.129 26.7852 128.136 21.5856 134.26 21.3646C141.236 21.1154 146.427 26.8977 153.005 28.1313C159.032 29.2645 165.462 29.168 171.569 30.2128C171.569 30.6146 171.409 30.9963 170.746 31.133L106.036 28.4046L109.821 10.6519Z" fill="#2754E3"/>
<path fill-rule="evenodd" clip-rule="evenodd" d="M170.758 31.1329L106.04 28.4045L109.833 10.6519L171.268 29.2443C171.268 29.2443 172.241 30.8275 170.758 31.1329Z" stroke="#1C1C1C" stroke-width="0.477476"/>
<path d="M177.697 29.0836C177.514 28.2616 176.792 27.6721 175.949 27.6571C172.273 27.5847 162.89 26.8534 161.114 21.2479C157.465 9.7517 175.982 13.4003 178.774 19.7331C182.318 19.6648 192.718 20.6291 183.387 33.5157C181.217 29.6501 179.843 30.8878 179.98 34.7453C178.722 32.9531 178.027 30.5824 177.697 29.0836V29.0836Z" fill="#F9A230" stroke="#1C1C1C" stroke-width="0.477476"/>
<path d="M161.182 88.6545C161.182 88.6545 157.968 93.4241 154.114 88.6545C151.41 85.3073 144.928 75.6353 130.808 76.1697C116.214 76.7202 108.23 114.174 147.898 156.398C160.001 159.705 181.117 143.54 180.566 133.45C180.016 123.36 147.363 121.331 147.898 113.254C148.432 105.178 175.973 122.436 184.605 104.257C193.236 86.0788 168.986 84.4313 161.182 88.6545V88.6545Z" fill="#F9A230"/>
<path d="M155.304 143.363C162.938 133.084 130.085 91.4993 129.534 86.9989C128.984 82.4984 143.373 86.2675 146.773 91.3145C150.172 96.3614 159.434 97.5588 159.434 97.5588C159.434 97.5588 169.078 95.172 179.847 103.823C181.005 104.748 182.06 105.795 182.993 106.946C173 120.608 151.615 106.174 151.108 113.805C150.594 121.885 180.004 123.364 180.554 133.45C181.105 143.536 159.989 159.705 147.886 156.398C145.073 148.322 149.847 150.716 155.304 143.363V143.363Z" fill="#F77923"/>
<path fill-rule="evenodd" clip-rule="evenodd" d="M161.182 88.6545C161.182 88.6545 157.968 93.4241 154.114 88.6545C151.41 85.3073 144.928 75.6353 130.808 76.1697C116.214 76.7202 108.23 114.174 147.898 156.398C160.001 159.705 181.117 143.54 180.566 133.45C180.016 123.36 147.363 121.331 147.898 113.254C148.432 105.178 175.973 122.436 184.605 104.257C193.236 86.0788 168.986 84.4313 161.182 88.6545V88.6545Z" stroke="#1C1C1C" stroke-width="0.477476" stroke-linecap="round"/>
<path d="M188.173 134.643C188.173 134.643 152.097 151.58 122.904 118.213C126.577 146.67 123.555 157.869 113.458 153.646C103.36 149.422 87.4714 133.084 87.4714 133.084C87.4714 133.084 95.3914 80.5736 114.394 81.3089C133.396 82.0443 147.866 100.998 159.539 98.0169C171.212 95.0353 170.826 89.6106 170.826 89.6106C170.826 89.6106 202.028 117.292 188.173 134.643Z" fill="#F9A230"/>
<path opacity="0.68" d="M191.689 125.397C191.53 128.774 190.298 132.011 188.173 134.639C188.173 134.639 152.097 151.576 122.904 118.209C126.577 146.666 123.555 157.865 113.458 153.642C103.36 149.419 87.4714 133.08 87.4714 133.08C87.4714 133.08 87.6603 131.823 88.0501 129.701C90.9191 129.299 94.4351 130.316 98.3006 134.639C108.399 145.931 114.824 145.195 111.477 121.881C108.129 98.5675 123.085 93.6049 125.139 105.173C127.192 116.742 164.397 136.387 175.459 125.373C186.522 114.359 170.36 94.3604 170.36 94.3604C182.081 99.1622 189.322 113.467 191.689 125.397Z" fill="#F77923"/>
<path d="M188.997 114.813C188.997 114.813 166.277 131.891 149.34 115.918C132.403 99.9457 119.119 89.7554 112.923 98.4509C106.727 107.146 107.792 150.516 107.792 150.516" stroke="white" stroke-width="0.954952"/>
<path d="M186.425 107.616C186.425 107.616 168.206 125.003 151.269 109.031C134.332 93.0583 118.492 84.3467 110.347 91.2179C101.009 99.1058 102.158 146.369 102.158 146.369" stroke="white" stroke-width="0.954952"/>
<path d="M186.425 108.352C191.508 116.895 194.421 126.836 188.173 134.643C188.173 134.643 152.097 151.58 122.904 118.213C126.577 146.67 123.555 157.869 113.457 153.646C103.359 149.422 87.4712 133.084 87.4712 133.084C87.4712 133.084 95.3912 80.5736 114.394 81.3089C133.396 82.0443 147.866 100.998 159.539 98.0169" stroke="#1C1C1C" stroke-width="0.477476"/>
<path d="M124.327 45.6911C124.327 45.6911 114.092 41.4679 113.723 37.8434C112.348 36.3286 112.714 39.953 112.714 39.953C112.714 39.953 104.818 35.1793 104.452 35.8223C104.087 36.4652 109.608 40.7286 109.608 40.7286C109.608 40.7286 107.269 43.0752 107.772 45.004C108.274 46.9328 116.037 52.8517 116.037 52.8517L124.327 45.6911Z" fill="#F79C87"/>
<path d="M111.561 49.2432C111.533 49.0946 111.501 48.9379 111.477 48.7691C114.406 41.263 119.734 43.2761 119.762 43.2922L120.1 43.4851C121.88 44.9035 115.005 49.9384 113.699 51.0073C112.919 50.3684 112.421 49.9987 111.561 49.2432Z" fill="#1C1C1C"/>
<path fill-rule="evenodd" clip-rule="evenodd" d="M124.327 45.6911C124.327 45.6911 114.092 41.4679 113.723 37.8434C112.348 36.3286 112.714 39.953 112.714 39.953C112.714 39.953 104.818 35.1793 104.452 35.8223C104.087 36.4652 109.608 40.7286 109.608 40.7286C109.608 40.7286 107.269 43.0752 107.772 45.004C108.274 46.9328 116.037 52.8517 116.037 52.8517L124.327 45.6911Z" stroke="#1C1C1C" stroke-width="0.477476"/>
<path d="M122.354 44.582C122.354 44.582 116.957 41.1223 114.14 45.9763C110.556 52.1644 116.017 54.5513 116.017 54.5513L122.354 44.582Z" fill="white"/>
<path opacity="0.54" d="M114.141 45.9763C114.217 45.8437 114.297 45.7192 114.382 45.5986C114.382 45.5986 114.293 50.0509 115.651 50.0509C115.266 51.1367 114.783 52.1857 114.209 53.1851C113.032 51.8792 112.059 49.5727 114.141 45.9763V45.9763Z" fill="#CAC9C8"/>
<path fill-rule="evenodd" clip-rule="evenodd" d="M122.354 44.582C122.354 44.582 116.957 41.1223 114.14 45.9763C110.556 52.1644 116.017 54.5513 116.017 54.5513L122.354 44.582Z" stroke="#1C1C1C" stroke-width="0.477476"/>
<path d="M194.233 51.0355C194.233 51.0355 197.994 45.0684 193.128 44.1522C188.261 43.236 178.26 44.4255 174.31 49.1991C170.36 53.9728 194.233 51.0355 194.233 51.0355Z" fill="white"/>
<path opacity="0.54" d="M194.232 51.0353C194.232 51.0353 187.132 51.9072 181.318 51.9273C178.618 50.541 176.496 48.986 175.873 47.9091C185.517 44.2926 192.247 46.6192 195.41 48.3471C195.136 49.2906 194.74 50.1943 194.232 51.0353V51.0353Z" fill="#CAC9C8"/>
<path d="M129.534 70.283C129.533 72.5506 128.321 74.645 126.356 75.7759C122.101 72.9953 120.541 68.8766 120.71 64.4404C122.672 63.5991 124.925 63.8011 126.706 64.9779C128.486 66.1548 129.556 68.1485 129.55 70.283H129.534Z" fill="#569DD9" stroke="#1C1C1C" stroke-width="0.477476"/>
<path fill-rule="evenodd" clip-rule="evenodd" d="M194.233 51.0355C194.233 51.0355 197.994 45.0684 193.128 44.1522C188.261 43.236 178.26 44.4255 174.31 49.1991C170.36 53.9728 194.233 51.0355 194.233 51.0355Z" stroke="#1C1C1C" stroke-width="0.477476"/>
<path d="M161.182 88.6543C161.182 88.6543 191.934 102.148 188.173 134.643C197.17 130.513 218.559 112.519 217.908 86.3558C217.257 60.1929 195.261 43.489 173.9 48.4435C152.539 53.3981 130.503 49.5445 127.212 46.4344C125.05 44.3931 120.542 43.6859 117.239 46.1571C115.487 47.4671 114.072 49.6691 113.534 53.0444C111.971 62.7727 132.994 78.0099 168.15 72.963C166.507 80.3887 161.182 88.6543 161.182 88.6543V88.6543Z" fill="white"/>
<path opacity="0.54" d="M189.973 102.562C196.033 114.677 229.983 90.1049 198.813 52.3333C209.635 58.65 217.535 70.8414 217.916 86.3599C218.471 108.93 202.647 125.417 192.493 132.168C192.055 131.774 191.78 131.231 191.721 130.645C191.753 126.796 186.935 95.6863 162.766 85.9822C162.766 85.9942 183.902 90.4424 189.973 102.562Z" fill="#CAC9C8"/>
<path opacity="0.54" d="M168.158 72.955C133.002 78.0019 111.979 62.7647 113.542 53.0445C114.08 49.6692 115.495 47.4672 117.247 46.1572C117.122 48.1664 115.744 57.0829 121.434 57.999C127.123 58.9152 135.019 57.4485 141.356 62.5879C147.693 67.7273 161.001 74.7994 168.158 68.4666C175.314 62.1338 189.362 62.7768 186.063 67.8558C185.509 68.0889 178.533 74.4257 168.158 72.955V72.955Z" fill="#CAC9C8"/>
<path fill-rule="evenodd" clip-rule="evenodd" d="M161.182 88.6543C161.182 88.6543 191.934 102.148 188.173 134.643C197.17 130.513 218.559 112.519 217.908 86.3558C217.257 60.1929 195.261 43.489 173.9 48.4435C152.539 53.3981 130.503 49.5445 127.212 46.4344C125.05 44.3931 120.542 43.6859 117.239 46.1571C115.487 47.4671 114.072 49.6691 113.534 53.0444C111.971 62.7727 132.994 78.0099 168.15 72.963C166.507 80.3887 161.182 88.6543 161.182 88.6543V88.6543Z" stroke="#1C1C1C" stroke-width="0.477476"/>
<path d="M188.173 134.643C191.934 102.148 161.182 88.6543 161.182 88.6543C159.945 88.3771 161.046 85.7893 162.765 85.9822C164.485 86.1751 196.402 100.143 195.237 130.195C193.22 139.69 188.173 134.643 188.173 134.643V134.643Z" fill="white"/>
<path opacity="0.54" d="M164.304 88.8512C166.965 89.5705 181.306 97.1931 188.265 111.968C193.184 122.416 191.195 131.348 191.685 135.913C189.865 136.315 188.173 134.643 188.173 134.643C191.934 102.148 161.182 88.6543 161.182 88.6543C159.945 88.3771 161.046 85.7893 162.765 85.9822C162.765 85.9942 161.64 88.136 164.304 88.8512V88.8512Z" fill="#CAC9C8"/>
<path fill-rule="evenodd" clip-rule="evenodd" d="M188.173 134.643C191.934 102.148 161.182 88.6543 161.182 88.6543C159.945 88.3771 161.046 85.7893 162.765 85.9822C164.485 86.1751 196.402 100.143 195.237 130.195C193.22 139.69 188.173 134.643 188.173 134.643V134.643Z" stroke="#1C1C1C" stroke-width="0.477476"/>
<path d="M168.158 72.955C168.158 72.955 178.167 72.4045 186.337 66.8955C185.416 70.753 182.387 74.4418 179.176 74.3333C173.868 74.1485 170.914 83.5311 166.599 77.9698C167.603 75.0727 167.427 75.5468 168.158 72.955Z" fill="#1C1C1C" stroke="#1C1C1C" stroke-width="0.477476" stroke-linecap="round"/>
<path d="M109.592 40.7285L112.027 42.3881Z" fill="#F79C87"/>
<path d="M168.11 31.0486C168.11 31.0486 164.256 31.0486 162.653 32.5876C161.552 32.1496 160.644 31.7397 159.527 32.029" stroke="#1C1C1C" stroke-width="0.477476" stroke-linecap="round"/>
<path d="M165.012 26.5239C163.52 25.6428 161.772 25.2983 160.057 25.5475C159.723 25.5838 159.408 25.7244 159.157 25.9493C157.711 27.3999 157.823 29.2081 158.293 28.8103C158.763 28.4125 159.527 27.6048 159.527 27.6048C159.527 27.6048 159.716 29.4251 160.174 28.8706C160.635 28.3879 161.142 27.9518 161.689 27.5687C161.689 27.5687 161.592 29.4934 162.328 28.9751C162.806 28.628 163.239 28.2231 163.617 27.7696C163.617 27.7696 163.798 29.184 164.305 29.0474C164.586 28.967 165.04 28.3683 165.389 27.8419C165.524 27.6192 165.559 27.3507 165.488 27.1007C165.416 26.8507 165.244 26.6417 165.012 26.5239V26.5239Z" fill="#F79C87"/>
<path fill-rule="evenodd" clip-rule="evenodd" d="M165.012 26.5242C163.52 25.6431 161.772 25.2985 160.057 25.5477C159.723 25.5841 159.408 25.7246 159.157 25.9496C157.711 27.4001 157.823 29.2084 158.293 28.8106C158.763 28.4127 159.527 27.6051 159.527 27.6051C159.527 27.6051 159.716 29.4253 160.174 28.8708C160.635 28.3881 161.142 27.9521 161.689 27.5689C161.689 27.5689 161.592 29.4937 162.328 28.9753C162.806 28.6283 163.239 28.2233 163.617 27.7698C163.617 27.7698 163.798 29.1843 164.305 29.0476C164.586 28.9673 165.04 28.3685 165.389 27.8422C165.524 27.6194 165.559 27.3509 165.488 27.1009C165.416 26.8509 165.244 26.642 165.012 26.5242V26.5242Z" stroke="#1C1C1C" stroke-width="0.477476"/>
<path d="M110.288 19.9162C111.222 14.9613 110.829 10.7281 109.412 10.461C107.994 10.1939 106.088 13.9941 105.155 18.949C104.221 23.9039 104.614 28.1372 106.031 28.4042C107.449 28.6713 109.355 24.8711 110.288 19.9162Z" fill="#A0CEFA" stroke="#1C1C1C" stroke-width="0.477476"/>
<path d="M175.781 41.2831C175.781 41.2831 179.429 40.3911 179.799 39.7C179.26 40.8251 178.441 43.8347 175.865 43.8428C175.841 42.7498 175.781 41.2831 175.781 41.2831Z" fill="#1C1C1C" stroke="#1C1C1C" stroke-width="0.477476" stroke-linecap="round"/>
<path d="M122.904 118.213C122.904 118.213 117.327 111.233 117.644 104.076" stroke="#1C1C1C" stroke-width="0.477476" stroke-linecap="round"/>
<path d="M122.904 118.213C122.904 118.213 117.327 111.233 117.644 104.076C116.945 105.82 111.344 116.493 118.231 119.406C122.121 121.05 121.655 131.236 124.166 130.657C123.736 125.526 122.904 118.213 122.904 118.213V118.213Z" fill="#1C1C1C" stroke="#1C1C1C" stroke-width="0.477476" stroke-linecap="round"/>
<path d="M153.439 213.373C143.626 212.509 132.729 212.027 121.253 212.027C116.869 212.027 112.569 212.095 108.394 212.232" stroke="#1C1C1C" stroke-width="0.477476"/>
<path d="M74.2834 215.089C55.4699 217.853 43.3066 222.237 43.3066 227.176C43.3066 235.542 78.2093 242.305 121.261 242.305C164.313 242.305 199.195 235.526 199.195 227.16C199.195 223.061 190.817 219.34 177.207 216.616" stroke="#1C1C1C" stroke-width="0.477476"/>
<path d="M206.191 233.215L206.098 233.091C206.035 233.007 205.978 232.92 205.926 232.829L205.849 232.689C205.808 232.603 205.773 232.515 205.745 232.424C205.728 232.383 205.715 232.342 205.705 232.299C205.671 232.168 205.653 232.033 205.652 231.897C205.654 231.761 205.673 231.626 205.709 231.495C205.724 231.448 205.741 231.401 205.761 231.355C205.791 231.261 205.827 231.17 205.869 231.082C205.901 231.025 205.942 230.969 205.978 230.913C206.026 230.829 206.079 230.748 206.139 230.672C206.187 230.611 206.243 230.551 206.295 230.495C206.362 230.416 206.433 230.341 206.508 230.27C206.573 230.21 206.645 230.149 206.717 230.089C206.79 230.029 206.882 229.944 206.974 229.876C207.067 229.808 207.147 229.751 207.236 229.691L207.537 229.486L207.85 229.301L208.196 229.109L208.558 228.924C208.682 228.859 208.811 228.799 208.959 228.739C209.108 228.679 209.229 228.614 209.361 228.554L209.787 228.377C209.936 228.313 210.089 228.253 210.249 228.192L210.707 228.024L211.218 227.843L211.708 227.682L212.274 227.501L212.785 227.349L213.404 227.172L213.938 227.031C214.163 226.971 214.384 226.911 214.617 226.854L215.147 226.726L215.903 226.545L216.381 226.44C224.518 224.648 236.565 223.515 250.026 223.515C256.62 223.515 262.884 223.788 268.51 224.279H268.606L270.105 224.415H270.286L271.749 224.564H271.817C273.826 224.777 275.707 225.018 277.495 225.287L277.76 225.327L278.873 225.5L279.227 225.556L280.271 225.737L280.593 225.793C281.718 225.998 282.787 226.195 283.808 226.432L284.073 226.493C284.338 226.549 284.591 226.613 284.848 226.673L285.298 226.782L285.981 226.955L286.464 227.083C286.673 227.14 286.865 227.196 287.082 227.256C287.299 227.316 287.408 227.349 287.569 227.401L288.119 227.566L288.698 227.754L289.377 227.991L289.943 228.2L290.313 228.353L290.779 228.546L291.121 228.703C291.265 228.767 291.406 228.835 291.523 228.904L291.824 229.056C291.961 229.129 292.093 229.205 292.226 229.281C292.358 229.358 292.387 229.37 292.463 229.418C292.648 229.53 292.82 229.647 292.981 229.764L293.054 229.816C293.193 229.923 293.327 230.037 293.455 230.157C293.504 230.198 293.544 230.242 293.588 230.286C293.632 230.33 293.757 230.455 293.829 230.539L293.946 230.688C294.005 230.768 294.06 230.851 294.11 230.937C294.141 230.983 294.17 231.032 294.195 231.082C294.236 231.17 294.272 231.262 294.303 231.355C294.303 231.395 294.335 231.439 294.343 231.479C294.418 231.742 294.418 232.02 294.343 232.283C294.343 232.327 294.315 232.371 294.299 232.416C294.268 232.507 294.232 232.597 294.191 232.685L294.102 232.838C294.052 232.922 293.997 233.004 293.938 233.083L293.809 233.239C293.741 233.32 293.668 233.396 293.588 233.476L293.423 233.629C293.335 233.709 293.234 233.79 293.134 233.866C293.074 233.919 293.01 233.969 292.945 234.015C292.82 234.103 292.684 234.192 292.543 234.28L292.378 234.389C292.178 234.509 291.977 234.626 291.74 234.746L291.458 234.883C291.31 234.955 291.165 235.027 291.004 235.1C290.843 235.172 290.759 235.208 290.635 235.261L290.193 235.445C290.052 235.506 289.903 235.558 289.759 235.614C289.614 235.67 289.457 235.731 289.3 235.787L288.81 235.956L288.34 236.112L287.794 236.285L287.336 236.422L286.701 236.603L286.56 236.643C285.985 236.8 285.355 236.956 284.744 237.105L284.458 237.173L283.587 237.37L283.185 237.454L282.277 237.643L281.875 237.72L280.898 237.905L280.533 237.973L279.452 238.162L279.231 238.198C277.001 238.568 274.574 238.893 271.998 239.174H271.861L270.354 239.327H270.198C269.675 239.375 269.149 239.427 268.614 239.472C265.802 239.721 262.824 239.91 259.726 240.042C256.612 240.175 253.373 240.243 250.05 240.243C232.772 240.243 217.812 238.375 210.486 235.646L210.398 235.61C210.177 235.53 209.96 235.445 209.751 235.357L209.606 235.297C209.065 235.073 208.536 234.819 208.023 234.537L207.81 234.417C207.698 234.352 207.593 234.284 207.489 234.216L207.244 234.055L206.986 233.87C206.898 233.802 206.818 233.73 206.737 233.661C206.657 233.593 206.613 233.561 206.556 233.509C206.429 233.418 206.307 233.32 206.191 233.215V233.215Z" fill="#1C1C1C"/>
<path d="M217.249 226.232C222.875 212.381 235.894 172.331 217.928 134.081C213.508 122.866 201.666 107.596 203.061 107.183C204.455 106.769 212.266 110.032 212.266 110.032C212.266 110.032 213.938 86.8502 219.584 82.856C221.235 82.856 219.033 92.3592 219.033 92.3592C219.033 92.3592 223.578 80.8228 226.053 81.2889C227.102 81.8916 223.437 92.9097 223.437 92.9097C223.437 92.9097 228.661 82.1247 229.633 82.5828C230.304 82.9002 231.839 82.181 226.744 94.1473C232.37 85.4719 232.044 90.8443 230.22 96.3534C228.396 101.862 225.334 108.497 234.712 125.554C242.821 140.341 264.347 179.294 261.747 223.805C261.434 229.278 260.747 234.723 259.694 240.103C256.58 240.235 253.341 240.304 250.018 240.304C235.09 240.304 221.89 238.909 213.854 236.767C214.051 234.911 214.443 233.081 215.023 231.307C215.023 231.307 215.931 229.494 217.249 226.232V226.232Z" fill="#F78270"/>
<path d="M213.854 236.767C226.957 218.914 229.388 235.715 243.344 222.129C257.48 195.874 225.406 124.622 224.614 115.456C223.698 104.808 230.959 89.6106 230.959 89.6106C231.859 89.8758 231.297 93.0944 230.216 96.3653C228.392 101.87 225.362 108.48 234.724 125.554C242.833 140.341 264.359 179.294 261.759 223.804C261.445 229.277 260.759 234.723 259.706 240.103C256.592 240.235 253.353 240.303 250.03 240.303C235.09 240.295 221.894 238.909 213.854 236.767H213.854Z" fill="#F79C87"/>
<path fill-rule="evenodd" clip-rule="evenodd" d="M217.249 226.232C222.875 212.381 235.894 172.331 217.928 134.081C213.508 122.866 201.666 107.596 203.061 107.183C204.455 106.769 212.266 110.032 212.266 110.032C212.266 110.032 213.938 86.8502 219.584 82.856C221.235 82.856 219.033 92.3592 219.033 92.3592C219.033 92.3592 223.578 80.8228 226.053 81.2889C227.102 81.8916 223.437 92.9097 223.437 92.9097C223.437 92.9097 228.661 82.1247 229.633 82.5828C230.304 82.9002 231.839 82.181 226.744 94.1473C232.37 85.4719 232.044 90.8443 230.22 96.3534C228.396 101.862 225.334 108.497 234.712 125.554C242.821 140.341 264.347 179.294 261.747 223.805C261.434 229.278 260.747 234.723 259.694 240.103C256.58 240.235 253.341 240.304 250.018 240.304C235.09 240.304 221.89 238.909 213.854 236.767C214.051 234.911 214.443 233.081 215.023 231.307C215.023 231.307 215.931 229.494 217.249 226.232V226.232Z" stroke="#1C1C1C" stroke-width="0.477476"/>
<path d="M261.747 223.821C264.074 223.941 266.328 224.098 268.486 224.287H268.582L270.081 224.423H270.262L271.725 224.572H271.793C273.802 224.785 275.683 225.026 277.471 225.295L277.736 225.335L278.849 225.508L279.203 225.564L280.247 225.745L280.569 225.802C281.694 226.006 282.763 226.203 283.783 226.44L284.049 226.501C284.314 226.557 284.567 226.621 284.824 226.682L285.274 226.79L285.957 226.963L286.44 227.091C286.648 227.148 286.841 227.204 287.058 227.264C287.275 227.324 287.384 227.357 287.545 227.409L288.095 227.574L288.674 227.762L289.353 228L289.919 228.208L290.289 228.361L290.755 228.554L291.097 228.711C291.241 228.775 291.382 228.843 291.498 228.912L291.8 229.064C291.936 229.137 292.069 229.213 292.202 229.289C292.334 229.366 292.362 229.378 292.439 229.426C292.624 229.539 292.796 229.655 292.957 229.772L293.029 229.824C293.169 229.931 293.303 230.045 293.431 230.165C293.479 230.206 293.52 230.25 293.564 230.294C293.608 230.338 293.733 230.463 293.805 230.547L293.922 230.696C293.981 230.776 294.036 230.859 294.086 230.945C294.117 230.991 294.146 231.04 294.171 231.09C294.212 231.179 294.248 231.27 294.279 231.363C294.279 231.403 294.311 231.447 294.319 231.487C294.394 231.75 294.394 232.028 294.319 232.291C294.319 232.335 294.291 232.379 294.275 232.424C294.244 232.515 294.208 232.605 294.167 232.693L294.078 232.846C294.027 232.93 293.973 233.012 293.913 233.091L293.785 233.247C293.717 233.328 293.644 233.404 293.564 233.484L293.399 233.637C293.311 233.718 293.21 233.798 293.11 233.874C293.049 233.927 292.986 233.977 292.921 234.023C292.796 234.111 292.66 234.2 292.519 234.288L292.354 234.397C292.153 234.517 291.953 234.634 291.715 234.754L291.434 234.891C291.286 234.963 291.141 235.036 290.98 235.108C290.819 235.18 290.735 235.216 290.61 235.269L290.168 235.453C290.028 235.514 289.879 235.566 289.734 235.622C289.59 235.678 289.433 235.739 289.276 235.795L288.786 235.964L288.316 236.12L287.77 236.293L287.311 236.43L286.677 236.611L286.536 236.651C285.961 236.808 285.33 236.964 284.72 237.113L284.434 237.181L283.562 237.378L283.161 237.463L282.252 237.651L281.851 237.728L280.874 237.913L280.509 237.981L279.428 238.17L279.207 238.206C276.976 238.576 274.549 238.901 271.974 239.182H271.837L270.33 239.335H270.174C269.651 239.383 269.125 239.436 268.59 239.48C265.778 239.729 262.8 239.918 259.702 240.05C256.588 240.183 253.349 240.251 250.026 240.251C232.747 240.251 217.788 238.383 210.462 235.654L210.374 235.618C210.153 235.538 209.936 235.453 209.727 235.365L209.582 235.305C209.041 235.081 208.512 234.828 207.999 234.545L207.786 234.425C207.674 234.36 207.569 234.292 207.465 234.224L207.219 234.063L206.962 233.878C206.874 233.81 206.794 233.738 206.713 233.669C206.633 233.601 206.589 233.569 206.532 233.517C206.414 233.406 206.303 233.288 206.199 233.163L206.106 233.038C206.043 232.955 205.986 232.868 205.934 232.777L205.857 232.637C205.816 232.551 205.781 232.462 205.753 232.371C205.736 232.331 205.723 232.289 205.713 232.247C205.679 232.116 205.661 231.981 205.66 231.845C205.662 231.709 205.681 231.574 205.717 231.443C205.732 231.395 205.749 231.349 205.769 231.303C205.799 231.209 205.835 231.118 205.877 231.029C205.91 230.973 205.95 230.917 205.986 230.861C206.034 230.777 206.088 230.696 206.147 230.619C206.195 230.559 206.251 230.499 206.303 230.443C206.37 230.364 206.441 230.289 206.516 230.218C206.581 230.157 206.653 230.097 206.725 230.037C206.798 229.977 206.89 229.892 206.982 229.824C207.075 229.756 207.155 229.699 207.244 229.639L207.545 229.434L207.858 229.249L208.204 229.056L208.566 228.872C208.69 228.807 208.819 228.747 208.967 228.687C209.116 228.626 209.237 228.562 209.369 228.502L209.795 228.325C209.944 228.261 210.097 228.2 210.257 228.14L210.715 227.971L211.226 227.791L211.716 227.63L212.282 227.449L212.793 227.296L213.412 227.12L213.946 226.979C214.171 226.919 214.392 226.858 214.625 226.802L215.156 226.674L215.911 226.493L216.389 226.388L217.265 226.203" stroke="#1C1C1C" stroke-width="0.477476"/>
<path d="M80.6764 147.771C81.6461 148.099 82.7182 147.814 83.3968 147.048C83.3968 147.048 84.3933 146.244 84.2567 143.64C84.1201 141.036 88.3432 141.117 89.167 144.235C89.6821 146.22 89.1229 148.33 87.6923 149.8C89.9952 151.789 91.9259 154.171 93.3942 156.836C90.0711 160.256 87.0735 162.807 87.0735 162.807L70.1968 141.346C70.1968 141.346 75.1674 145.935 80.6764 147.771V147.771Z" fill="#F75B31"/>
<path d="M166.414 165.21C168.592 165.25 169.966 166.014 170.834 166.882C172.478 164.276 174.594 162 177.074 160.171C177.715 161.676 178.201 163.242 178.525 164.845C178.159 176.594 169.058 190.682 169.058 190.682C169.058 190.682 169.327 181.757 169.179 171.676C168.234 171.274 166.723 171.157 164.618 172.511C160.768 174.987 160.929 165.118 166.414 165.21V165.21Z" fill="#F75B31"/>
<path d="M169.191 184.47C177.022 176.12 177.083 160.794 177.083 160.794L177.368 160.899C177.873 162.177 178.263 163.497 178.533 164.845C178.168 176.594 169.066 190.682 169.066 190.682C169.066 190.682 169.143 188.239 169.191 184.47V184.47Z" fill="#D33E24"/>
<path fill-rule="evenodd" clip-rule="evenodd" d="M166.414 165.21C168.592 165.25 169.966 166.014 170.834 166.882C172.478 164.276 174.594 162 177.074 160.171C177.715 161.676 178.201 163.242 178.525 164.845C178.159 176.594 169.058 190.682 169.058 190.682C169.058 190.682 169.327 181.757 169.179 171.676C168.234 171.274 166.723 171.157 164.618 172.511C160.768 174.987 160.929 165.118 166.414 165.21V165.21Z" stroke="#1C1C1C" stroke-width="0.348523"/>
<path d="M178.774 19.7332C178.774 19.7332 175.985 20.0345 175.262 21.8468Z" fill="#F9A230"/>
<path d="M178.774 19.7332C178.774 19.7332 175.985 20.0345 175.262 21.8468" stroke="#1C1C1C" stroke-width="0.348523"/>
<path d="M170.36 36.2483C170.36 36.2483 174.23 37.0077 174.997 36.622C174.997 38.2293 171.783 38.9968 171.108 38.7155C170.633 38.2413 170.36 36.2483 170.36 36.2483Z" fill="white" stroke="#1C1C1C" stroke-width="0.348523"/>
<path d="M175.266 31.5428C175.318 31.0084 174.752 30.5141 174.001 30.4418C173.249 30.3695 172.598 30.7432 172.546 31.2776" stroke="#1C1C1C" stroke-width="0.348523"/>
<path d="M162.979 20.7939C163.216 21.2228 163.496 21.6266 163.814 21.9994" stroke="white" stroke-width="0.348523"/>
<path d="M175.459 18.8411C175.459 18.8411 169.585 14.5013 164.763 15.6747C163.039 16.0765 162.271 17.282 162.352 18.7406" stroke="white" stroke-width="0.348523"/>
<path d="M138.138 63.3311C140.533 63.3259 142.762 64.5566 144.034 66.5867C145.305 68.6168 145.44 71.1593 144.39 73.3124C139.891 72.7556 135.466 71.7156 131.19 70.2103C131.23 66.4009 134.328 63.3331 138.138 63.3311Z" fill="#A0CEFA" stroke="#1C1C1C" stroke-width="0.348523"/>
<path d="M88.2026 157.592C89.7858 157.511 92.5062 155.791 93.342 156.74L93.3942 156.836C90.0711 160.256 87.0735 162.807 87.0735 162.807L70.1968 141.346C79.0691 150.937 84.8996 157.768 88.2026 157.592Z" fill="#D33E24"/>
<path d="M81.8057 146.762C82.7755 147.771 83.3466 149.098 83.413 150.495" stroke="white" stroke-width="0.348523"/>
<path d="M79.5713 146.119C80.5405 147.13 81.1113 148.458 81.1786 149.856" stroke="white" stroke-width="0.348523"/>
<path d="M77.3372 145.465C78.307 146.473 78.8781 147.8 78.9445 149.198" stroke="white" stroke-width="0.348523"/>
<path fill-rule="evenodd" clip-rule="evenodd" d="M78.4865 144.464C78.4865 144.464 75.2196 139.807 74.7334 141.406C74.2472 143.005 78.4865 144.464 78.4865 144.464Z" stroke="white" stroke-width="0.348523"/>
<path fill-rule="evenodd" clip-rule="evenodd" d="M79.3706 144.392C79.3706 144.392 82.6375 139.73 83.1237 141.33C83.6099 142.929 79.3706 144.392 79.3706 144.392Z" stroke="white" stroke-width="0.348523"/>
<path d="M168.166 175.734C168.785 174.48 169.837 173.493 171.127 172.953" stroke="white" stroke-width="0.348523"/>
<path d="M168.335 178.053C168.952 176.799 170.002 175.811 171.292 175.272" stroke="white" stroke-width="0.348523"/>
<path d="M168.5 180.371C169.119 179.117 170.171 178.129 171.461 177.59" stroke="white" stroke-width="0.348523"/>
<path fill-rule="evenodd" clip-rule="evenodd" d="M167.153 179.64C167.153 179.64 163.899 184.309 165.57 184.217C167.242 184.124 167.153 179.64 167.153 179.64Z" stroke="white" stroke-width="0.348523"/>
<path fill-rule="evenodd" clip-rule="evenodd" d="M166.78 178.816C166.78 178.816 161.279 177.353 162.613 176.345C163.947 175.336 166.78 178.816 166.78 178.816Z" stroke="white" stroke-width="0.348523"/>
<path d="M195.056 162.807L189.547 166.589C189.547 166.589 183.335 163.736 180.667 166.589" stroke="#1C1C1C" stroke-width="0.348523"/>
<path d="M88.3352 100.388C87.7847 101.826 87.2824 103.249 86.8284 104.623" stroke="#1C1C1C" stroke-width="0.348523"/>
<path d="M112.509 77.5036C107.86 77.3268 100.925 78.6166 95.5481 86.2674C93.3061 89.5411 91.396 93.0301 89.8462 96.6827" stroke="#1C1C1C" stroke-width="0.348523"/>
<path d="M117.644 78.3595C116.852 78.0966 116.038 77.899 115.213 77.7688" stroke="#1C1C1C" stroke-width="0.348523"/>
<path d="M103.87 3.26636L107.406 8.77941" stroke="#1C1C1C" stroke-width="0.348523"/>
<path d="M100.069 6.30005L105.819 9.90845" stroke="#1C1C1C" stroke-width="0.348523"/>
<path d="M108.334 1L109.214 7.73059" stroke="#1C1C1C" stroke-width="0.348523"/>
<path d="M218.752 72.3081C218.997 73.2524 219.21 74.2329 219.383 75.2495" stroke="#1C1C1C" stroke-width="0.348523"/>
<path d="M216.208 65.6377C216.645 66.4896 217.053 67.3843 217.434 68.3219" stroke="#1C1C1C" stroke-width="0.348523"/>
<path d="M203.503 51.9075C208.169 54.7455 212.084 58.6635 214.919 63.3314" stroke="#1C1C1C" stroke-width="0.348523"/>
<path d="M67.3518 195.062C67.605 196.822 67.8059 198.59 67.9425 200.354" stroke="#1C1C1C" stroke-width="0.348523"/>
<path d="M56.5227 159.81C60.0072 167.525 62.8523 175.513 65.0294 183.694" stroke="#1C1C1C" stroke-width="0.348523"/>
<path d="M53.2959 153.099C53.2959 153.099 54.0192 154.449 55.1483 156.824" stroke="#1C1C1C" stroke-width="0.348523"/>
<path d="M192.517 195.641C190.777 200.962 188.361 206.039 185.328 210.745" stroke="#1C1C1C" stroke-width="0.348523"/>
<path d="M195.056 185.04C194.852 186.596 194.566 188.14 194.2 189.665" stroke="#1C1C1C" stroke-width="0.348523"/>
<path d="M262.599 181.93C262.945 183.618 263.258 185.328 263.539 187.061" stroke="#1C1C1C" stroke-width="0.348523"/>
<path d="M248.684 142.768C252.995 151.315 257.982 162.944 261.293 176.176" stroke="#1C1C1C" stroke-width="0.348523"/>
<path fill-rule="evenodd" clip-rule="evenodd" d="M80.6764 147.771C81.6461 148.099 82.7182 147.814 83.3968 147.048C83.3968 147.048 84.3933 146.244 84.2567 143.64C84.1201 141.036 88.3432 141.117 89.167 144.235C89.6821 146.22 89.1229 148.33 87.6923 149.8C89.9952 151.789 91.9259 154.171 93.3942 156.836C90.0711 160.256 87.0735 162.807 87.0735 162.807L70.1968 141.346C70.1968 141.346 75.1674 145.935 80.6764 147.771V147.771Z" stroke="#1C1C1C" stroke-width="0.348523"/>
</svg>
