<svg width="59" height="64" viewBox="0 0 59 64" fill="none" xmlns="http://www.w3.org/2000/svg">
<path fill-rule="evenodd" clip-rule="evenodd" d="M25.2887 0.442993H29.1392C29.3037 0.834775 29.4782 1.2127 29.6685 1.57439C30.5059 3.16545 31.664 4.48027 33.6431 5.41368C35.6029 6.33801 38.3413 6.87567 42.3192 6.98318C44.134 7.03223 45.7404 6.95258 47.1725 6.78972C47.3587 7.49128 47.458 8.22827 47.458 8.98845V11.5509C45.4172 12.0089 42.9289 12.3165 39.7786 12.2313C35.852 12.1252 33.2494 11.5947 31.444 10.7431C29.6577 9.90071 28.626 8.73201 27.8611 7.27875C27.2794 6.17348 26.86 4.92474 26.3864 3.51444L26.3863 3.51403C26.2235 3.02922 26.0543 2.52532 25.8698 2.00159C25.6917 1.49583 25.5006 0.975828 25.2887 0.442993ZM38.9126 0.442993C42.566 0.442993 45.684 2.73573 46.9062 5.96089C45.5559 6.10621 44.0459 6.17499 42.3423 6.12895C38.4156 6.02282 35.8131 5.4923 34.0076 4.64078C32.2214 3.79834 31.1896 2.62964 30.4247 1.17638C30.2996 0.938619 30.182 0.694216 30.0697 0.442993H38.9126ZM24.3671 0.442993H19.2961C19.55 0.747811 19.7976 1.07618 20.0383 1.42919C21.67 3.82233 22.5925 6.07745 23.3062 8.10396C23.4907 8.6278 23.6599 9.13181 23.8228 9.61672L23.8228 9.61673L23.8228 9.61681L23.8228 9.61684L23.8228 9.61688L23.8228 9.61691L23.8228 9.61695C24.2964 11.0272 24.7158 12.2759 25.2975 13.3811C26.0623 14.8344 27.0941 16.0031 28.8803 16.8455C30.6858 17.697 33.2883 18.2276 37.215 18.3337C41.8209 18.4582 45.0117 17.7433 47.458 16.9457V12.4248C45.3933 12.8722 42.8841 13.1701 39.7556 13.0855C35.7777 12.978 33.0393 12.4404 31.0794 11.516C29.1003 10.5826 27.9423 9.26781 27.1049 7.67675C26.4883 6.50528 26.0379 5.16345 25.5575 3.7322L25.5575 3.73218L25.5575 3.73216L25.5575 3.73215C25.3986 3.25872 25.2364 2.77551 25.0638 2.28544C24.8532 1.68748 24.6254 1.07282 24.3671 0.442993ZM9.00346 0.442993H18.1512C18.5579 0.866978 18.9528 1.35398 19.3323 1.91059C20.9051 4.21746 21.7985 6.39528 22.5002 8.38781C22.6727 8.87787 22.8349 9.36108 22.9939 9.83451L22.9939 9.83453C23.4743 11.2658 23.9247 12.6076 24.5413 13.7791C25.3787 15.3702 26.5367 16.685 28.5158 17.6184C30.4757 18.5427 33.214 19.0804 37.1919 19.1879C41.7469 19.311 44.9889 18.6234 47.458 17.8442V22.1216L47.2865 22.1868C44.5695 23.2193 40.9218 24.6055 34.6514 24.436C30.7247 24.3299 28.1222 23.7994 26.3167 22.9479C24.5305 22.1054 23.4987 20.9367 22.7338 19.4835C22.1521 18.3782 21.7328 17.1295 21.2592 15.7192L21.2592 15.7192L21.2591 15.7191L21.2591 15.7191C21.0963 15.2342 20.927 14.7302 20.7426 14.2063C20.0289 12.1798 19.1064 9.9247 17.4747 7.53156C16.1505 5.58951 14.6163 4.39334 12.9905 3.76093C11.3674 3.12957 9.6833 3.07174 8.07444 3.35653C5.1705 3.87056 2.47057 5.50696 0.690415 7.00065C1.58638 3.23979 4.96831 0.442993 9.00346 0.442993ZM0.532685 7.85372C0.483429 8.22497 0.458008 8.60374 0.458008 8.98845V11.4422C1.94358 10.5473 3.68696 9.78174 5.51081 9.45889C7.11966 9.17411 8.80373 9.23193 10.4268 9.86329C12.0526 10.4957 13.5869 11.6919 14.911 13.6339C16.5427 16.0271 17.4653 18.2822 18.1789 20.3087C18.3634 20.8325 18.5326 21.3364 18.6954 21.8213L18.6955 21.8215L18.6955 21.8215L18.6955 21.8216C19.1691 23.2318 19.5885 24.4806 20.1702 25.5858C20.9351 27.0391 21.9668 28.2078 23.7531 29.0502C25.5585 29.9018 28.1611 30.4323 32.0877 30.5384C38.3582 30.7079 42.0058 29.3217 44.7229 28.2891C45.3904 28.0355 46.0017 27.8032 46.582 27.6205C46.8796 27.5268 47.1708 27.4458 47.458 27.3823V23.0375C44.75 24.0677 40.9561 25.4613 34.6283 25.2903C30.6504 25.1828 27.912 24.6451 25.9522 23.7208C23.9731 22.7874 22.815 21.4725 21.9776 19.8815C21.3611 18.71 20.9106 17.3681 20.4302 15.9369C20.2713 15.4635 20.1091 14.9802 19.9365 14.4902C19.2348 12.4977 18.3415 10.3198 16.7686 8.01296C15.5291 6.19501 14.1259 5.11951 12.6807 4.55734C11.2327 3.99412 9.71227 3.93444 8.22339 4.19799C5.23166 4.72756 2.4189 6.5544 0.746727 8.08722L0.532685 7.85372ZM46.8386 28.4356C47.052 28.3684 47.2579 28.3094 47.458 28.2598V33.5125C46.3059 33.1757 45.2145 33.3463 44.0183 33.7228C43.4381 33.9055 42.8268 34.1378 42.1593 34.3915L42.1593 34.3915C39.4422 35.4241 35.7946 36.8103 29.5241 36.6408C25.5974 36.5347 22.9949 36.0041 21.1894 35.1526C19.4032 34.3102 18.3714 33.1415 17.6066 31.6882C17.0249 30.583 16.6055 29.3343 16.132 27.9241L16.1319 27.9241L16.1319 27.924L16.1319 27.9239L16.1319 27.9239C15.969 27.439 15.7998 26.9349 15.6153 26.4111C14.9016 24.3846 13.9791 22.1294 12.3474 19.7363C11.0233 17.7942 9.48898 16.5981 7.86319 15.9657C6.24009 15.3343 4.55602 15.2765 2.94717 15.5613C2.09378 15.7123 1.258 15.9603 0.458008 16.2731V12.4486C1.96046 11.4829 3.77458 10.6341 5.65976 10.3004C7.14863 10.0368 8.66911 10.0965 10.117 10.6597C11.5623 11.2219 12.9655 12.2974 14.205 14.1153C15.7778 16.4222 16.6712 18.6 17.3729 20.5925C17.5455 21.0826 17.7077 21.5658 17.8666 22.0392C18.347 23.4705 18.7974 24.8124 19.414 25.9839C20.2514 27.5749 21.4094 28.8897 23.3885 29.8231C25.3484 30.7475 28.0868 31.2851 32.0646 31.3926C38.5198 31.5671 42.338 30.1133 45.0566 29.0782C45.7064 28.8307 46.2934 28.6072 46.8386 28.4356ZM0.458008 17.1949V21.6507C2.04431 21.3808 3.70148 21.4464 5.29955 22.068C6.92534 22.7004 8.45963 23.8966 9.78376 25.8387C11.4154 28.2318 12.338 30.4869 13.0516 32.5134C13.2361 33.0372 13.4054 33.5412 13.5682 34.0261L13.5683 34.0263L13.5683 34.0263C14.0419 35.4366 14.4612 36.6853 15.0429 37.7906C15.8078 39.2438 16.8396 40.4125 18.6258 41.255C20.4313 42.1065 23.0338 42.637 26.9605 42.7431C33.2309 42.9126 36.8785 41.5264 39.5956 40.4939C40.2631 40.2402 40.8744 40.0079 41.4547 39.8252C42.9489 39.3548 44.2795 39.2059 45.7694 39.9656C46.2349 40.203 46.7108 40.5266 47.2101 40.9494C47.3721 40.2921 47.458 39.6049 47.458 38.8975V34.4115C46.4396 34.0403 45.4756 34.16 44.2749 34.538C43.73 34.7095 43.1432 34.9329 42.4936 35.1803L42.4933 35.1804L42.493 35.1805L42.4929 35.1805C39.7744 36.2157 35.9562 37.6695 29.501 37.495C25.5231 37.3875 22.7848 36.8498 20.8249 35.9255C18.8458 34.9921 17.6878 33.6773 16.8504 32.0862C16.2338 30.9147 15.7834 29.5729 15.303 28.1416L15.3029 28.1416C15.144 27.6682 14.9818 27.185 14.8093 26.6949C14.1076 24.7024 13.2142 22.5246 11.6413 20.2177C10.4018 18.3997 8.99863 17.3242 7.5534 16.7621C6.10547 16.1989 4.58499 16.1392 3.09612 16.4027C2.19153 16.5628 1.30329 16.8416 0.458008 17.1949ZM45.3812 40.7269C45.8634 40.9728 46.3743 41.3349 46.9359 41.8455C46.1936 43.8652 44.7104 45.527 42.8158 46.5015C41.4803 45.9505 40.2537 46.1121 38.8911 46.541C38.311 46.7236 37.7 46.9558 37.0328 47.2094L37.0326 47.2095L37.0323 47.2096L37.032 47.2097L37.031 47.2101C36.831 47.2861 36.6261 47.3639 36.4154 47.443H15.1027C13.885 46.6634 13.0955 45.6772 12.4793 44.5064C11.8976 43.4011 11.4782 42.1524 11.0046 40.7421L11.0046 40.7421C10.8418 40.2572 10.6725 39.7531 10.488 39.2292C9.77436 37.2027 8.85181 34.9476 7.22012 32.5545C5.896 30.6124 4.36171 29.4163 2.73592 28.7838C1.98517 28.4918 1.22137 28.3225 0.458008 28.253V22.5185L0.532483 22.5051C2.02136 22.2415 3.54183 22.3012 4.98976 22.8644C6.43499 23.4266 7.8382 24.5021 9.07771 26.3201C10.6506 28.6269 11.5439 30.8047 12.2456 32.7973C12.4182 33.2873 12.5804 33.7706 12.7393 34.244L12.7393 34.244C13.2197 35.6753 13.6702 37.0171 14.2867 38.1886C15.1241 39.7796 16.2822 41.0945 18.2613 42.0279C20.2211 42.9522 22.9595 43.4899 26.9374 43.5974C33.3926 43.7718 37.2107 42.318 39.9293 41.2829L39.9294 41.2828L39.9296 41.2828L39.93 41.2826C40.5796 41.0353 41.1663 40.8119 41.7113 40.6403C43.1012 40.2028 44.174 40.1113 45.3812 40.7269ZM0.458008 29.1115V34.7625C1.97772 35.4207 3.4102 36.5879 4.65649 38.4157C6.28817 40.8089 7.21072 43.064 7.92437 45.0905C8.10886 45.6144 8.27813 46.1184 8.44098 46.6034L8.44099 46.6034L8.44102 46.6035C8.53668 46.8884 8.63014 47.1666 8.72316 47.4385C8.81623 47.4415 8.90967 47.443 9.00346 47.443H13.6799C12.841 46.7109 12.2246 45.8572 11.7231 44.9044C11.1065 43.7329 10.6561 42.3911 10.1757 40.9598C10.0168 40.4864 9.85456 40.0032 9.68198 39.5131C8.9803 37.5206 8.08694 35.3427 6.51407 33.0359C5.27456 31.2179 3.87135 30.1424 2.42612 29.5803C1.7814 29.3295 1.1223 29.1785 0.458008 29.1115ZM0.458008 38.8975V35.7042C1.69183 36.3146 2.88196 37.33 3.95044 38.8971C5.5233 41.204 6.41666 43.3818 7.11835 45.3744C7.29093 45.8644 7.45312 46.3476 7.61204 46.8211C7.6726 47.0015 7.73268 47.1805 7.79268 47.3579C3.64656 46.7698 0.458008 43.206 0.458008 38.8975ZM38.8809 47.443H38.9126C39.8261 47.443 40.7062 47.2996 41.5315 47.0342C40.7877 46.9395 40.0319 47.0778 39.1477 47.3561C39.0599 47.3838 38.971 47.4128 38.8809 47.443Z" fill="#F9A230"/>
<path d="M35.3024 63.9043C21.3225 63.9043 12.0333 56.7304 9.45801 47.5331L19.2991 38.7957C21.1386 46.7974 26.1051 51.396 34.9345 51.396C41.1887 51.396 44.6837 48.7288 44.6837 44.1302C44.6837 39.0716 40.3609 37.4161 33.9228 37.4161H24.4496V26.8392H34.5666C40.085 26.8392 43.58 24.9078 43.58 20.3092C43.58 15.9864 40.4529 13.0433 34.9345 13.0433C27.7606 13.0433 22.2423 16.8142 20.6787 24.264L10.8376 15.7105C13.5968 7.249 22.3342 0.442993 35.3944 0.442993C49.6502 0.442993 56.9161 8.53661 56.9161 17.366C56.9161 26.6553 49.4663 31.162 41.0047 31.6218C53.1452 31.9897 58.9395 38.5198 58.9395 47.1653C58.9395 57.6502 48.8224 63.9043 35.3024 63.9043Z" fill="white"/>
</svg>
