<svg width="48" height="78" viewBox="0 0 48 78" fill="none" xmlns="http://www.w3.org/2000/svg">
<path fill-rule="evenodd" clip-rule="evenodd" d="M24.8307 30.443H28.6812C28.8456 30.8348 29.0202 31.2127 29.2105 31.5744C30.0479 33.1654 31.206 34.4803 33.1851 35.4137C35.1449 36.338 37.8833 36.8757 41.8612 36.9832C43.676 37.0322 45.2824 36.9526 46.7145 36.7897C46.9007 37.4913 47 38.2283 47 38.9884V41.5509C44.9592 42.0089 42.4709 42.3165 39.3206 42.2313C35.394 42.1252 32.7914 41.5947 30.986 40.7431C29.1997 39.9007 28.168 38.732 27.4031 37.2788C26.8214 36.1735 26.402 34.9247 25.9284 33.5144L25.9283 33.514C25.7655 33.0292 25.5963 32.5253 25.4118 32.0016C25.2337 31.4958 25.0426 30.9758 24.8307 30.443ZM38.4545 30.443C42.108 30.443 45.226 32.7357 46.4482 35.9609C45.0979 36.1062 43.5879 36.175 41.8843 36.1289C37.9576 36.0228 35.3551 35.4923 33.5496 34.6408C31.7634 33.7983 30.7316 32.6296 29.9667 31.1764C29.8416 30.9386 29.724 30.6942 29.6117 30.443H38.4545ZM23.9091 30.443H18.8381C19.092 30.7478 19.3396 31.0762 19.5803 31.4292C21.212 33.8223 22.1345 36.0775 22.8482 38.104C23.0327 38.6278 23.2019 39.1318 23.3648 39.6167L23.3648 39.6167L23.3648 39.6168L23.3648 39.6168L23.3648 39.6169L23.3648 39.6169L23.3648 39.6169C23.8384 41.0272 24.2578 42.2759 24.8395 43.3811C25.6043 44.8344 26.6361 46.0031 28.4223 46.8455C30.2278 47.697 32.8303 48.2276 36.757 48.3337C41.3629 48.4582 44.5537 47.7433 47 46.9457V42.4248C44.9353 42.8722 42.4261 43.1701 39.2976 43.0855C35.3197 42.978 32.5813 42.4404 30.6214 41.516C28.6423 40.5826 27.4843 39.2678 26.6469 37.6768C26.0303 36.5053 25.5799 35.1634 25.0995 33.7322L25.0995 33.7322L25.0995 33.7322L25.0995 33.7321C24.9406 33.2587 24.7784 32.7755 24.6058 32.2854C24.3952 31.6875 24.1674 31.0728 23.9091 30.443ZM8.54545 30.443H17.6932C18.0999 30.867 18.4947 31.354 18.8742 31.9106C20.4471 34.2175 21.3405 36.3953 22.0422 38.3878C22.2147 38.8779 22.3769 39.3611 22.5358 39.8345L22.5359 39.8345C23.0163 41.2658 23.4667 42.6076 24.0833 43.7791C24.9207 45.3702 26.0787 46.685 28.0578 47.6184C30.0177 48.5427 32.756 49.0804 36.7339 49.1879C41.2889 49.311 44.5309 48.6234 47 47.8442V52.1216L46.8285 52.1868C44.1114 53.2193 40.4638 54.6055 34.1934 54.436C30.2667 54.3299 27.6642 53.7994 25.8587 52.9479C24.0725 52.1054 23.0407 50.9367 22.2758 49.4835C21.6941 48.3782 21.2748 47.1295 20.8012 45.7192L20.8012 45.7192L20.8011 45.7191L20.8011 45.7191C20.6383 45.2342 20.469 44.7302 20.2845 44.2063C19.5709 42.1798 18.6483 39.9247 17.0167 37.5316C15.6925 35.5895 14.1582 34.3933 12.5325 33.7609C10.9094 33.1296 9.22529 33.0717 7.61644 33.3565C4.71249 33.8706 2.01257 35.507 0.232407 37.0006C1.12837 33.2398 4.5103 30.443 8.54545 30.443ZM0.0746767 37.8537C0.0254216 38.225 0 38.6037 0 38.9884V41.4422C1.48558 40.5473 3.22895 39.7817 5.0528 39.4589C6.66165 39.1741 8.34572 39.2319 9.96882 39.8633C11.5946 40.4957 13.1289 41.6919 14.453 43.6339C16.0847 46.0271 17.0073 48.2822 17.7209 50.3087C17.9054 50.8325 18.0746 51.3364 18.2374 51.8213L18.2375 51.8215L18.2375 51.8215L18.2375 51.8216C18.7111 53.2318 19.1305 54.4806 19.7122 55.5858C20.4771 57.0391 21.5088 58.2078 23.295 59.0502C25.1005 59.9018 27.7031 60.4323 31.6297 60.5384C37.9002 60.7079 41.5478 59.3217 44.2649 58.2891C44.9324 58.0355 45.5437 57.8032 46.124 57.6205C46.4216 57.5268 46.7128 57.4458 47 57.3823V53.0375C44.292 54.0677 40.4981 55.4613 34.1703 55.2903C30.1924 55.1828 27.454 54.6451 25.4942 53.7208C23.5151 52.7874 22.357 51.4725 21.5196 49.8815C20.9031 48.71 20.4526 47.3681 19.9722 45.9369C19.8133 45.4635 19.6511 44.9802 19.4785 44.4902C18.7768 42.4977 17.8835 40.3198 16.3106 38.013C15.0711 36.195 13.6679 35.1195 12.2227 34.5573C10.7747 33.9941 9.25426 33.9344 7.76538 34.198C4.77366 34.7276 1.96089 36.5544 0.288719 38.0872L0.0746767 37.8537ZM46.3806 58.4356C46.594 58.3684 46.7999 58.3094 47 58.2598V63.5125C45.8479 63.1757 44.7565 63.3463 43.5603 63.7228C42.9801 63.9055 42.3688 64.1378 41.7013 64.3915L41.7013 64.3915C38.9842 65.4241 35.3366 66.8103 29.0661 66.6408C25.1394 66.5347 22.5369 66.0041 20.7314 65.1526C18.9452 64.3102 17.9134 63.1415 17.1486 61.6882C16.5669 60.583 16.1475 59.3343 15.6739 57.9241L15.6739 57.9241L15.6739 57.924L15.6739 57.9239L15.6739 57.9239C15.511 57.439 15.3418 56.9349 15.1573 56.4111C14.4436 54.3846 13.5211 52.1294 11.8894 49.7363C10.5653 47.7942 9.03097 46.5981 7.40518 45.9657C5.78208 45.3343 4.09802 45.2765 2.48916 45.5613C1.63577 45.7123 0.799991 45.9603 0 46.2731V42.4486C1.50246 41.4829 3.31657 40.6341 5.20175 40.3004C6.69062 40.0368 8.2111 40.0965 9.65902 40.6597C11.1043 41.2219 12.5075 42.2974 13.747 44.1153C15.3198 46.4222 16.2132 48.6 16.9149 50.5925C17.0875 51.0826 17.2497 51.5658 17.4086 52.0392C17.889 53.4705 18.3394 54.8124 18.956 55.9839C19.7934 57.5749 20.9514 58.8897 22.9305 59.8231C24.8904 60.7475 27.6288 61.2851 31.6066 61.3926C38.0618 61.5671 41.88 60.1133 44.5986 59.0782C45.2484 58.8307 45.8354 58.6072 46.3806 58.4356ZM0 47.1949V51.6507C1.5863 51.3808 3.24347 51.4464 4.84154 52.068C6.46734 52.7004 8.00163 53.8966 9.32575 55.8387C10.9574 58.2318 11.88 60.4869 12.5936 62.5134C12.7781 63.0372 12.9473 63.5412 13.1102 64.0261L13.1102 64.0263L13.1103 64.0263C13.5839 65.4366 14.0032 66.6853 14.5849 67.7906C15.3498 69.2438 16.3815 70.4125 18.1678 71.255C19.9733 72.1065 22.5758 72.637 26.5025 72.7431C32.7729 72.9126 36.4205 71.5264 39.1376 70.4939C39.8051 70.2402 40.4164 70.0079 40.9967 69.8252C42.4909 69.3548 43.8215 69.2059 45.3114 69.9656C45.7769 70.203 46.2528 70.5266 46.7521 70.9494C46.9141 70.2921 47 69.6049 47 68.8975V64.4115C45.9815 64.0403 45.0176 64.16 43.8169 64.538C43.272 64.7095 42.6852 64.9329 42.0356 65.1803L42.0353 65.1804L42.035 65.1805L42.0349 65.1805C39.3164 66.2157 35.4982 67.6695 29.043 67.495C25.0651 67.3875 22.3267 66.8498 20.3669 65.9255C18.3878 64.9921 17.2298 63.6773 16.3924 62.0862C15.7758 60.9147 15.3254 59.5729 14.8449 58.1416L14.8449 58.1416C14.686 57.6682 14.5238 57.185 14.3512 56.6949C13.6496 54.7024 12.7562 52.5246 11.1833 50.2177C9.94383 48.3997 8.54062 47.3242 7.09539 46.7621C5.64746 46.1989 4.12698 46.1392 2.63811 46.4027C1.73352 46.5628 0.845287 46.8416 0 47.1949ZM44.9232 70.7269C45.4054 70.9728 45.9163 71.3349 46.4779 71.8455C45.7356 73.8652 44.2524 75.527 42.3578 76.5015C41.0223 75.9505 39.7957 76.1121 38.4331 76.541C37.853 76.7236 37.242 76.9558 36.5748 77.2094L36.5746 77.2095L36.5743 77.2096L36.574 77.2097L36.5729 77.2101C36.373 77.2861 36.1681 77.3639 35.9574 77.443H14.6447C13.427 76.6634 12.6375 75.6772 12.0213 74.5064C11.4396 73.4011 11.0202 72.1524 10.5466 70.7421L10.5466 70.7421C10.3838 70.2572 10.2145 69.7531 10.03 69.2292C9.31635 67.2027 8.3938 64.9476 6.76212 62.5545C5.43799 60.6124 3.9037 59.4163 2.27791 58.7838C1.52716 58.4918 0.763363 58.3225 0 58.253V52.5185L0.0744748 52.5051C1.56335 52.2415 3.08383 52.3012 4.53175 52.8644C5.97698 53.4266 7.38019 54.5021 8.6197 56.3201C10.1926 58.6269 11.0859 60.8047 11.7876 62.7973C11.9602 63.2873 12.1224 63.7706 12.2813 64.244L12.2813 64.244C12.7617 65.6753 13.2121 67.0171 13.8287 68.1886C14.6661 69.7796 15.8241 71.0945 17.8033 72.0279C19.7631 72.9522 22.5015 73.4899 26.4794 73.5974C32.9345 73.7718 36.7527 72.318 39.4713 71.2829L39.4714 71.2828L39.4716 71.2828L39.472 71.2826C40.1215 71.0353 40.7083 70.8119 41.2533 70.6403C42.6432 70.2028 43.716 70.1113 44.9232 70.7269ZM0 59.1115V64.7625C1.51971 65.4207 2.95219 66.5879 4.19848 68.4157C5.83016 70.8089 6.75271 73.064 7.46637 75.0905C7.65085 75.6144 7.82012 76.1184 7.98297 76.6034L7.98298 76.6034L7.98301 76.6035C8.07867 76.8884 8.17213 77.1666 8.26516 77.4385C8.35822 77.4415 8.45166 77.443 8.54545 77.443H13.2219C12.383 76.7109 11.7665 75.8572 11.2651 74.9044C10.6485 73.7329 10.1981 72.3911 9.71767 70.9598C9.55875 70.4864 9.39656 70.0032 9.22398 69.5131C8.52229 67.5206 7.62893 65.3427 6.05607 63.0359C4.81656 61.2179 3.41335 60.1424 1.96811 59.5803C1.3234 59.3295 0.664293 59.1785 0 59.1115ZM0 68.8975V65.7042C1.23382 66.3146 2.42395 67.33 3.49243 68.8971C5.06529 71.204 5.95865 73.3818 6.66034 75.3744C6.83292 75.8644 6.99512 76.3476 7.15403 76.8211C7.21459 77.0015 7.27467 77.1805 7.33467 77.3579C3.18856 76.7698 0 73.206 0 68.8975ZM38.4229 77.443H38.4545C39.3681 77.443 40.2482 77.2996 41.0735 77.0342C40.3297 76.9395 39.5739 77.0778 38.6897 77.3561C38.6019 77.3838 38.513 77.4128 38.4229 77.443Z" fill="#F9A230"/>
<path d="M47.4581 62.9846H0.91973V53.0515L23.821 32.0817C28.6956 27.483 31.6387 24.08 31.6387 19.7573C31.6387 15.8945 28.9715 13.0433 24.1889 13.0433C16.5551 13.0433 11.1287 17.8259 10.209 29.2305L0 21.0449C1.0117 8.53662 11.4966 0.442993 25.5685 0.442993C38.5367 0.442993 45.6186 7.8928 45.6186 18.9296C45.6186 28.5867 37.9848 36.0365 30.1671 41.7389L22.5334 47.7171L14.6237 52.7756L26.1203 51.304H47.4581V62.9846Z" fill="white"/>
</svg>
